<svg xmlns="http://www.w3.org/2000/svg" xmlns:xlink="http://www.w3.org/1999/xlink" width="512" height="512">
  <defs>
    <clipPath id="b">
      <path d="M0 0h600v300H0z"/>
    </clipPath>
    <clipPath id="c">
      <path d="M0 0l300 150H0zm300 0h300L300 150zm0 150h300v150zm0 0v150H0z"/>
    </clipPath>
    <g id="d">
      <g id="a">
        <path d="M0 0v.5L1 0z" transform="translate(0 -.325)"/>
        <path d="M0 0v-.5L1 0z" transform="rotate(-36 .5 -.1625)"/>
      </g>
      <use width="100%" height="100%" transform="scale(-1 1)" xlink:href="#a"/>
      <use width="100%" height="100%" transform="rotate(72)" xlink:href="#a"/>
      <use width="100%" height="100%" transform="rotate(-72)" xlink:href="#a"/>
      <use width="100%" height="100%" transform="scale(-1 1) rotate(72)" xlink:href="#a"/>
    </g>
  </defs>
  <path fill="#00247d" d="M0 85.3335h512v341.333H0z"/>
  <path stroke="#fff" stroke-width="60" d="M0 0l600 300M0 300L600 0" clip-path="url(#b)" transform="matrix(.42667 0 0 .56889 0 85.3335)"/>
  <path stroke="#cc142b" stroke-width="40" d="M0 0l600 300M0 300L600 0" clip-path="url(#c)" transform="matrix(.42667 0 0 .56889 0 85.3335)"/>
  <path stroke="#fff" stroke-width="100" d="M300 0v300M0 150h600" clip-path="url(#b)" transform="matrix(.42667 0 0 .56889 0 85.3335)"/>
  <path stroke="#cc142b" stroke-width="60" d="M300 0v300M0 150h600" clip-path="url(#b)" transform="matrix(.42667 0 0 .56889 0 85.3335)"/>
  <g>
    <g transform="matrix(.42667 0 0 .56889 0 85.3335)">
      <use width="100%" height="100%" fill="#fff" transform="matrix(45.4 0 0 45.4 900 120)" xlink:href="#d"/>
      <use width="100%" height="100%" fill="#cc142b" transform="matrix(30 0 0 30 900 120)" xlink:href="#d"/>
    </g>
    <g transform="scale(.42667 .56889) rotate(82 813.7221 315.0002)">
      <use width="100%" height="100%" fill="#fff" transform="rotate(-82 519.0221 -457.6658) scale(40.4)" xlink:href="#d"/>
      <use width="100%" height="100%" fill="#cc142b" transform="rotate(-82 519.0221 -457.6658) scale(25)" xlink:href="#d"/>
    </g>
    <g transform="scale(.42667 .56889) rotate(82 813.7221 315.0002)">
      <use width="100%" height="100%" fill="#fff" transform="rotate(-82 668.57 -327.6658) scale(45.4)" xlink:href="#d"/>
      <use width="100%" height="100%" fill="#cc142b" transform="rotate(-82 668.57 -327.6658) scale(30)" xlink:href="#d"/>
    </g>
    <g transform="matrix(.42667 0 0 .56889 0 85.3335)">
      <use width="100%" height="100%" fill="#fff" transform="matrix(50.4 0 0 50.4 900 480)" xlink:href="#d"/>
      <use width="100%" height="100%" fill="#cc142b" transform="matrix(35 0 0 35 900 480)" xlink:href="#d"/>
    </g>
  </g>
</svg>
