<svg xmlns="http://www.w3.org/2000/svg" xmlns:xlink="http://www.w3.org/1999/xlink" viewBox="0 0 360 240">
  <path fill="#c60b1e" d="M0-9.3e-7h360v240.00000138H0z"/>
  <path fill="#ffc400" d="M0 60.35087661h360v119.2982463H0z"/>
  <g stroke="#000" stroke-width="0">
    <g transform="matrix(.48 0 0 .47907 0 -9.3e-7)">
      <path fill="#ad1519" stroke="none" d="M168 222h-1l-1-1h-1v-1l-1-2 2-2h1l2-1h1l1-1h8l1 1h3l2 1 1 1 1 1v1l-1 1-1 1v1h-1l-8-1z"/>
      <g fill="#c8b100" stroke="none">
        <ellipse cx="176" cy="216" rx="1" ry="3"/>
        <ellipse cx="176" cy="216" rx="1" ry="2"/>
        <circle cx="176" cy="213" r="1"/>
        <path d="M177 213h-3 1v-3h1v1h1-1v2h1"/>
        <path fill="none" d="M176 212a1 1 0 1 1-1 0"/>
        <path d="M176 222h-5v-2l-1-2-3-3h1c1-1 3 1 5 4h5c2-3 4-5 6-4l-3 3v4z"/>
        <path fill="none" d="M168 215l4 4m12-4l-5 4"/>
      </g>
      <g id="a" fill="#c8b100">
        <path d="M169 224l-1-1 8-1 7 1v1l-1 1-6-1-7 1v-1"/>
        <path d="M176 227l6-1 1-1h-1l-6-1-7 1 1 1zm7-5h-1l-1-1h-4l-1-1-2 1h-3l-1 1h-2v1l8-1 7 1z"/>
        <path d="M176 219v1l1 1 1-1 1 1 2-1h-1 1v1l1 1 1-1 1 1 1-1-1 1-1 1v-1h-1l-1-1-2 1-1-1-1 1-1-1-2 1-1-1a2 2 0 0 1-2 0l-2 1-1 1-1-1-1-1h1l1 1v-1l1 1a1.118034 1.118034 0 0 0 1-2h1l1 1 1-1 1 1 1-1z"/>
        <path stroke-linejoin="round" d="M176 222l-8 1 8-1 7 1z"/>
        <path d="M165 221v-1h-1 2v1zm2-1v1h-1l1-1m-2 1h1zm3 0v-1l1 1zm1-1v1l1-1v-1h-1v1"/>
        <path d="M170 218h-1l1 2h1v-2h-1m2 1v1h-1v-1h1m1 1zm1-1v1l2-1h-2m2-2l-1 1v1h1l1-1-1-1m2 2l-1 1-1-1h2m1 1h-1zm0-1v1h2v-1h-2"/>
        <path d="M181 218h1l-1 2v-1l-1-1h1"/>
        <path d="M183 220l-1 1-1-1v-1h1l1 1m0 1v-1zm3 0v-1zm-2-1v1h2l-2-1m2 1h-1z"/>
      </g>
      <g id="b" fill="none">
        <path fill="#ad1519" d="M168 224h1-1"/>
        <path fill="#058e6e" d="M171 224h-1v-1h2v1h-1"/>
        <path fill="#ad1519" d="M176 223h-2 3-1"/>
        <path fill="#058e6e" d="M181 224h1l-1-1h-1v1"/>
        <path fill="#ad1519" d="M183 224h-1 1"/>
        <path fill="#ad1519" stroke-linejoin="round" d="M176 226h-7a27 27 0 0 1 13 0z"/>
        <path d="M177 226v-1m-1 1v-1m0 1v-1m-1 1v-1m0 1v-1m0 1v-1m-1 1v-1m0 1v-1m0 1v-1m0 1v-1m-1 1v-1m0 1v-1m-1 1v-1m1 1v-1m0 1v-1m-1 1v-1m0 1v-1m0 1v-1m-1 1v-1m0 1v-1m0 1v-1m0 1v-1m0 1v-1m-1 1v-1m0 1v-1"/>
      </g>
      <g id="c">
        <g fill="#005bbf">
          <path d="M191 331l-4-1-4-1-3 1-4 1-4-1-4-1-4 1-4 1v2l4-1 4-1 4 1 4 1 4-1 3-1 4 1 4 1z"/>
          <path fill="#ccc" d="M191 333l-4-1-4-1-3 1-4 1-4-1-4-1-4 1-4 1v2h4l4-1 4 1 4 1 4-1 3-1 4 1h4v-2"/>
          <path d="M191 336l-4-1-4-1-3 1h-8l-4-1-4 1-4 1v2l4-1 4-1 4 1 4 1 4-1 3-1 4 1 4 1v-3"/>
          <path fill="#ccc" d="M191 340l-4-1h-7l-4 1-4-1h-8l-4 1v-2l4-1 4-1 4 1 4 1 4-1 3-1 4 1 4 1v2"/>
          <path d="M191 343l-4-1-4-1-3 1-4 1-4-1-4-1-4 1-4 1v-3l4-1h8l4 1 4-1h7l4 1z"/>
        </g>
        <g fill="#c8b100">
          <path stroke-linejoin="round" d="M167 321c0 2-1 3-3 3h23c-1 0-3-1-3-3z"/>
          <path d="M167 319h17l1 1-1 1h-17l-1-1zm-3 11h23v-6h-23z"/>
        </g>
        <path fill="#ccc" d="M168 318h16v-79h-16z"/>
        <path fill="none" d="M179 239v79m2-79v79"/>
        <g fill="#c8b100">
          <path d="M165 232h22v-5h-22z"/>
          <path stroke-linejoin="round" d="M167 236h17l-1-1 2-1h-18l1 1z"/>
          <path d="M167 236h17l1 1-1 1h-17l-1-1zm0-4h17l1 1-1 1h-17l-1-1z"/>
        </g>
      </g>
      <g id="d" fill="#ad1519">
        <path d="M162 299l-3 3 2 2 2 4a6 6 0 0 0-1-9z"/>
        <path stroke-linejoin="round" d="M200 268a52 52 0 0 0-24-2c-10 2-17 6-16 9l-4-8c-1-4 7-8 18-10l10-1c7 0 13 1 16 3v9"/>
        <path d="M168 278c-5 0-8-1-8-3-1-1 1-3 4-5l4 1v7m16-6l6 2v1c0 1-2 3-6 5v-8"/>
        <path stroke-linejoin="round" d="M157 294c0-1 4-4 11-6l8-4c8-3 15-8 14-9v-1l1 9c1 1-5 5-13 9l-10 4c-5 2-9 5-9 6z"/>
      </g>
      <path fill="#ad1519" stroke="none" d="M325 220l-1 1h-4l-1 1h-3l-1-1-1-1v-1l3-2h16c2 1 3 1 2 2v2h-1v1h-3l-1-1h-4z"/>
      <g fill="#c8b100" stroke="none">
        <ellipse cx="325" cy="216" rx="1" ry="2"/>
        <ellipse cx="325" cy="216" rx="1" ry="2"/>
        <circle cx="325" cy="214" r="1"/>
        <path d="M326 214h-2 1v-2h-1 1v-1 1h1-1v2h1"/>
      </g>
      <path fill="none" stroke="none" d="M314 220v-1c0-2 1-3 3-3h1m1 2v-1c0-1 1-2 3-2h1m7 3v-1l-2-2h-2m9 5v-1c0-2-1-3-2-3h-2"/>
      <use width="100%" height="100%" x="149" xlink:href="#a"/>
      <use width="100%" height="100%" x="149" xlink:href="#b"/>
      <use width="100%" height="100%" x="149" xlink:href="#c"/>
      <use width="100%" height="100%" transform="matrix(-1 0 0 1 501 0)" xlink:href="#d"/>
      <path fill="#c8b100" stroke="none" d="M166 265c2-1 4-2 3-3 0-1-1-2-3-1l-3 1 3 6h1v-1zm-1-3l1-1 1 1v2h-1l-1-2m8-3h-1l-1 1 1 6 5-1v-1l-3 1-1-6m9 6l2-7h-1l-2 5-2-5h-2l4 7h1m9-5v-1l-2-1-3 2c0 2 4 2 4 4h-2l-1-1h-1v1l2 1c2 0 3-1 3-2 0-2-3-2-3-3l1-1 2 1m119 5l2-7h-1l-1 5-3-4h-2l4 6h1m6-7h-1v7h4v-1h-3v-6m8 1l2 1v-1l-6-1v1h2l-1 6h2l1-6m2 7h2v-3h1v1l1 2 1 1h1v-1l-2-3 3-1-1-2h-2l-2-1-2 7m3-6l2 1v1l-2 1v-3m9 7l-1 3h1l1 1 1-8a8 8 0 0 1-1 0l-7 4h1l2-1zm-2-1l2-2v3l-2-1"/>
    </g>
    <path fill="#ad1519" stroke="none" d="M119.53125 87.71929782l8.4375 1.40350878 3.515625.70175439H135l4.921875 1.40350878 4.21875 2.10526317-.703125.70175439-.703125 2.10526317-2.109375 2.10526317-.703125 1.40350878-2.8125 2.10526317h-.703125l-.703125.70175439-15.46875-1.40350878-16.171875 1.40350878-.703125-.70175439h-.703125l-2.8125-2.10526317-.703125-1.40350878-2.109375-2.10526317v-2.10526317l-1.40625-.70175439 4.21875-2.10526317 4.921875-1.40350878a16.171875 16.14035097 0 0 0 7.03125-.70175439z"/>
    <g fill="#c8b100" stroke="none" transform="matrix(.48 0 0 .47907 0 -9.3e-7)">
      <path d="M225 191l2 2 2-4a8 8 0 0 1-4-7c0-5 6-8 12-8l9 2v-2l-9-2c-7 0-13 5-14 10v1c0 2 1 5 3 7l-1 1"/>
      <path d="M225 191c-2-2-4-4-4-7 0-4 2-7 6-9a9 9 0 0 0-4 8c0 2 1 5 3 7l-1 1"/>
      <path d="M202 195a9 9 0 0 1-1-10c2-5 9-8 17-8l6 1-1 1h-6c-7 0-13 3-15 7v3l2 6-2 4-2-1z"/>
      <path d="M205 180l-4 5a9 9 0 0 0 1 10l-1 2c-2-1-3-4-3-6 0-4 3-8 7-11zm45-9c2 0 3 1 4 3v6l1 8-5 5-5-5 1-8v-6c1-2 2-3 4-3z"/>
      <path d="M250 173l2 1v6l2 8-4 3-4-3 2-8v-6zm25 18l-2 2-2-4a8 8 0 0 0 4-7c0-5-6-8-12-8l-9 2v-2l9-2c7 0 14 5 14 10v1c0 2-1 5-3 7l1 1"/>
      <path d="M275 191c2-2 4-4 4-7 0-4-2-7-6-9a9 9 0 0 1 4 8c0 2-1 5-3 7l1 1"/>
      <path d="M298 195a9 9 0 0 0 1-10c-2-5-9-8-16-8l-7 1 1 1h6c7 0 13 3 15 7v3l-2 6 2 4 2-1z"/>
      <path d="M295 180l4 5a9 9 0 0 1-1 10l1 2c2-1 3-4 3-6 0-4-3-8-7-11z"/>
      <circle cx="250" cy="167" r="4" fill="#005bbf"/>
      <path d="M249 156v2h-3v2h3v7h-3v2h8v-2h-3v-7h3v-2h-3v-2z"/>
    </g>
    <g fill="#fff" stroke="none" transform="matrix(.48 0 0 .47907 0 -9.3e-7)">
      <circle cx="250" cy="189" r="2"/>
      <circle cx="250" cy="185" r="2"/>
      <ellipse cx="250" cy="182" rx="2" ry="1"/>
      <circle cx="250" cy="178" r="1"/>
      <circle cx="250" cy="175" r="1"/>
      <circle cx="199" cy="199" r="1"/>
      <circle cx="197" cy="196" r="1"/>
      <circle cx="196" cy="193" r="1"/>
      <circle cx="196" cy="190" r="1"/>
      <circle cx="197" cy="186" r="1"/>
      <circle cx="199" cy="183" r="1"/>
      <circle cx="201" cy="181" r="1"/>
      <circle cx="204" cy="179" r="1"/>
      <circle cx="207" cy="177" r="1"/>
      <circle cx="210" cy="176" r="1"/>
      <circle cx="214" cy="176" r="1"/>
      <circle cx="217" cy="175" r="1"/>
      <circle cx="220" cy="175" r="1"/>
      <circle cx="224" cy="190" r="1"/>
      <circle cx="222" cy="188" r="1"/>
      <circle cx="221" cy="185" r="1"/>
      <circle cx="221" cy="182" r="1"/>
      <circle cx="222" cy="178" r="1"/>
      <circle cx="224" cy="175" r="1"/>
      <circle cx="226" cy="173" r="1"/>
      <circle cx="229" cy="172" r="1"/>
      <circle cx="233" cy="171" r="1"/>
      <circle cx="236" cy="170" r="1"/>
      <circle cx="240" cy="170" r="1"/>
      <circle cx="243" cy="171" r="1"/>
      <circle cx="246" cy="172" r="1"/>
      <circle cx="254" cy="172" r="1"/>
      <circle cx="257" cy="171" r="1"/>
      <circle cx="261" cy="170" r="1"/>
      <circle cx="264" cy="170" r="1"/>
      <circle cx="267" cy="171" r="1"/>
      <circle cx="271" cy="172" r="1"/>
      <circle cx="274" cy="173" r="1"/>
      <circle cx="276" cy="175" r="1"/>
      <circle cx="278" cy="178" r="1"/>
      <circle cx="279" cy="182" r="1"/>
      <circle cx="279" cy="185" r="1"/>
      <circle cx="278" cy="188" r="1"/>
      <circle cx="276" cy="190" r="1"/>
      <circle cx="280" cy="175" r="1"/>
      <circle cx="283" cy="175" r="1"/>
      <circle cx="286" cy="176" r="1"/>
      <circle cx="290" cy="176" r="1"/>
      <circle cx="293" cy="177" r="1"/>
      <circle cx="296" cy="179" r="1"/>
      <circle cx="299" cy="181" r="1"/>
      <circle cx="301" cy="183" r="1"/>
      <circle cx="303" cy="186" r="1"/>
      <circle cx="304" cy="190" r="1"/>
      <circle cx="304" cy="193" r="1"/>
      <circle cx="303" cy="196" r="1"/>
      <circle cx="301" cy="199" r="1"/>
    </g>
    <g fill="#c8b100" stroke="none" transform="matrix(.48 0 0 .47907 0 -9.3e-7)">
      <path d="M250 226c-12 0-23-1-31-4l-1-1 1-1c8-2 19-4 31-4s23 2 31 4l1 1-1 1c-8 3-19 4-31 4"/>
      <path d="M250 216c-12 0-23 2-31 4l-1-3-2-3c9-2 21-4 34-4 14 0 26 2 34 4l-2 3v3c-8-2-20-4-32-4"/>
      <path d="M250 210c-13 0-25 2-34 4h-1v-1a126 126 0 0 1 70 0l1 1h-2c-8-2-20-4-34-4"/>
      <path d="M250 200h1v2c0 2 2 4 5 4 2 0 4-1 5-3v-2l1 2c0 3 2 4 5 4a5 5 0 0 0 4-5l2-2 1 2-1 2c0 3 2 5 5 5l4-2 1-1v1c0 2 1 3 2 3l4-1 4-4v2l-4 4c-1 1-3 2-4 1-2 0-3-1-3-2l-4 1c-3 0-5-2-6-4l-5 2c-3 0-5-1-6-3-1 2-3 2-5 2s-5-1-6-3c-1 2-3 3-6 3-2 0-3 0-5-2a7 7 0 0 1-10 1c-1 2-4 4-7 4l-3-1-3 2c-2 1-3 0-5-1l-4-4 1-2 3 4 4 1c2 0 2-1 2-3v-1l1 1 4 2c3 0 5-2 5-5v-4l2 2c0 3 2 5 5 5 2 0 4-1 5-4v-2l1 2c0 2 2 3 4 3a5 5 0 0 0 5-6h1"/>
      <path d="M208 206v-1h-3l-2-3h-4c0-2 2-3 3-3l3 1v-1l2 2v4l1-2 2-2h2v1l3 1-2 2a13 13 0 0 0 1 1h-1l-3 1-2-1"/>
      <path fill="#ad1519" d="M205 205h3v2h-2l-1-2"/>
      <path fill="#fff" d="M216 206l1-2 2 1-1 2-2-1"/>
      <path d="M226 202l-1-1 1-1-2-1h-4a6 6 0 0 0 1 1l-3 2 4 1-1 1h1l3-1 1-1m0-10c1 0 2 1 2 3l1-1h1v1l-1 2v2h-2l-1 1-2-2-1-2v-1h2l1-3m3 9a2 2 0 0 0 0-2l1-1 2-1 1-1v2l4 1-3 2a6 6 0 0 0 0 1h-3l-2-1"/>
      <circle cx="227" cy="200" r="2" fill="#ad1519"/>
      <path fill="#fff" d="M238 202l1-2 1 2-1 1-1-1"/>
      <path d="M249 200l-1-1v-2l-1-1-3-1h-1a6 6 0 0 0 0 2l-3 2 3 1v2h1l3-1 2-1m1-12l2 4h1l1-1v2l-1 2-1 2a2 2 0 0 0-4 0l-1-2v-2l-1-2 1 1h1l2-4m2 12a2 2 0 0 0 0-3l2-1 2-1h2l-1 1v1l4 2-4 1a7 7 0 0 0 1 2h-2l-2-1-2-1"/>
      <circle cx="250" cy="199" r="2" fill="#ad1519"/>
      <path fill="#fff" d="M263 202l-1-2-2 2 1 1 2-1"/>
      <path d="M271 201v-1l1-1-2-1-2-1-1-1v2l-3 1 3 2-1 1h4l1-1m4-9l-3 3v-1h-1v3l1 2a2 2 0 0 1 3 1l1-2 1-2 1-1h-2l-1-3m-1 10a2 2 0 0 0 1-2l2-1h3l-1 1c2 0 3 1 3 2l-3 1v1h-1l-2-1-2-1"/>
      <circle cx="273" cy="200" r="2" fill="#ad1519"/>
      <path fill="#fff" d="M284 206l-1-2-1 1v2l2-1"/>
      <path d="M292 206l1-1h2l3-3h3c0-2-1-3-3-3l-2 1-1-1-2 2v2l-3-2h-1v1l-4 1 3 2-1 1h-1 2l2 1 2-1"/>
      <path fill="#ad1519" d="M295 205h-2l-1 2h3v-2"/>
    </g>
    <g fill="none">
      <path fill="#ad1519" stroke="none" d="M120.234375 108.07017513c-5.625 0-10.546875-.70175439-14.0625-2.10526317l14.0625-1.40350878 13.359375 1.40350878c-3.515625 1.40350878-8.4375 2.10526317-13.359375 2.10526317z"/>
      <path stroke="none" d="M123.75 107.36842074v-2.80701756m-1.40625 3.50877195v-3.50877195m-.703125 3.50877195v-3.50877195m-1.40625 3.50877195v-3.50877195m-.703125 3.50877195v-3.50877195m-.703125 3.50877195v-3.50877195m-.703125 3.50877195v-3.50877195m-.703125 3.50877195v-3.50877195m-1.40625 2.80701756v-2.80701756m.703125 2.80701756v-2.80701756m-2.109375 2.80701756v-2.10526317m.703125 2.10526317v-2.80701756m-2.109375 2.80701756v-2.10526317m0 2.10526317v-2.10526317m.703125 2.10526317v-2.10526317M112.5 107.36842074v-2.10526317"/>
      <path stroke-width="1" d="M233 223v-4m-1 4v-4m-3 4v-3m2 3v-4m-3 4v-3m-1 2v-2m-2 2v-2m-1 2v-1m-1 1v-1" transform="matrix(.48 0 0 .47907 0 -9.3e-7)"/>
      <path stroke="none" d="M105.46875 106.66666635a56.25 56.1403512 0 0 1 28.828125 0"/>
      <path fill="#ad1519" stroke="none" d="M104.0625 104.56140318l.703125-1.40350878 1.40625.70175439-1.40625.70175439h-.703125"/>
      <path fill="#fff" stroke="none" d="M107.578125 103.1578944h.703125v.70175439l-.703125-.70175439"/>
      <path fill="#058e6e" stroke="none" d="M111.796875 103.1578944h-1.40625l.703125-.70175439h2.8125l-.703125.70175439h-1.40625"/>
      <path fill="#fff" stroke="none" d="M115.3125 102.45614001l.703125-.70175439.703125.70175439-.703125.70175439-.703125-.70175439"/>
      <path fill="#ad1519" stroke="none" d="M120.234375 103.1578944h-1.40625l-.703125-.70175439.703125-.70175439h2.8125l.703125.70175439-.703125.70175439h-1.40625"/>
      <path fill="#fff" stroke="none" d="M123.75 102.45614001l.703125-.70175439v1.40350878l-.703125-.70175439"/>
      <path fill="#058e6e" stroke="none" d="M127.96875 103.1578944h1.40625v-.70175439h-2.8125v.70175439h1.40625"/>
      <path fill="#fff" stroke="none" d="M131.484375 103.1578944h1.40625l-.703125.70175439-.703125-.70175439"/>
      <path fill="#ad1519" stroke="none" d="M136.40625 104.56140318l-.703125-1.40350878-2.109375.70175439 1.40625.70175439h1.40625"/>
    </g>
    <g stroke-width="1">
      <path fill="#ccc" d="M250 344c-13 0-26-3-36-8-8-4-14-12-14-21v-34h101v34c0 9-6 17-14 21-11 5-23 8-37 8z" transform="matrix(.48 0 0 .47907 0 -9.3e-7)"/>
      <path fill="#ffd691" d="M253 330c2 0 3 2 3 4s-2 4-5 4-6-2-6-4 1-4 3-4v-2h1l1 1v-1h1l1 1v-1h1v2" transform="matrix(.48 0 0 .47907 0 -9.3e-7)"/>
      <path fill="#058e6e" d="M250 340l-5-3h-6l2 2 3 2 6-1m1 1s3-3 6-3h6l-1 1c-1 0-2 2-5 2l-5-1-1 1" transform="matrix(.48 0 0 .47907 0 -9.3e-7)"/>
      <path fill="#ad1519" d="M251 337a5 5 0 0 1 0-7 5 5 0 0 1 0 7" transform="matrix(.48 0 0 .47907 0 -9.3e-7)"/>
      <path fill="#058e6e" d="M250 343v-5h1v4h-1v1" transform="matrix(.48 0 0 .47907 0 -9.3e-7)"/>
      <g fill="#c8b100">
        <path fill="#ad1519" d="M250 315c0 13-11 23-25 23s-25-10-25-23v-34h50v34" transform="matrix(.48 0 0 .47907 0 -9.3e-7)"/>
        <path d="M200 314c0 7 3 12 6 16v-50h-6zm11 20l6 3v-57h-6zm11 4h6v-58h-6zm11-1c3 0 5-2 6-3v-54h-6zm12-8c2-2 5-7 5-13l1-36h-6z" transform="matrix(.48 0 0 .47907 0 -9.3e-7)"/>
      </g>
      <g transform="matrix(.48 0 0 .47907 0 -9.3e-7)">
        <path fill="#ad1519" d="M301 281v34c0 13-12 23-26 23-13 0-25-10-25-23v-34h51"/>
        <path id="e" fill="#c8b100" stroke="#c8b100" stroke-width="0" d="M273 306l-4-5-2 1-3-4 1-1-5-6h-1v4h2v5h-2v4l2 2h3l1-2h4l1 2zm-7-18v1h2v-1zm-8 20l2-1-2-1-1 1zm16-10h-1v-5h1v-2l-1-2h-3l-1 2h-4l-1-2h-3v1l5 6 2-1 3 4-1 1 4 5v-1zm-7-1l-1 1 2 2 1-1zm8 36l-2-2-5-1 1-2 4 1 1-1v-6h-1v-5h1v-8l-4 5 1 1-3 4-1-1-4 3v3l3 3v2l-4-4h-3v-4l-1-5h1l1 4h2l3-3-1-2 3-3 2 1 4-5h-3l-1 1h-4l-1-1h-3l-2 1v4h-1v-4c-2 0-2-1-2-2l2-3v-4h-2v-5h2v-4c-1 0-2-1-2-3 0-1 1-2 3-2l2 2h3l1-2h4l1 2h3l2-2v8h-1v3h1v21h-1v3h1zm-6-18l-1-1-2 2 1 1zm-10-19h-1v3h1zm9 12v-2h-2v2zm-10 9h-2v-4l2-1zm1-5h2v5h-1l-1-2zm11 17l1-2-5-2-1 1zm-1 1l-1 1-4-2v-1z"/>
        <use width="100%" height="100%" transform="matrix(-1 0 0 1 550 0)" xlink:href="#e"/>
        <path fill="#058e6e" stroke="none" d="M273 307c0-2 1-3 2-3 2 0 3 1 3 3 0 1-1 3-3 3l-2-3"/>
      </g>
      <g fill="#c8b100" stroke-width="0">
        <path fill="#ad1519" stroke-width="1" d="M200 281h50v-55h-50z" transform="matrix(.48 0 0 .47907 0 -9.3e-7)"/>
        <path stroke="none" d="M104.0625 114.38596464v-.70175439h-.703125v2.10526317h.703125v1.40350878h-2.109375v3.50877195h1.40625v7.0175439H101.25V131.22807h14.0625v-3.50877195h-2.109375v-7.0175439h.703125v-3.50877195H112.5v-1.40350878h.703125v-2.10526317H112.5v.70175439h-.703125v-.70175439h-.703125v.70175439h-.703125v-.70175439h-.703125v2.10526317h.703125v1.40350878h-1.40625v-4.21052634h.703125v-1.40350878h-3.515625v1.40350878h1.40625v4.21052634h-2.109375v-1.40350878h.703125v-2.10526317h-.703125v.70175439-.70175439h-1.40625zM101.25 131.22807h14.0625m-14.0625-.70175439h14.0625m-14.0625-.70175439h14.0625m-14.0625-1.40350878h14.0625m-14.0625-.70175439h14.0625m-11.953125-.70175439h9.84375m-9.84375-1.40350878h9.84375m-9.84375-.70175439h9.84375m-9.84375-.70175439h9.84375m-9.84375-.70175439h9.84375m-9.84375-1.40350878h9.84375m-9.84375-.70175439h9.84375m-11.25-.70175439h11.953125m-11.953125-.70175439h11.953125m-11.953125-1.40350878h11.953125m-11.953125-.70175439h11.953125m-9.84375-.70175439H112.5m-4.921875-1.40350878h1.40625m-1.40625-.70175439h1.40625m-1.40625-.70175439h1.40625m-1.40625-.70175439h1.40625m-2.8125-1.40350878h3.515625m-5.625 3.50877195h1.40625m-2.109375-.70175439h2.8125m-2.8125 16.14035097v-.70175439m0-.70175439v-1.40350878m-1.40625 1.40350878v.70175439m2.109375 0v-.70175439m.703125 1.40350878v-.70175439m0-.70175439v-1.40350878m0-.70175439v-.70175439m0-1.40350878v-.70175439m-.703125 3.50877195v-.70175439m-2.109375.70175439v-.70175439m3.515625 0v.70175439m.703125-.70175439v-.70175439m-2.109375-1.40350878v1.40350878m1.40625-1.40350878v1.40350878m2.109375-1.40350878v1.40350878m-1.40625-1.40350878v-.70175439m1.40625-.70175439v.70175439m0-2.80701756v1.40350878m-1.40625-2.10526317v.70175439m1.40625-1.40350878v.70175439m-2.109375-.70175439v.70175439m-1.40625-.70175439v.70175439m-.703125-1.40350878v.70175439m1.40625-.70175439v.70175439m1.40625-.70175439v.70175439m1.40625-2.10526317v1.40350878m-2.109375-1.40350878v1.40350878m-1.40625-1.40350878v1.40350878m-.703125-2.10526317v.70175439m2.8125-.70175439v.70175439m-1.40625-2.80701756v1.40350878M112.5 115.78947342h-2.109375m2.8125-.70175439H109.6875m3.515625 16.14035097v-.70175439m0-.70175439v-1.40350878m.703125 1.40350878v.70175439m-1.40625 0v-.70175439m-.703125 1.40350878v-.70175439m0-.70175439v-1.40350878m0-.70175439v-.70175439m0-1.40350878v-.70175439m.703125 3.50877195v-.70175439m1.40625.70175439v-.70175439m-3.515625 0v.70175439m-.703125-.70175439v-.70175439m2.8125-1.40350878v1.40350878m-2.109375-1.40350878v1.40350878m-1.40625-1.40350878v1.40350878m.703125-1.40350878v-.70175439m-.703125-.70175439v.70175439m0-2.80701756v1.40350878m.703125-2.10526317v.70175439m-.703125-1.40350878v.70175439m1.40625-.70175439v.70175439m2.109375-.70175439v.70175439m.703125-1.40350878v.70175439m-1.40625-.70175439v.70175439m-2.109375-.70175439v.70175439m-.703125-2.10526317v1.40350878m1.40625-1.40350878v1.40350878M112.5 118.59649098v1.40350878m.703125-2.10526317v.70175439m-3.515625-.70175439v.70175439m2.109375-2.80701756v1.40350878m-3.515625 8.42105268v-.70175439m0-2.80701756v-.70175439m0 2.80701756v-.70175439m0-2.80701756v-.70175439m0-1.40350878v-.70175439m0-2.10526317v-.70175439m0-.70175439v-.70175439m-4.21875 2.10526317h1.40625m2.109375-2.80701756h1.40625m1.40625 2.80701756H112.5"/>
        <path stroke="none" d="M110.390625 131.22807v-2.10526317c0-.70175439 0-2.10526317-2.109375-2.10526317s-2.109375 1.40350878-2.109375 2.10526317V131.22807z"/>
        <path stroke="none" d="M106.875 129.12280683h-1.40625l.703125-1.40350878.703125.70175439zm1.40625-1.40350878l.703125-.70175439H106.875l.703125.70175439zm1.40625 1.40350878h1.40625l-.703125-1.40350878-1.40625.70175439zm-3.515625-4.21052634v-2.10526317l-.703125-1.40350878-1.40625 1.40350878v2.10526317zm3.515625 0v-2.10526317l1.40625-1.40350878 1.40625 1.40350878v2.10526317zm-4.21875-5.61403512v-2.10526317h-2.109375l.703125 2.10526317zm3.515625 0v-2.10526317H106.875v2.10526317zm1.40625 0v-2.10526317H112.5v2.10526317z"/>
        <path fill="#0039f0" stroke="none" d="M109.6875 131.22807v-2.10526317s0-1.40350878-1.40625-1.40350878-1.40625 1.40350878-1.40625 1.40350878V131.22807zm-3.515625-6.31578951v-2.10526317l-.703125-1.40350878-1.40625 1.40350878v2.10526317zm4.21875 0v-2.10526317l.703125-1.40350878.703125 1.40350878v2.10526317z"/>
      </g>
      <path fill="#ccc" d="M250 281h51v-55h-51z" transform="matrix(.48 0 0 .47907 0 -9.3e-7)"/>
      <path fill="#db4446" stroke="none" d="M132.1875 115.08771903v-.70175439h-.703125l-1.40625-.70175439-.703125-.70175439-1.40625.70175439h1.40625l.703125.70175439 1.40625.70175439z"/>
      <g fill="none" stroke="none" stroke-width="0">
        <path fill="#ed72aa" d="M136.40625 113.68421025v.70175439l-.703125.70175439.703125.70175439h-.703125a1682.578125 1679.29825527 0 0 0 0 .70175439l.703125.70175439v.70175439l-.703125-.70175439v1.40350878H135v-.70175439 2.10526317l-.703125-.70175439v.70175439L135 122.10526293l2.8125 1.40350878c1.40625-.70175439.703125-2.80701756.703125-3.50877195l-.703125-2.10526317.703125-2.10526317V113.68421025l.703125-.70175439v-.70175439 1.40350878l.703125-.70175439 1.40625-.70175439v-.70175439l-.703125 1.40350878-.703125 1.40350878.703125-.70175439h.703125l-.703125.70175439-.703125 1.40350878-.703125.70175439-.703125 2.10526317 1.40625 2.80701756-.703125 2.80701756h-2.109375l-.703125 1.40350878.703125 1.40350878h.703125v.70175439l.703125.70175439-.703125.70175439-.703125 1.40350878.703125.70175439h-1.40625v-.70175439.70175439H135l.703125-.70175439L135 129.82456122v-.70175439h1.40625v-.70175439l-.703125-.70175439v.70175439H135v-.70175439.70175439h-.703125v-.70175439l-.703125-.70175439v-.70175439l.703125-.70175439h-1.40625v3.50877195h-.703125l-.703125-.70175439h-1.40625v.70175439h-1.40625l.703125-.70175439h-.703125l-.703125-.70175439h.703125v-1.40350878h.703125v.70175439h2.109375v-.70175439h-.703125v-.70175439.70175439l-.703125-.70175439v-1.40350878l1.40625-.70175439h2.109375l-1.40625-.70175439-1.40625-1.40350878v-.70175439h-.703125l-.703125.70175439v-.70175439l-.703125 1.40350878h-.703125v-.70175439l-.703125.70175439h-.703125v.70175439h-.703125s-.703125 0 0 0v-.70175439h-.703125v-.70175439h.703125l-.703125-.70175439.703125-.70175439v.70175439h1.40625l.703125-.70175439.703125-.70175439h-.703125l-.703125-.70175439h-.703125l-.703125-.70175439-.703125-.70175439h1.40625l-.703125-.70175439h-.703125v-.70175439l-.703125.70175439v-1.40350878h.703125l-.703125-.70175439s-.703125 0 0 0l.703125-.70175439v.70175439l.703125-.70175439v-.70175439.70175439h.703125V115.78947342h1.40625l.703125.70175439h2.109375l.703125-.70175439h-.703125l.703125-.70175439h.703125v-1.40350878h-1.40625v-.70175439h.703125l1.40625-.70175439.703125-.70175439L135 112.98245586l1.40625.70175439"/>
        <path d="M129.375 116.49122781l-.703125.70175439v.70175439l.703125-.70175439.703125.70175439v-.70175439 2.10526317l1.40625-.70175439v1.40350878l.703125-.70175439h.703125v-.70175439.70175439l.703125.70175439v-1.40350878l.703125.70175439m-5.625 0l.703125-.70175439h.703125m.703125 2.10526317h.703125v-.70175439m4.21875-4.21052634v-.70175439H135m-1.40625 8.42105268l.703125 1.40350878v.70175439"/>
      </g>
      <path stroke="none" d="M130.78125 113.68421025v-.70175439h.703125zm2.109375-.70175439v-.70175439l.703125.70175439s.703125 0 0 0z"/>
      <path stroke="none" stroke-width="0" d="M130.78125 115.08771903h.703125-.703125m.703125 0h.703125-.703125m0-1.40350878h.703125v.70175439l-.703125-.70175439"/>
      <path fill="#db4446" stroke="none" stroke-width="0" d="M125.859375 112.98245586v.70175439h.703125v-.70175439l-.703125-.70175439zm-1.40625.70175439h-1.40625.703125v.70175439h.703125zm-.703125 1.40350878v.70175439l-.703125.70175439.703125-.70175439h.703125zm1.40625 4.91228073h-.703125v.70175439h.703125zm0 1.40350878l-.703125.70175439H123.75h1.40625zm.703125 1.40350878v.70175439l.703125-.70175439zm3.515625 3.50877195h-1.40625.703125zm-1.40625 1.40350878h-.703125v.70175439h.703125zm1.40625 1.40350878l-.703125.70175439h.703125l.703125-.70175439zm5.625.70175439h-.703125l.703125.70175439zm0 1.40350878v.70175439h.703125V131.22807zm1.40625 0l.703125.70175439V131.22807z"/>
      <g fill="#c8b100" stroke="none" stroke-width="0">
        <path d="M135.703125 111.57894708H135s-.703125 0 0 0v-.70175439h-.703125v.70175439l-.703125-.70175439v.70175439L135 112.98245586l1.40625.70175439h.703125l-.703125-.70175439v-.70175439l-.703125.70175439v-.70175439z"/>
        <path fill="#000" d="M135 112.28070147zm-.703125-.70175439c0 .70175439 0 .70175439 0 0m-.703125 0h.703125zm2.109375 1.40350878zm0 0h.703125-.703125m.703125.70175439z"/>
        <path d="M134.296875 110.87719269H135h-.703125m.703125.70175439v-.70175439.70175439m-.703125-.70175439H135s0 .70175439 0 0zm-.703125 0v-.70175439zm.703125 0h-.703125v-.70175439h.703125v.70175439m-.703125 0v-.70175439zm2.8125.70175439h-.703125.703125m-.703125 0H135h.703125m.703125.70175439h-.703125v-.70175439h.703125v.70175439m-.703125-.70175439zm1.40625.70175439h-.703125.703125m0 .70175439l-.703125-.70175439.703125.70175439m-.703125 0l.703125-.70175439h-.703125zm.703125.70175439h.703125v-.70175439.70175439z"/>
        <path d="M137.109375 112.98245586v.70175439h.703125l-.703125-.70175439m0 .70175439z"/>
      </g>
      <g transform="matrix(.48 0 0 .47907 0 -9.3e-7)">
        <ellipse cx="250" cy="281" fill="#ad1519" rx="16" ry="18"/>
        <ellipse cx="250" cy="281" fill="#005bbf" rx="11" ry="13"/>
        <g id="f" fill="#c8b100" stroke-width="0">
          <path stroke-linejoin="round" d="M245 272l-1 3v2l-1-1-2 2h1v1h1l1 1h-1v1h1l-1 2 1-1 1 1 1-1 1 1-1-2h1v-1h-1l1-1h1l1-1-2-2-1 1v-2z"/>
          <path d="M243 281h4v-1h-4z"/>
        </g>
        <use width="100%" height="100%" x="11" xlink:href="#f"/>
        <use width="100%" height="100%" x="5" y="9" xlink:href="#f"/>
      </g>
    </g>
  </g>
</svg>
