<svg xmlns="http://www.w3.org/2000/svg" viewBox="0 0 110 18">
  <path fill="#fee300" fill-rule="evenodd" d="M12.010265 5.48016h85.979469v7.0396533H12.010265z"/>
  <g stroke-width=".27716264" font-family="Noto Sans" font-size="54.41492462" font-weight="700" letter-spacing="0" word-spacing="0">
    <g fill="#ccc" aria-label="MIXED" style="line-height:1.25;-inkscape-font-specification:'Noto Sans Bold'">
      <path d="M26.49431977 17.3248513l-3.8833914-12.64355626h-.09028633q.02240561.45155617.06771475 1.35466437.04514317.90311235.09032783 1.94169155.04514317 1.01599931.04514317 1.85137616v7.49582418H19.675834V1.20431665h4.65103274l3.81563515 12.32746694h.06771475l4.04143398-12.32746694h4.65103273V17.3248513h-3.1834648V9.69356027q0-.7676455.02240562-1.76106493.04514317-.99342358.06771476-1.87395604.04518466-.90311235.06775624-1.35466853h-.09032783l-4.1542919 12.62098053zM47.00305267 17.3248513h-7.3377982v-1.94169154l1.96426728-.9031082V4.0491164l-1.96426728-.90311235v-1.9416874h7.3377982v1.9416874l-1.96426728.90311235v10.43093516l1.96426728.9031082zM62.7775201 17.3248513h-3.90596297l-3.74792039-6.09600004-3.74792039 6.09600004H47.7181238l5.35095932-8.3086253-5.01230257-7.81190935h3.77049198l3.47697838 5.80249061 3.40926364-5.8024906h3.68016414l-5.05740425 7.99253182zM74.11086226 17.3248513h-9.2794939V1.20431665h9.2794939v2.79964413H68.240632v3.54470974h5.46381725v2.79964413H68.240632v4.15431264h5.87023026zM90.85333535 9.10653724q0 4.0865813-2.32549562 6.16373555-2.30296553 2.05457851-6.47982902 2.05457851h-4.5607049V1.20431665h5.05740425q2.52872287 0 4.38009073.90311235 1.87393945.9031082 2.88995121 2.66417728 1.03858335 1.73848919 1.03858335 4.33493096zm-3.54473463.09031124q0-2.68675301-1.17401286-3.92853041-1.17405435-1.26435729-3.40926363-1.26435729h-1.82879628v10.49866651h1.46756794q4.94450483 0 4.94450483-5.30577881z" style="-inkscape-font-specification:'Noto Sans Bold'"/>
    </g>
    <g fill="#fff" aria-label="MIXED" style="line-height:1.25;-inkscape-font-specification:'Noto Sans Bold'">
      <path d="M25.96514977 16.7956843l-3.8833914-12.64355626h-.09028633q.02240561.45155617.06771475 1.35466437.04514317.90311235.09032783 1.94169155.04514317 1.01599931.04514317 1.85137616v7.49582418H19.146664V.67514965h4.65103274l3.81563515 12.32746694h.06771475L31.72248061.67514965h4.65103273V16.7956843h-3.1834648V9.16439327q0-.7676455.02240562-1.76106493.04514317-.99342358.06771476-1.87395604.04518466-.90311235.06775624-1.35466853h-.09032783l-4.1542919 12.62098053zM46.47388267 16.7956843h-7.3377982v-1.94169154l1.96426728-.9031082V3.5199494l-1.96426728-.90311235V.67514965h7.3377982v1.9416874l-1.96426728.90311235v10.43093516l1.96426728.9031082zM62.2483501 16.7956843h-3.90596297l-3.74792039-6.09600004-3.74792039 6.09600004H47.1889538l5.35095932-8.3086253L47.52761055.67514966h3.77049198l3.47697838 5.80249061 3.40926364-5.8024906h3.68016414l-5.05740425 7.99253182zM73.58169226 16.7956843h-9.2794939V.67514965h9.2794939v2.79964413H67.711462v3.54470974h5.46381725v2.79964413H67.711462v4.15431264h5.87023026zM90.32416535 8.57737024q0 4.0865813-2.32549562 6.16373555-2.30296553 2.05457851-6.47982902 2.05457851h-4.5607049V.67514965h5.05740425q2.52872287 0 4.38009073.90311235 1.87393945.9031082 2.88995121 2.66417728 1.03858335 1.73848919 1.03858335 4.33493096zm-3.54473463.09031124q0-2.68675301-1.17401286-3.92853041-1.17405435-1.26435729-3.40926363-1.26435729h-1.82879628v10.49866651h1.46756794q4.94450483 0 4.94450483-5.30577881z" style="-inkscape-font-specification:'Noto Sans Bold'"/>
    </g>
  </g>
</svg>
