<svg xmlns="http://www.w3.org/2000/svg" viewBox="0 0 405.07 405.07">
  <path fill="#fff" d="M202.5311-.00015584C90.676099-.00015584-.00015134 90.677995-.00015134 202.535c0 111.858 90.67625034 202.53516 202.53125134 202.53516 111.859 0 202.53906-90.67816 202.53906-202.53516 0-111.857005-90.67906-202.53515684-202.53906-202.53515584z"/>
  <path d="M202.53101.00000166C90.676001.00000166.00000366 90.677997.00000366 202.53501c0 111.858 90.67599734 202.535 202.53100634 202.535 111.859 0 202.53899-90.678 202.53899-202.535C405.07 90.677997 314.39101.00000166 202.53101.00000166zm40.661 312.19800834c0 8.284-6.716 15-15 15h-27.629c-8.284 0-15.00001-6.716-15.00001-15V143.848l-17.09999 9.23101c-4.069 2.197-8.92401 2.393-13.155.536-4.233-1.858-7.373-5.56501-8.51-10.04601l-5.459-21.518c-1.695-6.683 1.383-13.66 7.461-16.913l47.626-25.490998c2.177-1.166 4.608-1.775 7.078-1.775h24.688c8.284 0 15 6.715999 15 14.999995z"/>
</svg>
