<svg xmlns="http://www.w3.org/2000/svg" viewBox="0 0 114 18">
  <g font-family="Noto Sans" font-size="54.41492462" font-weight="700" letter-spacing="0" word-spacing="0">
    <path fill="#c7017f" fill-rule="evenodd" d="M48.3869519-28.06621825h102.62741v7.0396533h-102.62741z" style="line-height:1.25;-inkscape-font-specification:'Noto Sans Bold'"/>
    <path fill="#ccc" d="M77.1235919-32.06619825l-4.109148 16.12054h-3.883392l-2.190066-8.46667q-.06771-.24835-.180614-.74507-.09029-.49671-.225757-1.08373-.1129-.58702-.203228-1.10631-.09029-.54187-.135429-.83538-.02241.29351-.135471.83538-.09033.51929-.203227 1.10631-.112858.56444-.225758 1.08373-.112899.49672-.180614.76765l-2.167494 8.44409h-3.88335l-4.109191-16.12054h3.364121l2.054554 8.80534q.135471.51928.293513 1.30951.158043.79022.293514 1.58044t.203185 1.33209q.06776-.56444.203228-1.33209.135471-.79022.270942-1.51271.158042-.74506.2709-1.15147l2.348109-9.03111h3.228608l2.348109 9.03111q.112899.38383.248329 1.1289.158042.74506.293513 1.53528.135471.79022.203227 1.33209.06771-.56444.203186-1.33209.135471-.79022.293514-1.58044.180614-.79023.293513-1.30951l2.054595-8.80534zM93.5608929-24.02850825q0 2.50614-.835356 4.38009-.812785 1.85138-2.506152 2.88996-1.693325 1.03858-4.334906 1.03858-2.61905 0-4.334947-1.03858-1.693326-1.03858-2.528723-2.91254-.812785-1.87395-.812785-4.38008 0-2.50614.812785-4.35752.835397-1.85138 2.528723-2.86738 1.715897-1.03857 4.357519-1.03857 2.619009 0 4.312334 1.03857 1.693367 1.016 2.506152 2.88996.835356 1.85138.835356 4.35751zm-11.762991 0q0 2.52871.970827 3.99627.970827 1.44498 3.11575 1.44498 2.190025 0 3.13828-1.44498.948297-1.46756.948297-3.99627 0-2.55129-.948297-3.99626-.948255-1.44498-3.115708-1.44498-2.167495 0-3.138322 1.44498-.970827 1.44497-.970827 3.99626zM103.7406769-15.94565825l-3.883391-12.64356h-.09033q.02282.45156.06776 1.35467.04514.90311.09029 1.94169.04518 1.016.04518 1.85137v7.49583h-3.047993v-16.12054h4.650991l3.815677 12.32747h.06771l4.041437-12.32747h4.65099v16.12054h-3.18346v-7.63129q0-.76765.0224-1.76107.0451-.99342.0677-1.87395.0451-.90312.0677-1.35467h-.0903l-4.154341 12.62098zM127.5005879-15.94565825h-9.27945v-16.12054h9.27945v2.79965h-5.87023v3.54471h5.46386v2.79964h-5.46386v4.15431h5.87023zM145.1687879-15.94565825h-4.33495l-7.02171-12.192h-.0903q.0452 1.15146.0903 2.30293.0678 1.15147.1129 2.30293v7.58614h-3.04799v-16.12054h4.31237l6.9991 12.07911h.0677q-.0224-1.12888-.0677-2.23519-.0451-1.10631-.0903-2.21263v-7.63129h3.07061z" style="line-height:1.25;-inkscape-font-specification:'Noto Sans Bold'"/>
    <path fill="#fff" d="M76.5944319-32.59535825l-4.109148 16.12053h-3.883392l-2.190066-8.46667q-.06771-.24835-.180614-.74506-.09029-.49671-.225757-1.08374-.1129-.58702-.203228-1.10631-.09029-.54186-.135429-.83537-.02241.29351-.135471.83537-.09033.51929-.203227 1.10631-.112858.56445-.225758 1.08374-.112899.49671-.180614.76764l-2.167494 8.44409h-3.88335l-4.109191-16.12053h3.364121l2.054554 8.80533q.135471.51929.293513 1.30951.158043.79022.293514 1.58044.135471.79023.203185 1.33209.06776-.56444.203228-1.33209.135471-.79022.270942-1.51271.158042-.74506.2709-1.15146l2.348109-9.03111h3.228608l2.348109 9.03111q.112899.38382.248329 1.12889.158042.74506.293513 1.53528.135471.79023.203227 1.33209.06771-.56444.203186-1.33209.135471-.79022.293514-1.58044.180614-.79022.293513-1.30951l2.054595-8.80533zM93.0317329-24.55767825q0 2.50614-.835356 4.38009-.812785 1.85138-2.506152 2.88996-1.693325 1.03858-4.334906 1.03858-2.61905 0-4.334947-1.03858-1.693326-1.03858-2.528723-2.91254-.812785-1.87395-.812785-4.38008 0-2.50614.812785-4.35751.835397-1.85138 2.528723-2.86738 1.715897-1.03858 4.357519-1.03858 2.619009 0 4.312334 1.03858 1.693367 1.016 2.506152 2.88995.835356 1.85138.835356 4.35751zm-11.762991 0q0 2.52871.970827 3.99627.970827 1.44498 3.11575 1.44498 2.190025 0 3.13828-1.44498.948297-1.46756.948297-3.99627 0-2.55128-.948297-3.99626-.948255-1.44498-3.115708-1.44498-2.167495 0-3.138322 1.44498-.970827 1.44498-.970827 3.99626zM103.2115169-16.47482825l-3.883391-12.64355h-.09033q.02282.45155.06776 1.35466.04514.90311.09029 1.94169.04518 1.016.04518 1.85138v7.49582h-3.047993v-16.12053h4.650991l3.815677 12.32746h.06771l4.041437-12.32746h4.65099v16.12053h-3.18346v-7.63129q0-.76765.0224-1.76106.0451-.99343.0677-1.87396.0451-.90311.0677-1.35467h-.0903l-4.154341 12.62098zM126.9714279-16.47482825h-9.27945v-16.12053h9.27945v2.79964h-5.87023v3.54471h5.46386v2.79964h-5.46386v4.15432h5.87023zM144.6396279-16.47482825h-4.33495l-7.02171-12.192h-.0903q.0451 1.15147.0903 2.30293.0678 1.15147.1129 2.30294v7.58613h-3.04799v-16.12053h4.31237l6.9991 12.07911h.0677q-.0224-1.12889-.0677-2.2352-.0451-1.10631-.0903-2.21263v-7.63128h3.07061z" style="line-height:1.25;-inkscape-font-specification:'Noto Sans Bold'"/>
  </g>
  <path fill="#427f4d" fill-rule="evenodd" d="M179.060915-36.023108h85.979469v7.0396533h-85.979469z"/>
  <g stroke-width=".27716264" font-family="Noto Sans" font-size="54.41492462" font-weight="700" letter-spacing="0" word-spacing="0">
    <g fill="#ccc" aria-label="MIXED" style="line-height:1.25;-inkscape-font-specification:'Noto Sans Bold'">
      <path d="M193.54496977-24.1784167l-3.8833914-12.64355626h-.09028633q.02240561.45155617.06771475 1.35466437.04514317.90311235.09032783 1.94169155.04514317 1.01599931.04514317 1.85137616v7.49582418h-3.0479938v-16.12053465h4.65103274l3.81563515 12.32746694h.06771475l4.04143398-12.32746694h4.65103273v16.12053465h-3.1834648v-7.63129103q0-.7676455.02240562-1.76106493.04514317-.99342358.06771476-1.87395604.04518466-.90311235.06775624-1.35466853h-.09032783l-4.1542919 12.62098053zM214.05370267-24.1784167h-7.3377982v-1.94169154l1.96426728-.9031082V-37.4541516l-1.96426728-.90311235v-1.9416874h7.3377982v1.9416874l-1.96426728.90311235v10.43093516l1.96426728.9031082zM229.8281701-24.1784167h-3.90596297l-3.74792039-6.09600004-3.74792039 6.09600004h-3.65759255l5.35095932-8.3086253-5.01230257-7.81190935h3.77049198l3.47697838 5.80249061 3.40926364-5.8024906h3.68016414l-5.05740425 7.99253182zM241.16151226-24.1784167h-9.2794939v-16.12053465h9.2794939v2.79964413H235.291282v3.54470974h5.46381725v2.79964413H235.291282v4.15431264h5.87023026zM257.90398535-32.39673076q0 4.0865813-2.32549562 6.16373555-2.30296553 2.05457851-6.47982902 2.05457851h-4.5607049v-16.12053465h5.05740425q2.52872287 0 4.38009073.90311235 1.87393945.9031082 2.88995121 2.66417728 1.03858335 1.73848919 1.03858335 4.33493096zm-3.54473463.09031124q0-2.68675301-1.17401286-3.92853041-1.17405435-1.26435729-3.40926363-1.26435729h-1.82879628v10.49866651h1.46756794q4.94450483 0 4.94450483-5.30577881z" style="-inkscape-font-specification:'Noto Sans Bold'"/>
    </g>
    <g fill="#fff" aria-label="MIXED" style="line-height:1.25;-inkscape-font-specification:'Noto Sans Bold'">
      <path d="M193.01579977-24.7075837l-3.8833914-12.64355626h-.09028633q.02240561.45155617.06771475 1.35466437.04514317.90311235.09032783 1.94169155.04514317 1.01599931.04514317 1.85137616v7.49582418h-3.0479938v-16.12053465h4.65103274l3.81563515 12.32746694h.06771475l4.04143398-12.32746694h4.65103273v16.12053465h-3.1834648v-7.63129103q0-.7676455.02240562-1.76106493.04514317-.99342358.06771476-1.87395604.04518466-.90311235.06775624-1.35466853h-.09032783l-4.1542919 12.62098053zM213.52453267-24.7075837h-7.3377982v-1.94169154l1.96426728-.9031082V-37.9833186l-1.96426728-.90311235v-1.9416874h7.3377982v1.9416874l-1.96426728.90311235v10.43093516l1.96426728.9031082zM229.2990001-24.7075837h-3.90596297l-3.74792039-6.09600004-3.74792039 6.09600004h-3.65759255l5.35095932-8.3086253-5.01230257-7.81190935h3.77049198l3.47697838 5.80249061 3.40926364-5.8024906h3.68016414l-5.05740425 7.99253182zM240.63234226-24.7075837h-9.2794939v-16.12053465h9.2794939v2.79964413H234.762112v3.54470974h5.46381725v2.79964413H234.762112v4.15431264h5.87023026zM257.37481535-32.92589776q0 4.0865813-2.32549562 6.16373555-2.30296553 2.05457851-6.47982902 2.05457851h-4.5607049v-16.12053465h5.05740425q2.52872287 0 4.38009073.90311235 1.87393945.9031082 2.88995121 2.66417728 1.03858335 1.73848919 1.03858335 4.33493096zm-3.54473463.09031124q0-2.68675301-1.17401286-3.92853041-1.17405435-1.26435729-3.40926363-1.26435729h-1.82879628v10.49866651h1.46756794q4.94450483 0 4.94450483-5.30577881z" style="-inkscape-font-specification:'Noto Sans Bold'"/>
    </g>
  </g>
  <path fill="#fee300" fill-rule="evenodd" d="M-34.872916-26.692962h63.606632v7.0396533h-63.606632z"/>
  <g fill="#ccc" stroke-width=".27716264" aria-label="MEN" font-family="Noto Sans" font-size="54.41492462" font-weight="700" letter-spacing="0" style="line-height:1.25;-inkscape-font-specification:'Noto Sans Bold'" word-spacing="0">
    <path d="M-19.84524546-14.58370095l-3.8833914-12.64355626h-.09028633q.02240561.45155617.06771475 1.35466437.04514317.90311235.09032783 1.94169155.04514317 1.01599931.04514317 1.85137616v7.49582418h-3.0479938V-30.7042356h4.65103274l3.81563515 12.32746694h.06771475l4.04143398-12.32746694h4.65103273v16.12053465h-3.1834648v-7.63129103q0-.7676455.02240562-1.76106493.04514317-.99342358.06771476-1.87395604.04518466-.90311235.06775624-1.35466853h-.09032783l-4.1542919 12.62098053zM3.914667-14.58370095h-9.2794524V-30.7042356H3.914667v2.79964413h-5.87018877v3.54470974h5.46381725v2.79964413h-5.46381725v4.15431264h5.87018876zM21.58286551-14.58370095h-4.33494756l-7.02167153-12.19200009h-.09032783q.04514317 1.15146617.09032783 2.30293234.06771475 1.15146617.11285792 2.30293234v7.58613541h-3.0479938V-30.7042356h4.31237598l6.99909995 12.07910897h.06775624q-.02240561-1.12888628-.06775624-2.23519683-.04514317-1.10631055-.09028634-2.21262525v-7.63128689h3.07056538z" style="-inkscape-font-specification:'Noto Sans Bold'"/>
  </g>
  <g fill="#fff" stroke-width=".27716264" aria-label="MEN" font-family="Noto Sans" font-size="54.41492462" font-weight="700" letter-spacing="0" style="line-height:1.25;-inkscape-font-specification:'Noto Sans Bold'" word-spacing="0">
    <path d="M-20.37441213-15.11286761l-3.88339139-12.64355627h-.09028634q.02240562.45155618.06771476 1.35466437.04514317.90311235.09032783 1.94169155.04514317 1.01599932.04514317 1.85137616v7.49582419h-3.0479938v-16.12053465h4.65103274l3.81563514 12.32746694h.06771476l4.04143397-12.32746694h4.65103274v16.12053465h-3.1834648v-7.63129104q0-.7676455.02240562-1.76106493.04514317-.99342358.06771475-1.87395604.04518466-.90311235.06775625-1.35466852h-.09032783l-4.1542919 12.62098053zM3.38550033-15.11286761h-9.2794524v-16.12053465h9.2794524v2.79964412h-5.87018877v3.54470974h5.46381725v2.79964413h-5.46381725v4.15431265h5.87018877zM21.05369885-15.11286761h-4.33494757l-7.02167153-12.1920001h-.09032783q.04514317 1.15146617.09032783 2.30293234.06771476 1.15146617.11285793 2.30293234v7.58613542h-3.0479938v-16.12053465h4.31237598L18.0734198-19.1542933h.06775625q-.02240562-1.12888629-.06775625-2.23519684-.04514317-1.10631055-.09028634-2.21262525v-7.63128688h3.07056539z" style="-inkscape-font-specification:'Noto Sans Bold'"/>
  </g>
  <text x="135.3636" y="228.12904" stroke-width=".26458332" font-family="Noto Sans" font-size="4.23333311" font-weight="700" letter-spacing="0" style="line-height:1.25;-inkscape-font-specification:'Noto Sans Bold'" transform="translate(0 -279)" word-spacing="0">
    <tspan x="135.3636" y="228.12904">Noto Sans Bold 64</tspan>
  </text>
  <path fill="#fee300" fill-rule="evenodd" d="M58.683954-54.043163h40.990395v7.0396533H58.683954z"/>
  <g fill="#ccc" stroke-width=".27716264" aria-label="GC" font-family="Noto Sans" font-size="54.41492462" font-weight="700" letter-spacing="0" style="line-height:1.25;-inkscape-font-specification:'Noto Sans Bold'" word-spacing="0">
    <path d="M72.22818585-50.98757893h6.38954267v8.35377676q-1.26438218.42898044-2.64162228.67733426-1.35466852.24835797-3.09313697.24835797-3.6124494 0-5.55414509-2.12231402-1.9416957-2.12230986-1.9416957-6.18631127 0-2.52871043.9708686-4.38008659.99339869-1.85138031 2.86733814-2.86737963 1.87398094-1.01599931 4.58331798-1.01599931 1.28691227 0 2.52868138.2709337 1.2418106.2709337 2.25778087.72248988l-1.1288697 2.73190862q-.74506975-.38382067-1.69332527-.63217449-.948297-.24835797-1.98683887-.24835797-1.49013952 0-2.59647911.67733426-1.08372652.67733426-1.69332528 1.91911166-.58702718 1.21919752-.58702718 2.88995537 0 1.58044245.4289846 2.79964412.42898458 1.21919752 1.35466851 1.91911167.92568394.67733426 2.41582346.67733426.72249817 0 1.21919752-.0677355.51931242-.06773136.94825551-.1580426v-3.3640914h-3.0479938zM89.31076792-55.43540102q-1.96426728 0-3.00285063 1.46755549-1.03858335 1.46755549-1.03858335 4.0188458 0 2.57386604.94825552 3.9962659.97086859 1.39982415 3.09317846 1.39982415.99339868 0 1.96426728-.2257781.99339868-.22577808 2.14488145-.63217863v2.86737547q-1.06115494.42898044-2.09973828.63217865-1.03858335.20320235-2.32549563.20320235-2.4835797 0-4.10919022-1.01600346-1.60299745-1.03857505-2.3706388-2.88995537-.76764134-1.87395604-.76764134-4.35751085 0-2.43839919.88054076-4.31235523.88049927-1.87395605 2.55125297-2.93511098 1.69336677-1.06115493 4.1317618-1.06115493 1.19662594 0 2.39325187.31608932 1.21919752.29350944 2.32549563.81280111l-1.1062981 2.77706424q-.90311235-.42897629-1.82879628-.7450656-.90311235-.31608933-1.78365311-.31608933z" style="-inkscape-font-specification:'Noto Sans Bold'"/>
  </g>
  <g fill="#fff" stroke-width=".27716264" aria-label="GC" font-family="Noto Sans" font-size="54.41492462" font-weight="700" letter-spacing="0" style="line-height:1.25;-inkscape-font-specification:'Noto Sans Bold'" word-spacing="0">
    <path d="M71.69901918-51.5167456h6.38954267v8.35377676q-1.26438218.42898044-2.64162228.67733426-1.35466852.24835797-3.09313697.24835797-3.6124494 0-5.55414509-2.12231402-1.9416957-2.12230986-1.9416957-6.18631127 0-2.52871043.9708686-4.38008659.99339869-1.85138031 2.86733814-2.86737963 1.87398094-1.01599931 4.58331798-1.01599931 1.28691227 0 2.52868138.2709337 1.2418106.2709337 2.25778087.72248988l-1.1288697 2.73190862q-.74506975-.38382067-1.69332527-.63217449-.948297-.24835797-1.98683887-.24835797-1.49013952 0-2.59647911.67733426-1.08372652.67733426-1.69332528 1.91911166-.58702718 1.21919752-.58702718 2.88995537 0 1.58044245.4289846 2.79964412.42898458 1.21919752 1.35466851 1.91911167.92568394.67733426 2.41582346.67733426.72249817 0 1.21919752-.0677355.51931242-.06773136.94825551-.1580426v-3.3640914h-3.0479938zM88.78160125-55.96456769q-1.96426728 0-3.00285063 1.46755549-1.03858335 1.46755549-1.03858335 4.0188458 0 2.57386604.94825552 3.9962659.97086859 1.39982415 3.09317846 1.39982415.99339868 0 1.96426728-.2257781.99339868-.22577808 2.14488145-.63217863v2.86737547q-1.06115494.42898044-2.09973828.63217865-1.03858335.20320235-2.32549563.20320235-2.4835797 0-4.10919022-1.01600346-1.60299745-1.03857505-2.3706388-2.88995537-.76764134-1.87395604-.76764134-4.35751085 0-2.43839919.88054076-4.31235523.88049927-1.87395605 2.55125297-2.93511098 1.69336677-1.06115493 4.1317618-1.06115493 1.19662594 0 2.39325187.31608932 1.21919752.29350944 2.32549563.81280111l-1.1062981 2.77706424q-.90311235-.42897629-1.82879628-.7450656-.90311235-.31608933-1.78365311-.31608933z" style="-inkscape-font-specification:'Noto Sans Bold'"/>
  </g>
  <path fill="#fee300" fill-rule="evenodd" d="M-55.574783-52.60707h102.62741v7.0396533h-102.62741z"/>
  <g>
    <path fill="#fee300" fill-rule="evenodd" d="M37.871689-90.95679h302.40268v7.0396533H37.871689z"/>
  </g>
  <g fill="#fff" stroke-width=".27716264" aria-label="MASTERS" font-family="Noto Sans" font-size="54.41492462" font-weight="700" letter-spacing="0" style="line-height:1.25;-inkscape-font-specification:'Noto Sans Bold'" word-spacing="0">
    <path fill="#2f5999" fill-rule="evenodd" d="M-91.75197707-83.43866504H20.48398338v7.03965333H-91.75197707z"/>
    <g fill="#ccc" aria-label="MASTERS" style="line-height:1.25;-inkscape-font-specification:'Noto Sans Bold'">
      <path d="M-78.64335521-71.31808856l-3.8833914-12.64355627h-.09028633q.02240561.45155618.06771475 1.35466438.04514317.90311234.09032783 1.94169154.04514317 1.01599932.04514317 1.85137616v7.49582419h-3.0479938v-16.12053465h4.65103274l3.81563515 12.32746694h.06771475l4.04143398-12.32746694h4.65103273v16.12053465h-3.1834648v-7.63129104q0-.7676455.02240562-1.76106493.04514317-.99342358.06771476-1.87395604.04518466-.90311235.06775624-1.35466852h-.09032783l-4.1542919 12.62098053zM-54.29641558-71.31808856l-1.17401286-3.83822333h-5.87023026l-1.17405435 3.83822333h-3.68016414l5.6895746-16.188266h4.17690497l5.71218767 16.188266zm-1.98683887-6.70560296l-1.17405435-3.74790794q-.11285792-.38382482-.2934721-.97084785-.18065566-.58701887-.36126983-1.19662178-.18061417-.60959876-.29351359-1.06115494-.11289941.45155618-.31608517 1.12889044-.18061417.65475438-.36122834 1.26435314-.15804259.58702302-.24837042.835381l-1.15148276 3.74790793zM-39.09134127-75.78849053q0 2.14488975-1.55785427 3.43182277-1.5352827 1.26435728-4.38009074 1.26435728-2.55129445 0-4.5607049-.97084784v-3.1834648q1.15148276.49671179 2.37068028.92568808 1.2417691.40640055 2.46096663.40640055 1.26434069 0 1.7836531-.4741319.54184252-.4967118.54184252-1.2417774 0-.60960292-.42898459-1.0385792-.40637151-.4289763-1.1062981-.79022124-.6999266-.38382482-1.60299745-.8128011-.56445559-.27093371-1.21923901-.63217865-.65474193-.38382067-1.26434069-.92568808-.58702718-.56444314-.9708271-1.35466852-.38384142-.79022123-.38384142-1.89653178 0-2.16746549 1.46756794-3.36408727 1.46756793-1.21920167 3.99624931-1.21920167 1.26438218 0 2.39325187.29350944 1.15148277.29351359 2.39325187.835381l-1.1062981 2.66417727q-1.1063396-.45155618-1.98688036-.69991-.88049927-.24835797-1.8061832-.24835797-.9708686 0-1.49013952.45155618-.51931242.45155617-.51931242 1.17404605 0 .85795258.76764134 1.35466437.76764135.4967118 2.28035245 1.21920167 1.2418106.58702302 2.09973829 1.21919752.88054076.63217864 1.35466852 1.49013537.47412775.85795673.47412775 2.12230987zM-29.95225591-71.31808856h-3.40926363v-13.2757349h-4.38009074v-2.84479975h12.1694451v2.84479974h-4.38009073zM-13.8289247-71.31808856h-9.2794524v-16.12053465h9.2794524v2.79964412h-5.87018877v3.54470974h5.46381725v2.79964413h-5.46381725v4.15431265h5.87018876zM-5.75630525-87.43862321q3.29636422 0 4.8542185 1.19662178Q.6783806-85.04537964.6783806-82.60698045q0 1.1063147-.4289846 1.94169154-.406413.81279696-1.1062981 1.39982-.677355.56444728-1.46756793.92568807l4.74131907 7.02169228H-1.3762145l-3.83820673-6.18631128h-1.82879628v6.18631128h-3.40926364v-16.12053465zm-.24832892 2.79964412h-1.03858335v4.35751085h1.1062981q1.69332528 0 2.41582345-.56444314.74506976-.56444314.74506976-1.67075784 0-1.15146617-.79021293-1.62559808-.76764134-.49671179-2.43839503-.49671179zM13.95765061-75.78849053q0 2.14488975-1.55789577 3.43182277-1.53528269 1.26435728-4.38009073 1.26435728-2.55129446 0-4.5607049-.97084784v-3.1834648q1.15148276.49671179 2.37068028.92568808 1.2417691.40640055 2.46096662.40640055 1.2643407 0 1.78365311-.4741319.54184251-.4967118.54184251-1.2417774 0-.60960292-.4289431-1.0385792-.406413-.4289763-1.10633959-.79022124-.6998851-.38382482-1.60299744-.8128011-.5644556-.27093371-1.21919752-.63217865-.65478342-.38382067-1.26438218-.92568808-.58702718-.56444314-.9708271-1.35466852-.38384143-.79022123-.38384143-1.89653178 0-2.16746549 1.46756794-3.36408727 1.46756794-1.21920167 3.99624932-1.21920167 1.26438218 0 2.39325187.29350944 1.15148276.29351359 2.39325187.835381l-1.1062981 2.66417727q-1.1063396-.45155618-1.98683887-.69991-.88054077-.24835797-1.8062247-.24835797-.9708686 0-1.49013952.45155618-.51931242.45155617-.51931242 1.17404605 0 .85795258.76768284 1.35466437.76764134.4967118 2.28035245 1.21920167 1.2417691.58702302 2.0996968 1.21919752.88054075.63217864 1.35466851 1.49013537.47416925.85795673.47416925 2.12230987z" style="-inkscape-font-specification:'Noto Sans Bold'"/>
    </g>
    <path d="M-79.17253523-71.8472595l-3.8833914-12.64355626h-.09028633q.02240561.45155617.06771475 1.35466437.04514317.90311235.09032783 1.94169155.04514317 1.01599931.04514317 1.85137616v7.49582418h-3.0479938v-16.12053465h4.65103274l3.81563515 12.32746694h.06771475l4.04143398-12.32746694h4.65103273v16.12053465h-3.1834648v-7.63129103q0-.7676455.02240562-1.76106493.04514317-.99342358.06771476-1.87395604.04518466-.90311235.06775624-1.35466853h-.09032783l-4.1542919 12.62098053zM-54.8255956-71.8472595l-1.17401286-3.83822332h-5.87023026l-1.17405435 3.83822332h-3.68016414l5.6895746-16.188266h4.17690497l5.71218767 16.188266zm-1.98683887-6.70560295l-1.17405435-3.74790794q-.11285792-.38382482-.2934721-.97084785-.18065566-.58701888-.36126983-1.19662179-.18061417-.60959876-.29351359-1.06115493-.11289941.45155617-.31608517 1.12889044-.18061417.65475437-.36122834 1.26435313-.15804259.58702303-.24837042.835381l-1.15148276 3.74790794zM-39.62052129-76.31766147q0 2.14488975-1.55785427 3.43182277-1.5352827 1.2643573-4.38009074 1.2643573-2.55129445 0-4.5607049-.97084786v-3.1834648q1.15148276.4967118 2.37068028.92568808 1.2417691.40640056 2.46096663.40640056 1.26434069 0 1.7836531-.4741319.54184252-.4967118.54184252-1.24177741 0-.6096029-.42898459-1.0385792-.40637151-.42897629-1.1062981-.79022123-.6999266-.38382482-1.60299745-.81280111-.56445559-.2709337-1.21923901-.63217864-.65474193-.38382068-1.26434069-.92568809-.58702718-.56444314-.9708271-1.35466852-.38384142-.79022122-.38384142-1.89653178 0-2.16746548 1.46756794-3.36408726 1.46756793-1.21920167 3.99624931-1.21920167 1.26438218 0 2.39325187.29350943 1.15148277.2935136 2.39325187.835381l-1.1062981 2.66417728q-1.1063396-.45155618-1.98688036-.69991-.88049927-.24835797-1.8061832-.24835797-.9708686 0-1.49013952.45155617-.51931242.45155618-.51931242 1.17404606 0 .85795258.76764134 1.35466437.76764135.49671179 2.28035245 1.21920167 1.2418106.58702302 2.09973829 1.21919752.88054076.63217864 1.35466852 1.49013537.47412775.85795673.47412775 2.12230986zM-30.48143593-71.8472595h-3.40926363v-13.2757349h-4.38009074v-2.84479975h12.1694451v2.84479975h-4.38009073zM-14.35810473-71.8472595h-9.2794524v-16.12053465h9.2794524v2.79964413h-5.87018876v3.54470974h5.46381725v2.79964413h-5.46381725v4.15431264h5.87018876zM-6.28548527-87.96779415q3.29636422 0 4.8542185 1.19662179Q.14920057-85.57455058.14920057-83.1361514q0 1.1063147-.4289846 1.94169155-.406413.81279696-1.1062981 1.39981999-.677355.56444729-1.46756793.92568808l4.74131907 7.02169227h-3.79306355l-3.83820673-6.18631128h-1.82879628v6.18631128h-3.40926364v-16.12053465zm-.24832892 2.79964413h-1.03858335v4.35751085h1.1062981q1.69332528 0 2.41582345-.56444314.74506976-.56444314.74506976-1.67075784 0-1.15146617-.79021293-1.62559808-.76764134-.49671179-2.43839503-.49671179zM13.4284706-76.31766147q0 2.14488975-1.55789578 3.43182277-1.53528269 1.2643573-4.38009073 1.2643573-2.55129446 0-4.5607049-.97084786v-3.1834648q1.15148276.4967118 2.37068028.92568808 1.2417691.40640056 2.46096662.40640056 1.2643407 0 1.78365311-.4741319.54184251-.4967118.54184251-1.24177741 0-.6096029-.4289431-1.0385792-.406413-.42897629-1.10633959-.79022123-.6998851-.38382482-1.60299744-.81280111-.5644556-.2709337-1.21919752-.63217864-.65478342-.38382068-1.26438218-.92568809-.58702718-.56444314-.9708271-1.35466852-.38384143-.79022122-.38384143-1.89653178 0-2.16746548 1.46756794-3.36408726 1.46756794-1.21920167 3.99624932-1.21920167 1.26438218 0 2.39325187.29350943 1.15148276.2935136 2.39325187.835381l-1.1062981 2.66417728q-1.1063396-.45155618-1.98683887-.69991-.88054077-.24835797-1.8062247-.24835797-.9708686 0-1.49013952.45155617-.51931242.45155618-.51931242 1.17404606 0 .85795258.76768284 1.35466437.76764134.49671179 2.28035245 1.21920167 1.2417691.58702302 2.0996968 1.21919752.88054075.63217864 1.35466851 1.49013537.47416925.85795673.47416925 2.12230986z" style="-inkscape-font-specification:'Noto Sans Bold'"/>
  </g>
  <g fill="#fff" stroke-width=".27716264" aria-label="GRAND" font-family="Noto Sans" font-size="54.41492462" font-weight="700" letter-spacing="0" style="line-height:1.25;-inkscape-font-specification:'Noto Sans Bold'" word-spacing="0">
    <path fill="#412297" fill-rule="evenodd" d="M-153.55669307-30.31512778h93.76179538v7.03965333h-93.76179538z"/>
    <g fill="#ccc" aria-label="GRAND" style="line-height:1.25;-inkscape-font-specification:'Noto Sans Bold'">
      <path d="M-138.50219226-27.24824586h6.38954268v8.35377676q-1.26438219.42898044-2.6416223.67733426-1.35466851.24835797-3.09313696.24835797-3.61244939 0-5.55414508-2.12231401-1.9416957-2.12230987-1.9416957-6.18631128 0-2.52871042.9708686-4.38008659.99339868-1.8513803 2.86733813-2.86737962 1.87398094-1.01599932 4.58331798-1.01599932 1.28691228 0 2.52868138.2709337 1.2418106.2709337 2.25778087.72248988l-1.12886969 2.73190863q-.74506976-.38382067-1.69332528-.6321745-.948297-.24835797-1.98683886-.24835797-1.49013952 0-2.59647912.67733426-1.08372652.67733426-1.69332528 1.91911167-.58702717 1.21919752-.58702717 2.88995536 0 1.58044246.42898459 2.79964413.42898458 1.21919752 1.35466852 1.91911166.92568393.67733426 2.41582345.67733426.72249818 0 1.21919752-.0677355.51931242-.06773135.94825552-.15804259v-3.36409142h-3.0479938zM-123.56449164-34.3150896q3.29632272 0 4.85421849 1.19662178 1.58042586 1.19662179 1.58042586 3.63502098 0 1.1063147-.42898459 1.94169154-.4063715.81279697-1.1062981 1.39982-.677355.56444728-1.46756794.92568807l4.74136057 7.02169228h-3.79306356l-3.83824822-6.18631128h-1.82879628v6.18631128h-3.40922214V-34.3150896zm-.24837042 2.79964412h-1.03858335v4.35751085h1.1062981q1.69336677 0 2.41582346-.56444314.74506976-.56444314.74506976-1.67075784 0-1.15146617-.79021293-1.62559808-.76764135-.49671179-2.43839504-.49671179zM-103.48934893-18.19455495l-1.17405435-3.83822333h-5.87018877l-1.17405435 3.83822333h-3.68016414l5.6895746-16.188266h4.17690497l5.71218767 16.188266zm-1.98683887-6.70560296l-1.17405435-3.74790794q-.11285792-.38382482-.29351358-.97084785-.18061418-.58701887-.36122835-1.19662178-.18061417-.60959876-.29351358-1.06115494-.11289942.45155618-.31608518 1.12889044-.18061417.65475438-.36122834 1.26435314-.15804258.58702302-.24837042.835381l-1.15148276 3.74790793zM-83.49777087-18.19455495h-4.33494757l-7.02167153-12.1920001h-.09032783q.04518466 1.15146618.09032783 2.30293234.06771476 1.15146617.11289942 2.30293234v7.58613542h-3.0480353V-34.3150896h4.31237599l6.99909994 12.07910897h.06775625q-.02240562-1.12888629-.06775625-2.23519684-.04514317-1.10631055-.09028634-2.21262525v-7.63128688h3.07056539zM-66.07902156-26.41286901q0 4.0865813-2.32549562 6.16373554-2.30296553 2.05457852-6.47982902 2.05457852h-4.5607049V-34.3150896h5.05740424q2.52872287 0 4.38009074.90311234 1.87393945.9031082 2.88995121 2.66417728 1.03858335 1.7384892 1.03858335 4.33493097zm-3.54469314.09031123q0-2.686753-1.17405435-3.92853041-1.17405435-1.26435729-3.40926364-1.26435729h-1.82879627v10.49866652h1.46756793q4.94454633 0 4.94454633-5.30577882z" style="-inkscape-font-specification:'Noto Sans Bold'"/>
    </g>
    <path d="M-139.03135954-27.77741314h6.38954267v8.35377676q-1.26438218.42898044-2.64162228.67733426-1.35466852.24835797-3.09313697.24835797-3.6124494 0-5.55414509-2.12231401-1.9416957-2.12230987-1.9416957-6.18631128 0-2.52871043.9708686-4.38008659.99339869-1.85138031 2.86733814-2.86737963 1.87398094-1.01599931 4.58331798-1.01599931 1.28691227 0 2.52868138.2709337 1.2418106.2709337 2.25778087.72248988l-1.1288697 2.73190863q-.74506975-.38382068-1.69332527-.6321745-.948297-.24835797-1.98683886-.24835797-1.49013953 0-2.59647912.67733426-1.08372652.67733426-1.69332528 1.91911167-.58702717 1.21919752-.58702717 2.88995536 0 1.58044246.42898458 2.79964412.4289846 1.21919752 1.35466852 1.91911167.92568394.67733426 2.41582346.67733426.72249817 0 1.21919752-.0677355.51931242-.06773135.94825552-.15804259v-3.36409142h-3.0479938zM-124.09365893-34.84425689q3.29632273 0 4.8542185 1.19662179 1.58042586 1.19662179 1.58042586 3.63502097 0 1.1063147-.42898459 1.94169155-.40637151.81279696-1.1062981 1.39981999-.677355.56444729-1.46756794.92568808l4.74136057 7.02169228h-3.79306356l-3.83824822-6.18631128h-1.82879628v6.18631128h-3.40922214V-34.8442569zm-.24837041 2.79964413h-1.03858335v4.35751085h1.1062981q1.69336677 0 2.41582346-.56444314.74506976-.56444314.74506976-1.67075784 0-1.15146617-.79021293-1.62559808-.76764135-.49671179-2.43839504-.49671179zM-104.01851621-18.72372223l-1.17405435-3.83822333h-5.87018877l-1.17405435 3.83822333h-3.68016414l5.6895746-16.188266h4.17690497l5.71218767 16.188266zm-1.98683887-6.70560296l-1.17405435-3.74790794q-.11285792-.38382482-.29351359-.97084785-.18061417-.58701888-.36122834-1.19662178-.18061417-.60959876-.29351359-1.06115494-.11289941.45155618-.31608517 1.12889044-.18061417.65475437-.36122834 1.26435313-.15804259.58702303-.24837042.835381l-1.15148276 3.74790794zM-84.02693816-18.72372223h-4.33494756l-7.02167153-12.1920001h-.09032783q.04518466 1.15146617.09032783 2.30293234.06771475 1.15146617.11289942 2.30293234v7.58613542h-3.0480353V-34.8442569h4.31237598l6.99909995 12.07910898h.06775625q-.02240562-1.12888629-.06775625-2.23519684-.04514317-1.10631055-.09028634-2.21262525v-7.63128689h3.07056538zM-66.60818884-26.9420363q0 4.0865813-2.32549563 6.16373555-2.30296553 2.05457852-6.47982901 2.05457852h-4.5607049V-34.8442569h5.05740424q2.52872287 0 4.38009074.90311235 1.87393945.9031082 2.8899512 2.66417728 1.03858336 1.73848919 1.03858336 4.33493096zm-3.54469314.09031124q0-2.68675301-1.17405435-3.92853041-1.17405435-1.26435729-3.40926364-1.26435729h-1.82879628v10.49866651h1.46756794q4.94454633 0 4.94454633-5.30577881z" style="-inkscape-font-specification:'Noto Sans Bold'"/>
  </g>
  <g>
    <path fill="#fee300" fill-rule="evenodd" d="M1.38018 5.21557h111.2396409v7.03966H1.38018z"/>
    <g fill="#b3b3b3" stroke-width=".27716264" aria-label="OVERALL" font-family="Noto Sans" font-size="54.41492462" font-weight="700" letter-spacing="0" style="line-height:1.25;-inkscape-font-specification:'Noto Sans Bold'" word-spacing="0">
      <path d="M24.94653072 9.2532941q0 2.50613468-.8353976 4.38009073-.8127845 1.85137616-2.50615128 2.88995536-1.69332528 1.0385792-4.33490607 1.0385792-2.61900921 0-4.33494757-1.0385792-1.69332527-1.0385792-2.52872287-2.91253524-.81278451-1.8739519-.81278451-4.38008659 0-2.50613469.81278451-4.35751085.8353976-1.85138031 2.52872287-2.86737963Q14.65106656.96725283 17.29264735.96725283q2.61900921 0 4.3123345 1.03857505 1.69336676 1.01599932 2.50615128 2.88995536.83539759 1.85138032.83539759 4.35751086zm-11.7630321 0q0 2.52871042.9708271 3.99627006.9708686 1.4449756 3.11575005 1.4449756 2.19002462 0 3.13832163-1.4449756.94825552-1.46755964.94825552-3.99627006 0-2.55128616-.94825552-3.99626592-.94829701-1.4449756-3.11575005-1.4449756-2.16745303 0-3.13832163 1.4449756-.9708271 1.44497976-.9708271 3.99626592zM40.70577064 1.21560665L35.2193818 17.3361413H31.494033L26.03021575 1.21560665h3.4544068l3.02542221 9.59555417q.09032783.24835797.24837042.92569223.18061417.65475438.36122834 1.39981999.18061417.72248988.24837042 1.21920167.06771475-.4967118.22575734-1.21920167.18065566-.74506561.36126983-1.39981999.18061417-.67733426.24832893-.92569223l3.04803529-9.59555417zM52.01724656 17.3361413h-9.2794524V1.21560665h9.2794524v2.79964413h-5.87023025v3.54470974h5.46381725v2.79964413h-5.46381725v4.15431264h5.87023025zM60.07750144 1.21560665q3.29636422 0 4.8542185 1.19662179Q66.5121458 3.60885022 66.5121458 6.0472494q0 1.1063147-.4289431 1.94169155-.406413.81279696-1.1063396 1.39981999-.6773135.56444729-1.46752644.92568808l4.74131908 7.02169227h-3.79306356l-3.83824822-6.18631128h-1.82879628v6.18631128h-3.40922214V1.21560665zm-.24837042 2.79964413h-1.03858334v4.35751085h1.1063396q1.69332527 0 2.41582345-.56444314.74506976-.56444314.74506976-1.67075784 0-1.15146617-.79025443-1.62559808-.76764134-.49671179-2.43839504-.49671179zM80.14911734 17.3361413l-1.17401285-3.83822332h-5.87023026l-1.17405435 3.83822332h-3.68016414l5.68957459-16.188266h4.17690498l5.71218767 16.188266zm-1.98683886-6.70560295l-1.17401286-3.74790794q-.11289942-.38382482-.29351359-.97084785-.18065566-.58701888-.36126983-1.19662179-.18061417-.60959876-.29351359-1.06115493-.11285792.45155617-.31608517 1.12889044-.18061417.65475437-.36122834 1.26435313-.15804259.58702303-.24837042.835381l-1.15144127 3.74790794zM85.86126352 17.3361413V1.21560665h3.40926363V14.5139173h6.54754378v2.82222401zM98.6176943 17.3361413V1.21560665h3.40926364V14.5139173h6.54754377v2.82222401z" style="-inkscape-font-specification:'Noto Sans Bold'"/>
    </g>
    <path fill="#fff" d="M24.417361 8.72412q0 2.50614-.835398 4.38009-.812784 1.85138-2.506151 2.88996-1.693325 1.03858-4.334906 1.03858-2.619009 0-4.334948-1.03858-1.693325-1.03858-2.528723-2.91254-.812784-1.87395-.812784-4.38008 0-2.50614.812784-4.35751.835398-1.85138 2.528723-2.86738Q14.121897.43808 16.763477.43808q2.61901 0 4.312335 1.03858 1.693367 1.016 2.506151 2.88995.835398 1.85138.835398 4.35751zm-11.763032 0q0 2.52871.970827 3.99627.970868 1.44498 3.11575 1.44498 2.190024 0 3.138321-1.44498.948256-1.46756.948256-3.99627 0-2.55128-.948256-3.99626-.948297-1.44498-3.11575-1.44498t-3.138321 1.44498q-.970827 1.44498-.970827 3.99626zM40.176601.68644l-5.486389 16.12053h-3.725349L25.501046.68644h3.454407l3.025422 9.59555q.09033.24836.24837.92569.180614.65476.361229 1.39982.180614.72249.24837 1.2192.06772-.49671.225757-1.2192.180656-.74506.36127-1.39982.180614-.67733.248329-.92569L36.722235.68644zM51.488077 16.80697h-9.279453V.68644h9.279453v2.79964h-5.870231v3.54471h5.463818v2.79964h-5.463818v4.15432h5.870231zM59.548331.68644q3.296365 0 4.854219 1.19662 1.580426 1.19662 1.580426 3.63502 0 1.10631-.428943 1.94169-.406413.8128-1.10634 1.39982-.677313.56445-1.467526.92569l4.741319 7.02169h-3.793064l-3.838248-6.18631h-1.828796v6.18631h-3.409222V.68644zm-.24837 2.79964h-1.038583v4.35751h1.106339q1.693326 0 2.415824-.56444.745069-.56444.745069-1.67076 0-1.15147-.790254-1.6256-.767641-.49671-2.438395-.49671zM79.619947 16.80697l-1.174013-3.83822h-5.87023l-1.174054 3.83822h-3.680164L73.41106.61871h4.176905l5.712188 16.18826zm-1.986839-6.7056l-1.174012-3.74791q-.1129-.38382-.293514-.97085-.180656-.58702-.36127-1.19662-.180614-.6096-.293513-1.06115-.112858.45155-.316086 1.12889-.180614.65475-.361228 1.26435-.158042.58702-.24837.83538l-1.151442 3.74791zM85.332094 16.80697V.68644h3.409263v13.29831h6.5475439v2.82222zM98.0885243 16.80697V.68644h3.4092636v13.29831h6.5475438v2.82222z" font-family="Noto Sans" font-size="54.41492462" font-weight="700" letter-spacing="0" style="line-height:1.25;-inkscape-font-specification:'Noto Sans Bold'" word-spacing="0"/>
  </g>
</svg>
