<?xml version="1.0" encoding="UTF-8" standalone="no"?>
<svg
   xmlns:dc="http://purl.org/dc/elements/1.1/"
   xmlns:cc="http://creativecommons.org/ns#"
   xmlns:rdf="http://www.w3.org/1999/02/22-rdf-syntax-ns#"
   xmlns:svg="http://www.w3.org/2000/svg"
   xmlns="http://www.w3.org/2000/svg"
   xmlns:sodipodi="http://sodipodi.sourceforge.net/DTD/sodipodi-0.dtd"
   xmlns:inkscape="http://www.inkscape.org/namespaces/inkscape"
   viewBox="0 0 512 512"
   version="1.1"
   id="svg18"
   sodipodi:docname="PinkShirt.svg"
   inkscape:version="0.92.4 5da689c313, 2019-01-14">
  <metadata
     id="metadata24">
    <rdf:RDF>
      <cc:Work
         rdf:about="">
        <dc:format>image/svg+xml</dc:format>
        <dc:type
           rdf:resource="http://purl.org/dc/dcmitype/StillImage" />
      </cc:Work>
    </rdf:RDF>
  </metadata>
  <defs
     id="defs22" />
  <sodipodi:namedview
     pagecolor="#ffffff"
     bordercolor="#666666"
     borderopacity="1"
     objecttolerance="10"
     gridtolerance="10"
     guidetolerance="10"
     inkscape:pageopacity="0"
     inkscape:pageshadow="2"
     inkscape:window-width="2225"
     inkscape:window-height="1785"
     id="namedview20"
     showgrid="false"
     inkscape:zoom="0.4609375"
     inkscape:cx="-199.59322"
     inkscape:cy="256"
     inkscape:window-x="0"
     inkscape:window-y="0"
     inkscape:window-maximized="0"
     inkscape:current-layer="svg18" />
  <g
     id="g842">
    <path
       style="fill:#c7017f;fill-opacity:1"
       id="path2"
       d="M443.9 45C409.6 18 336 1 333 .4a10.7 10.7 0 0 0-13 10.3c0 14.4-29.6 32-64 32-34.5 0-64-17.6-64-32 0-3.2-1.5-6.3-4-8.3-2.5-2-5.9-2.9-9-2.1-3.1.7-76.6 17.7-111 44.6C32.6 73 22.5 208 21.5 223.3c-.3 4.4 2 8.5 6 10.3 25 11.6 51.8 19 79.3 22V480c0 4 2.2 7.6 5.7 9.4C114 490.4 156 512 256 512s141.9-21.6 143.6-22.6c3.5-1.8 5.7-5.5 5.7-9.4V255.6a253 253 0 0 0 79.3-22c4-1.8 6.3-6 6-10.3C489.6 208 479.4 73 444 45z"
       fill="#ff1493" />
    <g
       id="g6"
       fill="#0288d1">
      <path
         id="path4"
         d="M117.3 256c-5.8 0-10.6-4.7-10.6-10.6v-64a85.3 85.3 0 0 0-18.2-56.5 10.7 10.7 0 0 1 15-15c16.9 20 25.6 45.4 24.5 71.5v64c0 5.9-4.8 10.6-10.7 10.6zM394.6 256c-5.9 0-10.6-4.7-10.6-10.6v-64c-1.1-26 7.6-51.6 24.4-71.6a10.7 10.7 0 1 1 15 15.1c-12.5 16-19 36.1-18.1 56.5v64c0 5.9-4.8 10.6-10.7 10.6z" />
    </g>
    <path
       id="path8"
       d="M337.4 2.5c-2.4-2-5.6-2.8-8.8-2.2-24 4.8-48.2 8.3-72.6 10.4A645.1 645.1 0 0 1 183.3.3c-3-.6-6.3.2-8.7 2.2-2.5 2-4 5-4 8.2 0 32 44.2 53.4 85.4 53.4s85.3-21.4 85.3-53.4c0-3.1-1.4-6.1-3.9-8.2z"
       fill="#d60074" />
    <path
       id="path10"
       d="M256 32a686.7 686.7 0 0 1-76.7-10.8 10.7 10.7 0 1 1 4-21c24 5 48.3 8.4 72.7 10.5 24.4-2 48.6-5.6 72.6-10.4a10.7 10.7 0 1 1 4 21c-25.3 5-50.9 8.6-76.6 10.8z"
       fill="#333" />
    <path
       id="path12"
       d="M394.6 256a10.7 10.7 0 0 1 0-21.3 212 212 0 0 0 74.2-17.4c-4.3-54.7-17.8-139.6-38-155.5a302.4 302.4 0 0 0-92-38c-10 24.6-47.5 40.3-82.8 40.3s-72.7-15.8-82.7-40.3a303.6 303.6 0 0 0-92 38C61 77.7 47.6 162.6 43.3 217.3a212 212 0 0 0 74 17.4 10.7 10.7 0 0 1 0 21.3 241.8 241.8 0 0 1-89.9-22.3c-4-2-6.3-6-6-10.4C22.4 208 32.4 73 68 45A357 357 0 0 1 179 .4c3.1-.8 6.5 0 9 2 2.5 2.1 4 5.1 4 8.3 0 14.4 29.5 32 64 32 34.4 0 64-17.6 64-32A10.7 10.7 0 0 1 333 .4 357 357 0 0 1 444 45c35.5 28 45.6 163 46.6 178.3.3 4.4-2 8.5-6 10.4a241.8 241.8 0 0 1-90 22.3z"
       fill="#4d4d4d" />
    <path
       id="path14"
       d="M256 512c-100.3 0-142-21.7-143.7-22.6a10.7 10.7 0 0 1-5.6-9.4V181.4a85.3 85.3 0 0 0-18.2-56.5 10.7 10.7 0 0 1 15-15c16.9 20 25.6 45.4 24.5 71.5V473a367.8 367.8 0 0 0 128 17.7c43.4 1.7 86.7-4.3 128-17.7V181.4c-1.1-26 7.6-51.6 24.4-71.6a10.7 10.7 0 1 1 15 15.1c-12.5 16-19 36.1-18.1 56.5V480c0 4-2.2 7.6-5.7 9.4-1.7 1-43.4 22.6-143.6 22.6z"
       fill="#4d4d4d" />
    <path
       id="path16"
       d="M116.1 171.7l48.3-29.5 27.5 37 40.3-45 39.6 60.4 26.9-39.6 40.2 42.2 54.4-32.2 4.7 315.5-118.1 23.4-84-6-79.1-15.4z"
       fill="#4d4d4d" />
  </g>
</svg>
