<svg xmlns="http://www.w3.org/2000/svg" version="1" viewBox="0 0 5.0625 5.0625">
  <path fill="#7f7f7f" d="M2.6228.5626a.1831.1824 0 0 0-.1143.0444L1.304 1.6448H.183A.1831.1824 0 0 0 0 1.827V3.22a.1831.1824 0 0 0 .183.1823H1.286l1.2226 1.0534a.1831.1824 0 0 0 .3028-.1379V.745a.1831.1824 0 0 0-.1885-.1823z"/>
  <path fill="#7f7f7f" d="M3.2642 1.5675a.1831.1824 0 0 0-.1568.2823 1.277 1.277 0 0 1 .202.69c0 .2504-.0724.4821-.1966.6807a.1831.1824 0 1 0 .3108.1929 1.6438 1.6438 0 0 0 .252-.8735c0-.3258-.0961-.6298-.259-.8854a.1831.1824 0 0 0-.1524-.087z"/>
  <path fill="#7f7f7f" d="M3.7663 1.0544a.1831.1824 0 0 0-.1358.2927c.2481.3336.3949.7451.3949 1.1928 0 .4434-.1442.8513-.3885 1.1832a.1831.1824 0 1 0 .2952.2157 2.3542 2.3542 0 0 0 .4594-1.399c0-.5272-.174-1.016-.467-1.4098a.1831.1824 0 0 0-.1582-.0756z"/>
  <path fill="#7f7f7f" d="M4.256.5781a.1831.1824 0 0 0-.1437.298 2.6517 2.6517 0 0 1 .584 1.664c0 .6257-.2158 1.199-.5771 1.6544a.1831.1824 0 1 0 .2874.226c.4101-.517.6559-1.171.6559-1.8805 0-.7144-.249-1.3725-.6638-1.891A.1831.1824 0 0 0 4.256.578z"/>
</svg>
