<svg xmlns="http://www.w3.org/2000/svg" version="1" viewBox="0 0 512 512">
  <path fill="#e7c045" d="M444 45C410 18 336 1 333 0a11 11 0 0 0-13 11c0 14-30 32-64 32s-64-18-64-32c0-4-1-7-4-9s-6-2-9-2c-3 1-77 18-111 45-35 28-46 163-47 178 0 5 2 9 6 11 25 11 52 19 80 22v224c0 4 2 8 5 9 2 1 44 23 144 23s142-22 144-23c3-1 5-5 5-9V256c28-3 55-11 80-22 4-2 6-6 6-11-1-15-12-150-47-178z"/>
  <g fill="#0288d1">
    <path d="M117 256c-6 0-10-5-10-11v-64c1-20-6-40-19-56a11 11 0 0 1 16-15c16 20 25 45 24 71v64c0 6-5 11-11 11zM395 256c-6 0-11-5-11-11v-64c-1-26 8-51 24-71a11 11 0 1 1 15 15 85 85 0 0 0-18 56v64c0 6-4 11-10 11z"/>
  </g>
  <path fill="#a68315" d="M337 3c-2-3-5-3-8-3-24 5-49 9-73 11-24-2-49-6-73-11-3 0-6 0-8 3-3 2-4 5-4 8 0 32 44 53 85 53s85-21 85-53c0-3-1-6-4-8z"/>
  <path d="M395 256a11 11 0 0 1 0-21c25-2 50-7 74-18-4-54-18-139-38-155-29-18-60-31-92-38-10 24-48 40-83 40s-73-16-83-40c-32 7-63 20-92 38-20 16-33 101-38 155 24 11 49 16 74 18a11 11 0 0 1 0 21c-31-2-61-9-90-22-4-2-6-6-6-11 1-15 11-150 47-178 34-21 72-36 111-45 3 0 6 0 9 2s4 6 4 9c0 14 30 32 64 32s64-18 64-32a11 11 0 0 1 13-11c39 9 77 24 111 45 36 28 46 163 47 178 0 5-2 9-6 11-29 13-59 20-90 22z"/>
  <path d="M256 512c-100 0-142-22-144-23-3-1-5-5-5-9V181c1-20-6-40-19-56a11 11 0 0 1 16-15c16 20 25 45 24 71v292c41 13 85 19 128 18 43 1 87-5 128-18V181c-1-26 8-51 24-71a11 11 0 1 1 15 15 85 85 0 0 0-18 56v299c0 4-2 8-5 9-2 1-44 23-144 23zM256 32c-26-2-51-6-77-11a11 11 0 1 1 4-21c24 5 49 9 73 11 24-2 49-6 73-11a11 11 0 1 1 4 21c-26 5-51 9-77 11z"/>
  <path fill="#030100" stroke="#000" stroke-width=".99984" d="M116 172l48-30 28 37 40-45 40 61 27-40 40 42 54-32 5 315-118 24-84-6-79-16z"/>
</svg>
