<?xml version="1.0" encoding="UTF-8" standalone="no"?>
<svg
   xmlns:dc="http://purl.org/dc/elements/1.1/"
   xmlns:cc="http://creativecommons.org/ns#"
   xmlns:rdf="http://www.w3.org/1999/02/22-rdf-syntax-ns#"
   xmlns:svg="http://www.w3.org/2000/svg"
   xmlns="http://www.w3.org/2000/svg"
   xmlns:sodipodi="http://sodipodi.sourceforge.net/DTD/sodipodi-0.dtd"
   xmlns:inkscape="http://www.inkscape.org/namespaces/inkscape"
   height="133"
   width="250"
   version="1.1"
   id="svg2"
   viewBox="0 0 250 133"
   sodipodi:docname="logo2_eng.svg"
   inkscape:export-filename="/home/amir/tnuatiming.github.io/images/logo2_eng_new.svg.png"
   inkscape:export-xdpi="96"
   inkscape:export-ydpi="96"
   inkscape:version="0.92.2 2405546, 2018-03-11">
  <sodipodi:namedview
     pagecolor="#ffffff"
     bordercolor="#666666"
     borderopacity="1"
     objecttolerance="10"
     gridtolerance="10"
     guidetolerance="10"
     inkscape:pageopacity="0"
     inkscape:pageshadow="2"
     inkscape:window-width="2891"
     inkscape:window-height="2037"
     id="namedview15"
     showgrid="false"
     inkscape:zoom="1.5395044"
     inkscape:cx="5.0615359"
     inkscape:cy="58.547714"
     inkscape:window-x="0"
     inkscape:window-y="0"
     inkscape:window-maximized="0"
     inkscape:current-layer="svg2" />
  <metadata
     id="metadata18">
    <rdf:RDF>
      <cc:Work
         rdf:about="">
        <dc:format>image/svg+xml</dc:format>
        <dc:type
           rdf:resource="http://purl.org/dc/dcmitype/StillImage" />
        <dc:title></dc:title>
      </cc:Work>
    </rdf:RDF>
  </metadata>
  <defs
     id="defs16" />
  <path
     inkscape:connector-curvature="0"
     style="font-style:normal;font-variant:normal;font-weight:bold;font-stretch:normal;font-size:192px;line-height:1.25;font-family:Cantarell;-inkscape-font-specification:'Cantarell Bold';letter-spacing:-12px;word-spacing:0px;fill:#58585a;fill-opacity:1;stroke:none;stroke-width:0.57539558"
     d="M 14.361703,1.4999998 V 13.98484 h 25.1875 V 39.955452 55.854521 68.24601 H 53.138698 V 55.854521 39.955452 13.98484 H 78.327926 V 1.4999998 Z"
     id="path903" />
  <path
     inkscape:connector-curvature="0"
     d="m 131.14876,37.643822 c 0,-14.47235 -4.41904,-23.75233 -19.55424,-23.75233 -5.9657,0 -12.152357,1.546664 -18.33901,4.63999 L 91.266942,15.106728 H 81.76601 V 68.24566 H 95.354553 V 27.921938 c 5.413317,-1.988567 9.611407,-2.98285 12.704737,-2.98285 6.62856,0 9.50093,4.639989 9.50093,11.047595 V 68.24566 h 13.58854 z"
     style="font-style:normal;font-variant:normal;font-weight:bold;font-stretch:normal;font-size:192px;line-height:1.25;font-family:Cantarell;-inkscape-font-specification:'Cantarell Bold';letter-spacing:-12px;word-spacing:0px;fill:#58585a;fill-opacity:1;stroke:none;stroke-width:0.57539558"
     id="path905" />
  <path
     inkscape:connector-curvature="0"
     d="m 157.41097,69.35042 c 7.62283,0 11.26854,-1.878091 17.12377,-4.971418 l 2.09904,3.866658 h 9.27999 V 15.106728 h -13.58855 v 39.550391 c -3.53523,2.099043 -7.18094,3.203802 -11.04759,3.203802 -7.07046,0 -9.83237,-4.63999 -9.83237,-11.047595 V 15.106728 h -13.58854 v 29.828507 c 0,14.693301 3.97714,24.415185 19.55425,24.415185 z"
     style="font-style:normal;font-variant:normal;font-weight:bold;font-stretch:normal;font-size:192px;line-height:1.25;font-family:Cantarell;-inkscape-font-specification:'Cantarell Bold';letter-spacing:-12px;word-spacing:0px;fill:#58585a;fill-opacity:1;stroke:none;stroke-width:0.57539558"
     id="path907" />
  <path
     inkscape:connector-curvature="0"
     d="m 222.04976,55.651402 c -2.87238,1.767615 -6.07618,3.093326 -10.93712,3.093326 -4.86094,0 -8.83808,-1.878091 -8.83808,-6.297129 0,-7.401889 11.59997,-7.401889 19.7752,-7.401889 z m 0,-19.996147 c -16.35044,0 -33.36374,1.546663 -33.36374,17.786628 0,10.163788 8.50665,15.908537 19.11234,15.908537 6.18665,0 11.37902,-1.546663 15.46663,-4.750466 l 1.76762,3.645706 H 235.6383 V 35.434303 c 0,-15.356157 -7.8438,-21.542811 -24.41518,-21.542811 -6.95999,0 -15.79807,1.65714 -18.44949,3.424755 l 2.65142,10.163787 c 3.42476,-1.878091 9.50093,-3.53523 13.69902,-3.53523 10.05331,0 12.92569,2.319995 12.92569,11.710451 z"
     style="font-style:normal;font-variant:normal;font-weight:bold;font-stretch:normal;font-size:192px;line-height:1.25;font-family:Cantarell;-inkscape-font-specification:'Cantarell Bold';letter-spacing:-12px;word-spacing:0px;fill:#58585a;fill-opacity:1;stroke:none;stroke-width:0.57539558"
     id="path909" />
  <path
     inkscape:connector-curvature="0"
     d="m 18.043165,78.692491 v 6.241892 h 12.594258 v 31.982787 h 6.794272 V 84.934383 h 12.594258 v -6.241892 z"
     style="font-style:normal;font-variant:normal;font-weight:bold;font-stretch:normal;font-size:96px;line-height:1.25;font-family:Cantarell;-inkscape-font-specification:'Cantarell Bold';letter-spacing:16px;word-spacing:0px;fill:#58585a;fill-opacity:1;stroke:none;stroke-width:0.57539558"
     id="path1082" />
  <path
     inkscape:connector-curvature="0"
     d="m 66.622951,87.143901 c 2.154281,0 4.08761,-1.933329 4.08761,-4.087609 0,-2.154282 -1.933329,-4.087611 -4.08761,-4.087611 -2.154281,0 -4.08761,1.933329 -4.08761,4.087611 0,2.15428 1.933329,4.087609 4.08761,4.087609 z m -3.314278,3.203803 v 26.569466 h 6.628556 V 90.347704 Z"
     style="font-style:normal;font-variant:normal;font-weight:bold;font-stretch:normal;font-size:96px;line-height:1.25;font-family:Cantarell;-inkscape-font-specification:'Cantarell Bold';letter-spacing:16px;word-spacing:0px;fill:#58585a;fill-opacity:1;stroke:none;stroke-width:0.57539558"
     id="path1084" />
  <path
     inkscape:connector-curvature="0"
     d="m 100.84691,89.740086 c -3.479998,0 -6.297134,1.546664 -8.61713,2.319995 l -0.994283,-1.712377 h -4.750466 v 26.569466 h 6.794271 V 96.921024 c 2.043806,-0.883808 3.479992,-1.491426 5.74475,-1.491426 3.093328,0 4.308558,2.375233 4.308558,5.358082 v 16.12949 h 6.79428 v -15.02473 c 0,-1.6019 -0.16572,-3.259039 -0.49715,-4.805702 2.20953,-0.994285 3.70095,-1.65714 6.24189,-1.65714 3.09333,0 4.14285,2.375233 4.14285,5.358082 v 16.12949 h 6.79427 v -15.30092 c 0,-7.125698 -1.71237,-11.876164 -9.1695,-11.876164 -2.87237,0 -6.18665,0.939046 -9.83236,2.761899 -1.6019,-1.822853 -3.9219,-2.761899 -6.95998,-2.761899 z"
     style="font-style:normal;font-variant:normal;font-weight:bold;font-stretch:normal;font-size:96px;line-height:1.25;font-family:Cantarell;-inkscape-font-specification:'Cantarell Bold';letter-spacing:16px;word-spacing:0px;fill:#58585a;fill-opacity:1;stroke:none;stroke-width:0.57539558"
     id="path1086" />
  <path
     inkscape:connector-curvature="0"
     d="m 146.42312,87.143901 c 2.15429,0 4.08762,-1.933329 4.08762,-4.087609 0,-2.154282 -1.93333,-4.087611 -4.08762,-4.087611 -2.15427,0 -4.0876,1.933329 -4.0876,4.087611 0,2.15428 1.93333,4.087609 4.0876,4.087609 z m -3.31428,3.203803 v 26.569466 h 6.62857 V 90.347704 Z"
     style="font-style:normal;font-variant:normal;font-weight:bold;font-stretch:normal;font-size:96px;line-height:1.25;font-family:Cantarell;-inkscape-font-specification:'Cantarell Bold';letter-spacing:16px;word-spacing:0px;fill:#58585a;fill-opacity:1;stroke:none;stroke-width:0.57539558"
     id="path1088" />
  <path
     inkscape:connector-curvature="0"
     d="m 190.97658,101.61625 c 0,-7.236174 -2.20952,-11.876164 -9.77712,-11.876164 -2.98285,0 -6.07618,0.773332 -9.1695,2.319995 l -0.99428,-1.712377 h -4.75048 v 26.569466 h 6.79427 V 96.75531 c 2.70667,-0.994284 4.80571,-1.491426 6.35238,-1.491426 3.31427,0 4.75046,2.319995 4.75046,5.523796 v 16.12949 h 6.79427 z"
     style="font-style:normal;font-variant:normal;font-weight:bold;font-stretch:normal;font-size:96px;line-height:1.25;font-family:Cantarell;-inkscape-font-specification:'Cantarell Bold';letter-spacing:16px;word-spacing:0px;fill:#58585a;fill-opacity:1;stroke:none;stroke-width:0.57539558"
     id="path1090" />
  <path
     inkscape:connector-curvature="0"
     d="m 227.2616,90.292466 -0.82857,2.154281 c -2.26475,-1.878091 -4.97142,-2.706661 -8.23045,-2.706661 -8.94856,0 -12.53903,5.689512 -12.53903,13.754254 0,8.06474 4.69523,13.97521 12.6495,13.97521 2.26476,0 4.52951,-0.55238 6.84951,-1.65714 v 0.27619 c 0,6.79427 -1.76762,10.10855 -8.50665,10.10855 -1.87809,0 -4.14285,-0.44191 -6.73903,-1.38095 l -1.10476,-0.38666 -1.82286,4.91617 1.04953,0.44191 c 2.92761,1.21523 6.13141,1.71238 9.33521,1.71238 9.39046,0 14.58283,-5.35809 14.58283,-13.97521 V 90.292466 Z m -2.09904,6.462844 v 13.47806 c -1.65714,1.27048 -3.53523,1.8781 -5.74475,1.8781 -4.52951,0 -6.95999,-3.03809 -6.95999,-8.23046 0,-5.192371 1.82286,-8.617126 7.40189,-8.617126 1.98857,0 4.19809,0.662855 5.30285,1.491426 z"
     style="font-style:normal;font-variant:normal;font-weight:bold;font-stretch:normal;font-size:96px;line-height:1.25;font-family:Cantarell;-inkscape-font-specification:'Cantarell Bold';letter-spacing:16px;word-spacing:0px;fill:#58585a;fill-opacity:1;stroke:none;stroke-width:0.57539558"
     id="path1092" />
</svg>
