<svg xmlns="http://www.w3.org/2000/svg" viewBox="0 0 254 96.000003" ><path style="line-height:125%;-inkscape-font-specification:'Noto Sans Hebrew, Bold';text-align:start" d="M202.8096 13.0487h-8.9437V1.6573h32.762q13.557 0 19.441 5.7428Q252 13.096 252 26.323v33.7507h-12.7565V26.5113q0-7.5315-3.0597-10.497-3.0597-2.9656-10.3088-2.9656h-10.356v24.6658q0 8.1905-1.8828 13.039-1.8358 4.8484-5.7428 7.1078-3.907 2.2124-11.3443 2.2124h-3.2V48.6823h.8q3.295 0 5.178-1.1768 1.883-1.224 2.683-3.7658.8-2.542.8-7.6727V13.0487zm-20.0998 47.025h-30.4556V48.6823h17.7462v-21.559q0-6.3548-.8473-9.038-.847-2.73-2.824-3.8598-1.977-1.1768-5.79-1.1768h-5.601V1.6573h8.0025q8.0964 0 12.0975 2.1653 4.001 2.1653 5.837 7.108 1.836 4.9424 1.836 13.745v35.398zM127.871 1.6582v22.461c.2295-.0237.4618-.0352.6974-.0352 3.7365 0 6.7832 3.0466 6.7832 6.7832 0 3.7366-3.0467 6.7812-6.7832 6.7812-.2356 0-.468-.0115-.6973-.035V60.074h12.709V1.6582h-12.709zM61.9228 49.765q12.1446-.1883 18.876-2.4007L64.135 1.6573h13.792l13.8864 40.0113q5.319-4.2836 7.5786-13.5568 2.2595-9.2732 2.2595-26.4545h13.086q0 22.4534-5.0367 35.1628-4.9898 12.663-16.1928 18.641-11.2032 5.931-31.5854 6.826V49.765zM15.651 60.0737H2.9413V24.5814H15.651v35.4923zm36.669 0H39.5636v-33.939q0-7.202-3.0596-10.1205-3.0598-2.9655-10.6384-2.9655H2V1.6573h24.6658q13.8863 0 19.7703 5.6957 5.884 5.6957 5.884 18.876v33.8447z" font-weight="bold" font-size="90" font-family="Noto Sans Hebrew" letter-spacing="0" word-spacing="0" fill="#58585a"/><path style="line-height:125%;-inkscape-font-specification:'Noto Sans Hebrew, Normal';text-align:start" d="M241.0557 64.9933q5.6958 0 8.3083 3.4833Q252 71.9364 252 79.4916v14.851h-14.1687v-4.001h9.791V80.0328q0-5.7663-1.4828-8.3788-1.4827-2.6125-5.0367-2.6125-3.1774 0-5.225 2.895-2.0476 2.8713-3.7893 10.1204l-2.942 12.285h-4.6602l3.2245-12.639q1.1062-4.4014 2.2124-7.1786l-5.884-9.0614h5.1073l2.942 4.778q1.8358-2.7773 3.9305-4.001 2.0947-1.2475 5.0367-1.2475zM217.802 94.3427h-4.354V69.465h-16.4753v-4.001h24.4304v4.001h-3.601v24.8777zM187.5818 65.464h4.3306v15.1807h-4.3306V65.464zm-9.0378 28.8787h-4.3542V69.465h-16.4753v-4.001h24.4305v4.001h-3.601v24.8777zM129.589 69.465h-4.472v-4.001h15.6045q6.496 0 9.3203 2.7772 2.8243 2.7538 2.8243 9.179v16.9225h-4.33V77.3732q0-4.3306-1.765-6.1193-1.7415-1.789-6.096-1.789h-6.755v13.698q0 4.33-.8 6.708-.7767 2.377-2.5184 3.436-1.7416 1.035-5.484 1.035h-.2587v-4.001h.4q1.6475 0 2.589-.5887.9414-.612 1.3415-1.883.4-1.2708.4-3.8363V69.465zm-19.6647.1884v4.4954l-2.5655-.8708q-1.3886.7296-1.93 1.365-.5413.6355-.7766 1.53-.2354.8707-.2354 2.2123v15.9574h-4.3306v-15.769q0-2.495.9414-4.0483.965-1.5534 3.248-2.3066l-8.0493-2.7066v-4.472l13.698 4.6132zm-29.726-4.66q5.6956 0 8.308 3.4832 2.636 3.4598 2.636 11.015v14.851H76.974v-4.001h9.791V80.0328q0-5.7663-1.4828-8.3788t-5.0367-2.6125q-3.1774 0-5.225 2.895-2.0477 2.8713-3.7893 10.1204l-2.942 12.285H63.629l3.2245-12.639q1.1062-4.4014 2.2124-7.1786l-5.884-9.0614h5.107l2.942 4.778q1.836-2.7773 3.93-4.001 2.0946-1.2475 5.0366-1.2475zM58.0507 94.3426H44.847v-4.001h8.8732V77.8674q0-3.7658-.4002-5.3898-.3765-1.624-1.2944-2.3065-.918-.706-2.6596-.706h-3.1774v-4.001h3.0362q3.7657 0 5.484 1.059 1.7415 1.036 2.5418 3.437.8002 2.377.8002 6.684v17.699zM34.7267 65.464h4.3305v15.1807h-4.3306V65.464zM26.795 94.3427H2.0584V65.464h12.639q6.4958 0 9.2966 2.7772 2.801 2.7773 2.801 9.179v16.9225zM6.389 69.465v20.8766h16.0517V77.3732q0-4.2835-1.7416-6.0958-1.718-1.8123-6.048-1.8123H6.389z" font-size="45" font-family="Noto Sans Hebrew" letter-spacing="0" word-spacing="-.56" fill="#58585a"/><path d="M133.7687 30.8654a5.2 5.2 0 0 1-5.2 5.2 5.2 5.2 0 0 1-5.2-5.2 5.2 5.2 0 0 1 5.2-5.2 5.2 5.2 0 0 1 5.2 5.2z" fill="#fc3"/></svg>