<?xml version="1.0" encoding="UTF-8" standalone="no"?>
<svg
   xmlns:dc="http://purl.org/dc/elements/1.1/"
   xmlns:cc="http://creativecommons.org/ns#"
   xmlns:rdf="http://www.w3.org/1999/02/22-rdf-syntax-ns#"
   xmlns:svg="http://www.w3.org/2000/svg"
   xmlns="http://www.w3.org/2000/svg"
   xmlns:sodipodi="http://sodipodi.sourceforge.net/DTD/sodipodi-0.dtd"
   xmlns:inkscape="http://www.inkscape.org/namespaces/inkscape"
   viewBox="0 0 1200 630"
   id="svg2"
   version="1.1"
   inkscape:version="0.92.2 5c3e80d, 2017-08-06"
   sodipodi:docname="logo2_og_eng.svg"
   width="1200"
   height="630"
   inkscape:export-filename="/home/amir/amirsher.github.io/images/logo2_og_eng.png"
   inkscape:export-xdpi="90"
   inkscape:export-ydpi="90">
  <metadata
     id="metadata18">
    <rdf:RDF>
      <cc:Work
         rdf:about="">
        <dc:format>image/svg+xml</dc:format>
        <dc:type
           rdf:resource="http://purl.org/dc/dcmitype/StillImage" />
        <dc:title />
      </cc:Work>
    </rdf:RDF>
  </metadata>
  <defs
     id="defs16" />
  <sodipodi:namedview
     pagecolor="#ffffff"
     bordercolor="#666666"
     borderopacity="1"
     objecttolerance="10"
     gridtolerance="10"
     guidetolerance="10"
     inkscape:pageopacity="1"
     inkscape:pageshadow="2"
     inkscape:window-width="2876"
     inkscape:window-height="1720"
     id="namedview14"
     showgrid="false"
     inkscape:zoom="1.45"
     inkscape:cx="613.84173"
     inkscape:cy="265.68966"
     inkscape:window-x="0"
     inkscape:window-y="0"
     inkscape:window-maximized="0"
     inkscape:current-layer="svg2" />
  <g
     id="g964"
     transform="translate(6.1849427e-6,15.999999)">
    <g
       transform="matrix(3.75,0,0,3.75,303.89858,197)"
       style="fill-opacity:1;stroke:none"
       id="g4148">
      <circle
         r="7"
         transform="rotate(29.999995)"
         style="fill:#ff6600"
         cx="24.284611"
         cy="-5.9378204"
         id="circle4150" />
      <circle
         r="7"
         transform="rotate(150)"
         style="fill:#cc0000"
         cx="5.9378204"
         cy="-24.284611"
         id="circle4152" />
      <circle
         r="7"
         transform="rotate(74.999997)"
         style="fill:#003399"
         cx="33.793804"
         cy="-33.3913"
         id="circle4154" />
      <circle
         r="7"
         transform="rotate(-29.999995)"
         style="fill:#66cc33"
         cx="0.28461337"
         cy="47.507042"
         id="circle4156" />
    </g>
    <g
       transform="translate(0,-35.200001)"
       id="g946">
      <g
         id="g934">
        <g
           id="g923">
          <path
             style="font-style:normal;font-variant:normal;font-weight:bold;font-stretch:normal;font-size:192px;line-height:1.25;font-family:Cantarell;-inkscape-font-specification:'Cantarell Bold';letter-spacing:-12px;word-spacing:0px;fill:#58585a;fill-opacity:1;stroke:none"
             d="m 511.53711,232.00205 v 21.69727 h 43.77539 v 72.76758 h 23.61523 v -72.76758 h 43.77735 v -21.69727 z"
             id="path903"
             inkscape:connector-curvature="0" />
          <path
             inkscape:connector-curvature="0"
             id="path905"
             style="font-style:normal;font-variant:normal;font-weight:bold;font-stretch:normal;font-size:192px;line-height:1.25;font-family:Cantarell;-inkscape-font-specification:'Cantarell Bold';letter-spacing:-12px;word-spacing:0px;fill:#58585a;fill-opacity:1;stroke:none"
             d="m 714.5054,273.28205 c 0,-25.152 -7.68,-41.28 -33.984,-41.28 -10.368,0 -21.12,2.688 -31.872,8.064 l -3.456,-5.952 h -16.512 v 92.352 h 23.616 v -70.08 c 9.408,-3.456 16.704,-5.184 22.08,-5.184 11.52,0 16.512,8.064 16.512,19.2 v 56.064 h 23.616 z" />
          <path
             inkscape:connector-curvature="0"
             id="path907"
             style="font-style:normal;font-variant:normal;font-weight:bold;font-stretch:normal;font-size:192px;line-height:1.25;font-family:Cantarell;-inkscape-font-specification:'Cantarell Bold';letter-spacing:-12px;word-spacing:0px;fill:#58585a;fill-opacity:1;stroke:none"
             d="m 760.1474,328.38605 c 13.248,0 19.584,-3.264 29.76,-8.64 l 3.648,6.72 h 16.128 v -92.352 h -23.616 v 68.736 c -6.144,3.648 -12.48,5.568 -19.2,5.568 -12.288,0 -17.088,-8.064 -17.088,-19.2 v -55.104 h -23.616 v 51.84 c 0,25.536 6.912,42.432 33.984,42.432 z" />
          <path
             inkscape:connector-curvature="0"
             id="path909"
             style="font-style:normal;font-variant:normal;font-weight:bold;font-stretch:normal;font-size:192px;line-height:1.25;font-family:Cantarell;-inkscape-font-specification:'Cantarell Bold';letter-spacing:-12px;word-spacing:0px;fill:#58585a;fill-opacity:1;stroke:none"
             d="m 872.4854,304.57805 c -4.992,3.072 -10.56,5.376 -19.008,5.376 -8.448,0 -15.36,-3.264 -15.36,-10.944 0,-12.864 20.16,-12.864 34.368,-12.864 z m 0,-34.752 c -28.416,0 -57.984,2.688 -57.984,30.912 0,17.664 14.784,27.648 33.216,27.648 10.752,0 19.776,-2.688 26.88,-8.256 l 3.072,6.336 h 18.432 v -57.024 c 0,-26.688 -13.632,-37.44 -42.432,-37.44 -12.096,0 -27.456,2.88 -32.064,5.952 l 4.608,17.664 c 5.952,-3.264 16.512,-6.144 23.808,-6.144 17.472,0 22.464,4.032 22.464,20.352 z" />
        </g>
        <flowRoot
           transform="translate(284.02527,-73.248702)"
           style="font-style:normal;font-variant:normal;font-weight:normal;font-stretch:normal;font-size:40px;line-height:1.25;font-family:Cantarell;-inkscape-font-specification:Cantarell;letter-spacing:0px;word-spacing:0px;fill:#58585a;fill-opacity:1;stroke:none"
           id="flowRoot845"
           xml:space="preserve"><flowRegion
             id="flowRegion847"
             style="fill:#58585a;fill-opacity:1"><rect
               y="402.22223"
               x="233.33333"
               height="141.26984"
               width="407.93649"
               id="rect849"
               style="fill:#58585a;fill-opacity:1" /></flowRegion><flowPara
             style="font-style:normal;font-variant:normal;font-weight:bold;font-stretch:normal;font-size:96px;font-family:Cantarell;-inkscape-font-specification:'Cantarell Bold';letter-spacing:16px;fill:#58585a;fill-opacity:1"
             id="flowPara851">Timing</flowPara></flowRoot>      </g>
    </g>
  </g>
</svg>
