<?xml version="1.0" encoding="UTF-8" standalone="no"?>
<svg
   xmlns:dc="http://purl.org/dc/elements/1.1/"
   xmlns:cc="http://creativecommons.org/ns#"
   xmlns:rdf="http://www.w3.org/1999/02/22-rdf-syntax-ns#"
   xmlns:svg="http://www.w3.org/2000/svg"
   xmlns="http://www.w3.org/2000/svg"
   xmlns:xlink="http://www.w3.org/1999/xlink"
   height="42"
   width="125"
   version="1.1"
   id="svg2">
  <metadata
     id="metadata8">
    <rdf:RDF>
      <cc:Work
         rdf:about="">
        <dc:format>image/svg+xml</dc:format>
        <dc:type
           rdf:resource="http://purl.org/dc/dcmitype/StillImage" />
        <dc:title></dc:title>
      </cc:Work>
    </rdf:RDF>
  </metadata>
  <defs
     id="defs6">
    <linearGradient
       id="linearGradient4049">
      <stop
         id="stop4051"
         offset="0"
         style="stop-color:#000000;stop-opacity:1;" />
      <stop
         id="stop4053"
         offset="1"
         style="stop-color:#000000;stop-opacity:0;" />
    </linearGradient>
    <linearGradient
       gradientTransform="matrix(1.0458555,0,0,1.0458555,-12.02732,89.166348)"
       y2="9.615015"
       x2="21.214624"
       y1="-11.665337"
       x1="78.001091"
       gradientUnits="userSpaceOnUse"
       id="linearGradient3008"
       xlink:href="#linearGradient4049" />
  </defs>
  <g
     transform="matrix(0.54164581,0,0,0.54164581,-7.1041036e-7,-15.561093)"
     id="g3002">
    <path
       id="path2996"
       style="font-style:normal;font-variant:normal;font-weight:bold;font-stretch:normal;font-size:72px;line-height:125%;font-family:Sans;-inkscape-font-specification:'Clean Bold';text-align:center;letter-spacing:0px;word-spacing:0px;text-anchor:middle;fill:#000000;fill-opacity:1;stroke:none"
       d="m 230.51714,49.747532 0,23.984795 -13.18765,0 0,-24.024637 c -3e-5,-4.674748 -0.66406,-7.716007 -1.99209,-9.123783 -1.22185,-1.328028 -3.09442,-1.992057 -5.6177,-1.992093 l -5.61771,0 0,18.406936 c -1e-5,6.720001 -1.18198,11.315089 -3.54592,13.785279 -2.09835,2.204583 -5.1396,3.306874 -9.12378,3.306874 -3.98419,0 -6.79967,-0.278893 -8.44648,-0.836679 l 0,-8.964417 c 2.603,0.345306 4.06387,0.517954 4.38261,0.517945 1.32806,9e-6 2.24442,-0.517935 2.74908,-1.553833 0.53122,-1.062437 0.79684,-3.147492 0.79685,-6.255169 l 0,-18.406936 -7.76916,0 0,-9.48236 26.57451,0 c 9.34951,4.4e-5 15.41876,2.576481 18.20772,7.729319 1.72644,3.187382 2.58968,7.490297 2.58972,12.908759" />
    <path
       id="path2998"
       style="font-style:normal;font-variant:normal;font-weight:bold;font-stretch:normal;font-size:72px;line-height:125%;font-family:Sans;-inkscape-font-specification:'Clean Bold';text-align:center;letter-spacing:0px;word-spacing:0px;text-anchor:middle;fill:#000000;fill-opacity:1;stroke:none"
       d="m 160.49092,64.249966 0,-17.769465 c -2e-5,-3.532614 -0.54453,-5.723913 -1.63352,-6.573906 -1.08902,-0.876486 -2.49677,-1.314745 -4.22323,-1.314781 l -6.09581,0 0,-9.48236 6.09581,0 c 7.64961,4.4e-5 12.73608,1.514033 15.25942,4.541971 2.52329,3.028017 3.78495,7.012199 3.78497,11.952554 l 0,28.128348 -26.05656,0 0,-9.482361 12.86892,0" />
    <path
       id="path3002"
       style="font-style:normal;font-variant:normal;font-weight:bold;font-stretch:normal;font-size:72px;line-height:125%;font-family:Sans;-inkscape-font-specification:'Clean Bold';text-align:center;letter-spacing:0px;word-spacing:0px;text-anchor:middle;fill:url(#linearGradient3008);fill-opacity:1;stroke:none"
       d="m 96.369641,41.500269 0,-12.390815 13.386859,0 0,12.390815 c -4e-5,2.974887 -0.13286,5.591167 -0.39842,7.848846 -0.23909,2.231164 -0.69064,4.462305 -1.35462,6.69343 -0.63752,2.231158 -1.5406,4.209968 -2.70925,5.936436 -1.14217,1.72649 -2.60304,3.399845 -4.38261,5.020072 -1.779635,1.62024 -3.95765,3.12095 -6.534052,4.50213 -2.549912,1.381184 -5.524766,2.682684 -8.92458,3.904501 L 7.7896609,105.90498 4.704565e-7,90.815969 77.404915,67.716207 66.32888,29.109454 l 13.625914,0 9.402677,33.666363 c 2.57641,-1.753028 4.382576,-4.196659 5.418496,-7.3309 1.062411,-3.134204 1.593632,-7.782416 1.593674,-13.944648" />
    <path
       id="path3004"
       style="font-style:normal;font-variant:normal;font-weight:bold;font-stretch:normal;font-size:72px;line-height:125%;font-family:Sans;-inkscape-font-specification:'Clean Bold';text-align:center;letter-spacing:0px;word-spacing:0px;text-anchor:middle;fill:#000000;fill-opacity:1;stroke:none"
       d="m 28.040863,44.966511 0,28.765816 -13.14781,0 0,-23.347325 13.14781,-5.418491 m 27.331509,6.095802 0,22.670014 -13.147811,0 0,-24.024637 c -3.5e-5,-4.329452 -0.55782,-7.264466 -1.673356,-8.805048 -1.089044,-1.540518 -3.227222,-2.310792 -6.41454,-2.310828 l -20.000608,0 0,-9.48236 19.920926,0 c 4.010714,4.4e-5 7.357427,0.398462 10.040146,1.195255 2.682644,0.796881 4.860663,2.098379 6.534063,3.904502 1.699873,1.779639 2.908408,4.024062 3.625609,6.733272 0.743665,2.709276 1.115523,6.082549 1.115571,10.11983" />
    <path
       id="path3002-6"
       style="font-style:normal;font-variant:normal;font-weight:bold;font-stretch:normal;font-size:72px;line-height:125%;font-family:Sans;-inkscape-font-specification:'Clean Bold';text-align:center;letter-spacing:0px;word-spacing:0px;text-anchor:middle;fill:none;stroke:#ffffff;stroke-width:2.64171052;stroke-miterlimit:0;stroke-dasharray:7.92513148, 7.92513148;stroke-dashoffset:0;stroke-opacity:1;marker-start:none"
       d="m 102.52963,31.425754 0,10.821149 c -5e-5,2.59803 -0.12743,4.882879 -0.38216,6.854555 -0.22932,1.948521 -0.66242,3.897023 -1.2993,5.845508 -0.61147,1.948516 -1.477666,3.676651 -2.598593,5.18441 -1.095523,1.507778 -2.496729,2.969152 -4.203628,4.38413 -1.706946,1.414989 -3.796015,2.725588 -6.267195,3.931801 -2.445781,1.206217 -5.299137,2.342841 -8.560102,3.409879 L 4.7271732,98.492833" />
    <flowRoot
       xml:space="preserve"
       id="flowRoot3977"
       style="font-style:normal;font-variant:normal;font-weight:normal;font-stretch:normal;font-size:14px;line-height:125%;font-family:Alef;-inkscape-font-specification:Alef;text-align:center;letter-spacing:0px;word-spacing:0px;text-anchor:middle;fill:#000000;fill-opacity:1;stroke:none"
       transform="matrix(1.0185988,0,0,1.0185988,181.71364,83.2669)"><flowRegion
         id="flowRegion3979"><rect
           id="rect3981"
           width="300.05298"
           height="102.1457"
           x="-158.00662"
           y="-10.377483" /></flowRegion><flowPara
         id="flowPara3983"
         style="font-style:normal;font-variant:normal;font-weight:500;font-stretch:normal;font-size:9.81740761px;line-height:125%;font-family:'Helvetica Neue LT Pro';-inkscape-font-specification:'Helvetica Neue LT Pro Medium';text-align:center;letter-spacing:0px;writing-mode:lr-tb;text-anchor:middle">מערכות מחשוב וניווט בע&quot;מ</flowPara></flowRoot>    <path
       style="font-style:normal;font-variant:normal;font-weight:bold;font-stretch:normal;font-size:72px;line-height:125%;font-family:Sans;-inkscape-font-specification:'Clean Bold';text-align:center;letter-spacing:0px;word-spacing:0px;text-anchor:middle;fill:#000000;fill-opacity:1;stroke:none"
       d="m 120.69828,29.095023 0,13.628804 c 0.39384,-0.07426 0.8073,-0.130732 1.21977,-0.130732 4.01904,0 7.26107,3.64833 7.26107,8.170746 0,4.522417 -3.24203,8.203429 -7.26107,8.203429 -0.41198,0 -0.82634,-0.05669 -1.21977,-0.130732 l 0,14.903441 15.161,0 0,-44.644956 -15.161,0 z"
       id="path3000" />
    <path
       style="font-style:normal;font-variant:normal;font-weight:bold;font-stretch:normal;font-size:72px;line-height:125%;font-family:Sans;-inkscape-font-specification:'Clean Bold';text-align:center;letter-spacing:0px;word-spacing:0px;text-anchor:middle;fill:#ff0000;fill-opacity:1;stroke:none"
       d="m 120.69828,56.549709 c 0.3281,0.06309 0.62285,0.200696 0.9676,0.200696 0.79692,0 1.56711,-0.158592 2.25766,-0.476654 0.69055,-0.318059 1.29768,-0.785979 1.81998,-1.354698 0.52224,-0.568719 0.95192,-1.254983 1.24402,-2.006962 0.29207,-0.751977 0.46074,-1.565604 0.46074,-2.43344 0,-0.867837 -0.16867,-1.70655 -0.46074,-2.458528 -0.2921,-0.751977 -0.72178,-1.413156 -1.24402,-1.981874 -0.5223,-0.56872 -1.12943,-1.036638 -1.81998,-1.3547 -0.69055,-0.31806 -1.46074,-0.50174 -2.25766,-0.50174 -0.34562,0 -0.63869,0.162373 -0.9676,0.225784 l 0,12.142116 z"
       id="path4047" />
  </g>
</svg>
