<svg xmlns="http://www.w3.org/2000/svg" xmlns:xlink="http://www.w3.org/1999/xlink" version="1" viewBox="0 0 512 512">
  <defs>
    <path id="a" d="M67.098 200.299h1065.8051V822.04H67.098z"/>
    <clipPath id="b">
      <use width="100%" height="100%" overflow="visible" xlink:href="#a"/>
    </clipPath>
  </defs>
  <path fill="#00008b" fill-opacity=".9972" d="M67.098 200.299h1065.8051V822.04H67.098z" clip-path="url(#b)" transform="matrix(.48039 0 0 .549 -32.233 -24.6297)"/>
  <path fill="#fff" d="M413.252 612.903l-29.322 44.124 45.555 27.025-52.761 4.61 7.26 52.443-36.511-38.365-36.476 38.365 7.277-52.443-52.778-4.61 45.554-27.025-29.322-44.124 49.547 18.776 16.198-50.482 16.249 50.482zM939.576 687.109l-13.939 21.001 21.693 12.877-25.155 2.19 3.48 24.959-17.398-18.283-17.364 18.283 3.446-24.959-25.118-2.19 21.69-12.877-13.971-21.001 23.615 8.9 7.702-23.986 7.736 23.986zM799.397 465.111l-13.973 21.056 21.691 12.824-25.118 2.19 3.462 24.976-17.381-18.265-17.398 18.265 3.48-24.976-25.136-2.19 21.69-12.824-13.952-21.056 23.58 8.955 7.736-24.022 7.737 24.022zM939.576 313.257l-13.939 21.002 21.693 12.894-25.155 2.172 3.48 24.978-17.398-18.265-17.364 18.265 3.446-24.978-25.118-2.172 21.69-12.894-13.971-21.002 23.615 8.921 7.702-24.024 7.736 24.024zM1064.21 427.753l-13.973 21.002 21.709 12.86-25.135 2.206 3.462 24.996-17.382-18.301-17.38 18.301 3.462-24.996-25.153-2.206 21.709-12.86-13.973-21.002 23.617 8.903 7.718-23.988 7.72 23.988zM950.614 567.42l3.869-15.704-12.364-10.422 16.126-1.183 6.112-14.978 6.112 14.978 16.109 1.183-12.347 10.422 3.851 15.704-13.725-8.514zM300.752 387.233v93.493h93.477v-93.493H627.9v-93.494H394.229v-93.44h-93.477v93.44H67.098v93.494z" clip-path="url(#b)" transform="matrix(.48039 0 0 .549 -32.233 -24.6297)"/>
  <path fill="#fff" d="M627.866 449.355L129.803 200.299H67.098v31.334l498.078 249.093h62.69z" clip-path="url(#b)" transform="matrix(.48039 0 0 .549 -32.233 -24.6297)"/>
  <path fill="#fff" d="M627.866 231.633v-31.334h-62.69L67.098 449.355v31.371h62.705z" clip-path="url(#b)" transform="matrix(.48039 0 0 .549 -32.233 -24.6297)"/>
  <path fill="red" d="M319.44 368.527v112.199h56.101V368.527h252.325v-56.064H375.541V200.299H319.44v112.164H67.098v56.064z" clip-path="url(#b)" transform="matrix(.48039 0 0 .549 -32.233 -24.6297)"/>
  <path fill="red" d="M67.098 200.299v20.931l145.125 72.509h41.809zm518.993 0l-186.935 93.44h41.793l186.917-93.44zM254.032 387.233L67.098 480.726h41.809l186.917-93.493zm186.917 0L627.9 480.726v-20.915l-145.142-72.578z" clip-path="url(#b)" transform="matrix(.48039 0 0 .549 -32.233 -24.6297)"/>
</svg>
