<svg xmlns="http://www.w3.org/2000/svg" xmlns:xlink="http://www.w3.org/1999/xlink" version="1" viewBox="0 0 511.99999 341.33334">
  <defs>
    <path id="i" fill-rule="evenodd" d="M-31.5 0h33a30 30 0 0 0 30-30v-10a30 30 0 0 0-30-30h-33zm13-13h19a19 19 0 0 0 19-19v-6a19 19 0 0 0-19-19h-19z"/>
    <path id="j" d="M0 0h63v-13H12v-18h40v-12H12v-14h48v-13H0z" transform="translate(-31.5)"/>
    <path id="l" d="M-26.25 0h52.5v-12h-40.5v-16h33v-12h-33v-11H25v-12h-51.25z"/>
    <g id="m">
      <clipPath id="b">
        <path d="M-31.5 0v-70h63V0zM0-47v12h31.5v-12z"/>
      </clipPath>
      <use width="100%" height="100%" clip-path="url(#b)" xlink:href="#a"/>
      <path d="M5-35h26.5v10H5z"/>
      <path d="M21.5-35h10V0h-10z"/>
    </g>
    <path id="k" d="M-31.5 0h12v-48l14 48h11l14-48V0h12v-70H14L0-22l-14-48h-17.5z"/>
    <path id="a" fill-rule="evenodd" d="M0 0a31.5 35 0 0 0 0-70A31.5 35 0 0 0 0 0m0-13a18.5 22 0 0 0 0-44 18.5 22 0 0 0 0 44"/>
    <path id="c" fill-rule="evenodd" d="M-31.5 0h13v-26h28a22 22 0 0 0 0-44h-40zm13-39h27a9 9 0 0 0 0-18h-27z"/>
    <g id="h">
      <use width="100%" height="100%" xlink:href="#c"/>
      <path d="M28 0c0-10 0-32-15-32H-6c22 0 22 22 22 32"/>
    </g>
    <path id="n" d="M-15.75-22C-15.75-15-9-11.5 1-11.5s14.74-3.25 14.75-7.75c0-14.25-46.75-5.25-46.5-30.25C-30.5-71-6-70 3-70s26 4 25.75 21.25H13.5c0-7.5-7-10.25-15-10.25-7.75 0-13.25 1.25-13.25 8.5-.25 11.75 46.25 4 46.25 28.75C31.5-3.5 13.5 0 0 0c-11.5 0-31.55-4.5-31.5-22z"/>
    <g id="f" fill="#fff">
      <g id="e">
        <path id="d" d="M0-1v1h.5" transform="rotate(18 0 -1)"/>
        <use width="100%" height="100%" transform="scale(-1 1)" xlink:href="#d"/>
      </g>
      <use width="100%" height="100%" transform="rotate(72)" xlink:href="#e"/>
      <use width="100%" height="100%" transform="rotate(-72)" xlink:href="#e"/>
      <use width="100%" height="100%" transform="rotate(144)" xlink:href="#e"/>
      <use width="100%" height="100%" transform="rotate(-144)" xlink:href="#e"/>
    </g>
    <use id="o" width="100%" height="100%" transform="scale(31.5)" xlink:href="#f"/>
    <use id="p" width="100%" height="100%" transform="scale(26.25)" xlink:href="#f"/>
    <use id="r" width="100%" height="100%" transform="scale(21)" xlink:href="#f"/>
    <use id="q" width="100%" height="100%" transform="scale(15)" xlink:href="#f"/>
    <use id="s" width="100%" height="100%" transform="scale(10.5)" xlink:href="#f"/>
  </defs>
  <clipPath id="g">
    <circle r="735"/>
  </clipPath>
  <g transform="translate(-.000004 -85.333328)">
    <path fill="#009b3a" fill-rule="evenodd" d="M.000004 85.333496h512v341.33301h-512z"/>
    <path fill="#fedf00" d="M43.520003 256L256 385.21892 468.48 256 256 126.78108z"/>
    <path fill="#002776" d="M345.6 256a89.599998 85.333252 0 0 1-89.6 85.33325A89.599998 85.333252 0 0 1 166.4 256a89.599998 85.333252 0 0 1 89.6-85.33325A89.599998 85.333252 0 0 1 345.6 256z"/>
    <path fill="#fff" d="M-2205 1470a1785 1785 0 0 1 3570 0h-105a1680 1680 0 1 0-3360 0z" clip-path="url(#g)" transform="matrix(.1219 0 0 .1161 256 256)"/>
    <use width="100%" height="100%" y="-1697.5" fill="#009b3a" transform="matrix(.121 -.01415 .01486 .11523 204.8 426.6665)" xlink:href="#a"/>
    <use width="100%" height="100%" y="-1697.5" fill="#009b3a" transform="matrix(.1216 -.0081 .0085 .11582 204.8 426.6665)" xlink:href="#h"/>
    <use width="100%" height="100%" y="-1697.5" fill="#009b3a" transform="matrix(.12189 -.00203 .00213 .11608 204.8 426.6665)" xlink:href="#i"/>
    <use width="100%" height="100%" y="-1697.5" fill="#009b3a" transform="matrix(.12183 .00405 -.00425 .11603 204.8 426.6665)" xlink:href="#j"/>
    <use width="100%" height="100%" y="-1697.5" fill="#009b3a" transform="matrix(.12144 .01012 -.01062 .11566 204.8 426.6665)" xlink:href="#k"/>
    <use width="100%" height="100%" y="-1697.5" fill="#009b3a" transform="matrix(.12014 .01966 -.02064 .11442 204.8 426.6665)" xlink:href="#l"/>
    <use width="100%" height="100%" y="-1697.5" fill="#009b3a" transform="matrix(.11802 .02907 -.03052 .1124 204.8 426.6665)" xlink:href="#c"/>
    <use width="100%" height="100%" y="-1697.5" fill="#009b3a" transform="matrix(.11626 .03491 -.03666 .11073 204.8 426.6665)" xlink:href="#h"/>
    <use width="100%" height="100%" y="-1697.5" fill="#009b3a" transform="matrix(.11418 .04066 -.0427 .10875 204.8 426.6665)" xlink:href="#a"/>
    <use width="100%" height="100%" y="-1697.5" fill="#009b3a" transform="matrix(.1118 .0463 -.0486 .10647 204.8 426.6665)" xlink:href="#m"/>
    <use width="100%" height="100%" y="-1697.5" fill="#009b3a" transform="matrix(.1091 .0518 -.0544 .1039 204.8 426.6665)" xlink:href="#h"/>
    <use width="100%" height="100%" y="-1697.5" fill="#009b3a" transform="matrix(.1061 .05717 -.06003 .10105 204.8 426.6665)" xlink:href="#j"/>
    <use width="100%" height="100%" y="-1697.5" fill="#009b3a" transform="matrix(.10281 .06238 -.0655 .09792 204.8 426.6665)" xlink:href="#n"/>
    <use width="100%" height="100%" y="-1697.5" fill="#009b3a" transform="matrix(.09924 .06742 -.07079 .09452 204.8 426.6665)" xlink:href="#n"/>
    <use width="100%" height="100%" y="-1697.5" fill="#009b3a" transform="matrix(.0954 .07227 -.07589 .09086 204.8 426.6665)" xlink:href="#a"/>
    <use width="100%" height="100%" x="-600" y="-132" transform="matrix(.1219 0 0 .1161 256 256)" xlink:href="#o"/>
    <use width="100%" height="100%" x="-535" y="177" transform="matrix(.1219 0 0 .1161 256 256)" xlink:href="#o"/>
    <use width="100%" height="100%" x="-625" y="243" transform="matrix(.1219 0 0 .1161 256 256)" xlink:href="#p"/>
    <use width="100%" height="100%" x="-463" y="132" transform="matrix(.1219 0 0 .1161 256 256)" xlink:href="#q"/>
    <use width="100%" height="100%" x="-382" y="250" transform="matrix(.1219 0 0 .1161 256 256)" xlink:href="#p"/>
    <use width="100%" height="100%" x="-404" y="323" transform="matrix(.1219 0 0 .1161 256 256)" xlink:href="#r"/>
    <use width="100%" height="100%" x="228" y="-228" transform="matrix(.1219 0 0 .1161 256 256)" xlink:href="#o"/>
    <use width="100%" height="100%" x="515" y="258" transform="matrix(.1219 0 0 .1161 256 256)" xlink:href="#o"/>
    <use width="100%" height="100%" x="617" y="265" transform="matrix(.1219 0 0 .1161 256 256)" xlink:href="#r"/>
    <use width="100%" height="100%" x="545" y="323" transform="matrix(.1219 0 0 .1161 256 256)" xlink:href="#p"/>
    <use width="100%" height="100%" x="368" y="477" transform="matrix(.1219 0 0 .1161 256 256)" xlink:href="#p"/>
    <use width="100%" height="100%" x="367" y="551" transform="matrix(.1219 0 0 .1161 256 256)" xlink:href="#r"/>
    <use width="100%" height="100%" x="441" y="419" transform="matrix(.1219 0 0 .1161 256 256)" xlink:href="#r"/>
    <use width="100%" height="100%" x="500" y="382" transform="matrix(.1219 0 0 .1161 256 256)" xlink:href="#p"/>
    <use width="100%" height="100%" x="365" y="405" transform="matrix(.1219 0 0 .1161 256 256)" xlink:href="#r"/>
    <use width="100%" height="100%" x="-280" y="30" transform="matrix(.1219 0 0 .1161 256 256)" xlink:href="#p"/>
    <use width="100%" height="100%" x="200" y="-37" transform="matrix(.1219 0 0 .1161 256 256)" xlink:href="#r"/>
    <use width="100%" height="100%" y="330" transform="matrix(.1219 0 0 .1161 256 256)" xlink:href="#o"/>
    <use width="100%" height="100%" x="85" y="184" transform="matrix(.1219 0 0 .1161 256 256)" xlink:href="#p"/>
    <use width="100%" height="100%" y="118" transform="matrix(.1219 0 0 .1161 256 256)" xlink:href="#p"/>
    <use width="100%" height="100%" x="-74" y="184" transform="matrix(.1219 0 0 .1161 256 256)" xlink:href="#r"/>
    <use width="100%" height="100%" x="-37" y="235" transform="matrix(.1219 0 0 .1161 256 256)" xlink:href="#q"/>
    <use width="100%" height="100%" x="220" y="495" transform="matrix(.1219 0 0 .1161 256 256)" xlink:href="#p"/>
    <use width="100%" height="100%" x="283" y="430" transform="matrix(.1219 0 0 .1161 256 256)" xlink:href="#r"/>
    <use width="100%" height="100%" x="162" y="412" transform="matrix(.1219 0 0 .1161 256 256)" xlink:href="#r"/>
    <use width="100%" height="100%" x="-295" y="390" transform="matrix(.1219 0 0 .1161 256 256)" xlink:href="#o"/>
    <use width="100%" height="100%" y="575" transform="matrix(.1219 0 0 .1161 256 256)" xlink:href="#s"/>
  </g>
</svg>
