<svg xmlns="http://www.w3.org/2000/svg" viewBox="0 0 360 240">
  <path fill="#fff" fill-rule="evenodd" d="M90 0h180v240H90z"/>
  <path fill="red" fill-rule="evenodd" d="M270 0h90v240h-90zM0 0h90v240H0z"/>
  <path fill="red" d="M183.5732 200l-1.78664-34.26304a3.7717122 3.7717122 0 0 1 4.40696-3.8908l34.10424 5.99504-4.60544-12.70472a2.5806452 2.5806452 0 0 1 .794-2.89824l37.35984-30.25312-8.41688-3.93056a2.5806452 2.5806452 0 0 1-1.34984-3.13648L251.464 92.2084l-21.51856 4.56576a2.5806452 2.5806452 0 0 1-2.89832-1.50864l-4.16872-9.80648-16.794 18.0248a2.5806452 2.5806452 0 0 1-4.40696-2.26296l8.0992-41.7668-12.98264 7.50376a2.5806452 2.5806452 0 0 1-3.61288-1.072L180 40l-13.18112 25.88584a2.5806452 2.5806452 0 0 1-3.61296 1.072l-12.98264-7.50376 8.09928 41.7668a2.5806452 2.5806452 0 0 1-4.40696 2.26296l-16.794-18.0248-4.16872 9.80648a2.5806452 2.5806452 0 0 1-2.89832 1.50864L108.536 92.2084l7.38456 22.70968a2.5806452 2.5806452 0 0 1-1.34984 3.13648l-8.41688 3.93056 37.35984 30.25312a2.5806452 2.5806452 0 0 1 .794 2.89824l-4.60544 12.70472 34.10424-5.99504a3.7717122 3.7717122 0 0 1 4.40688 3.8908L176.4268 200z"/>
</svg>
