<svg xmlns="http://www.w3.org/2000/svg" viewBox="0 0 512 512">
  <path fill="#d52b1e" d="M0 85.3335h128l5.28 7.04h245.44l5.28-7.04h128v341.333H384l-5.28-7.04H133.28l-5.28 7.04H0z"/>
  <path fill="#fff" d="M128 85.3335h256v341.333H128zm132.8 315.0219l-2.4-61.3688a5.0666667 6.755549 0 0 1 5.92-6.9689l45.81333 10.7378-6.18666-22.7556a3.4666667 4.6222177 0 0 1 1.06666-5.1911L355.2 260.6222l-11.30667-7.04a3.4666667 4.6222177 0 0 1-1.81333-5.6177l9.92-40.6756-28.90667 8.1778a3.4666667 4.6222177 0 0 1-3.89333-2.7022l-5.6-17.5644-22.56 32.2844a3.4666667 4.6222177 0 0 1-5.92-4.0534L296 148.6223l-17.44 13.44a3.4666667 4.6222177 0 0 1-4.85333-1.92L256 113.7779l-17.70667 46.3644a3.4666667 4.6222177 0 0 1-4.85333 1.92l-17.44-13.44 10.88 74.8088a3.4666667 4.6222177 0 0 1-5.92 4.0534l-22.56-32.2844-5.6 17.5644a3.4666667 4.6222177 0 0 1-3.89333 2.7022L160 207.2889l9.92 40.6756a3.4666667 4.6222177 0 0 1-1.81333 5.6177l-11.30667 7.04 50.18667 54.1866a3.4666667 4.6222177 0 0 1 1.06666 5.1911l-6.18666 22.7556L247.68 332.0177a5.0666667 6.755549 0 0 1 5.92 6.9689l-2.4 61.3688z"/>
</svg>
