<svg xmlns="http://www.w3.org/2000/svg" xmlns:xlink="http://www.w3.org/1999/xlink" viewBox="0 0 360 240">
  <path fill="red" d="M0 0h360v240H0z"/>
  <path fill="#060" d="M0 0h144v240H0z"/>
  <g fill="#ff0" fill-rule="evenodd" stroke="#000" stroke-linecap="round" stroke-linejoin="round" stroke-width=".57300001">
    <path stroke-width=".343800006" d="M190.944 157.224c-18.126-.546-101.244-52.428-101.814-60.69l4.58976-7.6542c8.2446 11.9796 93.216 62.436 101.562 60.648l-4.33794 7.6938"/>
    <path stroke-width=".343800006" d="M92.754 87.84c-1.62606 4.37622 21.6894 18.7908 49.7418 35.8524 28.0512 17.0604 52.239 27.6036 54.0318 26.0916.109536-.195264.88206-1.52454.8112-1.51392-.336006.506412-1.15404.66624-2.43036.298446-7.5786-2.18598-27.345-11.259-51.8244-26.1036-24.4788-14.8458-45.7764-28.5264-49.0866-34.3392-.230178-.402696-.394212-1.13772-.360876-1.70922l-.08043-.0012-.70482 1.23192-.096834.193146h-.000528zm98.616 69.624c-.307428.557742-.8805.576264-1.96896.456672-6.78-.75036-27.3534-10.755-51.6972-25.3278-28.326-16.956-51.72-32.406-49.182-36.444l.69054-1.22076.13599.04236c-2.28222 6.843 46.1688 34.5468 49.0212 36.3132 28.0344 17.3682 51.669 27.5106 53.7606 24.8748l-.76092 1.3086v-.0012z"/>
    <path stroke-width=".343800006" d="M144.102 101.538c18.1422-.143406 40.53-2.47914 53.4138-7.614l-2.7759-4.51008c-7.6152 4.21482-30.126 6.9864-50.7912 7.401-24.4416-.224898-41.694-2.50086-50.3382-8.301l-2.62032 4.8027c15.8904 6.7242 32.1738 8.1522 53.112 8.2218"/>
    <path stroke-width=".343800006" d="M198.264 94.026c-.443424.70908-8.8458 3.60678-21.2238 5.74518-8.3928 1.2795-19.3404 2.3733-33.0024 2.38656-12.9798.01218-23.583-.91176-31.6104-1.99974-12.9936-2.0373-19.6998-4.87206-22.179-5.87376.237054-.471486.389448-.8022.61806-1.24248 7.137 2.8416 13.8744 4.55508 21.7674 5.76948 7.9746 1.08 18.45 2.0172 31.3656 2.00502 13.5984-.01374 24.4254-1.19064 32.7696-2.43204 12.693-2.04732 19.6266-4.68204 20.6004-5.9055l.8964 1.54728h-.0012zm-2.43618-4.57356c-1.3758 1.1049-8.2308 3.53592-20.2914 5.46204-8.049 1.15356-18.2832 2.18598-31.359 2.1987-12.4224.01218-22.5714-.825-30.291-1.94946-12.2484-1.59966-18.7674-4.48524-21.1176-5.32656.23388-.404286.471996-.80538.71646-1.2081 1.82874.92076 8.1198 3.47454 20.5356 5.23344 7.632 1.08216 17.7966 1.88862 30.1572 1.8759 13.014-.01326 23.1318-1.06572 31.1298-2.21298 12.123-1.66794 18.6462-4.76832 19.6368-5.5446l.88368 1.47054v.0012zM84.528 123.396c11.1588 6.0018 35.943 9.0264 59.3964 9.2346 21.3546.03384 49.1748-3.30096 59.5782-8.814l-.286272-6.0072c-3.25476 5.08638-33.0678 9.9654-59.5236 9.7656-26.4558-.1995-51.0228-4.28574-59.2122-9.5754l.04764 5.39484"/>
    <path stroke-width=".343800006" d="M204.072 122.532l.000528 1.43244c-1.5636 1.86954-11.3676 4.6953-23.6622 6.6852-9.357 1.4346-21.5562 2.5167-36.7572 2.5167-14.4414 0-25.9578-1.02978-34.8888-2.40084-14.1174-2.05584-23.1474-5.65572-24.96-6.7302l.00792-1.67112c5.44488 3.62004 20.1966 6.2682 25.1502 7.0788 8.8728 1.36206 20.3208 2.38392 34.6902 2.38392 15.1296 0 27.2604-1.07472 36.5586-2.49978 8.8206-1.27422 21.3864-4.5879 23.8602-6.7944h.000528zm.006-5.09532l.000528 1.43244c-1.5636 1.86852-11.3676 4.69422-23.6622 6.684-9.357 1.4346-21.5562 2.5167-36.7572 2.5167-14.4414 0-25.9578-1.0287-34.8888-2.40084-14.1174-2.05476-23.1474-5.6547-24.96-6.7296l.00792-1.67112c5.44488 3.6195 20.1966 6.2682 25.1502 7.0776 8.8728 1.36314 20.3208 2.38548 34.6902 2.38548 15.1296 0 27.2604-1.07526 36.5586-2.5014 8.8206-1.27422 21.3864-4.5879 23.8602-6.7944l.000528.0012zM143.874 156.192c-25.6632-.152934-47.6526-6.9954-52.296-8.1264l3.38598 5.30064c8.202 3.45018 29.6544 8.592 49.1562 8.0226 19.5024-.568854 36.546-2.0796 48.5568-7.9266l3.47172-5.4933c-8.1852 3.855-36.0408 8.1834-52.275 8.223"/>
    <path stroke-width=".33000000599999996" d="M193.98 152.232c-.510096.77946-1.03026 1.54938-1.55778 2.29764-5.66502 1.99758-14.5914 4.0947-18.3582 4.7064-7.6944 1.58538-19.599 2.7564-30.1644 2.76174-22.734-.332844-41.343-4.78314-50.0976-8.5794l-.70638-1.21446.11535-.182562 1.19796.46461c15.5688 5.57004 33.0546 7.7922 49.6188 8.1912 10.5228.03702 21.057-1.206 29.5752-2.72946 13.0626-2.61726 18.3444-4.59 19.965-5.4843l.412206-.231246h-.000528zm3.01032-4.96518c.0132.01536.02646.03018.03918.04656-.38151.64398-.77466 1.29912-1.17732 1.95738-3.02142 1.08-11.2212 3.47928-23.1954 5.15358-7.8894 1.07472-12.7932 2.1156-28.4874 2.4204-29.409-.74826-48.45-6.4986-52.9734-7.917l-.67044-1.28586c17.0436 4.44924 34.4532 7.5552 53.6448 7.8726 14.3586-.305856 20.4672-1.36314 28.2912-2.42994 13.9626-2.17116 20.9976-4.46988 23.109-5.13348-.02646-.0381-.05766-.078318-.092598-.119592l1.51386-.56568-.0012.0012z"/>
    <path stroke-width=".343800006" d="M197.298 118.656c.083238 16.8822-8.556 32.0316-15.5148 38.715-9.8448 9.4554-22.8978 15.5376-38.1414 15.8178-17.022.312702-33.072-10.7844-37.377-15.6594-8.4168-9.531-15.2694-21.6342-15.489-37.9458 1.04256-18.4254 8.2758-31.26 18.7608-40.0614 10.485-8.8014 24.4458-13.0878 36.0726-12.7812 13.4148.354018 29.085 6.9348 39.9126 19.9992 7.0938 8.5596 10.1658 17.8488 11.7762 31.9158zm-53.5116-57.8052c32.691 0 59.5776 26.6028 59.5776 59.2218 0 32.6184-26.8866 59.2224-59.5776 59.2224-32.691 0-59.3544-26.6034-59.3544-59.2224s26.6634-59.2218 59.3544-59.2218"/>
    <path stroke-width=".343800006" d="M143.946 60.648c32.7204 0 59.4066 26.6898 59.4066 59.4132 0 32.7228-26.6868 59.412-59.4066 59.412-32.7204 0-59.4066-26.6886-59.4066-59.412S111.2262 60.648 143.946 60.648zm-58.0992 59.41344c0 31.956 26.2416 58.1052 58.0992 58.1052 31.8582 0 58.0998-26.1492 58.0998-58.1052 0-31.9572-26.2422-58.1064-58.0998-58.1064s-58.0992 26.1504-58.0992 58.1064z"/>
    <path stroke-width=".343800006" d="M143.994 65.586c29.8386 0 54.4158 24.4926 54.4158 54.4224 0 29.9304-24.5778 54.4218-54.4158 54.4218-29.838 0-54.4158-24.4914-54.4158-54.4218 0-29.9298 24.5784-54.4224 54.4158-54.4224zm-53.109 54.42204c0 29.211 23.9874 53.1144 53.109 53.1144s53.109-23.9034 53.109-53.1144c0-29.2116-23.9868-53.115-53.109-53.115-29.1216 0-53.109 23.9034-53.109 53.115z"/>
    <path stroke-width=".343800006" d="M146.388 60.408h-5.09127l.006 119.376h5.10873z"/>
    <path stroke-width=".343800006" d="M145.878 59.7276h1.29588l.0111 120.75h-1.29696l-.00954-120.75zm-5.05278.00108h1.30596l.0018 120.75H140.826v-120.75z"/>
    <path stroke-width=".343800006" d="M203.394 122.361v-4.41324l-3.594-3.348-20.4-5.4-29.4-3-35.4 1.8-25.2 6-5.088 3.768v4.41432l12.888-5.7822 30.6-4.8h29.4l21.6 2.4 15 3.6z"/>
    <path stroke-width=".343800006" d="M143.97 110.862c14.0298-.02592 27.642 1.32924 38.439 3.43164 11.1414 2.22726 18.9822 5.01336 21.663 8.1426l-.003 1.54938c-3.23304-3.89412-13.7838-6.7488-21.9108-8.3808-10.7148-2.0844-24.2358-3.43008-38.1882-3.40416-14.7228.02754-28.4322 1.42188-38.9904 3.48192-8.472 1.68114-19.7706 5.02074-21.1812 8.3148v-1.6134c.77466-2.28018 9.1878-5.68752 20.9904-8.0502 10.6374-2.07432 24.372-3.4449 39.1812-3.47184zm.006-5.09532c14.0298-.02538 27.642 1.33032 38.439 3.43164 11.1414 2.22834 18.9822 5.01336 21.663 8.1426l-.003 1.54938c-3.23304-3.8931-13.7838-6.7482-21.9108-8.3796-10.7148-2.08542-24.2358-3.4311-38.1882-3.40416-14.7228.02646-28.3656 1.42188-38.925 3.48084-8.1756 1.54992-19.9356 5.02176-21.2472 8.316v-1.61448c.77466-2.25528 9.3582-5.78484 20.991-8.0502 10.6374-2.07432 24.372-3.44382 39.1812-3.47184zM143.688 79.776c22.1094-.110598 41.394 3.09138 50.217 7.611l3.21828 5.5674c-7.6686-4.1328-28.4736-8.43-53.403-7.7874-20.3124.124884-42.0162 2.23626-52.9056 8.046l3.8421-6.4254c8.937-4.63446 30.0132-6.9858 49.032-7.0104"/>
    <path stroke-width=".343800006" d="M143.982 84.372c12.6102-.03336 24.795.67788 34.4856 2.42622 9.0246 1.67958 17.631 4.20054 18.8616 5.55624l.95406 1.68594c-2.99286-1.9542-10.4406-4.13016-20.0034-5.9436-9.6036-1.80498-21.78-2.40294-34.32-2.37012-14.2332-.04866-25.2912.70272-34.7814 2.35746-10.0368 1.878-17.0004 4.5609-18.7182 5.83566l.93498-1.78224c3.33786-1.70286 8.634-3.75552 17.5338-5.35782 9.8142-1.7928 20.9898-2.33046 35.0538-2.40768h-.000528zm-.0054-5.09058c12.0678-.03174 23.9832.6408 33.2712 2.31036 7.3254 1.42608 14.5698 3.65232 17.2224 5.63352l1.39536 2.21724c-2.37216-2.63682-11.3016-5.13558-19.1844-6.5352-9.2166-1.58964-20.637-2.2188-32.7048-2.31936-12.6648.03546-24.369.8112-33.4512 2.46486-8.6646 1.64886-14.256 3.60096-16.6218 5.1255l1.22706-1.85208c3.26484-1.71876 8.5392-3.29724 15.1818-4.5879 9.1494-1.66584 20.9256-2.42148 33.6648-2.45694zM173.49 144.756c-10.9308-2.04048-21.8814-2.33682-29.5302-2.24682-36.8442.431802-48.7464 7.5654-50.199 9.7254l-2.75364-4.4889c9.3804-6.7992 29.4438-10.6122 53.1522-10.2222 12.3108.201612 22.9344 1.01916 31.8714 2.7501l-2.54148 4.48362"/>
    <path stroke-width=".33000000599999996" d="M143.748 141.876c10.2492.152928 20.3094.576264 30.0198 2.38704l-.7032 1.2414c-9.0186-1.66476-18.633-2.3019-29.2818-2.25-13.5978-.106362-27.351 1.16364-39.3246 4.60008-3.77808 1.05144-10.0326 3.48036-10.6704 5.48748l-.69954-1.15356c.201606-1.18638 3.98178-3.6486 11.0484-5.63406 13.7148-3.92748 26.5434-4.58946 39.6114-4.6794v.0012zm.465114-5.15778c10.6188.198438 21.585.68952 32.244 2.80086l-.73236 1.29222c-9.6252-1.91082-18.8214-2.54796-31.449-2.74212-13.641.02484-28.1106.9975-41.2668 4.82232-4.24746 1.2372-11.5782 3.91212-11.8224 6.03l-.69954-1.2393c.15927-1.92354 6.5052-4.4328 12.2148-6.0936 13.2576-3.85446 27.765-4.8456 41.5116-4.87044z"/>
    <path stroke-width=".343800006" d="M196.548 148.428l-4.4274 6.8694L179.4 144l-33-22.2-37.2-20.4-19.314-6.606 4.116-7.632L95.4 86.4l12 3 39.6 20.4 22.8 14.4L189 138l7.8 9z"/>
    <path stroke-width=".343800006" d="M89.19 94.974c3.3876-2.29764 28.2834 8.793 54.333 24.5004 25.9806 15.7524 50.8062 33.5526 48.5652 36.8838l-.7371 1.15938-.338124.2667c.072498-.05184.44607-.50853-.03654-1.7436-1.10694-3.64224-18.717-17.6946-47.9364-35.337-28.485-16.9854-52.2246-27.2226-54.5982-24.2964l.7482-1.43352h-.000534zm108.264 53.3562c2.142-4.2312-20.9496-21.6264-49.5792-38.5632-29.2878-16.5996-50.3964-26.3706-54.252-23.457l-.85668 1.55946c-.00744.085722.0312-.106362.212184-.24606.7011-.6117 1.86312-.570444 2.38752-.579972 6.639.099486 25.6002 8.8254 52.2036 24.0768 11.6568 6.789 49.2426 30.8946 49.0992 37.6734.01008.582612.04818.70272-.17091.99114l.95616-1.45416v-.0012z"/>
  </g>
  <g transform="scale(.6)">
    <path fill="#fff" stroke="#000" stroke-width=".67036998" d="M180.6 211.01c0 16.271 6.6628 30.987 17.457 41.742 10.815 10.778 25.512 17.579 41.809 17.579 16.381 0 31.247-6.6525 42.016-17.389 10.769-10.735 17.443-25.552 17.446-41.88h-.002v-79.189l-118.74-.14111.0123 79.278h.002z"/>
    <path fill="red" stroke="#000" stroke-width=".50734001" d="M182.82 211.12v.045c0 15.557 6.4414 29.724 16.775 40.009 10.354 10.305 24.614 16.712 40.214 16.712 15.681 0 29.912-6.3606 40.222-16.626 10.308-10.265 16.697-24.433 16.699-40.044h-.002V134.39l-113.84-.0185-.0697 76.748m91.022-53.747l.004 48.891-.0414 5.1717h.00088c0 1.3608-.082 2.9122-.24076 4.2333-.92512 7.7294-4.4801 14.467-9.7451 19.708-6.1636 6.1357-14.671 9.9413-24.047 9.9413-9.327 0-17.639-3.9379-23.829-10.1-6.3497-6.32-10.03-14.986-10.03-23.947l-.0132-54.023 67.94.12259.002.002z"/>
    <g id="e">
      <g id="d" fill="#ff0" stroke="#000" stroke-width=".5">
        <path stroke="none" d="M190.19 154.43c.13493-5.521 4.0524-6.828 4.0806-6.8474.0282-.0185 4.2314 1.4076 4.2173 6.8986l-8.2978-.0512"/>
        <path d="M186.81 147.69l-.68172 6.3447 4.1406.009c.0397-5.2493 3.9739-6.1225 4.0691-6.1031.0891-.005 3.9889 1.1606 4.0929 6.1031h4.1511l-.74962-6.3932-15.022.0379v.002zM185.85 154.06h16.946c.35717 0 .64908.35277.64908.78404 0 .43039-.29191.78141-.64908.78141H185.85c-.35717 0-.64908-.35102-.64908-.78141 0-.43127.29191-.78404.64908-.78404z"/>
        <path d="M192.01 154.03c.0185-3.3126 2.2621-4.2501 2.2736-4.2483.00088 0 2.3423.96661 2.3609 4.2483h-4.6344M186.21 145.05h16.245c.34218 0 .62263.31839.62263.70468 0 .38717-.28045.70467-.62263.70467H186.21c-.34218 0-.62263-.31573-.62263-.70467 0-.38629.28045-.70468.62263-.70468zM186.55 146.47h15.538c.32719 0 .59529.31662.59529.70379 0 .38805-.2681.70467-.59529.70467H186.55c-.32719 0-.59529-.31662-.59529-.70467 0-.38717.2681-.70379.59529-.70379zM191.57 135.88l1.2267.002v.87136h.89513v-.89076l1.2567.004v.88723h.89778v-.89076h1.2576l-.002 2.0117c0 .31574-.25398.52035-.54854.52035h-4.4113c-.29633 0-.56972-.23724-.5706-.52652l-.003-1.9879h.00088zM196.19 138.57l.27691 6.4514-4.3028-.0159.28486-6.4523 3.741.0168"/>
        <path id="a" d="M190.94 141.56l.13141 3.4775-4.1256.002.11641-3.4793h3.8786-.00089z"/>
        <use width="100%" height="100%" x="10.609" xlink:href="#a"/>
        <path id="b" d="M186.3 139.04l1.1994.003v.87224h.8775v-.89253l1.2294.004v.889h.87926v-.89253l1.2302.002-.002 2.0117c0 .31398-.2487.51859-.5362.51859h-4.3169c-.28926 0-.55824-.23548-.55913-.52564l-.003-1.9888h.00088z"/>
        <use width="100%" height="100%" x="10.609" xlink:href="#b"/>
        <path fill="#000" stroke="none" d="M193.9 140.61c-.0265-.62706.87661-.63411.86603 0v1.5364h-.866v-1.536"/>
        <path id="c" fill="#000" stroke="none" d="M188.57 142.84c-.003-.6059.83693-.61824.82635 0v1.1871h-.826v-1.187"/>
        <use width="100%" height="100%" x="10.641" xlink:href="#c"/>
      </g>
      <use width="100%" height="100%" y="46.319801" xlink:href="#d"/>
      <use width="100%" height="100%" transform="rotate(-45.202 312.76611 180.00356)" xlink:href="#d"/>
    </g>
    <use width="100%" height="100%" x="45.713799" xlink:href="#d"/>
    <use width="100%" height="100%" transform="matrix(-1 0 0 1 479.79195 0)" xlink:href="#e"/>
    <g id="f" fill="#fff">
      <path fill="#039" d="M232.636 202.406v.005c0 2.2119.84927 4.2272 2.2118 5.6894 1.3652 1.4667 3.2454 2.3777 5.302 2.3777 2.0672 0 3.9439-.90487 5.3029-2.3654 1.3581-1.4587 2.2021-3.47219 2.2021-5.693v-10.768l-14.992-.0123-.0273 10.766"/>
      <circle cx="236.07401" cy="195.735" r="1.4859999"/>
      <circle cx="244.392" cy="195.742" r="1.4859999"/>
      <circle cx="240.22501" cy="199.735" r="1.4859999"/>
      <circle cx="236.07401" cy="203.916" r="1.4859999"/>
      <circle cx="244.383" cy="203.905" r="1.4859999"/>
    </g>
    <use width="100%" height="100%" y="-26.016001" xlink:href="#f"/>
    <use width="100%" height="100%" x="-20.799" xlink:href="#f"/>
    <use width="100%" height="100%" x="20.745001" xlink:href="#f"/>
    <use width="100%" height="100%" y="25.784" xlink:href="#f"/>
  </g>
</svg>
