<svg xmlns="http://www.w3.org/2000/svg" version="1" viewBox="0 0 512 341">
  <clipPath id="a">
    <path d="M0 168h756v168H0z"/>
  </clipPath>
  <clipPath id="b">
    <path d="M0 336h756v168H0z"/>
  </clipPath>
  <path fill="#c6363c" fill-rule="evenodd" d="M0 0h512v341H0z"/>
  <g clip-path="url(#a)" transform="matrix(.67713 0 0 1.3526 0 -113)">
    <path fill="#0c4076" fill-rule="evenodd" d="M0 168h756v168H0z"/>
  </g>
  <g clip-path="url(#b)" transform="matrix(.67713 0 0 .67714 0 0)">
    <path fill="#fff" fill-rule="evenodd" d="M0 335h756v169H0z"/>
  </g>
  <g fill-rule="evenodd">
    <g fill="#edb92e" stroke="#21231e" stroke-miterlimit="23">
      <path d="M-76 346l6-1h1c11 6 12 6 15 1s5-15 6-23l4-4c0 14-3 29-9 37-3 5-10 1-21-4-3-3-5-5-2-6z" transform="matrix(.0852 -.67714 .67711 .0852 0 0)"/>
      <path d="M-338-121l-1 3v4l-4 8-2 6 5 5 7 4 15 4-2-3-19-7c-5-4-5-5 3-15v-2-6l-2-1z" transform="matrix(-.67711 0 0 -.67714 0 0)"/>
      <path d="M-278-76v-1l-1 1-1-3v-2c-18 1-29-2-32-7-2-5 2-12 8-20v-2c-1-1-2-3-1-5-4-2-8-2-12-1l-3 4h-1l-6 18c-5 17 42 18 49 18z" transform="matrix(-.67711 0 0 -.67714 0 0)"/>
      <g stroke-linejoin="round">
        <path d="M326-148l6 10c-6-5-9-4-10 2h-1c-5-8-10-7-15 3-6-10-12-10-16 1-7-9-14-9-19 0v1c1 0 0 0 0 0h-1-1v-1c-5-9-11-9-19 0-4-11-10-11-16-1-5-10-10-11-15-3h-1c0-6-4-7-10-2l6-10 56 2 56-2z" transform="matrix(.67711 0 0 -.67714 0 0)"/>
        <path d="M334-133h-2c-4-10-8-10-8-1l1 2c1-1 1 0 1 1l-3-1c-1 2-2 3-3 2v-1l1-2c-7-9-10-8-10 4l-5 1c-6-13-11-13-15-2l2 2 1 1h-4c-1 1-2 2-4 1l1-2c1 1 1-1 1-2-2-10-17-11-14 5a5829 5829 0 0 1-8 0c3-16-12-15-14-5 1 1 0 3 1 2l1 2c-2 1-3 0-4-1h-4l1-1 2-2c-4-11-9-11-15 2l-5-1c1-12-3-13-10-4l1 2v1c-1 1-2 0-3-2l-3 1c0-1 0-2 1-1l1-2c0-9-4-9-8 1h-2l2-7c6-7 11-6 11 3 7-9 13-8 14 1 7-12 17-6 17 1 3-10 19-10 20 2 1-12 17-12 20-2 0-7 10-13 17-1 1-9 7-10 14-1 1-9 5-10 11-3l2 7z" transform="matrix(.67711 0 0 -.67714 0 0)"/>
      </g>
      <path d="M122 283l-1-1h-2c-3 0-3-2-1-4l3-2 1-2h5l1 2 3 2c1 2 2 4-1 4h-2l-1 1-1 1-2 1-1-1-1-1z" transform="matrix(0 .67424 .67713 0 0 0)"/>
    </g>
    <path fill="#21231e" d="M185 84v1l4 1-4-2M185 84v-1l4-1-4 2"/>
    <g stroke="#21231e" stroke-miterlimit="23">
      <g fill="#edb92e">
        <path d="M-117 282l-1-2c-1-1-3-1-4 1h-4c-1-2-3-2-3-1l-2 2h4v1l2 1 1 1 2-1 1-1 1-1h3z" transform="matrix(0 -.67714 .67711 0 0 0)"/>
        <path d="M-143-186c2 1 5 0 6-1h1c11 6 12 6 15 1s5-15 6-23l4-4c0 14-3 29-9 38-3 4-10 0-21-4-3-4-5-5-2-7z" transform="matrix(-.0852 -.67714 -.67711 .0852 0 0)"/>
        <path d="M202-121l-1 3v4l-4 8c-1 2-2 4-1 6 0 2 2 3 4 5l7 4 15 4-2-3-19-7c-5-4-5-5 3-15v-2-6l-2-1z" transform="matrix(.67711 0 0 -.67714 0 0)"/>
        <path d="M262-76v-1l-1 1-1-3v-2c-18 1-29-2-32-7-2-5 2-12 8-20v-2c-1-1-2-3-1-5-4-2-8-2-12-1l-3 4h-1l-6 18c-5 17 42 18 49 18z" transform="matrix(.67711 0 0 -.67714 0 0)"/>
        <path d="M30-278l16-6-19-50-16 3 19 53z" transform="matrix(-.2814 .67714 -.67712 -.2814 0 0)"/>
        <path d="M265-146l-51-3 3-17 53 2 53-2 3 17-51 3h-10z" transform="matrix(.67711 0 0 -.67714 0 0)"/>
        <path d="M270-148h-26l-5-1h-11l-14-2c-3 0-4 3 0 4l14 1 21 1h13l2 1h12l2-1h13l21-1 14-1c4-1 3-4 0-4l-14 2h-11l-5 1h-18-8z" transform="matrix(.67711 0 0 -.67714 0 0)"/>
      </g>
      <g fill="#fff">
        <path d="M227-108a4 4 0 1 0 0-7 4 4 0 0 0 0 7z" transform="matrix(.67712 0 0 -.67714 0 0)"/>
        <path d="M197-115a3 3 0 1 0 0-7 3 3 0 0 0 0 7z" transform="matrix(.67711 0 0 -.67714 0 0)"/>
        <path d="M194-109a3 3 0 1 0 0-7 3 3 0 0 0 0 7z" transform="matrix(.67711 0 0 -.67714 0 0)"/>
        <path d="M191-103a3 3 0 1 0 0-7 3 3 0 0 0 0 7z" transform="matrix(.67711 0 0 -.67714 0 0)"/>
      </g>
      <path fill="#edb92e" d="M270-120a4 4 0 1 0 0-8 4 4 0 0 0 0 8z" transform="matrix(.67712 0 0 -.67714 0 0)"/>
      <path fill="#edb92e" d="M240-131c2 0 2-3 1-4h-1v4z" transform="matrix(.67662 -.0457 -.04573 -.67714 0 0)"/>
      <path fill="#fff" d="M240-132c5 0 3-8 2-10s-2-2-4 0c-1 2-2 10 2 10z" transform="matrix(.67711 -.04573 -.04573 -.67714 0 0)"/>
      <path fill="#edb92e" d="M159-170c2 0 2-3 1-4h-1v4z" transform="matrix(.67662 -.21532 -.21546 -.67714 0 0)"/>
      <path fill="#fff" d="M159-172c5 0 3-7 2-9s-2-2-3 0-3 9 1 9z" transform="matrix(.67711 -.21548 -.21547 -.67714 0 0)"/>
      <path fill="#edb92e" stroke-linejoin="round" d="M260-79c-9 1-19 0-29-4-8-3-7-13 3-26l-2-6h3c-1 2 0 4 1 5v2c-6 8-10 15-8 20 3 5 14 8 32 7v2z" transform="matrix(.67711 0 0 -.67714 0 0)"/>
      <g fill="#fff">
        <path d="M214-82a3 3 0 1 0 0-6 3 3 0 0 0 0 6z" transform="matrix(.67711 0 0 -.67714 0 0)"/>
        <path d="M220-79a3 3 0 1 0 0-7 3 3 0 0 0 0 7z" transform="matrix(.67711 0 0 -.67714 0 0)"/>
      </g>
      <g fill="#edb92e">
        <path d="M221-82l1-2c-5-3-7-6-7-9l6-17 5-5v-1c1-1-1-1-2-1l-4 5h-1l-6 18c-1 5 2 9 8 12z" transform="matrix(.67711 0 0 -.67714 0 0)"/>
        <path stroke-linejoin="round" d="M191-135v-1h-4c2 1 3 2 4 1z" transform="matrix(.67711 -.0459 -.0459 -.67714 0 0)"/>
        <path d="M120-200v-2-1c-1-2 1-3 3-2h6v2c-1 2-3 3-5 3-2 1-3 5-4 0z" transform="matrix(0 .67714 -.6769 0 0 0)"/>
        <path d="M201-120h3c0-3-1-4-4-2l-4-2-1 1c-2 3 4 4 6 3z" transform="matrix(.6759 0 0 -.67714 0 0)"/>
      </g>
      <g fill="#fff">
        <path d="M257-72a3 3 0 1 0 0-6 3 3 0 0 0 0 6zM250-72a3 3 0 1 0 0-6 3 3 0 0 0 0 6zM243-72a3 3 0 1 0 0-7 3 3 0 0 0 0 7z" transform="matrix(.67712 0 0 -.67714 0 0)"/>
        <path d="M237-73a3 3 0 1 0 0-7 3 3 0 0 0 0 7z" transform="matrix(.67712 0 0 -.67714 0 0)"/>
        <g>
          <path d="M195-91a3 3 0 1 0 0-7 3 3 0 0 0 0 7z" transform="matrix(.67711 0 0 -.67714 0 0)"/>
          <path d="M201-87a3 3 0 1 0 0-7 3 3 0 0 0 0 7z" transform="matrix(.67711 0 0 -.67714 0 0)"/>
          <path d="M207-84a3 3 0 1 0 0-7 3 3 0 0 0 0 7zM190-96a3 3 0 1 0 0-7 3 3 0 0 0 0 7z" transform="matrix(.67711 0 0 -.67714 0 0)"/>
        </g>
      </g>
      <path fill="#edb92e" d="M257-155l13 6 13-6-13-6z" transform="matrix(.67711 0 0 -.67714 0 0)"/>
      <path fill="#0c4076" d="M152 270c0 3 2 6 4 6s3-3 3-6-1-6-3-6-4 3-4 6z" transform="matrix(0 .67401 .67713 0 0 0)"/>
      <path fill="#edb92e" d="M219-170l13 6 12-6-12-6z" transform="matrix(.67711 -.0414 -.0414 -.67714 0 0)"/>
      <path fill="#c6363c" d="M-167-232c0-3-2-5-4-5s-4 2-4 5c0 4 2 6 4 6s4-2 4-6z" transform="matrix(-.0412 -.67401 -.67713 .04139 0 0)"/>
      <path fill="#edb92e" d="M215-152l13-5-11-7c-3 1-5 11-2 12z" transform="matrix(.67711 0 0 -.67714 0 0)"/>
      <path fill="#0c4076" d="M215-154c3 0 6-1 6-3s-2-4-5-5c-2 0-4 2-4 4s1 4 3 4z" transform="matrix(.67711 0 0 -.67714 0 0)"/>
      <g fill="#fff">
        <path d="M256-157a2 2 0 1 0 0-4 2 2 0 0 0 0 4zM229-159a2 2 0 1 0 0-3 2 2 0 0 0 0 3zM228-151a2 2 0 1 0 0-3 2 2 0 0 0 0 3zM256-150a2 2 0 1 0 0-3 2 2 0 0 0 0 3z" transform="matrix(.67711 0 0 -.67714 0 0)"/>
      </g>
      <g fill="#edb92e">
        <path d="M134 208c-1 2 2 4 2 4-1 1-6 0-9-3l-4-2 1-1h3l2-1c1 3 2 4 5 3z" transform="matrix(0 .67714 .67692 0 0 0)"/>
        <path stroke-linejoin="round" d="M123-207h2l2-1 1-1 2-1 2-1 4-1v-2l-1 1h-2l-2 1-1-1-4 2c0 2 0 2-2 3l-1 1z" transform="matrix(0 .67714 -.67692 0 0 0)"/>
        <path d="M179-155h3c3-1 4-7 0-8l-1 2-2 4v2z" transform="matrix(.67602 -.10319 -.10335 -.67714 0 0)"/>
        <path d="M180-156c3 1 5-5 2-6-2 0-2 2-2 3s-3 2 0 3z" transform="matrix(.67609 -.1032 -.10335 -.67714 0 0)"/>
      </g>
      <path fill="#0c4076" d="M180-157c2 1 3-3 1-4l-2 2 1 2z" transform="matrix(.67712 -.10336 -.10336 -.67714 0 0)"/>
      <path fill="#edb92e" d="M-319-137l13 6 12-6-12-6z" transform="matrix(-.67711 -.0414 .0414 -.67714 0 0)"/>
      <path fill="#c6363c" d="M-134 306c0-3-2-5-4-5s-3 2-3 5c0 4 1 6 3 6s4-2 4-6z" transform="matrix(.0412 -.67401 .67713 .04139 0 0)"/>
      <path fill="#edb92e" d="M-325-152l13-5-11-7c-3 1-5 11-2 12z" transform="matrix(-.67711 0 0 -.67714 0 0)"/>
      <path fill="#0c4076" d="M-325-154c3 0 6-1 6-3s-2-4-5-5c-2 0-4 2-4 4s1 4 3 4z" transform="matrix(-.67711 0 0 -.67714 0 0)"/>
      <g fill="#fff">
        <path d="M-284-157l2-2a2 2 0 1 0-2 2zM-311-159a2 2 0 1 0 0-3 2 2 0 0 0 0 3zM-312-151a2 2 0 1 0 0-3 2 2 0 0 0 0 3zM-284-150a2 2 0 1 0 0-3 2 2 0 0 0 0 3z" transform="matrix(-.67711 0 0 -.67714 0 0)"/>
        <path d="M225-102a4 4 0 1 0 0-7 4 4 0 0 0 0 7z" transform="matrix(.67712 0 0 -.67714 0 0)"/>
        <path d="M222-96a4 4 0 1 0 0-7 4 4 0 0 0 0 7z" transform="matrix(.67712 0 0 -.67714 0 0)"/>
        <path d="M230-75a3 3 0 1 0 0-7 3 3 0 0 0 0 7z" transform="matrix(.67711 0 0 -.67714 0 0)"/>
        <g>
          <path d="M225-78a4 4 0 1 0 0-7 4 4 0 0 0 0 7z" transform="matrix(.67712 0 0 -.67714 0 0)"/>
          <path d="M221-83a4 4 0 1 0 0-7 4 4 0 0 0 0 7z" transform="matrix(.67712 0 0 -.67714 0 0)"/>
          <path d="M220-89a4 4 0 1 0 0-7 4 4 0 0 0 0 7z" transform="matrix(.67712 0 0 -.67714 0 0)"/>
        </g>
      </g>
      <path fill="#edb92e" d="M272-50a2 2 0 0 1 0 4 2 2 0 0 1-4 0 2 2 0 0 1 0-4v-3h-3a2 2 0 0 1-3 0 2 2 0 0 1 0-4 2 2 0 0 1 3 0h3v-12h4v12h3l2-1 1 1a2 2 0 0 1 0 4 2 2 0 0 1-3 0h-3z" transform="matrix(.67711 0 0 -.67714 0 0)"/>
      <path fill="#0c4076" d="M270-61a10 10 0 1 0 0-19 10 10 0 0 0 0 19z" transform="matrix(.67712 0 0 -.67714 0 0)"/>
      <path fill="#edb92e" d="M270-61h2v-8h-4v8h2z" transform="matrix(.67711 0 0 -.67714 0 0)"/>
      <g>
        <path fill="#edb92e" d="M279-69a10 10 0 0 0 0-3 279 279 0 0 1-18 2v1a264 264 0 0 0 18 0z" transform="matrix(.67711 0 0 -.67714 0 0)"/>
        <path fill="#edb92e" stroke-linejoin="round" d="M263-76c-2 1-3-1-3-3 1-7 2-14 0-23l-1-6c3-2 5-4 4-5h14c-1 1 1 3 4 5l-1 6c-2 9 0 16 0 23 0 2-1 4-3 3-4-3-10-3-14 0z" transform="matrix(.67711 0 0 -.67714 0 0)"/>
        <g fill="#fff">
          <path d="M270-104a4 4 0 1 0 0-7 4 4 0 0 0 0 7z" transform="matrix(.67712 0 0 -.67714 0 0)"/>
          <path d="M270-97a4 4 0 1 0 0-8 4 4 0 0 0 0 8z" transform="matrix(.67712 0 0 -.67714 0 0)"/>
          <path d="M270-91a4 4 0 1 0 0-8 4 4 0 0 0 0 8zM270-73a4 4 0 1 0 0-8 4 4 0 0 0 0 8z" transform="matrix(.67712 0 0 -.67714 0 0)"/>
          <path d="M270-79a4 4 0 1 0 0-7 4 4 0 0 0 0 7z" transform="matrix(.67712 0 0 -.67714 0 0)"/>
          <path d="M270-85a4 4 0 1 0 0-7 4 4 0 0 0 0 7z" transform="matrix(.67712 0 0 -.67714 0 0)"/>
        </g>
      </g>
      <g fill="#edb92e">
        <path stroke="none" d="M180 76l-3-4c1-5 2-11 1-19l-1-1-1 2 1 11-2 8 2 1 1 2h2zM186 76l3-4c-2-5-2-11-1-19l1-1v13l2 8-2 1-2 2h-1z"/>
        <path d="M-274-111l-1-1h-2c-3 0-2-2-1-4l3-2 1-2a71 71 0 0 1 5 0l1 2 3 2c2 2 2 4-1 4h-2l-1 1-1 2h-3l-1-2z" transform="matrix(-.6742 0 0 -.67714 0 0)"/>
      </g>
    </g>
    <path fill="#21231e" d="M183 81h-1l-1-3 2 3M183 81l2-3-2 3"/>
    <path fill="#edb92e" stroke="#21231e" stroke-miterlimit="23" d="M277-112l-1-2c-1-1-3 0-4 1h-4c-1-1-3-2-4-1l-1 2h4v1l2 2h2l2-2v-1h4z" transform="matrix(.67711 0 0 -.67714 0 0)"/>
    <path fill="#edb92e" stroke="#21231e" stroke-miterlimit="23" d="M122-257l-1-1h-2c-3 0-3-2-1-4l3-3 1-1h5l1 1 3 3c1 2 2 4-1 4h-2l-1 1-1 1-2 1-1-1-1-1z" transform="matrix(0 .67424 -.67713 0 0 0)"/>
    <path fill="#21231e" d="M180 84v1l-3 1 3-2M180 84v-1l-3-1 3 2"/>
    <path fill="#edb92e" stroke="#21231e" stroke-miterlimit="23" d="M-117-258l-1-2c-1-1-3-1-4 1h-4c-1-2-3-2-3-1l-2 2h4v1l2 1 1 1 2-1 1-1 1-1h3z" transform="matrix(0 -.67714 -.67711 0 0 0)"/>
    <path fill="#edb92e" stroke="#21231e" stroke-miterlimit="23" d="M-127 283l-1-1h-2c-3 0-2-2-1-4l3-2 1-2h5l1 2 3 2c2 2 2 4-1 4h-2l-1 1-1 1-1 1-2-1-1-1z" transform="matrix(0 -.67424 .67713 0 0 0)"/>
    <path fill="#21231e" d="M185 84v-1l4-1-4 2M185 84v1l4 1-4-2"/>
    <g stroke="#21231e" stroke-miterlimit="23">
      <g fill="#edb92e">
        <path d="M131 282l-2-2c0-1-2-1-3 1h-4c-1-2-3-2-4-1l-1 2h3l1 1 1 1 2 1 1-1 2-1v-1h4z" transform="matrix(0 .67714 .67711 0 0 0)"/>
        <path d="M270-120a4 4 0 1 0 0-8 4 4 0 0 0 0 8z" transform="matrix(.67712 0 0 -.67714 0 0)"/>
        <path d="M270-121a3 3 0 1 0 0-6 3 3 0 0 0 0 6z" transform="matrix(.67712 0 0 -.67714 0 0)"/>
      </g>
      <path fill="#0c4076" d="M270-122a2 2 0 1 0 0-4 2 2 0 0 0 0 4z" transform="matrix(.67712 0 0 -.67714 0 0)"/>
    </g>
    <path fill="#21231e" d="M137 86h1l-1-2v2"/>
    <path fill="#edb92e" stroke="#21231e" stroke-miterlimit="23" d="M230-113l2-2 1 1c3 1 3-2 2-4l-2-3v-2l-3-1h-2l-1 2-3 2c-2 2-3 4 0 4h1l1 2v2h3l1-1z" transform="matrix(.67711 0 0 -.67714 0 0)"/>
    <path fill="#21231e" d="M156 84h-1l-2-4 3 4M156 84h1v-4l-1 4"/>
    <path fill="#edb92e" stroke="#21231e" stroke-miterlimit="23" d="M235-114l-1-3c-1-1-2 0-4 1h-1l-2-1c-1-1-2-2-3-1l-2 2h3l1 2v2h3l1-1 2-2 1 1h2z" transform="matrix(.67711 0 0 -.67714 0 0)"/>
    <path fill="#edb92e" stroke="#21231e" stroke-miterlimit="23" d="M220-125h1l-1 2c-1 3 0 2 2 1l2-1 1-1 2-1 1-2 1-3-1-1-1-2-2-2-1 3-1 1-1 1-2 1v1l-1 2 1 1z" transform="matrix(.67713 0 0 -.67432 0 0)"/>
    <path fill="#21231e" d="M154 86l1 1a3 3 0 0 0-3 2l1-2 1-1M154 86v-1h-2l-1-1 1 1 2 1"/>
    <path fill="#edb92e" stroke="#21231e" stroke-linejoin="round" stroke-miterlimit="23" d="M220-121l1-1 1-1v-2-2l1-2c2-2 3-3 2-4l-1-1v1l-1 2-1 1-2 1v8z" transform="matrix(.67711 0 0 -.67714 0 0)"/>
    <path fill="#edb92e" stroke="#21231e" stroke-miterlimit="23" d="M-188 183v-1l-2-1c-2 0-2-1 0-3l3-2 1-1h2l3 1 1 1 2 3c1 2 1 4-2 3h-2l-1 1-1 1h-1l-2-1-1-1z" transform="matrix(-.2183 -.6741 .67713 -.2193 0 0)"/>
    <path fill="#21231e" d="M159 85l3-2-3 2M159 86l3 1-3-1"/>
    <g stroke="#21231e" stroke-miterlimit="23">
      <g fill="#edb92e">
        <path d="M243-132l-2 1v5l-1 2c-1 1-2 3-1 4l1 1 1-1v-2l2-1 1-1v-1-2l-1-1-1-1v-2l1-1z" transform="matrix(.67713 0 0 -.67378 0 0)"/>
        <path d="M230-122c3 0 5-2 5-4 0-3-1-5-3-5s-4 2-5 4c0 3 1 5 3 5z" transform="matrix(.67711 0 0 -.67714 0 0)"/>
        <path d="M231-123l3-3-2-4c-2 0-4 2-4 3 0 2 1 4 3 4z" transform="matrix(.67711 0 0 -.67714 0 0)"/>
      </g>
      <path fill="#0c4076" d="M231-125l2-1c0-2-1-2-2-2l-2 1 2 2z" transform="matrix(.67711 0 0 -.67714 0 0)"/>
      <g fill="#fff">
        <path d="M-313-108a4 4 0 1 0 0-7 4 4 0 0 0 0 7z" transform="matrix(-.67712 0 0 -.67714 0 0)"/>
        <path d="M-343-115a3 3 0 1 0 0-7 3 3 0 0 0 0 7z" transform="matrix(-.67711 0 0 -.67714 0 0)"/>
        <path d="M-346-109a3 3 0 1 0 0-7 3 3 0 0 0 0 7z" transform="matrix(-.67711 0 0 -.67714 0 0)"/>
        <path d="M-349-103a3 3 0 1 0 0-7 3 3 0 0 0 0 7z" transform="matrix(-.67711 0 0 -.67714 0 0)"/>
      </g>
      <path fill="#edb92e" d="M-298-94c2 0 2-4 1-4h-1c-1 0-2 4 0 4z" transform="matrix(-.67662 -.0457 .04573 -.67714 0 0)"/>
      <path fill="#fff" d="M-297-96c4 0 2-8 1-10s-2-2-3 0-3 10 2 10z" transform="matrix(-.67711 -.04573 .04573 -.67714 0 0)"/>
      <path fill="#edb92e" d="M-331-14v-4h-1c-1 1-1 4 1 4z" transform="matrix(-.67662 -.21532 .21546 -.67714 0 0)"/>
      <path fill="#fff" d="M-331-15c4 0 3-8 2-10-2-2-3-2-4 0s-2 10 2 10z" transform="matrix(-.67711 -.21548 .21547 -.67714 0 0)"/>
      <path fill="#edb92e" stroke-linejoin="round" d="M-280-79c-10 1-19 0-29-4-8-3-7-13 3-26l-2-6h3c-1 2 0 4 1 5v2c-6 8-10 15-8 20 3 5 14 8 32 7v2z" transform="matrix(-.67711 0 0 -.67714 0 0)"/>
      <g fill="#fff">
        <path d="M-326-82a3 3 0 1 0 0-6 3 3 0 0 0 0 6z" transform="matrix(-.67711 0 0 -.67714 0 0)"/>
        <path d="M-320-79a3 3 0 1 0 0-7 3 3 0 0 0 0 7z" transform="matrix(-.67711 0 0 -.67714 0 0)"/>
      </g>
      <g fill="#edb92e">
        <path d="M-319-82l1-2c-5-3-7-6-7-9l6-17 5-5v-1c1-1-1-1-2-1l-4 5h-1l-6 18c-1 5 2 9 8 12z" transform="matrix(-.67711 0 0 -.67714 0 0)"/>
        <path stroke-linejoin="round" d="M-347-99v-1h-4c2 2 3 2 4 1z" transform="matrix(-.67711 -.0459 .0459 -.67714 0 0)"/>
        <path d="M120 340v-1-2c-1-2 1-2 3-1l3-1h3v2l-5 4c-2 1-3 4-4-1z" transform="matrix(0 .67714 .6769 0 0 0)"/>
        <path d="M-340-120h3c0-3-1-4-4-2l-4-2-1 1c-2 3 4 4 6 3z" transform="matrix(-.6759 0 0 -.67714 0 0)"/>
      </g>
      <g fill="#fff">
        <path d="M-283-72a3 3 0 1 0 0-6 3 3 0 0 0 0 6zM-290-72a3 3 0 1 0 0-6 3 3 0 0 0 0 6zM-297-72a3 3 0 1 0 0-7 3 3 0 0 0 0 7z" transform="matrix(-.67712 0 0 -.67714 0 0)"/>
        <path d="M-303-73a3 3 0 1 0 0-7 3 3 0 0 0 0 7z" transform="matrix(-.67712 0 0 -.67714 0 0)"/>
        <g>
          <path d="M-345-91a3 3 0 1 0 0-7 3 3 0 0 0 0 7z" transform="matrix(-.67711 0 0 -.67714 0 0)"/>
          <path d="M-339-87a3 3 0 1 0 0-7 3 3 0 0 0 0 7z" transform="matrix(-.67711 0 0 -.67714 0 0)"/>
          <path d="M-333-84a3 3 0 1 0 0-7 3 3 0 0 0 0 7zM-350-96a3 3 0 1 0 0-7 3 3 0 0 0 0 7z" transform="matrix(-.67711 0 0 -.67714 0 0)"/>
        </g>
      </g>
      <g fill="#edb92e">
        <path d="M134-332c-1 2 2 4 2 4-1 1-6-1-9-3 0-2-1-2-4-2l1-2 3 1 2-1c1 3 2 3 5 3z" transform="matrix(0 .67714 -.67692 0 0 0)"/>
        <path stroke-linejoin="round" d="M123 333h4l1-2 2-1 2-1 4-1v-1h-1l-2 1h-2l-1-1c-1 0-4 1-4 3 0 1 0 2-2 2l-1 1z" transform="matrix(0 .67714 .67692 0 0 0)"/>
        <path d="M-350-75l2 1 2-1c2-1 3-6-1-7l-1 2-2 4v1z" transform="matrix(-.67602 -.10319 .10335 -.67714 0 0)"/>
        <path d="M-348-75c3 0 4-6 1-6-1-1-1 1-1 2 0 2-3 3 0 4z" transform="matrix(-.67609 -.1032 .10335 -.67714 0 0)"/>
      </g>
      <path fill="#0c4076" d="M-348-76c2 0 3-3 2-4-2 0-3 1-3 2l1 2z" transform="matrix(-.67712 -.10336 .10336 -.67714 0 0)"/>
      <g fill="#fff">
        <path d="M-316-102a4 4 0 1 0 0-7 4 4 0 0 0 0 7z" transform="matrix(-.67712 0 0 -.67714 0 0)"/>
        <path d="M-318-96a4 4 0 1 0 0-7 4 4 0 0 0 0 7z" transform="matrix(-.67712 0 0 -.67714 0 0)"/>
        <path d="M-310-75a3 3 0 1 0 0-7 3 3 0 0 0 0 7z" transform="matrix(-.67711 0 0 -.67714 0 0)"/>
        <path d="M-315-78a4 4 0 1 0 0-7 4 4 0 0 0 0 7z" transform="matrix(-.67712 0 0 -.67714 0 0)"/>
        <path d="M-320-83a4 4 0 1 0 0-7 4 4 0 0 0 0 7z" transform="matrix(-.67712 0 0 -.67714 0 0)"/>
        <path d="M-320-89a4 4 0 1 0 0-7 4 4 0 0 0 0 7z" transform="matrix(-.67712 0 0 -.67714 0 0)"/>
      </g>
    </g>
    <path fill="#21231e" d="M228 86l1-2-1 2"/>
    <path fill="#edb92e" stroke="#21231e" stroke-miterlimit="23" d="M-310-113l1-2 2 1c3 1 3-2 2-4l-2-3v-2l-3-1h-2l-1 2-4 2c-1 2-2 4 1 4h1v2l1 2h3l1-1z" transform="matrix(-.67711 0 0 -.67714 0 0)"/>
    <path fill="#21231e" d="M210 84l3-4c-1 1-3 2-3 4M209 84v-4 4"/>
    <path fill="#edb92e" stroke="#21231e" stroke-miterlimit="23" d="M-305-114l-1-3c-1-1-2 0-4 1h-2l-1-1c-1-1-2-2-3-1l-2 2h3v2l1 2h3l1-1 1-2 2 1h2z" transform="matrix(-.67711 0 0 -.67714 0 0)"/>
    <path fill="#edb92e" stroke="#21231e" stroke-miterlimit="23" d="M-320-125h1l-1 2c-1 3 0 2 2 1l2-1 1-1 2-1 1-2 1-3-1-1-2-2-1-2-1 3-1 1-1 1-2 1v1l-1 2 1 1z" transform="matrix(-.67713 0 0 -.67432 0 0)"/>
    <path fill="#21231e" d="M211 86v1a3 3 0 0 1 2 2v-2l-2-1M211 86l1-1h1l2-1-2 1-2 1"/>
    <path fill="#edb92e" stroke="#21231e" stroke-linejoin="round" stroke-miterlimit="23" d="M-320-121l1-1 1-1v-2-2l1-2c2-2 3-3 2-4l-1-1v1l-1 2-1 1-2 1v8z" transform="matrix(-.67711 0 0 -.67714 0 0)"/>
    <path fill="#edb92e" stroke="#21231e" stroke-miterlimit="23" d="M-29-306v-1l-2-1c-2 0-2-1 0-2l3-2 1-2a68 68 0 0 1 5 1l1 1 2 3c1 2 1 4-2 3h-2l-1 1-1 1h-1l-2-1-1-1z" transform="matrix(.2183 -.6741 -.67713 -.2193 0 0)"/>
    <path fill="#21231e" d="M207 85l-3-2 3 2M207 86l-4 1 4-1"/>
    <g stroke="#21231e" stroke-miterlimit="23">
      <path fill="#edb92e" d="M-297-132l-2 1v5l-1 2c-1 1-2 3-1 4l1 1 1-1v-2l1-1 2-1v-1-2l-1-1-1-1v-2l1-1z" transform="matrix(-.67713 0 0 -.67378 0 0)"/>
      <path fill="#edb92e" d="M310-122c-3 0-5-2-5-4 0-3 1-5 3-5 3 0 5 2 5 4 0 3-1 5-3 5z" transform="matrix(.67711 0 0 -.67714 0 0)"/>
      <path fill="#edb92e" d="M310-123c-2 0-4-2-4-3 0-2 1-4 3-4l3 3-2 4z" transform="matrix(.67711 0 0 -.67714 0 0)"/>
      <path fill="#0c4076" d="M309-125l-2-1c0-2 1-2 2-2l2 1-2 2z" transform="matrix(.67711 0 0 -.67714 0 0)"/>
      <path fill="#edb92e" d="M323-165l1-1-1-2h-1a620 620 0 0 0-106 2l2 1v1a619 619 0 0 0 105-1z" transform="matrix(.67711 0 0 -.67714 0 0)"/>
    </g>
  </g>
  <g stroke-miterlimit="23">
    <path fill="none" stroke="#21231e" stroke-linecap="round" d="M231-168a591 591 0 0 0 78 0" transform="matrix(.67713 0 0 -.67377 0 0)"/>
    <path fill="none" stroke="#21231e" stroke-linecap="round" d="M231 168h13m52 0h13" transform="matrix(.67713 0 0 .67377 0 0)"/>
    <path fill="#c6363c" stroke="#fff" d="M169 176h153c27 0 52 10 70 27s29 41 29 67-11 50-29 67-43 28-70 28H169z" transform="matrix(0 .67583 .67713 0 0 0)"/>
    <g stroke="#21231e">
      <g fill-rule="evenodd">
        <g fill="#fff">
          <path d="M413 271v3c-1 2-6 1-9 1l-72-2v-3-3l72-2 9 1v3z" transform="matrix(0 .67573 .67713 0 0 0)"/>
          <path d="M-280-412h3a3245 3245 0 0 0 6 80l-2 1h-1c-5-34-7-57-11-71v-9l3-1z" transform="matrix(-.67711 0 0 -.67714 0 0)"/>
          <path d="M-290-411l3 1c2 0 1 5 2 8 4 14 6 37 11 71h-3c-8-32-11-55-17-69-1-2-3-7-1-9l3-1z" transform="matrix(-.67711 0 0 -.67714 0 0)"/>
          <path d="M457-170v4h-8c-15 3-37-1-70-2v-2-2c33-1 54 2 70-3 2-1 7-1 8 1v3z" transform="matrix(.19456 .67572 -.67713 .19498 0 0)"/>
          <path d="M260-412h4l1 9 5 71-3 1h-1c-5-34-7-57-11-71v-9l4-1z" transform="matrix(.67711 0 0 -.67714 0 0)"/>
          <path d="M250-411l3 1c2 0 2 5 2 8 4 14 6 37 11 71h-3c-8-32-11-55-17-69-1-2-3-7-1-9l3-1z" transform="matrix(.67711 0 0 -.67714 0 0)"/>
          <path d="M314 329l-1 3c-1 2-6 1-8 1-15 3-37-1-70-2v-3-1c33-1 54 2 70-3h8l1 4z" transform="matrix(-.19456 .67572 .67713 .19498 0 0)"/>
          <path d="M-432 100l1-3h8c14 0 36 4 67 8l-1 2v2c-31-3-52-8-67-4-3 1-7 0-8-1v-3z" transform="matrix(-.30652 -.67257 .67713 -.30862 0 0)"/>
          <path d="M-433 156l2-2c1-2 5-1 8-1a4118 4118 0 0 0 69 9l-1 2c-32-1-56-6-69-2l-8-1-1-3z" transform="matrix(-.20437 -.67657 .67713 -.20455 0 0)"/>
          <path d="M-419 215l1-3h8l72 4-1 3v2l-71-1c-3 1-8 1-9-1v-2z" transform="matrix(-.10185 -.676 .67713 -.10202 0 0)"/>
          <path d="M-227-347l2-3h7c14 0 36 4 67 8v2l-1 2c-31-3-52-8-67-4-2 1-7 0-8-1v-3z" transform="matrix(.30652 -.67257 -.67713 -.30862 0 0)"/>
          <path d="M-283-339l1-2a4069 4069 0 0 0 77 8v2c-33-1-56-6-70-2l-8-1v-3z" transform="matrix(.20437 -.67657 -.67713 -.20455 0 0)"/>
          <path d="M-339-313l1-3h8l71 4v5l-72-1c-2 0-7 1-8-1v-3z" transform="matrix(.10185 -.676 -.67713 -.10202 0 0)"/>
          <path d="M389 271l-1 3h-8l-73-1v-3-3l73-1h8l1 3z" transform="matrix(0 .67243 .67713 0 0 0)"/>
          <path d="M411-187l-1 2-8 1h-70v-2-2c33 0 56 2 70-3 2-1 7 0 8 1l1 2z" transform="matrix(.1709 .67714 -.6724 .16972 0 0)"/>
          <path d="M403-216v2h-9a5338 5338 0 0 0-71-2v-2c33-1 58 2 71-2h8l1 2z" transform="matrix(.11167 .67376 -.67713 .11222 0 0)"/>
          <path d="M387-244l-1 2h-8a5484 5484 0 0 0-72-3v-1l72-2h8l1 2z" transform="matrix(.05555 .67636 -.67713 .05562 0 0)"/>
          <path d="M282 324v2l-8 1c-14 2-37 1-70 0v-2-2c32 0 55 2 69-2h8l1 2z" transform="matrix(-.1709 .67714 .6724 .16972 0 0)"/>
          <path d="M316 309l-1 2-8 1a5392 5392 0 0 0-72-2v-2c34-1 58 1 72-3l8 1 1 2z" transform="matrix(-.11167 .67376 .67713 .11222 0 0)"/>
          <path d="M343 292l-1 2-8 1a5478 5478 0 0 0-72-3v-2l72-2 8 1 1 2z" transform="matrix(-.05555 .67636 .67713 .05562 0 0)"/>
          <path d="M367 271l-1 2h-8a5483 5483 0 0 0-72-3v-2l72-1h8l1 2z" transform="matrix(0 .67714 .67705 0 0 0)"/>
        </g>
        <g fill="#edb92e">
          <path stroke-linejoin="round" d="M352 188c0-2 1-4 6-11l15-11 1-4c1-1-1-9-1-9-3-3-1-7 1-6 1-1 5 1 4 3-2 2 0 7 0 9l2-10c0-3 3-3 5-2l1 1c2 1 2 4 0 4-2 1-4 9-5 10l9-7c1-2 1-3 5-1 0 2-1 2 1 4 0 3-1 4-4 3l-9 4-3 2c-1 1-3 8-2 9 1 3 1 5-2 5-1 0-4 1-5-1l1-4c2-3 3-4 2-5l-7 9c-8 7-12 8-15 8z" transform="matrix(.08154 .674 .67713 -.08192 0 0)"/>
          <path d="M377 136c-2-2-2-3-1-4l-1-1c-3 2-3 5-1 7l1 1 2-3z" transform="matrix(.10166 .67691 .67713 -.1017 0 0)"/>
          <path d="M384-144v-5c0-1 0-2-1-1-4 1-4 4-3 7l2 2 2-3z" transform="matrix(.14554 .67714 -.67335 .14474 0 0)"/>
          <path d="M-145 396l3 6h1c3-3 3-7 0-9l-3-2-1 5z" transform="matrix(-.67618 .10567 .10582 .67714 0 0)"/>
          <path d="M381 35l2-4c1 0 1 0 0 0-6 0-6 2-5 6l3-2z" transform="matrix(.28731 .67566 .67713 -.28795 0 0)"/>
        </g>
      </g>
      <g fill="none">
        <path stroke="none" d="M146 238v-2l2 1M148 237l-1-2h2"/>
        <path d="M-347-221c1 2 2 2 3 1 2-1 1-1-1-3" transform="matrix(0 -.67714 -.6748 0 0 0)"/>
        <path d="M-345-224c1 2 3 2 4 2 2-1 1-2-1-4" transform="matrix(0 -.67714 -.6738 0 0 0)"/>
        <path d="M-342-225c1 1 3 2 4 1s1-2-1-3" transform="matrix(0 -.67714 -.67634 0 0 0)"/>
      </g>
      <g fill-rule="evenodd">
        <path fill="#edb92e" stroke-linejoin="round" d="M-275 146l9 3c8 2 14 1 16-4-4 3-8 4-12 2l-10-4-3 3z" transform="matrix(-.67712 -.13224 -.13223 .67714 0 0)"/>
        <g fill="#fff">
          <path d="M266-314v-8l-6-1c0-2 7-31 10-31 4 0 10 29 10 31l-6 1v8l-4-4-4 4z" transform="matrix(.67711 0 0 -.67714 0 0)"/>
          <g stroke-linejoin="round">
            <path d="M330 254l-3-5c1-3 7-4 12-1 6 5 11 7 16 8-5 4-9 5-14 3l-11-5z" transform="matrix(.01047 .67714 .67711 -.01047 0 0)"/>
            <path d="M325 258l-3-5c2-2 8-7 13-3 6 4 11 9 15 10-4 4-9 6-13 3l-12-5z" transform="matrix(.01047 .67714 .67711 -.01047 0 0)"/>
            <path d="M321-286l-3-5c2-3 8-4 13-1 6 5 10 7 15 8-4 4-9 5-13 3l-12-5z" transform="matrix(-.01047 .67714 -.67711 -.01047 0 0)"/>
            <path d="M317-282l-3-5c2-2 7-7 12-3 6 5 11 9 16 11-4 3-9 5-14 2l-11-5z" transform="matrix(-.01047 .67714 -.67711 -.01047 0 0)"/>
            <path d="M323 247l-3-6c2-2 8-4 13 0 6 5 10 7 15 8-4 3-9 5-14 2l-11-4z" transform="matrix(.01047 .67714 .67711 -.01047 0 0)"/>
            <path d="M315-293l-3-6c1-2 7-4 12 0 6 5 11 7 16 8-5 3-9 5-14 2l-11-4z" transform="matrix(-.01047 .67714 -.67711 -.01047 0 0)"/>
          </g>
          <path d="M264 227l42-1c5-1 8-3 10-5-3-2-6-3-11-3h-39c-10 4-10 7-2 9z" transform="matrix(0 .67384 .67713 0 0 0)"/>
          <path d="M256 206l45-2c4 0 28 5 33 8-3 7-19 8-35 7s-29 0-32 1h-11v-14z" transform="matrix(0 .67384 .67713 0 0 0)"/>
          <path d="M264 197l45 1c4 0 27 6 32 9-6 8-29 6-35 5-14-2-30-2-32-1h-12l2-14z" transform="matrix(0 .67384 .67713 0 0 0)"/>
          <path d="M274 191v12c5-1 20 0 32 2 11 2 39 4 46-7-15-7-30-2-43-5s-25-4-35-2zM256 236l42-2c5-1 8-3 10-5-3-2-7-3-11-3l-40 2c-10 4-10 6-1 8zM229 215h36c4 0 10 2 12 4-1 2-4 4-9 4l-32 1-5-7-2-2z" transform="matrix(0 .67384 .67713 0 0 0)"/>
          <path d="M236 224h31c4 0 8 1 11 3-2 2-5 4-10 5l-24 1c-1-3-6-7-8-9zM228 216l-11-8c5-1 47-3 50-1 4 0 8 2 11 4-2 2-5 5-10 4-4-1-35 0-40 1z" transform="matrix(0 .67384 .67713 0 0 0)"/>
          <path d="M254 200l13-1 11 4c-2 2-5 5-9 4-18-1-35 1-51 3l-4-7c21-3 35-5 40-3z" transform="matrix(0 .67384 .67713 0 0 0)"/>
          <path stroke-linejoin="round" d="M266 192l8 2c4 0 8 3 11 5-2 2-5 4-9 4-27-4-44-3-65 3 8-13 26-18 55-14z" transform="matrix(0 .67384 .67713 0 0 0)"/>
          <path d="M274 193l-4-12c12-1 26 1 45 4 16 3 29 1 37-1-1 12-17 18-47 11-7-1-17-3-31-2z" transform="matrix(0 .67384 .67713 0 0 0)"/>
        </g>
      </g>
      <path fill="none" stroke-linecap="round" d="M192-328l-2 23-3 28" transform="matrix(.67711 0 0 -.67714 0 0)"/>
      <g fill-rule="evenodd">
        <g fill="#fff">
          <path stroke-linejoin="round" d="M207-192l1-8 13 3c14 3 30 5 48 3l16-5c-1 9-9 14-23 13-17 2-30 1-39-2l-16-4z" transform="matrix(0 .67384 -.67713 0 0 0)"/>
          <path d="M208-188l5-3h10l12 3c15 2 34 2 46-3-1 8-8 11-22 11-12 1-26 1-41-2-4-1-7-3-10-6z" transform="matrix(0 .67384 -.67713 0 0 0)"/>
          <path d="M83 253l3-7 13 4c4 2 7 5 9 8H97l-14-5z" transform="matrix(-.36145 .67593 .67713 .3621 0 0)"/>
          <path d="M249 212v-7l12-1c4 0 8 0 11 2-2 2-5 4-9 5l-14 1z" transform="matrix(.0441 .67549 .67713 -.04422 0 0)"/>
          <path d="M259 209v-7l12-1c5 0 8 1 11 3-1 2-4 4-9 4l-14 1z" transform="matrix(.0678 .67549 .67713 -.06798 0 0)"/>
          <path d="M228 225v-7l12-1c4 0 8 0 11 2-2 2-4 4-9 5l-14 1z" transform="matrix(-.01076 .6755 .67713 .01079 0 0)"/>
          <path d="M217 222l-3-8c5-1 22-2 29 1-2 3-5 5-10 6l-16 1z" transform="matrix(-.02207 .67568 .67713 .02211 0 0)"/>
          <path stroke-linecap="round" stroke-linejoin="round" d="M197 222l2-11c7-3 13-4 19-4-2 5-5 9-9 10-7 1-10 4-12 5zm0 0" transform="matrix(-.056 .67714 .67406 .05574 0 0)"/>
        </g>
        <g fill="#edb92e">
          <path d="M-217 510c-4 5-8-6-4-20 3-10 17-6 9 8l-1-1c1-2-1-4-3-4-6 2-6 17 0 13l-1 4z" transform="matrix(-.67713 0 0 .5224 0 0)"/>
          <path d="M232 510c-5 5-9-6-5-20 3-10 17-6 9 8l-1-1c1-2-1-4-3-4-6 2-6 17 1 13l-1 4z" transform="matrix(.67713 0 0 .5224 0 0)"/>
          <path d="M224-465l-5-8c-2-3-2-9 0-12l3-9 1-11c0-3-2-5-3-6s0-2 2-4l2-3h1l1 3c2 2 3 3 2 4l-2 6v11l3 9c2 3 3 9 0 12-2 2-4 5-4 8l-1 1v-1z" transform="matrix(.67713 0 0 -.5224 0 0)"/>
          <path d="M458 221v6c0 2 1 2 2 2 2 0 3 0 3-2v-6c0-1-1-2-3-2l-2 2z" transform="matrix(0 .5688 .67713 0 0 0)"/>
          <g>
            <path d="M-309 510c-4 5-8-6-4-20 3-10 17-6 9 8l-1-1c1-2-1-4-3-4-6 2-6 17 1 13 1 0 0 3-2 4z" transform="matrix(-.67713 0 0 .5224 0 0)"/>
            <path d="M323 510c-4 5-8-6-4-20 3-10 17-6 9 8l-1-1c1-2-1-4-3-4-6 2-6 17 0 13 2 0 0 3-1 4z" transform="matrix(.67713 0 0 .5224 0 0)"/>
            <path d="M315-465c0-3-2-6-4-8-3-3-2-9 0-12l3-9 1-11-3-6c-1-1 0-2 2-4l1-3h2l1 3c2 2 3 3 2 4s-3 3-3 6l1 11 3 9c2 3 2 9 0 12l-5 8v1l-1-1z" transform="matrix(.67713 0 0 -.5224 0 0)"/>
          </g>
          <path d="M458 313v6l2 2c2 0 3-1 3-2v-6c0-1-1-2-3-2l-2 2z" transform="matrix(0 .5688 .67713 0 0 0)"/>
        </g>
        <g fill="#fff">
          <path d="M264-313l42-1c5-1 8-3 10-5-3-2-6-3-11-3h-39c-10 4-10 7-2 9z" transform="matrix(0 .67384 -.67713 0 0 0)"/>
          <path d="M256-334l45-2c4 0 28 5 33 8-3 7-19 8-35 7s-29 0-32 1h-11v-14z" transform="matrix(0 .67384 -.67713 0 0 0)"/>
          <path d="M264-343l45 1c4 0 27 6 32 9-6 8-29 6-35 5-14-2-30-2-32-1h-12l2-14z" transform="matrix(0 .67384 -.67713 0 0 0)"/>
          <path d="M274-349v12c5-1 20 0 32 2 11 2 39 4 46-7-15-7-30-2-43-5s-25-4-35-2zM256-304l42-2c5-1 8-3 10-5-3-2-7-3-11-3l-40 2c-10 3-10 6-1 8zM229-325h36c4 0 10 2 12 4-1 2-4 4-9 4l-32 1-5-7-2-2z" transform="matrix(0 .67384 -.67713 0 0 0)"/>
          <path d="M236-316h31c4 0 8 1 11 3-2 2-5 4-10 5l-24 1c-1-3-6-7-8-9zM228-324l-11-8c5-1 47-3 50-1 4 0 8 2 11 4-2 2-5 5-10 4-4-1-35 0-40 1z" transform="matrix(0 .67384 -.67713 0 0 0)"/>
          <path d="M254-340l13-1c4 0 8 2 11 3-2 3-5 6-9 5-18-1-35 1-51 3l-4-7c21-4 35-5 40-3z" transform="matrix(0 .67384 -.67713 0 0 0)"/>
          <path stroke-linejoin="round" d="M266-348l8 2c4 0 8 3 11 5-2 2-5 4-9 3-27-3-44-2-65 4 8-13 26-18 55-14z" transform="matrix(0 .67384 -.67713 0 0 0)"/>
          <path d="M274-348l-4-11c12-1 26 1 45 4 16 3 29 1 37-1-1 12-17 17-47 11-7-1-17-3-31-3z" transform="matrix(0 .67384 -.67713 0 0 0)"/>
        </g>
      </g>
      <path fill="none" stroke-linecap="round" d="M-348-328l-2 23-3 28" transform="matrix(-.67711 0 0 -.67714 0 0)"/>
      <g fill-rule="evenodd">
        <g fill="#fff">
          <path stroke-linejoin="round" d="M207 348l1-8 13 3c14 3 30 5 48 3l16-5c-1 9-9 14-23 13-17 2-30 1-39-2l-16-4z" transform="matrix(0 .67384 .67713 0 0 0)"/>
          <path d="M208 353l5-4h10l12 3c15 2 34 2 46-3-1 8-8 11-22 11-12 1-26 1-41-2l-10-5z" transform="matrix(0 .67384 .67713 0 0 0)"/>
          <path d="M308-167l3-7 13 4c4 2 7 5 9 8h-11l-14-5z" transform="matrix(.36145 .67593 -.67713 .3621 0 0)"/>
          <path d="M214-326l-1-7 13-1 11 2c-2 2-5 5-9 5l-14 1z" transform="matrix(-.0441 .67549 -.67713 -.04422 0 0)"/>
          <path d="M206-326l-1-6 13-1c4-1 8 0 10 2-1 2-4 4-9 5h-13z" transform="matrix(-.0678 .67549 -.67713 -.06798 0 0)"/>
          <path d="M237-315l-1-7 13-1 11 2c-2 2-5 4-9 5l-14 1z" transform="matrix(.01076 .6755 -.67713 .01079 0 0)"/>
          <path d="M235-318l-3-7c5-1 21-3 28 1-2 2-5 4-10 5l-15 1z" transform="matrix(.02207 .67568 -.67713 .02211 0 0)"/>
          <g stroke-linejoin="round">
            <path stroke-linecap="round" d="M242-317l2-11c7-2 13-4 18-4-1 5-4 9-9 10-7 1-10 4-11 5zm0 0" transform="matrix(.056 .67714 -.67406 .05574 0 0)"/>
            <path d="M301-232h2c-4 3-8 6-12 13-4 6 2 18 5 25 5 4 10 9 12 17 0 4-11 3-19-1-9-4-11-3-14-4-1-6 1-6 4-6-6-9-8-17-9-29-1 12-3 20-8 29 2 0 4 0 3 6-3 1-4 0-14 4-8 4-19 5-19 1 2-8 7-13 12-17 3-7 9-19 5-25-4-7-8-10-12-13h2l-6-3c-5 3-9 10-13 15-10 11-15 20-13 28 2 7 12 16-1 15-12-2-22-19-25-39l-3-19c7 3 10 5 12 8l-2-8c5 1 9 4 11 9l2 5h6c1-3 9-11 13-17 4-7 11-12 13-13l2 6a879 879 0 0 1 71 0c-1-3 0-6 1-6 2 1 9 6 13 13 4 6 12 14 13 17h6l2-5c2-5 6-8 11-9l-1 8c1-3 4-5 11-8l-3 19c-3 20-13 37-25 39-13 1-3-8-1-15 2-8-3-17-13-28-4-5-8-12-12-15l-7 3z" transform="matrix(.67711 0 0 -.67714 0 0)"/>
          </g>
        </g>
        <g fill="#edb92e">
          <path stroke-linejoin="round" d="M245 248l10 3c8 2 13 0 15-5-4 3-8 4-12 2l-9-4-4 4z" transform="matrix(.67712 -.13224 .13223 .67714 0 0)"/>
          <path d="M313 178c9 1 9 7 0 16-1 2-2 2-2 0-1-3-4-5-6-2-1 1-1 2-5 1-5 5-9 8-3 7l9 2-2 2h-11c-8 1 13-22 13-23-1-3 5-7 7-3z" transform="matrix(.67713 0 0 .67501 0 0)"/>
        </g>
      </g>
      <path fill="none" stroke-linecap="round" d="M-313-178c1-2 2-4 5-6" transform="matrix(-.67713 0 0 -.67515 0 0)"/>
    </g>
  </g>
  <path fill="#21231e" fill-rule="evenodd" d="M213 123h-1l1 1v-1"/>
  <g fill="none" stroke="#21231e" stroke-miterlimit="23">
    <path stroke-linecap="round" d="M264-112h13" transform="matrix(.67712 .17475 .17474 -.67714 0 0)"/>
    <path stroke-linecap="round" d="M-292 92l5 1" transform="matrix(-.67711 -.22272 -.2227 .67714 0 0)"/>
    <path d="M224 54h6v4" transform="matrix(.55297 .67714 .67711 -.553 0 0)"/>
  </g>
  <path fill="#21231e" fill-rule="evenodd" d="M163 125h-1l1-2h1l-1 2"/>
  <path fill="none" stroke="#21231e" stroke-miterlimit="23" d="M-40-270h5c2 0 2 2 1 4" transform="matrix(-.55297 .67714 -.67711 -.553 0 0)"/>
  <path fill="#21231e" fill-rule="evenodd" d="M203 125h1l-1-2h-2l2 2"/>
  <g stroke="#21231e" stroke-miterlimit="23">
    <g fill="none" stroke-linecap="round">
      <path d="M-243-243h14" transform="matrix(-.67712 .17475 -.17474 -.67714 0 0)"/>
      <path d="M195 252l6 1" transform="matrix(.67711 -.22272 .2227 .67714 0 0)"/>
      <g stroke-linejoin="round">
        <path d="M237-232c5-2 10-1 14 2l1 2" transform="matrix(.67711 0 0 -.67714 0 0)"/>
        <path d="M253-225l-3-9c4 1 7 3 9 5M270-236c-3 4-5 8-5 13" transform="matrix(.67711 0 0 -.67714 0 0)"/>
        <path d="M258-224c0-4 1-7 3-9 2 1 4 3 4 7" transform="matrix(.67711 0 0 -.67714 0 0)"/>
        <g>
          <path d="M-303-232c5-2 10-1 13 2l2 2" transform="matrix(-.67711 0 0 -.67714 0 0)"/>
          <path d="M-287-225l-3-9c4 1 7 3 9 5" transform="matrix(-.67711 0 0 -.67714 0 0)"/>
          <path d="M-282-224c0-4 1-7 3-9 2 1 3 3 4 7M-270-236c-3 4-5 8-5 13" transform="matrix(-.67711 0 0 -.67714 0 0)"/>
        </g>
      </g>
      <path d="M204-200c3 4 25 12 32 12 15 2 33 2 45-3" transform="matrix(0 .67384 -.67713 0 0 0)"/>
      <path d="M204 340c3 4 25 12 32 12 15 2 33 2 45-3" transform="matrix(0 .67384 .67713 0 0 0)"/>
    </g>
    <path fill="#edb92e" fill-rule="evenodd" stroke-linejoin="round" d="M-227 178c9 1 9 7 0 16-2 2-2 2-2 0-1-3-4-5-6-2-1 1-1 2-5 1-5 5-9 8-3 7l9 2-2 2h-11c-8 1 13-22 13-23-1-3 5-7 7-3z" transform="matrix(-.67713 0 0 .67501 0 0)"/>
    <path fill="none" stroke-linecap="round" d="M227-178l5-6" transform="matrix(.67713 0 0 -.67515 0 0)"/>
  </g>
  <path fill="#21231e" fill-rule="evenodd" d="M153 123h1l-1 1v-1"/>
  <g stroke="#21231e" stroke-miterlimit="23">
    <g fill-rule="evenodd">
      <g fill="#fff">
        <path stroke-linejoin="round" d="M-45 349l-3-4c2-2 7-4 11-1l14 7c-4 3-8 4-12 2l-10-4z" transform="matrix(-.67712 .36539 .36537 .67714 0 0)"/>
        <path d="M174 320l1-6h11c4 0 7 1 10 3-2 2-5 4-9 4l-13-1z" transform="matrix(-.31992 .67714 .67711 .31994 0 0)"/>
        <path d="M268 293v-7h13c4 0 7 1 10 3-2 2-5 4-9 4h-14z" transform="matrix(-.13358 .67714 .67712 .13358 0 0)"/>
        <path stroke-linejoin="round" d="M344-190l1-5c1-2 7-4 12 0 6 5 11 7 15 8-4 3-9 5-13 2l-15-5z" transform="matrix(.09943 .67714 -.67711 .09944 0 0)"/>
        <path d="M185 317v-6h12c4 0 7 1 9 3-1 2-4 4-8 5l-13-2z" transform="matrix(-.27362 .67714 .67711 .27363 0 0)"/>
        <path stroke-linejoin="round" d="M13 298l-4-6h7l4 2c5 3 8 5 12 5-4 3-7 4-11 2l-8-3z" transform="matrix(-.67711 .57007 .57006 .67714 0 0)"/>
      </g>
      <g fill="#edb92e">
        <path stroke-linejoin="round" d="M288-344c0-2 0-4 5-11 5-4 11-7 15-12l2-3-2-10c-2-2-1-6 1-5 1-1 5 1 4 3v9c2-1 2-6 2-10 0-3 3-3 6-2v1c3 1 3 4 1 4-3 1-4 8-6 10l9-8c1-1 2-3 5-1l1 4c0 4-1 4-3 4-3 0-8 3-9 4l-4 2c-1 1-3 7-2 9 2 2 1 4-2 5l-4-1c-1-2 0-3 1-5l2-4c-1-2-3 4-8 9-7 7-12 8-14 8z" transform="matrix(-.08154 .674 -.67713 -.08192 0 0)"/>
        <path d="M297-392l-1-4v-1c-4 2-4 5-2 6l2 2 1-3z" transform="matrix(-.10166 .67691 -.67713 -.1017 0 0)"/>
        <path d="M273 376v-6c1-1 0-2-1-1-3 2-4 4-3 7l2 2 2-2z" transform="matrix(-.14554 .67714 .67335 .14474 0 0)"/>
        <path d="M383 313l3 6c0 1 0 2 1 1 3-4 3-7 0-9l-3-2-1 4z" transform="matrix(.67618 .10567 -.10582 .67714 0 0)"/>
        <path d="M186-422l2-4v-1c-6 0-6 3-5 6l3-1z" transform="matrix(-.28731 .67566 -.67713 -.28795 0 0)"/>
      </g>
    </g>
    <g fill="none">
      <path stroke="none" d="M219 238l1-2-2 1M218 237l1-2h-2"/>
      <path d="M-347 321c1 2 2 2 3 1 2-1 1-1-1-3" transform="matrix(0 -.67714 .6748 0 0 0)"/>
      <path d="M-345 319c1 2 3 2 4 2 2-1 1-2-1-4" transform="matrix(0 -.67714 .6738 0 0 0)"/>
      <path d="M-342 316c1 1 3 2 4 1s1-2-1-4" transform="matrix(0 -.67714 .67634 0 0 0)"/>
    </g>
    <g fill="#fff" fill-rule="evenodd">
      <path stroke-linejoin="round" d="M373 124l-2-5c1-2 6-4 11 0s9 5 13 6c-4 3-8 5-12 3l-10-5z" transform="matrix(.67712 .36539 -.36537 .67714 0 0)"/>
      <path d="M383-121v-7h12c4 1 7 2 9 4-1 1-4 3-8 3h-13z" transform="matrix(.31992 .67714 -.67711 .31994 0 0)"/>
      <path d="M371-227v-7h12c4 0 8 1 10 3-1 2-4 4-9 5l-13-1z" transform="matrix(.13358 .67714 -.67712 .13358 0 0)"/>
      <path stroke-linejoin="round" d="M266 338l1-4c2-2 7-4 12 0 6 5 11 6 16 7-5 4-9 5-14 3l-15-6z" transform="matrix(-.09943 .67714 .67711 .09944 0 0)"/>
      <path d="M372-147l1-7h11c4 1 8 2 10 4-2 2-4 4-8 4-5 1-9-1-14-1z" transform="matrix(.27362 .67714 -.67711 .27363 0 0)"/>
      <path stroke-linejoin="round" d="M329 32l-4-6h8l3 2 12 5c-4 3-7 4-11 2l-8-3z" transform="matrix(.67711 .57007 -.57006 .67714 0 0)"/>
    </g>
    <path fill="#c6363c" d="M-323-236v-62a40 40 0 0 1 39-39 40 40 0 0 1 40 39v62z" transform="matrix(-.64479 0 0 -.67714 0 0)"/>
    <g fill="#fff">
      <path d="M324-274v-16h-31v-46l-9-1-8 1v46h-32v16h32v38h17v-38z" transform="matrix(.64326 0 0 -.67714 0 0)"/>
      <g fill-rule="evenodd" stroke-linejoin="round">
        <path d="M-245-258h-23c-1 5-6 17 5 18 4 0 8-6 3-8-2-1-3 0-3 1-1 2 0 3 2 2-3 5-9-4-1-8 2-2 4 2 6 2 1 0 3-4 5-2 8 4 2 13-1 8 2 1 3 0 2-2 0-1-1-2-3-1-5 2-1 8 3 8 11-1 6-13 5-18z" transform="matrix(0 -.67714 -.67557 0 0 0)"/>
        <path d="M-245 284h-23c-1 5-6 16 5 17 4 0 8-6 3-8-2 0-3 0-3 2-1 1 0 2 2 2-3 5-9-5-1-9 2-1 4 2 6 2 1 0 3-3 5-2 8 4 2 14-1 9 2 0 3-1 2-2 0-2-1-2-3-2-5 2-1 8 3 8 11-1 6-12 5-17z" transform="matrix(0 -.67714 .67557 0 0 0)"/>
        <path d="M318-258h-22c-1 5-6 17 4 18 5 0 8-6 4-8-2-1-3 0-4 1 0 2 1 3 2 2-2 5-8-4-1-8 2-2 5 2 6 2 2 0 4-4 6-2 7 4 2 13-1 8 2 1 3 0 2-2 0-1-2-2-4-1-4 2-1 8 4 8 10-1 6-13 4-18z" transform="matrix(0 .67714 -.67557 0 0 0)"/>
        <path d="M318 284h-22c-1 5-6 16 4 17 5 0 8-6 4-8-2 0-3 0-4 2l2 2c-2 5-8-5-1-9 2-1 5 2 6 2 2 0 4-3 6-2 7 4 2 14-1 9 2 0 3-1 2-2 0-2-2-2-4-2-4 2-1 8 4 8 10-1 6-12 4-17z" transform="matrix(0 .67714 .67557 0 0 0)"/>
      </g>
    </g>
    <path fill="none" d="M-323-236v-62a40 40 0 0 1 39-39 40 40 0 0 1 40 39v62z" transform="matrix(-.64479 0 0 -.67714 0 0)"/>
  </g>
</svg>
