<svg xmlns="http://www.w3.org/2000/svg" xmlns:xlink="http://www.w3.org/1999/xlink" viewBox="0 0 512 512">
  <defs>
    <path id="a" d="M50 155.761h1100v641.70203H50z"/>
    <clipPath id="b">
      <use width="100%" height="100%" overflow="visible" xlink:href="#a"/>
    </clipPath>
  </defs>
  <path fill="#fff" fill-rule="evenodd" d="M0 85.333496h512v341.33301H0z"/>
  <path fill="#e03c31" d="M1150 369.649V155.761H242.777l320.832 213.888z" clip-path="url(#b)" transform="matrix(.46545 0 0 .53192 -23.27273 2.4812537)"/>
  <path fill="#fff" d="M1150 369.649H563.609l64.212 42.807H1150zM1150 540.767H627.821l-64.212 42.807H1150z" clip-path="url(#b)" transform="matrix(.46545 0 0 .53192 -23.27273 2.4812537)"/>
  <path fill="#001489" d="M1150 797.462V583.574H563.609L242.777 797.462z" clip-path="url(#b)" transform="matrix(.46545 0 0 .53192 -23.27273 2.4812537)"/>
  <path d="M-.0000025 312.89539v45.40355l59.5870265-45.40355zm0 0H59.587024l74.675666-56.90523-74.675666-56.88555H-.0000025zm0-113.79078H59.587024L-.0000025 153.69999z"/>
  <path fill="#ffb81c" d="M50 284.289l288.455 192.304L50 668.932v51.412l365.572-243.751L50 232.878z" clip-path="url(#b)" transform="matrix(.46545 0 0 .53192 -23.27273 2.4812537)"/>
  <path fill="#007749" d="M1150 540.767V412.456H550.666L165.658 155.761H50v77.117l365.572 243.715L50 720.344v77.118h115.658l385.008-256.695z" clip-path="url(#b)" transform="matrix(.46545 0 0 .53192 -23.27273 2.4812537)"/>
</svg>
