<svg xmlns="http://www.w3.org/2000/svg" xmlns:xlink="http://www.w3.org/1999/xlink" viewBox="0 0 360 240">
  <path fill="#c60b1e" d="M0 0h360v240H0z"/>
  <path fill="#ffc400" d="M0 60h360v120H0z"/>
  <g stroke="#000" stroke-width=".4">
    <g transform="scale(.48)">
      <g stroke-width=".3">
        <path fill="#ad1519" stroke-linejoin="round" d="M168 222.2l-.8-.1-1.1-1-.7-.5-.6-.8s-.8-1.2-.4-2.1c.3-1 .9-1.2 1.4-1.5.5-.3 1.6-.6 1.6-.6s.8-.4 1.1-.4l1.3-.3.6-.3.9-.2 1.1-.2h1.6l1.7.1H179a7 7 0 0 1 1.5.3c.2.2 1.6.6 2 .8l2.4.6c.5.3.9.8 1.2 1.1.3.4.3.8.4 1v1.2c0 .3-.5.8-.5.8l-.6 1-.8.7s-.6.5-1 .4c-.5 0-5-.8-8-.8s-7.6.8-7.6.8z"/>
        <g fill="#c8b100">
          <ellipse cx="175.7" cy="215.7" rx="1.4" ry="2.5"/>
          <ellipse cx="175.7" cy="215.7" rx=".6" ry="2.3"/>
          <ellipse cx="175.7" cy="213" stroke="none" rx=".9" ry=".9"/>
          <path d="M177 212.7v.6h-2.6v-.6h1v-1.3h-.7v-.5h.7v-.6h.6v.6h.6v.5h-.6v1.3h1"/>
          <path fill="none" d="M176 212.2a1 .9 0 1 1-.6 0"/>
          <path d="M175.7 222h-4.8l-.1-1.1-.3-1.2-.2-1.6c-1.3-1.7-2.5-2.9-3-2.6.1-.3.3-.6.5-.7 1.2-.7 3.6 1 5.4 3.7l.5.8h4l.4-.8c1.9-2.7 4.3-4.4 5.5-3.7.2.1.3.4.4.7-.4-.2-1.6.9-3 2.6l-.1 1.6-.3 1.2v1.2z"/>
          <path fill="none" d="M167.6 215.4c.9-.5 3 1.2 4.7 3.8m11.5-3.8c-.9-.5-3 1.2-4.7 3.8"/>
        </g>
        <g id="a" fill="#c8b100">
          <path d="M168.6 224.3c-.2-.6-.6-1.1-.6-1.1a29 29 0 0 1 15.4 0l-.6.9-.3.8a24 24 0 0 0-6.8-.8c-2.8 0-5.5.3-6.9.8l-.2-.6"/>
          <path d="M175.7 226.7c2.4 0 5-.3 6-.6.7-.2 1.1-.5 1-.8 0-.2-.1-.3-.3-.4-1.5-.5-4-.8-6.7-.8a25 25 0 0 0-6.8.8c-.1 0-.3.2-.3.4 0 .3.3.6 1 .8 1 .3 3.6.6 6 .6zM183.5 222l-.6-.4s-.6.3-1.3.2c-.7-.1-1-1-1-1s-.7.7-1.4.6c-.6 0-1-.6-1-.6s-.7.5-1.4.5c-.6 0-1.2-.8-1.2-.8s-.6.8-1.2.8-1.2-.5-1.2-.5-.2.6-1 .7c-.8.1-1.5-.6-1.5-.6s-.4.7-1 .9c-.5.2-1.2-.3-1.2-.3l-.2.5-.3.1.1.5c2-.5 4.6-.9 7.6-.9s5.6.4 7.6 1l.2-.6z"/>
          <path d="M175.7 219.5h.3v.4c0 .6.4 1 1 1 .5 0 1-.2 1-.7l.2-.3v.4c.2.5.6.9 1.2.9a1 1 0 0 0 1.1-1.1v-.1l.3-.4.2.5v.4c0 .6.4 1 1 1 .4 0 .7-.1.9-.4l.2-.3v.4c0 .3.1.6.5.7 0 0 .4 0 .9-.4l.8-.8v.5s-.5.8-1 1c-.2.2-.6.4-.9.3-.3 0-.5-.3-.7-.6l-.8.2c-.6 0-1.2-.3-1.4-.8-.3.3-.7.5-1.1.5-.5 0-1-.3-1.3-.6-.3.3-.7.4-1 .4-.6 0-1.1-.3-1.4-.7-.3.4-.8.7-1.4.7-.4 0-.8-.1-1-.4a1.6 1.6 0 0 1-2.5 0c-.2.6-.8 1-1.4 1-.3 0-.5-.2-.8-.3-.1.3-.3.6-.7.6-.3 0-.6 0-.9-.2-.5-.3-1-1.1-1-1.1v-.5l.9.8c.5.4.9.4.9.4.3 0 .5-.4.5-.7v-.4l.2.3c.2.3.5.4.9.4a1 1 0 0 0 1-1.4l.1-.5.4.4v.1c0 .6.4 1 1 1s1-.3 1.2-.8v-.4l.2.3c.1.5.5.8 1 .8a1 1 0 0 0 1.1-1v-.5h.3z"/>
          <path stroke-linejoin="round" d="M175.7 222.2c-3 0-5.8.4-7.7 1-.1 0-.3 0-.3-.2l.1-.3c2-.6 4.8-1 7.9-1 3 0 5.8.4 7.8 1l.2.3-.3.2c-2-.6-4.7-1-7.7-1z"/>
          <path d="M165.4 221l-.6-.7-.7-.4.6-.2c.2 0 .3 0 .4.2v-.2s.3 0 .4.3v1zM167.3 220.2v.7l-1.5.1h-.2v-.3l1.1-.9.6.4"/>
          <path d="M165.4 220.8c.2-.2.4-.1.6 0 .2.2.2.4.1.5h-.5c-.2-.2-.3-.4-.2-.6zM168 220.9c0-.2 0-.4.2-.4 0 0 .3 0 .3.2l-.1.5-.4-.3zM168.7 220l.5.5 1.2-.6v-.4l-1.5-.1-.2.6"/>
          <path d="M170 217.8l-.6.6.9 1.1.2.1.2-.2.3-1.3-1-.3"/>
          <path d="M172.4 219.3l-.3.6-1.4-.1-.2-.2.1-.2 1.2-.6.6.5"/>
          <ellipse cx="170.5" cy="219.6" rx=".5" ry=".5"/>
          <path d="M172.9 220c0-.3 0-.4.2-.4.1 0 .3 0 .3.3 0 .2 0 .4-.2.4s-.3-.2-.3-.4zM173.8 219.2l.4.6 1.3-.4.2-.2-.2-.2-1.3-.4-.4.6"/>
          <path d="M175.7 217.2l-.9.5.6 1.4h.5l.6-1.4-.8-.5"/>
          <path d="M177.6 219.2l-.4.6-1.4-.4-.1-.2.1-.2 1.4-.4.4.6"/>
          <ellipse cx="175.7" cy="219.2" rx=".5" ry=".5"/>
          <path d="M178.5 220c0-.3 0-.4-.2-.4s-.3 0-.3.3c0 .2 0 .4.2.4.1 0 .3-.2.3-.4zM179 219.3l.3.6 1.3-.1.2-.2v-.2l-1.3-.6-.5.5"/>
          <path d="M181.3 217.8l.6.6-.8 1.1-.3.1-.1-.2-.3-1.3.9-.3"/>
          <path d="M182.7 220l-.5.5-1.2-.6-.1-.3.1-.1 1.4-.1.3.6"/>
          <ellipse cx="180.9" cy="219.6" rx=".5" ry=".5"/>
          <path d="M183.3 220.9c.1-.2 0-.4 0-.4-.2 0-.4 0-.5.2 0 .2 0 .4.2.5.1 0 .3-.1.3-.3zM185.7 221l.7-.7.7-.4-.6-.2c-.2 0-.4 0-.5.2v-.2s-.3 0-.4.3v.7l.1.3z"/>
          <path d="M183.8 220.2l.1.7 1.5.1h.2v-.3l-1.1-.9-.7.4"/>
          <path d="M185.7 220.8c0-.2-.3-.1-.5 0-.2.2-.2.4-.1.5h.5c.2-.2.3-.4.1-.6z"/>
        </g>
        <g id="b" fill="none">
          <path fill="#ad1519" d="M168 224.3l.4-.5.6.1-.4.6-.5-.2"/>
          <path fill="#058e6e" d="M170.8 223.8l-.6.1c-.2 0-.4 0-.4-.2s0-.4.2-.4h.8l.7-.2c.1 0 .3 0 .3.3 0 .1 0 .3-.2.3l-.7.1"/>
          <ellipse cx="173.2" cy="223.3" fill="#fff" rx=".4" ry=".4"/>
          <path fill="#ad1519" d="M175.7 223.5h-1l-.3-.3c0-.2.1-.3.3-.3h2c.2 0 .3.1.3.3 0 .1-.1.3-.3.3h-1"/>
          <ellipse cx="178.2" cy="223.3" fill="#fff" rx=".4" ry=".4"/>
          <path fill="#058e6e" d="M180.5 223.8l.7.1c.2 0 .3 0 .4-.2 0-.2-.1-.4-.3-.4h-.7l-.7-.2c-.2 0-.4 0-.4.3 0 .1.1.3.3.3l.7.1"/>
          <path fill="#ad1519" d="M183.2 224.3l-.2-.5h-.7l.3.7.6-.2"/>
          <path fill="#ad1519" stroke-linejoin="round" d="M175.7 226.2c-2.5 0-4.7-.3-6.3-.7a26.6 26.6 0 0 1 12.6 0c-1.7.4-3.9.7-6.3.7z"/>
          <path stroke-width="0" d="M176.8 226v-1m-.6 1.1V225m-.4 1.2V225M175.4 226.2v-1.3M175 226.2v-1.3M174.8 226.2v-1.3M174.4 226.2v-1.3"/>
          <path stroke-width=".1" d="M174.2 226.2v-1.3M173.6 226v-1m.3 1.1v-1.2M173.1 226v-1m.3 1v-1M172.4 226v-1m.2 1v-1m.3 1v-1M172.2 226v-1M172 226v-1M171.7 225.9v-.8M171.2 225.8v-.6m.3.7v-.7M171 225.8v-.6M170.8 225.7v-.4M170.5 225.7v-.4"/>
          <path stroke-width=".2" d="M170.3 225.6v-.2M170 225.6v-.1"/>
        </g>
      </g>
      <g id="c">
        <g fill="#005bbf">
          <path d="M191.3 330.7c-1.6 0-3-.3-4-.9-1-.5-2.3-.8-3.8-.8s-3 .3-4 .8-2.3.9-3.8.9c-1.6 0-3-.4-4-1-1-.4-2.3-.7-3.8-.7s-2.8.3-3.8.8-2.4.9-4 .9v2.4c1.6 0 3-.4 4-.9s2.3-.8 3.8-.8 2.8.3 3.8.8 2.4.9 4 .9c1.5 0 2.9-.3 3.9-.9 1-.5 2.4-.8 3.9-.8s2.8.3 3.8.8c1 .6 2.4.9 4 .9z"/>
          <path fill="#ccc" d="M191.3 333c-1.6 0-3-.2-4-.8-1-.5-2.3-.8-3.8-.8s-3 .3-4 .8c-1 .6-2.3.9-3.8.9-1.6 0-3-.4-4-1-1-.4-2.3-.7-3.8-.7s-2.8.3-3.8.8-2.4.9-4 .9v2.4c1.6 0 3-.3 4-.9 1-.5 2.3-.8 3.8-.8s2.8.3 3.8.8 2.4.9 4 .9c1.5 0 2.9-.3 3.9-.9 1-.5 2.4-.8 3.9-.8s2.8.3 3.8.8c1 .6 2.4.9 4 .9v-2.4"/>
          <path d="M191.3 335.5c-1.6 0-3-.3-4-.9-1-.5-2.3-.8-3.8-.8s-3 .3-4 .8c-1 .6-2.3.9-3.8.9-1.6 0-3-.4-4-.9s-2.3-.8-3.8-.8-2.8.3-3.8.8-2.4.9-4 .9v2.4c1.6 0 3-.3 4-.9 1-.5 2.3-.8 3.8-.8s2.8.3 3.8.8 2.4.9 4 .9c1.5 0 2.9-.3 3.9-.8 1-.6 2.4-.9 3.9-.9s2.8.3 3.8.8c1 .6 2.4.9 4 .9v-2.4"/>
          <path fill="#ccc" d="M191.3 340.3c-1.6 0-3-.3-4-.9-1-.5-2.3-.8-3.8-.8s-3 .3-4 .9c-1 .5-2.3.8-3.8.8-1.6 0-3-.4-4-.9s-2.3-.8-3.8-.8-2.8.3-3.8.8c-1 .6-2.4 1-4 1v-2.5c1.6 0 3-.3 4-.9 1-.5 2.3-.8 3.8-.8s2.8.3 3.8.8c1 .6 2.4.9 4 .9 1.5 0 2.9-.3 3.9-.8 1-.6 2.4-.9 3.9-.9s2.8.3 3.8.8c1 .6 2.4.9 4 .9v2.4"/>
          <path d="M191.3 342.7c-1.6 0-3-.3-4-.8s-2.3-.9-3.8-.9-3 .4-4 .9-2.3.8-3.8.8c-1.6 0-3-.3-4-.9-1-.5-2.3-.8-3.8-.8s-2.8.3-3.8.9c-1 .5-2.4.8-4 .8v-2.4c1.6 0 3-.3 4-.9 1-.5 2.3-.8 3.8-.8s2.8.3 3.8.8c1 .6 2.4 1 4 1 1.5 0 2.9-.4 3.9-1 1-.5 2.4-.8 3.9-.8s2.8.3 3.8.9c1 .5 2.4.8 4 .8z"/>
        </g>
        <g fill="#c8b100">
          <path stroke-linejoin="round" d="M167 320.8v.6c0 1.5-1.2 2.6-2.8 2.6h23c-1.6 0-2.8-1.1-2.8-2.6v-.6H167z"/>
          <path d="M167.3 319.3H184c.6 0 1 .3 1 .7 0 .5-.4.8-1 .8h-16.7c-.5 0-1-.3-1-.8 0-.4.5-.7 1-.7zM164.3 329.9H187V324h-22.8z"/>
        </g>
        <path fill="#ccc" d="M167.6 318.3h16.2v-79.6h-16.3z"/>
        <path fill="none" d="M179.1 238.8v79.5m1.9-79.5v79.5"/>
        <g fill="#c8b100">
          <path d="M164.6 232.4h22.3v-5.9h-22.3z"/>
          <path stroke-linejoin="round" d="M167 236.3l.3-.1h17.2c-.6-.1-1-.6-1-1.2 0-.7.4-1.2 1-1.4a2 2 0 0 1-.5.1H167c.6.1 1 .7 1 1.3 0 .5-.4 1-1 1.3z"/>
          <path d="M167.3 236.2H184c.6 0 1 .3 1 .8 0 .4-.4.8-1 .8h-16.7c-.5 0-1-.4-1-.8 0-.5.5-.8 1-.8zM167.3 232.4H184c.6 0 1 .3 1 .6 0 .4-.4.7-1 .7h-16.7c-.5 0-1-.3-1-.7 0-.3.5-.6 1-.6z"/>
        </g>
      </g>
      <g id="d" fill="#ad1519">
        <path d="M162.5 298.6c-2.3 1.3-3.8 2.7-3.6 3.3.1.6.9 1.1 1.9 1.8 1.6 1.1 2.6 3.1 1.8 4a5.8 5.8 0 0 0-.1-9z"/>
        <path stroke-linejoin="round" d="M200.4 268.5a51.8 51.8 0 0 0-24.3-2.1c-9.7 1.6-17.1 5.5-16.5 8.7v.2l-3.7-8.5c-.6-3.5 7.6-7.8 18.4-9.6a55 55 0 0 1 9.5-.8c7 0 13 1 16.6 2.3v9.8"/>
        <path d="M167.5 278.5c-4.5-.3-7.6-1.6-8-3.4-.2-1.5 1.3-3.2 4-4.7 1.3.1 2.6.3 4 .3v7.8M183.8 272.4c2.9.4 5 1.1 6 2l.1.1c.5 1-2 3.3-6.1 5.7v-7.8"/>
        <path stroke-linejoin="round" d="M157.4 293.8c-.4-1.3 4-3.8 10.2-6.1 2.8-1 5.2-2 8-3.4 8.7-3.8 15-8.2 14.3-9.8v-.1c.4.4 1.1 8.2 1.1 8.2.8 1.5-5 5.8-13 9.6a138 138 0 0 1-10.4 4c-4.6 1.7-9 4.6-8.7 5.7l-1.5-8z"/>
      </g>
      <g stroke-width=".3">
        <path fill="#ad1519" d="M324.9 220.4s-.8.8-1.3 1c-.6 0-1.2-.6-1.2-.6s-.5.5-1.1.7c-.6.1-1.4-.7-1.4-.7s-.6.8-1.1 1c-.5.2-1.1-.3-1.1-.3l-.7.7h-.5l-.6-.5-.6-.7-.7-.2-.3-1.1v-.6c-.2-.6.8-1.4 2.3-1.7a4 4 0 0 1 2 0c.6-.5 1.8-.8 3.2-.8 1.3 0 2.4.2 3 .7.7-.5 1.8-.7 3-.7 1.5 0 2.7.3 3.3.8.5-.2 1.2-.2 2 0 1.5.3 2.5 1 2.3 1.7v.6l-.4 1-.6.3-.7.7-.5.4h-.5c-.4-.2-.7-.6-.7-.6s-.6.5-1.1.3c-.5-.2-1-1-1-1s-.9.8-1.5.7c-.6-.2-1-.7-1-.7s-.7.6-1.3.5c-.5-.1-1.2-.9-1.2-.9z"/>
        <g fill="#c8b100">
          <ellipse cx="324.8" cy="216.2" rx="1.4" ry="2"/>
          <ellipse cx="324.9" cy="216.2" rx=".6" ry="1.8"/>
          <ellipse cx="324.8" cy="213.9" stroke="none" rx=".9" ry=".9"/>
          <path d="M326.1 213.6v.6h-2.5v-.6h1v-1.3h-.7v-.5h.6v-.6h.7v.6h.6v.5h-.6v1.3h1"/>
          <path fill="none" d="M325.1 213.1a1 .9 0 1 1-.5 0"/>
        </g>
        <g fill="none" stroke-width=".2">
          <path stroke-linecap="round" stroke-width=".3" d="M314.4 220a2.9 2.9 0 0 1 2.6-4c.5 0 1 .2 1.4.4"/>
          <path stroke-width=".3" d="M319.5 218c-.2-.3-.3-.6-.3-1 0-1 1.2-2 2.6-2 .6 0 1.2.2 1.7.5M330.2 218l.2-1c0-1-1.2-2-2.6-2-.6 0-1.2.2-1.7.5"/>
          <path stroke-linecap="round" stroke-width=".3" d="M335.2 220l.2-1c0-1.7-1.2-3-2.8-3-.5 0-1 .2-1.4.4"/>
          <ellipse cx="313.6" cy="218.7" rx=".4" ry=".4"/>
          <ellipse cx="313.7" cy="217.1" rx=".4" ry=".4"/>
          <ellipse cx="314.8" cy="215.9" rx=".4" ry=".4"/>
          <ellipse cx="316.1" cy="215.3" rx=".4" ry=".4"/>
          <ellipse cx="317.5" cy="215.3" rx=".4" ry=".4"/>
          <ellipse cx="318.4" cy="217.1" fill="#fff" rx=".4" ry=".4"/>
          <ellipse cx="318.7" cy="215.6" rx=".4" ry=".4"/>
          <ellipse cx="319.8" cy="214.6" rx=".4" ry=".4"/>
          <ellipse cx="321.2" cy="214.2" rx=".4" ry=".4"/>
          <ellipse cx="322.7" cy="214.2" rx=".4" ry=".4"/>
          <ellipse cx="326.9" cy="214.2" rx=".4" ry=".4"/>
          <ellipse cx="328.4" cy="214.2" rx=".4" ry=".4"/>
          <ellipse cx="329.8" cy="214.6" rx=".4" ry=".4"/>
          <ellipse cx="330.9" cy="215.6" rx=".4" ry=".4"/>
          <ellipse cx="331.2" cy="217.1" fill="#fff" rx=".4" ry=".4"/>
          <ellipse cx="332.1" cy="215.3" rx=".4" ry=".4"/>
          <ellipse cx="333.5" cy="215.3" rx=".4" ry=".4"/>
          <ellipse cx="334.9" cy="215.9" rx=".4" ry=".4"/>
          <ellipse cx="335.9" cy="217.1" rx=".4" ry=".4"/>
          <ellipse cx="336" cy="218.7" rx=".4" ry=".4"/>
        </g>
        <use width="100%" height="100%" x="149.2" xlink:href="#a"/>
        <use width="100%" height="100%" x="149.2" xlink:href="#b"/>
      </g>
      <use width="100%" height="100%" x="149.2" xlink:href="#c"/>
      <use width="100%" height="100%" transform="matrix(-1 0 0 1 500.6 0)" xlink:href="#d"/>
      <g fill="#c8b100" stroke="none">
        <path d="M166.4 264.6c2-.7 3.3-1.5 2.7-3-.4-1-1.5-1.3-3-.7l-2.7 1 2.4 6 .8-.3.9-.3-1-2.6zm-1.2-2.9l.7-.2c.6-.2 1.2 0 1.5.8.2.5.2 1.1-.5 1.5l-.7.4-1-2.5M172.8 259.2l-.9.2-.9.2 1.4 6.2 4.4-.8-.1-.4v-.4l-2.7.6-1.2-5.6M181.6 264.6c.8-2.3 1.8-4.4 2.8-6.6h-1.1c-.5 1.6-1.2 3.2-1.9 4.8l-2.4-4.5-1 .1h-1l3.6 6.3h1M190.7 259.8l.5-.9c-.2-.2-1-.5-1.8-.6-1.8-.2-2.8.6-3 1.7-.2 2.2 3.4 2 3.2 3.5 0 .7-.8 1-1.5.9-.8-.1-1.4-.6-1.5-1.2h-.2l-.5 1.1c.5.3 1.2.5 1.9.6 1.8.2 3.2-.5 3.3-1.7.2-2.2-3.4-2.3-3.2-3.6 0-.5.4-.9 1.4-.8.6.1 1 .5 1.2 1h.2M310.3 265c.6-2.3 1.4-4.6 2.2-6.9l-.5.1h-.6c-.3 1.7-.9 3.4-1.4 5-1-1.4-2-2.8-2.8-4.3l-1 .2-1 .1 4.1 6 .5-.2h.5M316.5 258.2h-1.8l-.1 6.3 4.5.1v-.4-.4h-2.7v-5.6M323.5 259.2l2.1.3v-.4l.1-.4-6-.5v.4l-.1.4h2.2l-.6 5.8h1l.8.2.5-5.8M326 265.5l.9.2.8.2.8-3 .5 1.3 1 2.2 1 .2 1 .2-.3-.6-1.4-3c1.1 0 2-.4 2.2-1.3.1-.6-.1-1.1-.7-1.5-.4-.3-1.3-.5-1.8-.6l-2.4-.6-1.6 6.3m3.1-5.4c.8.2 1.6.3 1.6 1v.6c-.3.9-1 1.2-2.2.9l.6-2.5M337.6 267.5l-.3 2 .9.5.8.5.6-7.2a7.5 7.5 0 0 1-.8-.4l-6.3 4 .5.3.4.2 1.8-1.3 2.4 1.3zm-1.8-1.7l2-1.4-.2 2.4-1.8-1"/>
      </g>
    </g>
    <path fill="#ad1519" stroke-width=".144" d="M119.8 87.7c3.2 0 6 .5 8 1.2 1 .5 2.4.8 4 1 1.1.2 2.2.2 3.2.2 1.3 0 3.2.3 5.1 1.2 1.6.7 2.9 1.5 3.8 2.3l-.8.7-.2 1.9-2 2.3-1.1 1-2.4 1.9H136l-.4 1.2-15.8-1.9-15.8 1.9-.4-1.1-1.2-.1-2.5-2-1-.9-2-2.3-.3-2-.7-.6c.8-.8 2.1-1.6 3.7-2.3 1.9-.9 3.8-1.3 5-1.2a16.2 16.2 0 0 0 7.4-1.2c1.9-.7 4.5-1.2 7.7-1.2z"/>
    <g fill="#c8b100" transform="scale(.48)">
      <path d="M225.3 191.4l1.4 1.1 2.1-3.4a7.7 7.7 0 0 1-3.7-7.4c.2-4.3 5.5-8 12.2-8 3.4 0 6.6 1 8.8 2.6l.2-1.9a18.1 18.1 0 0 0-9-2.3c-7.8 0-13.8 4.4-14 9.6l-.1 1c0 2.7 1.2 5.2 3.2 7l-1 1.7"/>
      <path d="M225.4 191.5c-2.6-2-4.2-4.7-4.2-7.6 0-3.4 2.2-6.4 5.5-8.4a8.9 8.9 0 0 0-3.5 7.1c0 2.8 1.2 5.3 3.2 7l-1 1.9"/>
      <path d="M202.2 194.9a9.1 9.1 0 0 1-1.5-10c2.2-4.5 8.9-7.7 16.8-7.7 2.2 0 4.2.3 6.1.7l-1 1.5c-1.6-.3-3.3-.5-5.1-.5-7.3 0-13.4 2.8-15.1 6.7-.5 1-.8 2-.8 3.2 0 2.3 1.1 4.4 2.8 5.8l-2.6 4.3-1.4-1.1z"/>
      <path d="M204.9 180.5a11 11 0 0 0-4.2 4.3 9 9 0 0 0 1.5 10l-1.6 2.7c-1.5-2-2.4-4.3-2.4-6.7 0-4.2 2.7-7.9 6.7-10.3zM250 171.3c1.8 0 3.3 1.1 3.7 2.7.2 1.4.4 3 .4 4.6v1.2c0 3.5.6 6.6 1.3 8.5l-5.4 5.1-5.4-5.1c.7-2 1.2-5 1.3-8.5v-.7-.5c0-1.6.2-3.2.4-4.6.4-1.6 2-2.7 3.7-2.7z"/>
      <path d="M250 173c1 0 1.7.5 2 1.3.1 1.3.3 2.8.3 4.4v1.1c0 3.3.6 6.2 1.2 8l-3.5 3.4-3.5-3.4c.6-1.8 1.1-4.7 1.2-8v-.6-.5c0-1.6.2-3 .4-4.4.2-.8 1-1.4 2-1.4zM274.7 191.4l-1.4 1.1-2-3.4a7.7 7.7 0 0 0 3.7-7.4c-.2-4.3-5.5-8-12.2-8-3.5 0-6.6 1-8.9 2.6 0-.7 0-1.3-.2-1.9 2.5-1.4 5.6-2.3 9-2.3 7.8 0 13.8 4.4 14.1 9.6v1c0 2.7-1.2 5.2-3.2 7l1.1 1.7"/>
      <path d="M274.6 191.5c2.6-2 4.3-4.7 4.3-7.6 0-3.4-2.2-6.4-5.6-8.4a8.9 8.9 0 0 1 3.6 7.1c0 2.8-1.3 5.3-3.3 7l1 1.9"/>
      <path d="M297.8 194.9a9.2 9.2 0 0 0 1.5-10c-2.1-4.5-8.8-7.7-16.8-7.7-2.1 0-4.2.3-6.1.7.4.5.8 1 1 1.5 1.7-.3 3.4-.5 5.1-.5 7.3 0 13.4 2.8 15.1 6.7.5 1 .8 2 .8 3.2 0 2.3-1.1 4.4-2.8 5.8l2.6 4.3 1.4-1.1z"/>
      <path d="M295.1 180.5a11 11 0 0 1 4.2 4.3 9 9 0 0 1-1.5 10l1.6 2.7c1.6-2 2.4-4.3 2.4-6.7 0-4.2-2.6-7.9-6.7-10.3z"/>
      <ellipse cx="250.1" cy="167.3" fill="#005bbf" stroke-width=".3" rx="4.4" ry="4.2"/>
      <path stroke-width=".3" d="M248.9 155.5v2.3h-2.4v2.3h2.4v6.6h-3l-.3.6c0 .6.1 1.1.4 1.6h8.1c.3-.5.4-1 .4-1.6l-.2-.6h-3v-6.6h2.4v-2.3h-2.4v-2.3z"/>
    </g>
    <g fill="#fff" transform="scale(.48)">
      <ellipse cx="250" cy="188.9" rx="1.9" ry="1.8"/>
      <ellipse cx="250" cy="185.4" rx="1.9" ry="1.8"/>
      <ellipse cx="250" cy="181.6" rx="1.5" ry="1.4"/>
      <ellipse cx="250" cy="178.2" rx="1.1" ry="1"/>
      <ellipse cx="250" cy="175.2" rx=".9" ry=".8"/>
      <ellipse cx="198.9" cy="198.7" rx="1.1" ry="1"/>
      <ellipse cx="197.4" cy="196" rx="1.1" ry="1"/>
      <ellipse cx="196.4" cy="192.9" rx="1.1" ry="1"/>
      <ellipse cx="196.3" cy="189.6" rx="1.1" ry="1"/>
      <ellipse cx="197.1" cy="186.4" rx="1.1" ry="1"/>
      <ellipse cx="198.8" cy="183.4" rx="1.1" ry="1"/>
      <ellipse cx="201.1" cy="181" rx="1.1" ry="1"/>
      <ellipse cx="203.7" cy="179" rx="1.1" ry="1"/>
      <ellipse cx="206.8" cy="177.4" rx="1.1" ry="1"/>
      <ellipse cx="210" cy="176.2" rx="1.1" ry="1"/>
      <ellipse cx="213.7" cy="175.5" rx="1.1" ry="1"/>
      <ellipse cx="217.1" cy="175.4" rx="1.1" ry="1"/>
      <ellipse cx="220.5" cy="175.5" rx="1.1" ry="1"/>
      <ellipse cx="224.2" cy="190.3" rx="1.1" ry="1"/>
      <ellipse cx="222.3" cy="187.6" rx="1.1" ry="1"/>
      <ellipse cx="221.4" cy="184.8" rx="1.1" ry="1"/>
      <ellipse cx="221.5" cy="181.6" rx="1.1" ry="1"/>
      <ellipse cx="222.2" cy="178.4" rx="1.1" ry="1"/>
      <ellipse cx="223.8" cy="175.5" rx="1.1" ry="1"/>
      <ellipse cx="226.4" cy="173.5" rx="1.1" ry="1"/>
      <ellipse cx="229.4" cy="171.8" rx="1.1" ry="1"/>
      <ellipse cx="232.7" cy="170.8" rx="1.1" ry="1"/>
      <ellipse cx="236.1" cy="170.2" rx="1.1" ry="1"/>
      <ellipse cx="239.5" cy="170.3" rx="1.1" ry="1"/>
      <ellipse cx="243" cy="170.9" rx="1.1" ry="1"/>
      <ellipse cx="246.2" cy="172" rx="1.1" ry="1"/>
      <ellipse cx="253.8" cy="172" rx="1.1" ry="1"/>
      <ellipse cx="257" cy="170.9" rx="1.1" ry="1"/>
      <ellipse cx="260.5" cy="170.3" rx="1.1" ry="1"/>
      <ellipse cx="263.9" cy="170.2" rx="1.1" ry="1"/>
      <ellipse cx="267.3" cy="170.8" rx="1.1" ry="1"/>
      <ellipse cx="270.6" cy="171.8" rx="1.1" ry="1"/>
      <ellipse cx="273.6" cy="173.5" rx="1.1" ry="1"/>
      <ellipse cx="276.2" cy="175.5" rx="1.1" ry="1"/>
      <ellipse cx="277.9" cy="178.4" rx="1.1" ry="1"/>
      <ellipse cx="278.6" cy="181.6" rx="1.1" ry="1"/>
      <ellipse cx="278.7" cy="184.8" rx="1.1" ry="1"/>
      <ellipse cx="277.7" cy="187.6" rx="1.1" ry="1"/>
      <ellipse cx="275.8" cy="190.3" rx="1.1" ry="1"/>
      <ellipse cx="279.6" cy="175.5" rx="1.1" ry="1"/>
      <ellipse cx="282.9" cy="175.4" rx="1.1" ry="1"/>
      <ellipse cx="286.4" cy="175.5" rx="1.1" ry="1"/>
      <ellipse cx="290" cy="176.2" rx="1.1" ry="1"/>
      <ellipse cx="293.2" cy="177.4" rx="1.1" ry="1"/>
      <ellipse cx="296.4" cy="179" rx="1.1" ry="1"/>
      <ellipse cx="299" cy="181" rx="1.1" ry="1"/>
      <ellipse cx="301.2" cy="183.4" rx="1.1" ry="1"/>
      <ellipse cx="302.9" cy="186.4" rx="1.1" ry="1"/>
      <ellipse cx="303.7" cy="189.6" rx="1.1" ry="1"/>
      <ellipse cx="303.6" cy="192.9" rx="1.1" ry="1"/>
      <ellipse cx="302.6" cy="196" rx="1.1" ry="1"/>
      <ellipse cx="301.1" cy="198.7" rx="1.1" ry="1"/>
    </g>
    <g fill="#c8b100" transform="scale(.48)">
      <path d="M250.2 226.2c-12.3 0-23.3-1.5-31.1-3.8-.6-.2-1-.8-.9-1.3 0-.5.3-1 .9-1.2 7.8-2.3 18.8-3.8 31-3.8 12.3 0 23.3 1.5 31.1 3.8.6.2.9.7.9 1.2 0 .6-.3 1-.9 1.3-7.8 2.3-18.8 3.8-31 3.8"/>
      <path d="M250 216c-12.3.1-23.5 1.7-31.3 4 .6-.2.6-1-.2-3.1-1-2.5-2.5-2.4-2.5-2.4 8.6-2.6 20.7-4.2 34.1-4.2 13.5 0 25.6 1.6 34.3 4.2 0 0-1.5-.1-2.5 2.4-.8 2-.9 2.9-.2 3.2-7.9-2.4-19.2-4-31.6-4"/>
      <path d="M250.1 210.3c-13.4 0-25.5 1.6-34.1 4.2-.6.2-1.2 0-1.4-.6a1 1 0 0 1 .7-1.4c8.7-2.6 21-4.3 34.8-4.3 13.8 0 26.2 1.7 35 4.3.5.2.8.8.6 1.4-.2.5-.8.8-1.4.6-8.6-2.6-20.7-4.2-34.2-4.2"/>
      <path d="M250.2 199.8l1.2.2c-.2.5-.2 1-.2 1.6 0 2.6 2.2 4.7 5 4.7 2 0 4-1.4 4.6-3.2 0 0 .4-1.7.7-1.7l.2 1.8c.3 2.3 2.4 4 4.9 4a4.8 4.8 0 0 0 4.8-5.3l1.6-1.5.8 2c-.3.5-.5 1.2-.5 2 0 2.4 2.1 4.4 4.7 4.4 1.7 0 3-.8 4-2l1-1.2-.1 1.5c0 1.5.7 3 2.2 3.2 0 0 1.7 0 4-1.7 2.3-1.8 3.5-3.3 3.5-3.3l.2 1.8s-1.9 3-4 4.1c-1 .7-2.8 1.4-4.2 1.2-1.4-.3-2.4-1.4-3-2.8a7 7 0 0 1-3.5 1 6.8 6.8 0 0 1-6.3-3.9 7.3 7.3 0 0 1-10.8-.3 7.2 7.2 0 0 1-4.9 1.9 7.2 7.2 0 0 1-6-3 7.2 7.2 0 0 1-5.9 3c-1.9 0-3.6-.7-4.8-1.9a7.3 7.3 0 0 1-10.8.3 6.8 6.8 0 0 1-6.3 3.9 7 7 0 0 1-3.6-1c-.5 1.4-1.5 2.5-3 2.8-1.4.2-3-.5-4.2-1.2-2.1-1.2-4-4.1-4-4.1l.2-1.8s1.3 1.5 3.6 3.3c2.2 1.8 4 1.7 4 1.7 1.5-.3 2.1-1.7 2.1-3.2v-1.5l1 1.2c.9 1.2 2.3 2 4 2 2.5 0 4.6-2 4.6-4.5 0-.7-.1-1.4-.4-2l.8-2 1.5 1.6v.6c0 2.5 2.2 4.6 4.9 4.6 2.4 0 4.6-1.6 4.9-4 0 .1 0-1.7.2-1.7s.6 1.7.7 1.7a4.9 4.9 0 0 0 4.6 3.2 4.8 4.8 0 0 0 4.7-6.3l1.3-.2"/>
      <path d="M208.4 206.3c-.1-.4-.4-.7-.8-1-.7-.7-1.8-.8-2.3-.3l-.2.3s-1-2.1-2.4-2.8c-1.3-.7-3.5-.5-3.5-.5a3 3 0 0 1 3-3c1 0 2 .5 2.5 1.2l.2-1s1.4.2 2 1.7c.6 1.6 0 3.8 0 3.8s.3-1 .8-1.6c.5-.6 1.8-1.3 2.5-1.6l1.3-.8.1.6v.8c1.2-.2 2.7 0 3.8.5a5 5 0 0 1-2.6 2.3 13 13 0 0 0 1.3 1.2l-1.3.2c-.4 0-1.8.3-2.7.2l-1.7-.2"/>
      <path fill="#ad1519" d="M205.3 205c.5-.5 1.6-.4 2.3.3.9.6 1 1.6.6 2.1-.5.6-1.6.5-2.4-.2-.8-.7-1-1.7-.5-2.2"/>
      <path fill="#fff" d="M216.4 206c-.3-1 0-1.7.6-2 .6-.1 1.3.4 1.6 1.2.2.9 0 1.7-.6 1.9-.6.2-1.3-.4-1.6-1.2"/>
      <path d="M226.1 201.9c-.3-.3-.6-.7-.6-1.1-.1-.5 0-.9.2-1.3l-1.8-.6c-.8-.2-2-.2-2.4-.2h-1.2a6.2 6.2 0 0 0 .8 1.2 5.2 5.2 0 0 0-3 2.1c1 .7 2.3 1.1 3.6 1l-.2.9v.6l1-.4c.3-.2 1.5-.6 2.1-1 .8-.5 1.5-1.2 1.5-1.2"/>
      <path d="M225.7 191.7c1 .6 2 1.7 2.3 3 0 0 .1-.3.7-.6s1-.3 1-.3 0 1-.2 1.3c0 .3 0 1.4-.3 2.3-.2 1-.6 1.7-.6 1.7a2 2 0 0 0-1.6-.4c-.6 0-1 .4-1.3.9 0 0-.7-.6-1.2-1.4-.6-.8-1-1.8-1.2-2l-.7-1.2s.5-.2 1.2 0c.6 0 .8.2.8.2a5 5 0 0 1 1-3.6M229 201.4a1.7 1.7 0 0 0-.4-2.3s.6-.7 1.4-1.3c.6-.4 1.8-.8 2.2-1l1-.3v.6l-.2.9c1.3-.2 2.6.2 3.6 1-.7.9-1.8 1.7-3 2a6.3 6.3 0 0 0 .7 1.3h-1.1c-.4 0-1.7 0-2.4-.2l-1.8-.7"/>
      <ellipse cx="227.4" cy="200.4" fill="#ad1519" rx="2.2" ry="2.1"/>
      <path fill="#fff" d="M237.8 201.8c-.2-.9.3-1.7.9-1.7.6-.1 1.2.5 1.3 1.4.1.9-.3 1.6-.9 1.7-.6 0-1.2-.6-1.3-1.4"/>
      <path d="M248.5 199.8a2 2 0 0 1 0-2.7l-2-1c-.7-.4-2-.6-2.5-.7l-1.3-.2a6.2 6.2 0 0 0 .6 1.6 6 6 0 0 0-3.8 1.7c1 1 2.3 1.7 3.8 1.8l-.4.9-.2.7 1.3-.3c.4 0 1.8-.3 2.6-.7 1-.4 1.9-1 1.9-1"/>
      <path d="M250.1 188.4c1 1 1.9 2.3 2 3.8 0 0 .2-.3.9-.5.7-.3 1.2-.2 1.2-.2l-.5 1.4-.8 2.5-1 1.8a2.2 2.2 0 0 0-3.4 0s-.6-.8-1-1.8l-1-2.5c0-.4-.5-1.4-.5-1.4s.6-.1 1.3.2c.7.2 1 .5 1 .5a6 6 0 0 1 1.8-3.8"/>
      <path d="M251.8 199.8a2 2 0 0 0 0-2.6s.9-.7 1.9-1.1c.7-.4 2.2-.6 2.6-.7l1.2-.2-.1.6-.4 1a6 6 0 0 1 3.8 1.7 6 6 0 0 1-3.8 1.8 6.6 6.6 0 0 0 .5 1.6l-1.2-.3c-.4 0-1.9-.3-2.6-.7l-2-1"/>
      <ellipse cx="250.1" cy="198.5" fill="#ad1519" rx="2.2" ry="2.1"/>
      <path fill="#fff" d="M262.6 201.8c0-.9-.3-1.7-1-1.7-.6-.1-1.2.5-1.3 1.4-.1.9.3 1.6 1 1.7.6 0 1.2-.6 1.3-1.4"/>
      <path d="M271.4 201.4c-.2-.4-.3-.8-.3-1.3.1-.4.4-.8.7-1l-1.5-1.3c-.6-.4-1.8-.8-2.1-1-.4 0-1-.3-1-.3v.6c0 .5.2.9.2.9-1.3-.2-2.7.2-3.6 1 .6.9 1.7 1.7 3 2l-.5.8-.3.5h1.2c.3 0 1.6 0 2.3-.2l1.9-.7M274.7 191.7c-1 .6-2 1.7-2.3 3l-.7-.6c-.6-.3-1.1-.3-1.1-.3l.2 1.3.3 2.3c.3 1 .7 1.7.7 1.7a2 2 0 0 1 2.9.5l1.2-1.4 1.1-2 .7-1.2s-.4-.2-1.1 0c-.7 0-.9.2-.9.2a5 5 0 0 0-1-3.6M274.2 201.9a1.7 1.7 0 0 0 .5-2.3s.9-.5 1.8-.7c.7-.2 2-.2 2.4-.2h1.1l-.3.5-.5.7c1.3.3 2.4 1.2 3 2.1-1 .7-2.2 1.1-3.5 1l.2.9v.6l-1-.4c-.4-.2-1.6-.6-2.2-1-.8-.5-1.5-1.2-1.5-1.2"/>
      <ellipse cx="273" cy="200.4" fill="#ad1519" rx="2.2" ry="2.1"/>
      <path fill="#fff" d="M284 206c.2-1 0-1.7-.6-2-.6-.1-1.3.4-1.6 1.2-.3.9 0 1.7.5 1.9.6.2 1.4-.4 1.7-1.2"/>
      <path d="M292 206.3c0-.4.3-.7.7-1 .8-.7 1.8-.8 2.4-.3l.1.3s1.1-2.1 2.4-2.8c1.3-.7 3.5-.5 3.5-.5a3 3 0 0 0-3-3c-1 0-1.9.5-2.4 1.2l-.3-1s-1.3.2-2 1.7c-.6 1.6.1 3.8.1 3.8s-.3-1-.8-1.6a8.3 8.3 0 0 0-2.5-1.6l-1.4-.8v1.4c-1.3-.2-2.7 0-3.9.5.5 1 1.4 1.8 2.6 2.3l-.8.7-.4.5 1.3.2c.4 0 1.8.3 2.6.2l1.8-.2"/>
      <path fill="#ad1519" d="M295 205c-.5-.5-1.5-.4-2.3.3-.8.6-1 1.6-.5 2.1.5.6 1.6.5 2.3-.2.8-.7 1-1.7.6-2.2"/>
    </g>
    <g fill="none">
      <path fill="#ad1519" stroke-linejoin="round" stroke-width=".192" d="M120 107.8c-5.3 0-10-.6-13.7-1.6 3.6-1 8.4-1.5 13.8-1.5 5.3 0 10.1.6 13.8 1.5a57 57 0 0 1-13.8 1.6z"/>
      <path stroke-width=".048" d="M123.9 107.7v-3m-1.5 3v-3m-1 3v-3M120.5 107.8v-3.1M119.6 107.8v-3.1"/>
      <path stroke-width=".096" d="M118.8 107.8v-3.1M118 107.8v-3.1"/>
      <path stroke-width=".144" d="M117.3 107.8v-3.1M116 107.7l-.1-3m.7 3v-3"/>
      <path stroke-width=".192" d="M114.7 107.5V105m.6 2.7v-2.8M113 107.4V105m.5 2.3V105m.6 2.5V105"/>
      <path stroke-width=".24" d="M112.4 107.4V105M111.8 107.2v-2"/>
      <path stroke-width=".288" d="M111.2 107.2v-2M110 107v-1.5m.6 1.6v-1.7M109.4 106.9v-1.4"/>
      <path stroke-width=".33599999999999997" d="M108.8 106.8v-1.2M108.2 106.6v-.9"/>
      <path stroke-width=".384" d="M107.6 106.6v-.7"/>
      <path stroke-width=".432" d="M107 106.4v-.3"/>
      <path stroke-width=".192" d="M105.7 106.4c3.7-1 8.7-1.7 14.4-1.7a56 56 0 0 1 14.4 1.7"/>
      <path fill="#ad1519" stroke-width=".192" d="M104 104.2l.6-.7 1.6.2-1.3 1-.9-.5"/>
      <path fill="#fff" stroke-width=".192" d="M107.5 103.3c0-.2.3-.5.6-.5s.5.3.5.5c0 .3-.2.5-.5.5a.5.5 0 0 1-.6-.5"/>
      <path fill="#058e6e" stroke-width=".192" d="M112.1 103.2l-1 .2c-.4 0-.6-.2-.7-.5 0-.2.2-.5.5-.5l1.1-.2h1.2c.3-.1.5 0 .6.3 0 .3-.2.6-.5.6l-1.2.1"/>
      <path fill="#fff" stroke-width=".192" d="M115.5 102.4c0-.3.2-.5.5-.5s.5.2.5.5-.2.5-.5.5a.5.5 0 0 1-.5-.5"/>
      <path fill="#ad1519" stroke-width=".192" d="M120 102.8h-1.5c-.3 0-.5-.2-.5-.5s.2-.5.5-.5h3.2c.3 0 .5.2.5.5s-.2.5-.5.5H120"/>
      <path fill="#fff" stroke-width=".192" d="M123.6 102.4c0-.3.3-.5.6-.5.2 0 .5.2.5.5s-.3.5-.5.5c-.3 0-.6-.2-.6-.5"/>
      <path fill="#058e6e" stroke-width=".192" d="M128 103.2l1.1.2c.3 0 .6-.2.6-.5 0-.2-.1-.5-.4-.5l-1.2-.2H127c-.3-.1-.6 0-.6.3s.2.6.4.6l1.2.1"/>
      <path fill="#fff" stroke-width=".192" d="M131.6 103.3c0-.2.2-.5.5-.5s.5.3.5.5c0 .3-.2.5-.5.5a.5.5 0 0 1-.5-.5"/>
      <path fill="#ad1519" stroke-width=".192" d="M136.1 104.2l-.6-.7-1.6.2 1.3 1 1-.5"/>
    </g>
    <g stroke-width=".5">
      <path fill="#ccc" stroke-width=".24" d="M120.2 165.3a41 41 0 0 1-17.7-4.1c-3.9-2-6.4-5.8-6.4-10.2v-16h48.2v16c0 4.4-2.6 8.3-6.4 10.2a40.5 40.5 0 0 1-17.7 4z"/>
      <path fill="#ffd691" stroke-width=".24" d="M121.4 158.2c1 .3 1.5 1 1.5 2s-1.1 2-2.5 2c-1.5 0-2.6-1-2.6-2s.4-2 1.4-2v-.2a58 58 0 0 0-.4-.3h.6l.4.2.2-.4.4-.2.3.3v.3l.5-.3h.4l-.1.2-.1.4"/>
      <path fill="#058e6e" stroke-width=".24" d="M120.2 163.4s-2-1.3-2.8-1.5c-1-.2-2.2 0-2.7 0l.8.6a5 5 0 0 0 1.7 1c1.5.3 3-.1 3-.1M120.7 163.5s1.2-1.3 2.5-1.5c1.5-.2 2.5.1 3 .3l-.7.4c-.2.2-.9.8-2 .8l-2.3-.1h-.5"/>
      <path fill="#ad1519" stroke-width=".24" d="M120.3 161.9a2.4 2.4 0 0 1 0-3.6 2.4 2.4 0 0 1 0 3.6"/>
      <path fill="#058e6e" stroke-width=".24" d="M119.8 164.5l.4-1.4-.1-1h.4l.2 1-.1 1.2h-.4l-.4.2"/>
      <g fill="#c8b100">
        <path fill="#ad1519" stroke-width=".24" d="M120.2 151c0 6.3-5.4 11.4-12 11.4-6.7 0-12.1-5-12.1-11.4v-16h24v16"/>
        <path stroke-width=".24" d="M96 150.8c0 3.3 1.4 5.9 2.8 7.5v-23.7H96zM101.3 160.4c.8.4 1.8 1.1 3 1.4l-.2-27.4h-2.8zM106.7 162.4h2.8v-28h-2.8zM112 161.8c1.1-.3 2.3-1 2.9-1.3v-26H112zM117.5 158a11 11 0 0 0 2.7-6v-17.6h-2.8z"/>
      </g>
      <g transform="scale(.48)">
        <path fill="#ad1519" d="M300.6 281.2v33.4a24.5 24.5 0 0 1-25.1 23.8 24.5 24.5 0 0 1-25.2-23.8v-33.4h50.3"/>
        <path id="e" fill="#c8b100" stroke="#c8b100" stroke-width=".3" d="M272.7 306.1l.2-.4-4.3-4.7-1.6.7-3-3.4 1-1.4-5.4-6h-.3v4l1.8.5v4.5l-1.8.5v4c.8.3 1.5 1 1.7 1.7h3.3l.5-1.6h4.7l.5 1.6zm-7-18.5v1.6h2.8v-1.6zm-7.3 20.4c.7 0 1.2-.5 1.2-1 0-.7-.5-1.2-1.2-1.2-.6 0-1.1.5-1.1 1.1 0 .6.5 1.1 1.1 1.1zm16-9.7l-1.7-.5v-4.5l1.7-.5V291c-.8-.2-1.5-.9-1.8-1.7H270l-.5 1.7h-4.7l-.5-1.7h-3l-.4.7 5.4 6 1.7-.8 3 3.4-1 1.5 4.2 4.6.3-.1zm-7.2-1.4l-1.3 1 1.7 2 1.3-1zm8 36.2c-1.3 0-2.3-1-2.5-2a18 18 0 0 1-4.8-1.3l.9-1.5c1.3.6 2.6 1 4 1.1.4-.6 1-1.1 1.6-1.4v-5.6l-1.7-.5v-4.4l1.7-.5v-7.7h-.2l-4 4.4 1 1.4-3 3.4-1.7-.7-3.3 3.7c.6.8.6 2 0 2.8.9 1 2 2 3.2 2.8l-.9 1.4c-1.4-.9-2.7-2-3.8-3.2-.8.3-1.8.1-2.6-.5a2.5 2.5 0 0 1-.3-3.6l.2-.2a16 16 0 0 1-1.4-5h1.8c.1 1.5.5 3 1 4.3l1.5.1 3.3-3.6-1-1.5 3-3.4 1.8.7 4-4.4-.3-.5H270l-.5 1.7h-4.7l-.6-1.7H261c-.3.8-.9 1.4-1.7 1.7v4h-1.7v-4c-1.1-.4-2-1.3-2-2.5 0-1.1 1-2.1 2-2.5v-4l-1.7-.5v-4.5l1.7-.5v-4c-1-.4-1.8-1.3-1.8-2.5 0-1.4 1.2-2.5 2.7-2.5 1.2 0 2.3.7 2.6 1.7h3.1l.5-1.6h4.7l.5 1.6h2.7c.4-1 1.4-1.7 2.6-1.7v8.3h-.8v2.6h.8v21.6h-.8v2.6h.8zm-6-18.3l-1.2-1-1.8 2 1.3 1zm-9.9-18.5h-1.7v2.6h1.7zm9.2 11.4v-1.6h-2.9v1.6zm-10.6 9.7l-1.8-.4-.2-4.4 1.7-.6v2.6c0 1 0 1.9.3 2.8zm1.4-5.5l1.8.4v2.2l.2 2.3-1.7.6-.3-2.8zm10.8 17l.4-1.8c-1.5-.4-3-1.1-4.1-2l-1.3 1c1.5 1.2 3.2 2.1 5 2.7zm-.8 1.4l-1.3 1.2c-1.5-.5-2.9-1.3-4.1-2.1l.3-1.8c1.5 1.1 3.3 2 5 2.7z"/>
        <use width="100%" height="100%" transform="matrix(-1 0 0 1 550.4 0)" xlink:href="#e"/>
        <path fill="#058e6e" stroke="none" d="M272.6 307c0-1.5 1.2-2.7 2.7-2.7 1.5 0 2.8 1.2 2.8 2.6 0 1.5-1.3 2.6-2.8 2.6-1.5 0-2.7-1.1-2.7-2.6"/>
      </g>
      <g fill="#c8b100">
        <path fill="#ad1519" stroke-width=".24" d="M96 135h24.1v-26.7h-24z"/>
        <path stroke-width=".24" d="M104.3 114.4h-.4v-.4h-.8v1.8h.8v1.2h-1.7v3.5h.9v7.1h-1.8v3.7H115v-3.7h-1.8v-7h.9V117h-1.7v-1.2h.8V114h-.8v.4h-.4v-.4h-.8v.4h-.6v-.4h-.7v1.8h.7v1.2H109V113h.9v-1.8h-1v.5h-.4v-.5h-.7v.5h-.5v-.5h-.9v1.8h1v3.9h-1.7v-1.2h.7V114h-.7v.4h-.5v-.4h-.9zm-3 16.9H115m-13.7-.9H115m-13.7-.9H115m-13.7-.9H115m-13.7-1H115M103 127h10.1m-10.1-1h10.1m-10.1-1h10.1m-10.1-.8h10.1m-10.1-.9h10.1m-10.1-.9h10.1m-10.1-.9h10.1m-11-.9h11.9m-11.9-.9h11.9m-11.9-.8h11.9m-11.9-1h11.9m-10.2-.8h8.5m-5-.9h1.6m-1.7-.9h1.7m-1.7-.9h1.7m-1.7-.9h1.7m-2.6-1h3.5m-6 3.7h1.8M103 115h3.3m-3.3 16.3v-.9m0-.9v-.9m-.9 1v.8m1.7 0v-.9m.9 1.8v-.9m0-.9v-.9m0-1v-.7m0-1v-1m-1 3.7v-1m-1.6 1v-1m3.5 0v1m.7-1v-.7m-2.5-1v1m1.8-1v1m1.6-1v1m-.9-1v-1m1-.8v.9m0-2.7v.9m-1-1.8v1m1-1.9v1m-1.7-1v1m-1.8-1v1m-.8-1.9v1m1.7-1v1m1.6-1v1m1-1.8v.8m-1.7-.8v.8m-1.8-.8v.8m-.8-1.7v.9m3.3-1v1m-1.6-2.7v.9m7.6-.9h-1.8m2.6-1.1h-3.3m3.3 16.3v-.9m0-.9v-.9m.9 1v.8m-1.7 0v-.9m-.9 1.8v-.9m0-.9v-.9m0-1v-.7m0-1v-1m1 3.7v-1m1.6 1v-1m-3.5 0v1m-.7-1v-.7m2.5-1v1m-1.8-1v1m-1.6-1v1m.9-1v-1m-1-.8v.9m0-2.7v.9m1-1.8v1m-1-1.9v1m1.7-1v1m1.8-1v1m.8-1.9v1m-1.7-1v1m-1.6-1v1m-1-1.8v.8m1.7-.8v.8m1.8-.8v.8m.8-1.7v.9m-3.3-1v1m1.6-2.7v.9m-3.4 9v-1m0-2.7v-.9m0 2.7v-.9m0-2.7v-.9m0-.8v-1m0-1.7v-.9m0-.9v-.9m-4.2 2.4h1.8m1.6-2.7h1.7m1.6 2.7h1.8"/>
        <path stroke-width=".24" d="M110.4 131.3V129c0-.5-.2-1.8-2.3-1.8-2 0-2.2 1.3-2.2 1.8v2.3z"/>
        <path stroke-width=".24" d="M106.7 129h-1.2c0-.5.2-1.1.5-1.4l1 .8-.3.7zM108.5 128l.6-1-1-.3-.9.3.6 1zM109.6 129h1.2c0-.5-.2-1.1-.5-1.4l-1 .8.3.7zM106.4 125.2v-2.4c0-.7-.4-1.3-1.2-1.3-.8 0-1.2.6-1.2 1.3v2.4zM109.9 125.2v-2.4c0-.7.4-1.3 1.2-1.3.8 0 1.2.6 1.2 1.3v2.4zM105.7 119.2V117h-2l.2 2.2zM109 119.2l.2-2.2h-2.1l.1 2.2zM110.6 119.2l-.2-2.2h2.2l-.2 2.2z"/>
        <g fill="#0039f0" stroke="none">
          <path d="M109.6 131.3v-2c0-.3-.2-1.3-1.5-1.3-1.2 0-1.4 1-1.4 1.3v2zM106.2 125v-2.1c0-.6-.3-1.1-1-1.1s-1 .5-1 1v2.2zM110 125v-2.1c0-.6.4-1.1 1-1.1.8 0 1 .5 1 1v2.2z"/>
        </g>
      </g>
      <g>
        <path fill="#ccc" stroke-width=".24" d="M120.1 135h24.2v-26.7H120z"/>
        <path fill="#db4446" stroke-width=".192" d="M132.4 114.8v-.3l.1-.1h-1.2a3 3 0 0 1-1.1-.7c-.4-.3-.5-.5-.8-.5-.7-.1-1.2.2-1.2.2s.5.1.9.6c.3.4.7.7 1 .7h1.5l.8.1z"/>
        <g fill="none" stroke-width=".4">
          <path fill="#ed72aa" stroke-width=".192" d="M136 113.8l.1.6c0 .4-.1.6 0 .8v.5c.2 0 .2.4.2.4l-.4-.3-.3-.2a1682.8 1682.8 0 0 0 .3 1.1c.2.2.5.4.5.7l.1.7-.4-.5-.6-.3s.4.4.4.8l-.2.7-.4-.5a5 5 0 0 0-.5-.4l.2.9v1.2l-.4-.5-.5-.3.2.5c0 .3.2 1.1 1 2.3.4.6 1.1 1.8 2.6 1.4 1.5-.4 1-2.4.6-3.3-.3-1-.4-2-.4-2.4 0-.3.3-1.4.2-1.6v-1.6l.5-1.1.3-.7v-.6l.3.7.1.7s0-.5.5-.8l1-.7.2-.2s0 .9-.3 1.2l-.9 1 .6-.1h.4s-.3.2-.6.8l-.6 1c-.2.5-.5.5-.8.8-.5.4-.2 2-.2 2.3 0 .3 1 2.3 1 2.8s.1 1.6-.8 2.3c-.5.5-1.4.5-1.6.6-.2.1-.7.6-.7 1.4 0 .9.3 1 .6 1.2.2.2.6.1.6.3l.2.3.2.4c0 .2-.5.6-.6 1l-.4 1.1v.7s.5.5.2.6c-.2 0-.4-.2-.5-.1l-.4.2c-.2 0-.2-.1-.2-.4l-.1-.3c-.1 0-.2 0-.2.2l-.1.4-.4-.2c-.1 0-.4-.1-.4-.3 0-.1.1-.4.3-.4.2 0 .4-.2.3-.3h-.4c-.1.1-.4 0-.4-.1v-.4c0-.1-.2-.3.1-.4.3-.2.4.1.7 0 .3 0 .4 0 .5-.2.1-.2.1-.6 0-.8-.3-.2-.5-.2-.5-.4l-.2-.4v1.1l-.4-.4-.3-.6v.6l.2.4-.5-.4-.5-.5-.3-.7v-.7l.2-.6h-.6c-.4 0-.7-.1-.8.1v1.4c.3.7.4 1 .3 1.1l-.3.4h-.5l-.6-.1h-.6l-.6-.2c-.1 0-.4.2-.3.4 0 .3-.1.3-.3.3l-.4-.1c-.2 0-.4 0-.4-.2l.2-.4c0-.1.1-.2 0-.2h-.3c-.1.1-.3.3-.4.2-.1 0-.2-.2-.2-.5s-.3-.6 0-.6.7.3.7 0l-.1-.3c-.2-.1-.4-.2-.2-.4l.4-.2c0-.1.2-.4.3-.3.3.1 0 .3.4.7.3.3.4.4 1 .4.4 0 .6-.2.6-.3v-.5-.5l-.3.3-.2.4v-.5-.5a4 4 0 0 0-.1-.4l-.1.4-.1.6s-.3-.3-.2-.8v-1c.1-.1.4-.8 1-.8h1.3l1-.1-1.7-1c-.4-.2-.9-.8-1-1l-.3-.8s-.3 0-.5.2c-.3 0-.5.3-.6.4l-.4.5v-.5-.5s-.1.7-.5.9l-.7.5v-.4l.2-.5s-.3.4-.6.5c-.4 0-.9 0-1 .2 0 .2.2.5 0 .7l-.2.2-.4-.1h-.3v-.3l.2-.4-.4.1c-.2 0-.5.1-.4 0v-.6-.3h.6c0-.2 0-.3-.3-.4-.3 0-.5-.2-.3-.3l.2-.3c.1-.2.1-.4.4-.3.3.1.2.4.5.5.2.1.9 0 1-.1l.7-.5c.2 0 .8-.5.8-.5l-.5-.4-.5-.5-1-.3-.7-.2.3-.2c.1 0 .3-.3.5-.3h-.6l-.6-.3h-.4l.6-.2h.6l-.6-.3-.3-.5c0-.1-.1-.3-.3-.3l-.5.2c-.2 0-.3-.1-.3-.4v-.2c-.1-.1-.3-.4-.1-.5h.6l-.4-.4c-.1 0-.4-.2-.3-.4l.4-.3s.2-.4.4-.3l.5.6c.1 0 .2-.4.1-.6 0-.1 0-.4.2-.4l.4.2c.2 0 .6 0 .5.1 0 .2-.1.4-.3.5-.1.2-.2.5 0 .8 0 .2.3.5.5.7l.9.4 1 .7.4.1h.6l1.3-.1c.2-.2.6-.3.5-.6-.1-.2-.7-.4-.7-.6 0-.2.3-.2.7-.3.3 0 .8.1 1-.4 0-.5 0-.8-.5-1-.5 0-.9 0-1-.4v-.6l.6-.2 1-.1.3-.4.7-.2 1.4.8 1 1"/>
          <path stroke-width=".192" d="M129.1 116.8s-.4.1-.5.3l-.2.6s.4-.3.8-.2c.4.1.4.2.6.1l.6-.1s-.3.4-.3.7l.1.5c0 .4-.3.8-.3.8l.5-.2c.4 0 .7-.2.9-.4l.4-.4v1.4l.5-.3.4-.3.2-.5s0 .4.2.6l.3.9.3-.6.3-.5v-.4l.2.4m-5.5.3s.2-.4.5-.6l.6-.3.4-.3m.5 2.5l.6-.3c.4-.2.6-.6.6-.6"/>
          <path stroke-width=".144" d="M135.6 115.6l-.2-.3v-.2"/>
          <path stroke-width=".192" d="M133.6 123.6s1 .6 1 1c0 .6-.6 1.2-.6 1.2"/>
        </g>
        <path stroke-width=".144" d="M131 113.4v-.3-.1h.3l-.1.3-.1.1z"/>
        <path stroke-width=".048" d="M133 112.7v-.2l.5.1c.3.2.4.5.4.6l-.4-.2h-.2l-.2-.1v-.1z"/>
        <g stroke-width=".3">
          <path stroke-width=".144" d="M131 115.3l.2-.3.2.2h-.3M131.5 115.3l.2-.3.2.2h-.4M131.3 113.7l.4.1-.4.2v-.3M131.8 113.8h.3l-.3.3v-.3"/>
        </g>
        <g fill="#db4446" stroke-width=".4">
          <path stroke-width=".192" d="M125.7 113.3l.4.2h.4v-.4a.9.9 0 0 0-.6-.7s.2.3.1.5l-.3.4zM124.6 113.8s-.2-.4-.6-.3c-.5 0-.8.4-.8.4h.6l.3.5.3-.3.2-.3zM124 115.3s-.3 0-.5.3c-.2.2-.2.7-.2.7s.3-.3.5-.3h.5v-.3l-.2-.4zM125.3 120.2s-.2-.2-.5-.2c-.4 0-.6.5-.6.5h.4c.2 0 .3.2.3.2l.3-.2.1-.3zM124.9 121.6l-.6.2c-.2.2-.2.6-.2.6l.4-.2.4.1v-.3c.1-.2 0-.4 0-.4zM125.6 123s0 .3.2.5c.1.3.5.3.5.3l-.1-.4.1-.3-.3-.2h-.4zM129.1 126.3s-.2-.3-.6-.3c-.3 0-.7.3-.7.3l.6.1.2.4.3-.2.2-.3zM128 127.6s-.4 0-.6.2c-.2.2-.2.7-.2.7s.3-.3.5-.3c.3 0 .5.2.5.2v-.4l-.1-.4zM129 129s-.2.4 0 .6c.1.3.5.4.5.4s-.1-.2 0-.4l.2-.4zM135 129.7h-.6c-.2.1-.4.7-.4.7s.3-.3.6-.3l.5.1v-.3l-.1-.2zM135.2 131s-.3.4-.2.7l.3.5.1-.5c.2-.2.5-.2.5-.2l-.3-.2-.4-.2zM136.7 131.5s-.2.4.1.7l.5.2s-.2-.4-.1-.6c0-.2.3-.3.3-.3l-.5-.1-.3.1z"/>
        </g>
        <g fill="#c8b100" stroke-width=".3">
          <path stroke-width=".144" d="M135.8 111.7h-.2v.2h-.5v-.2h-.3c-.1 0-.2-.2 0-.4v-.2h-.2v.1c-.2.1-.3.2-.4.1v-.1h-.1c-.3 0-.4-.5-.4-.6v.1a2 2 0 0 0-.2 1.2c.4 0 1 .4 1.4.8.6.4 1 .8 1.2 1.1l.5-.2h.7l.1-.2c-.2 0-.8 0-.8-.2v-.7h-.1v.1h-.5v-.2h-.3c-.1 0-.1-.3 0-.4l.1-.2v-.1z"/>
          <g fill="#000" stroke-width=".1">
            <path stroke-width=".048" d="M134.7 112h.1v.1h-.1zM135.2 112.4l-.2-.1c0-.1 0-.1 0 0h.2l.2.2h-.2M134.3 111.8h-.1v-.1h.2l.1.1v.1h-.2M133.8 111.5h.1v.1s-.1 0 0-.1zM135.7 112.8v-.1h-.2.2zM136 113v.2h.1v-.2h-.2v-.1.2M136.4 113.5v-.1h-.1s0 .1 0 0z"/>
          </g>
          <path stroke-width=".144" d="M135 110.6h-.2v.4l.4-.2-.1-.2"/>
          <path stroke-width=".144" d="M135 110.6h-.2v.4l.4-.2-.1-.2M134.3 110.8v.3h.5l-.3-.4-.2.1M135.2 111.3l-.2.2-.3-.4h.5v.2"/>
          <path stroke-width=".144" d="M134.6 111h.2c.1 0 .1 0 0 .1 0 .1 0 .1-.1 0v-.1zM133.6 110.6l-.1-.4-.2-.2h.4c.2.2 0 .5 0 .5z"/>
          <path stroke-width=".144" d="M134.1 110.7l-.2.2-.3-.3v-.1h.5v.2"/>
          <path stroke-width=".144" d="M133.6 110.5c.1 0 .2 0 .1.1l-.1.1v-.2zM136.2 111.2h-.3l-.1.4v.1l.5-.2-.1-.3"/>
          <path stroke-width=".144" d="M135.4 111.4v.2l.3.1h.1l-.2-.4h-.2"/>
          <path stroke-width=".144" d="M136.2 112l-.3.1-.2-.4h.5v.3"/>
          <path stroke-width=".144" d="M135.7 111.6h.2v.2h-.2v-.2zM137.1 112.1v.3l-.4.1.1-.4h.3M137 112.9h-.2l-.2-.3v-.1h.1l.4.1v.3"/>
          <path stroke-width=".144" d="M136.3 112.2v.2l.3.2h.1v-.1l-.1-.4h-.3"/>
          <path stroke-width=".144" d="M136.8 112.6v-.2h-.2v.2h.2zM137.4 113.5h.4l.2.2s.1-.2 0-.4c-.3-.2-.5 0-.5 0v.2zM137.2 113l-.2.3.4.2v-.5h-.2"/>
          <path stroke-width=".144" d="M137.5 113.5v-.1h-.1l-.1.1h.2z"/>
        </g>
      </g>
      <g stroke-width=".6" transform="scale(.48)">
        <ellipse cx="250.4" cy="281" fill="#ad1519" rx="16.3" ry="18.3"/>
        <ellipse cx="250.4" cy="281" fill="#005bbf" rx="11.4" ry="13.4"/>
        <g id="f" fill="#c8b100" stroke-width=".3">
          <path stroke-linejoin="round" d="M245 271.7s-1.3 1.5-1.3 2.9.6 2.5.6 2.5c-.3-.5-.8-.9-1.5-.9-.8 0-1.5.6-1.5 1.4l.3.8.5 1c.1-.4.5-.6 1-.6s1 .5 1 1v.3h-1.2v1h1l-.7 1.6 1-.4.8 1 .9-1 1 .4-.8-1.6h1.1v-1H246v-.3c0-.5.4-1 1-1 .5 0 .9.2 1 .6l.5-1 .2-.8c0-.8-.6-1.4-1.4-1.4-.7 0-1.3.4-1.5 1 0 0 .6-1.2.6-2.6 0-1.4-1.4-2.9-1.4-2.9z"/>
          <path d="M242.9 281.1h4.3v-1H243z"/>
        </g>
        <use width="100%" height="100%" x="10.6" xlink:href="#f"/>
        <use width="100%" height="100%" x="5.3" y="9.1" xlink:href="#f"/>
      </g>
    </g>
  </g>
</svg>
