<svg xmlns="http://www.w3.org/2000/svg" xmlns:xlink="http://www.w3.org/1999/xlink" viewBox="0 0 512 512">
  <path fill="#c60b1e" d="M0 85h512v342H0z"/>
  <path fill="#ffc400" d="M0 171h512v170H0z"/>
  <g stroke="#000" stroke-width="0">
    <g transform="matrix(.68267 0 0 .68267 0 85)">
      <path fill="#ad1519" stroke="none" d="M168 222h-1l-1-1h-1v-1l-1-2 2-2h1l2-1h1l1-1h8l1 1h3l2 1 1 1 1 1v1l-1 1-1 1v1h-1l-8-1-8 1z"/>
      <g fill="#c8b100" stroke="none">
        <ellipse cx="176" cy="216" rx="1" ry="3"/>
        <ellipse cx="176" cy="216" rx="1" ry="2"/>
        <ellipse cx="176" cy="213" rx="1" ry="1"/>
        <path d="M177 213h-3 1v-3h1v1h1-1v2h1"/>
        <path fill="none" d="M176 212a1 1 0 1 1-1 0"/>
        <path d="M176 222h-5v-2l-1-2-3-3h1c1-1 3 1 5 4h5c2-3 4-5 6-4l-3 3v4z"/>
        <path fill="none" d="M168 215l4 4m12-4l-5 4"/>
      </g>
      <g id="a" fill="#c8b100">
        <path d="M169 224l-1-1 8-1 7 1v1l-1 1-6-1-7 1v-1"/>
        <path d="M176 227l6-1 1-1h-1l-6-1-7 1 1 1 6 1zM183 222h-1l-1-1h-2-1-1l-1-1-2 1h-1-2l-1 1h-2v1l8-1 7 1v-1z"/>
        <path d="M176 219v1l1 1 1-1 1 1 2-1h-1 1v1l1 1 1-1 1 1 1-1-1 1-1 1v-1h-1l-1-1-2 1-1-1-1 1-1-1-2 1-1-1a2 2 0 0 1-2 0l-2 1-1 1-1-1-1-1h1l1 1v-1l1 1a1 1 0 0 0 1-2h1l1 1 1-1 1 1 1-1 1-1z"/>
        <path stroke-linejoin="round" d="M176 222l-8 1 8-1 7 1h0l-7-1z"/>
        <path d="M165 221v-1h-1 2v1h-1zM167 220v1h-1l1-1M165 221h1-1zM168 221v-1l1 1h-1zM169 220v1l1-1v-1h-1v1"/>
        <path d="M170 218h-1l1 2h1v-2h-1M172 219v1h-1v-1h1M173 220zM174 219v1l2-1h-2M176 217l-1 1v1h1l1-1-1-1M178 219l-1 1-1-1h2M179 220h-1zM179 219v1h2v-1h-2"/>
        <path d="M181 218h1l-1 2v-1l-1-1h1"/>
        <path d="M183 220l-1 1-1-1v-1h1l1 1M183 221v-1 1zM186 221v-1h0v1zM184 220v1h2l-2-1M186 221h-1 1z"/>
      </g>
      <g id="b" fill="none">
        <path fill="#ad1519" d="M168 224h1-1"/>
        <path fill="#058e6e" d="M171 224h-1v-1h2v1h-1"/>
        <path fill="#ad1519" d="M176 223h-1-1 3-1"/>
        <path fill="#058e6e" d="M181 224h1l-1-1h-1v1"/>
        <path fill="#ad1519" d="M183 224h-1 1"/>
        <path fill="#ad1519" stroke-linejoin="round" d="M176 226h-7a27 27 0 0 1 13 0h-6z"/>
        <path d="M177 226v-1m-1 1v-1m0 1v-1M175 226v-1M175 226v-1M175 226v-1M174 226v-1M174 226v-1M174 226v-1m0 1v-1M173 226v-1m0 1v-1M172 226v-1m1 1v-1m0 1v-1M172 226v-1M172 226v-1M172 226v-1M171 226v-1m0 1v-1M171 226v-1M171 226v-1M171 226v-1M170 226v-1M170 226v-1"/>
      </g>
      <g id="c">
        <g fill="#005bbf">
          <path d="M191 331l-4-1-4-1-3 1-4 1-4-1-4-1-4 1-4 1v2l4-1 4-1 4 1 4 1 4-1 3-1 4 1 4 1z"/>
          <path fill="#ccc" d="M191 333l-4-1-4-1-3 1-4 1-4-1-4-1-4 1-4 1v2h4l4-1 4 1 4 1 4-1 3-1 4 1h4v-2"/>
          <path d="M191 336l-4-1-4-1-3 1h-8l-4-1-4 1-4 1v2l4-1 4-1 4 1 4 1 4-1 3-1 4 1 4 1v-3"/>
          <path fill="#ccc" d="M191 340l-4-1h-7l-4 1-4-1h-8l-4 1v-2l4-1 4-1 4 1 4 1 4-1 3-1 4 1 4 1v2"/>
          <path d="M191 343l-4-1-4-1-3 1-4 1-4-1-4-1-4 1-4 1v-3l4-1h8l4 1 4-1h7l4 1z"/>
        </g>
        <g fill="#c8b100">
          <path stroke-linejoin="round" d="M167 321c0 2-1 3-3 3h23c-1 0-3-1-3-3h-17z"/>
          <path d="M167 319h17l1 1-1 1h-17l-1-1 1-1zM164 330h23v-6h-23z"/>
        </g>
        <path fill="#ccc" d="M168 318h16v-79h-16z"/>
        <path fill="none" d="M179 239v79m2-79v79"/>
        <g fill="#c8b100">
          <path d="M165 232h22v-5h-22z"/>
          <path stroke-linejoin="round" d="M167 236h17l-1-1 2-1h-18l1 1-1 1z"/>
          <path d="M167 236h17l1 1-1 1h-17l-1-1 1-1zM167 232h17l1 1-1 1h-17l-1-1 1-1z"/>
        </g>
      </g>
      <g id="d" fill="#ad1519">
        <path d="M162 299l-3 3 2 2 2 4a6 6 0 0 0-1-9z"/>
        <path stroke-linejoin="round" d="M200 268a52 52 0 0 0-24-2c-10 2-17 6-16 9l-4-8c-1-4 7-8 18-10l10-1c7 0 13 1 16 3v9"/>
        <path d="M168 278c-5 0-8-1-8-3-1-1 1-3 4-5l4 1v7M184 272l6 2v1c0 1-2 3-6 5v-8"/>
        <path stroke-linejoin="round" d="M157 294c0-1 4-4 11-6l8-4c8-3 15-8 14-9v-1l1 9c1 1-5 5-13 9l-10 4c-5 2-9 5-9 6l-2-8z"/>
      </g>
      <path fill="#ad1519" stroke="none" d="M325 220l-1 1h-2-1-1l-1 1h-1-2l-1-1-1-1v-1l3-2h16c2 1 3 1 2 2v2h-1v1h-2-1l-1-1h-2-1-1l-1-1z"/>
      <g fill="#c8b100" stroke="none">
        <ellipse cx="325" cy="216" rx="1" ry="2"/>
        <ellipse cx="325" cy="216" rx="1" ry="2"/>
        <ellipse cx="325" cy="214" rx="1" ry="1"/>
        <path d="M326 214h-2 1v-2h-1 1v-1 1h1-1v2h1"/>
        <path fill="none" d="M325 213"/>
      </g>
      <g fill="none" stroke="none">
        <path d="M314 220v-1c0-2 1-3 3-3h1M319 218v-1c0-1 1-2 3-2h1M330 218v-1l-2-2h-2M335 220v-1c0-2-1-3-2-3h-2"/>
      </g>
      <use width="100%" height="100%" x="149" xlink:href="#a"/>
      <use width="100%" height="100%" x="149" xlink:href="#b"/>
      <use width="100%" height="100%" x="149" xlink:href="#c"/>
      <use width="100%" height="100%" transform="matrix(-1 0 0 1 501 0)" xlink:href="#d"/>
      <g fill="#c8b100" stroke="none">
        <path d="M166 265c2-1 4-2 3-3 0-1-1-2-3-1l-3 1 3 6h1v-1l-1-2zm-1-3l1-1 1 1v2h-1l-1-2M173 259h-1l-1 1 1 6 5-1v-1l-3 1-1-6M182 265l2-7h-1l-2 5-2-5h-1-1l4 7h1M191 260v-1l-2-1-3 2c0 2 4 2 4 4h-2l-1-1h-1v1l2 1c2 0 3-1 3-2 0-2-3-2-3-3l1-1 2 1M310 265l2-7h-1l-1 5-3-4h-1-1l4 6h1M316 258h-1v7h4v-1h-3v-6M324 259l2 1v-1l-6-1v1h2l-1 6h2l1-6M326 266h2v-3h1v1l1 2 1 1h1v-1l-2-3 3-1-1-2h-2l-2-1-2 7m3-6l2 1v1l-2 1v-3M338 267l-1 3h1l1 1 1-8a8 8 0 0 1-1 0l-7 4h1l2-1 3 1zm-2-1l2-2v3l-2-1"/>
      </g>
    </g>
    <path fill="#ad1519" stroke="none" d="M170 210l12 2 5 1h5l7 2 6 3-1 1-1 3-3 3-1 2-4 3h-1l-1 1-22-2-23 2-1-1h-1l-4-3-1-2-3-3v-3l-2-1 6-3 7-2a23 23 0 0 0 10-1l11-2z"/>
    <g fill="#c8b100" stroke="none" transform="matrix(.68267 0 0 .68267 0 85)">
      <path d="M225 191l2 2 2-4a8 8 0 0 1-4-7c0-5 6-8 12-8l9 2v-2l-9-2c-7 0-13 5-14 10v1c0 2 1 5 3 7l-1 1"/>
      <path d="M225 191c-2-2-4-4-4-7 0-4 2-7 6-9a9 9 0 0 0-4 8c0 2 1 5 3 7l-1 1"/>
      <path d="M202 195a9 9 0 0 1-1-10c2-5 9-8 17-8l6 1-1 1h-6c-7 0-13 3-15 7v3l2 6-2 4-2-1z"/>
      <path d="M205 180l-4 5a9 9 0 0 0 1 10l-1 2c-2-1-3-4-3-6 0-4 3-8 7-11zM250 171c2 0 3 1 4 3v6l1 8-5 5-5-5 1-8v-1-5c1-2 2-3 4-3z"/>
      <path d="M250 173l2 1v6l2 8-4 3-4-3 2-8v-1-5l2-1zM275 191l-2 2-2-4a8 8 0 0 0 4-7c0-5-6-8-12-8l-9 2v-2l9-2c7 0 14 5 14 10v1c0 2-1 5-3 7l1 1"/>
      <path d="M275 191c2-2 4-4 4-7 0-4-2-7-6-9a9 9 0 0 1 4 8c0 2-1 5-3 7l1 1"/>
      <path d="M298 195a9 9 0 0 0 1-10c-2-5-9-8-16-8l-7 1 1 1h6c7 0 13 3 15 7v3l-2 6 2 4 2-1z"/>
      <path d="M295 180l4 5a9 9 0 0 1-1 10l1 2c2-1 3-4 3-6 0-4-3-8-7-11z"/>
      <ellipse cx="250" cy="167" fill="#005bbf" rx="4" ry="4"/>
      <path d="M249 156v2h-3v2h3v7h-3v2h8v-2h-3v-7h3v-2h-3v-2z"/>
    </g>
    <g fill="#fff" stroke="none" transform="matrix(.68267 0 0 .68267 0 85)">
      <ellipse cx="250" cy="189" rx="2" ry="2"/>
      <ellipse cx="250" cy="185" rx="2" ry="2"/>
      <ellipse cx="250" cy="182" rx="2" ry="1"/>
      <ellipse cx="250" cy="178" rx="1" ry="1"/>
      <ellipse cx="250" cy="175" rx="1" ry="1"/>
      <ellipse cx="199" cy="199" rx="1" ry="1"/>
      <ellipse cx="197" cy="196" rx="1" ry="1"/>
      <ellipse cx="196" cy="193" rx="1" ry="1"/>
      <ellipse cx="196" cy="190" rx="1" ry="1"/>
      <ellipse cx="197" cy="186" rx="1" ry="1"/>
      <ellipse cx="199" cy="183" rx="1" ry="1"/>
      <ellipse cx="201" cy="181" rx="1" ry="1"/>
      <ellipse cx="204" cy="179" rx="1" ry="1"/>
      <ellipse cx="207" cy="177" rx="1" ry="1"/>
      <ellipse cx="210" cy="176" rx="1" ry="1"/>
      <ellipse cx="214" cy="176" rx="1" ry="1"/>
      <ellipse cx="217" cy="175" rx="1" ry="1"/>
      <ellipse cx="220" cy="175" rx="1" ry="1"/>
      <ellipse cx="224" cy="190" rx="1" ry="1"/>
      <ellipse cx="222" cy="188" rx="1" ry="1"/>
      <ellipse cx="221" cy="185" rx="1" ry="1"/>
      <ellipse cx="221" cy="182" rx="1" ry="1"/>
      <ellipse cx="222" cy="178" rx="1" ry="1"/>
      <ellipse cx="224" cy="175" rx="1" ry="1"/>
      <ellipse cx="226" cy="173" rx="1" ry="1"/>
      <ellipse cx="229" cy="172" rx="1" ry="1"/>
      <ellipse cx="233" cy="171" rx="1" ry="1"/>
      <ellipse cx="236" cy="170" rx="1" ry="1"/>
      <ellipse cx="240" cy="170" rx="1" ry="1"/>
      <ellipse cx="243" cy="171" rx="1" ry="1"/>
      <ellipse cx="246" cy="172" rx="1" ry="1"/>
      <ellipse cx="254" cy="172" rx="1" ry="1"/>
      <ellipse cx="257" cy="171" rx="1" ry="1"/>
      <ellipse cx="261" cy="170" rx="1" ry="1"/>
      <ellipse cx="264" cy="170" rx="1" ry="1"/>
      <ellipse cx="267" cy="171" rx="1" ry="1"/>
      <ellipse cx="271" cy="172" rx="1" ry="1"/>
      <ellipse cx="274" cy="173" rx="1" ry="1"/>
      <ellipse cx="276" cy="175" rx="1" ry="1"/>
      <ellipse cx="278" cy="178" rx="1" ry="1"/>
      <ellipse cx="279" cy="182" rx="1" ry="1"/>
      <ellipse cx="279" cy="185" rx="1" ry="1"/>
      <ellipse cx="278" cy="188" rx="1" ry="1"/>
      <ellipse cx="276" cy="190" rx="1" ry="1"/>
      <ellipse cx="280" cy="175" rx="1" ry="1"/>
      <ellipse cx="283" cy="175" rx="1" ry="1"/>
      <ellipse cx="286" cy="176" rx="1" ry="1"/>
      <ellipse cx="290" cy="176" rx="1" ry="1"/>
      <ellipse cx="293" cy="177" rx="1" ry="1"/>
      <ellipse cx="296" cy="179" rx="1" ry="1"/>
      <ellipse cx="299" cy="181" rx="1" ry="1"/>
      <ellipse cx="301" cy="183" rx="1" ry="1"/>
      <ellipse cx="303" cy="186" rx="1" ry="1"/>
      <ellipse cx="304" cy="190" rx="1" ry="1"/>
      <ellipse cx="304" cy="193" rx="1" ry="1"/>
      <ellipse cx="303" cy="196" rx="1" ry="1"/>
      <ellipse cx="301" cy="199" rx="1" ry="1"/>
    </g>
    <g fill="#c8b100" stroke="none" transform="matrix(.68267 0 0 .68267 0 85)">
      <path d="M250 226c-12 0-23-1-31-4l-1-1 1-1c8-2 19-4 31-4s23 2 31 4l1 1-1 1c-8 3-19 4-31 4"/>
      <path d="M250 216c-12 0-23 2-31 4l-1-3-2-3c9-2 21-4 34-4 14 0 26 2 34 4l-2 3v3c-8-2-20-4-32-4"/>
      <path d="M250 210c-13 0-25 2-34 4h-1v-1a126 126 0 0 1 70 0l1 1h-2c-8-2-20-4-34-4"/>
      <path d="M250 200h1v2c0 2 2 4 5 4 2 0 4-1 5-3v-2l1 2c0 3 2 4 5 4a5 5 0 0 0 4-5l2-2 1 2-1 2c0 3 2 5 5 5l4-2 1-1v1c0 2 1 3 2 3l4-1 4-4v2l-4 4c-1 1-3 2-4 1-2 0-3-1-3-2l-4 1c-3 0-5-2-6-4l-5 2c-3 0-5-1-6-3-1 2-3 2-5 2s-5-1-6-3c-1 2-3 3-6 3-2 0-3 0-5-2a7 7 0 0 1-10 1c-1 2-4 4-7 4l-3-1-3 2c-2 1-3 0-5-1l-4-4 1-2 3 4 4 1c2 0 2-1 2-3v-1l1 1 4 2c3 0 5-2 5-5v-4l2 2c0 3 2 5 5 5 2 0 4-1 5-4v-2l1 2c0 2 2 3 4 3a5 5 0 0 0 5-6h1"/>
      <path d="M208 206v-1h-3l-2-3h-4c0-2 2-3 3-3l3 1v-1l2 2v4l1-2 2-2h2v1l3 1-2 2a13 13 0 0 0 1 1h-1l-3 1-2-1"/>
      <path fill="#ad1519" d="M205 205h3v2h-2l-1-2"/>
      <path fill="#fff" d="M216 206l1-2 2 1-1 2-2-1"/>
      <path d="M226 202l-1-1 1-1-2-1h-3-1a6 6 0 0 0 1 1l-3 2 4 1-1 1h1l3-1 1-1M226 192c1 0 2 1 2 3l1-1h1v1l-1 2v2h-2l-1 1-2-2-1-2v-1h2l1-3M229 201a2 2 0 0 0 0-2l1-1 2-1 1-1v2l4 1-3 2a6 6 0 0 0 0 1h-1-2l-2-1"/>
      <ellipse cx="227" cy="200" fill="#ad1519" rx="2" ry="2"/>
      <path fill="#fff" d="M238 202l1-2 1 2-1 1-1-1"/>
      <path d="M249 200l-1-1v-2l-1-1-3-1h-1a6 6 0 0 0 0 2l-3 2 3 1v2h1l3-1 2-1M250 188l2 4h1l1-1v2l-1 2-1 2a2 2 0 0 0-4 0l-1-2v-2l-1-2 1 1h1l2-4M252 200a2 2 0 0 0 0-3l2-1 2-1h2l-1 1v1l4 2-4 1a7 7 0 0 0 1 2h-2l-2-1-2-1"/>
      <ellipse cx="250" cy="199" fill="#ad1519" rx="2" ry="2"/>
      <path fill="#fff" d="M263 202l-1-2-2 2 1 1 2-1"/>
      <path d="M271 201v-1l1-1-2-1-2-1-1-1v2l-3 1 3 2-1 1h4l1-1M275 192l-3 3v-1h-1v3l1 2a2 2 0 0 1 3 1l1-2 1-2 1-1h-2l-1-3M274 202a2 2 0 0 0 1-2l2-1h3l-1 1c2 0 3 1 3 2l-3 1v1h-1l-2-1-2-1"/>
      <ellipse cx="273" cy="200" fill="#ad1519" rx="2" ry="2"/>
      <path fill="#fff" d="M284 206l-1-2-1 1v2l2-1"/>
      <path d="M292 206l1-1h2l3-3h3c0-2-1-3-3-3l-2 1-1-1-2 2v2l-3-2h-1v1l-4 1 3 2-1 1h-1 2l2 1 2-1"/>
      <path fill="#ad1519" d="M295 205h-2l-1 2h3v-2"/>
    </g>
    <g fill="none">
      <path fill="#ad1519" stroke="none" d="M171 239c-8 0-15-1-20-3l20-2 19 2c-5 2-12 3-19 3z"/>
      <path stroke="none" d="M176 238v-4m-2 5v-5m-1 5v-5M171 239v-5M170 239v-5M169 239v-5M168 239v-5M167 239v-5M165 238v-4m1 4v-4M163 238v-3m1 3v-4M161 238v-3m0 3v-3m1 3v-3M160 238v-3"/>
      <path stroke-width="1" d="M233 223v-4M232 223v-4M229 223v-3m2 3v-4M228 223v-3M227 222v-2M225 222v-2M224 222v-1M223 222v-1" transform="matrix(.68267 0 0 .68267 0 85)"/>
      <path stroke="none" d="M150 237a80 80 0 0 1 41 0"/>
      <path fill="#ad1519" stroke="none" d="M148 234l1-2 2 1-2 1h-1"/>
      <path fill="#fff" stroke="none" d="M153 232h1v1l-1-1"/>
      <path fill="#058e6e" stroke="none" d="M159 232h-2l1-1h4l-1 1h-2"/>
      <path fill="#fff" stroke="none" d="M164 231l1-1 1 1-1 1-1-1"/>
      <path fill="#ad1519" stroke="none" d="M171 232h-2l-1-1 1-1h4l1 1-1 1h-2"/>
      <path fill="#fff" stroke="none" d="M176 231l1-1v2l-1-1"/>
      <path fill="#058e6e" stroke="none" d="M182 232h2v-1h-4v1h2"/>
      <path fill="#fff" stroke="none" d="M187 232h2l-1 1-1-1"/>
      <path fill="#ad1519" stroke="none" d="M194 234l-1-2-3 1 2 1h2"/>
    </g>
    <g stroke-width="1">
      <path fill="#ccc" d="M250 344c-13 0-26-3-36-8-8-4-14-12-14-21v-34h101v34c0 9-6 17-14 21-11 5-23 8-37 8z" transform="matrix(.68267 0 0 .68267 0 85)"/>
      <path fill="#ffd691" d="M253 330c2 0 3 2 3 4s-2 4-5 4-6-2-6-4 1-4 3-4v-1-1h1l1 1v-1h1l1 1v-1h1v2" transform="matrix(.68267 0 0 .68267 0 85)"/>
      <path fill="#058e6e" d="M250 340l-5-3h-6l2 2 3 2 6-1M251 341s3-3 6-3h6l-1 1c-1 0-2 2-5 2l-5-1-1 1" transform="matrix(.68267 0 0 .68267 0 85)"/>
      <path fill="#ad1519" d="M251 337a5 5 0 0 1 0-7 5 5 0 0 1 0 7" transform="matrix(.68267 0 0 .68267 0 85)"/>
      <path fill="#058e6e" d="M250 343v-3-2h1v4h-1v1" transform="matrix(.68267 0 0 .68267 0 85)"/>
      <g fill="#c8b100">
        <path fill="#ad1519" d="M250 315c0 13-11 23-25 23s-25-10-25-23v-34h50v34" transform="matrix(.68267 0 0 .68267 0 85)"/>
        <path d="M200 314c0 7 3 12 6 16v-50h-6zM211 334l6 3v-57h-6zM222 338h6v-58h-6zM233 337c3 0 5-2 6-3v-54h-6zM245 329c2-2 5-7 5-13l1-36h-6z" transform="matrix(.68267 0 0 .68267 0 85)"/>
      </g>
      <g transform="matrix(.68267 0 0 .68267 0 85)">
        <path fill="#ad1519" d="M301 281v34c0 13-12 23-26 23-13 0-25-10-25-23v-34h51"/>
        <path id="e" fill="#c8b100" stroke="#c8b100" stroke-width="0" d="M273 306l-4-5-2 1-3-4 1-1-5-6h-1v4h2v5h-2v4l2 2h3l1-2h4l1 2zm-7-18v1h2v-1zm-8 20l2-1-2-1-1 1 1 1zm16-10h-1v-5h1v-2l-1-2h-3l-1 2h-4l-1-2h-3v1l5 6 2-1 3 4-1 1 4 5v-1zm-7-1l-1 1 2 2 1-1zm8 36l-2-2-5-1 1-2 4 1 1-1v-6h-1v-5h1v-8l-4 5 1 1-3 4-1-1-4 3v3l3 3v2l-4-4h-3v-4l-1-5h1l1 4h2l3-3-1-2 3-3 2 1 4-5h-3l-1 1h-4l-1-1h-3l-2 1v4h-1v-4c-2 0-2-1-2-2l2-3v-4h-2v-5h2v-4c-1 0-2-1-2-3 0-1 1-2 3-2l2 2h3l1-2h4l1 2h3l2-2v8h-1v3h1v21h-1v3h1zm-6-18l-1-1-2 2 1 1zm-10-19h-1v3h1zm9 12v-2h-2v2zm-10 9h-2v-4l2-1v5zm1-5h2v5h-1l-1-2zm11 17l1-2-5-2-1 1 5 3zm-1 1l-1 1-4-2v-1l5 2z"/>
        <use width="100%" height="100%" transform="matrix(-1 0 0 1 550 0)" xlink:href="#e"/>
        <path fill="#058e6e" stroke="none" d="M273 307c0-2 1-3 2-3 2 0 3 1 3 3 0 1-1 3-3 3l-2-3"/>
      </g>
      <g fill="#c8b100" stroke-width="0">
        <path fill="#ad1519" stroke-width="1" d="M200 281h50v-55h-50z" transform="matrix(.68267 0 0 .68267 0 85)"/>
        <path stroke="none" d="M148 248v-1h-1v3h1v2h-3v5h2v10h-3v5h20v-5h-3v-10h1v-5h-2v-2h1v-3h-1v1h-1v-1h-1v1h-1v-1h-1v3h1v2h-2v-6h1v-2h-5v2h2v6h-3v-2h1v-3h-1v1-1h-2zm-4 24h20m-20-1h20m-20-1h20m-20-2h20m-20-1h20m-17-1h14m-14-2h14m-14-1h14m-14-1h14m-14-1h14m-14-2h14m-14-1h14m-16-1h17m-17-1h17m-17-2h17m-17-1h17m-14-1h12m-7-2h2m-2-1h2m-2-1h2m-2-1h2m-4-2h5m-8 5h2m-3-1h4m-4 23v-1m0-1v-2m-2 2v1m3 0v-1m1 2v-1m0-1v-2m0-1v-1m0-2v-1m-1 5v-1m-3 1v-1m5 0v1m1-1v-1m-3-2v2m2-2v2m3-2v2m-2-2v-1m2-1v1m0-4v2m-2-3v1m2-2v1m-3-1v1m-2-1v1m-1-2v1m2-1v1m2-1v1m2-3v2m-3-2v2m-2-2v2m-1-3v1m4-1v1m-2-4v2m11-2h-3m4-1h-5m5 23v-1m0-1v-2m1 2v1m-2 0v-1m-1 2v-1m0-1v-2m0-1v-1m0-2v-1m1 5v-1m2 1v-1m-5 0v1m-1-1v-1m4-2v2m-3-2v2m-2-2v2m1-2v-1m-1-1v1m0-4v2m1-3v1m-1-2v1m2-1v1m3-1v1m1-2v1m-2-1v1m-3-1v1m-1-3v2m2-2v2m3-2v2m1-3v1m-5-1v1m3-4v2m-5 12v-1m0-4v-1m0 4v-1m0-4v-1m0-2v-1m0-3v-1m0-1v-1m-6 3h2m3-4h2m2 4h3"/>
        <path stroke="none" d="M157 272v-3c0-1 0-3-3-3s-3 2-3 3v3z"/>
        <path stroke="none" d="M152 269h-2l1-2 1 1v1zM154 267l1-1h-3l1 1zM156 269h2l-1-2-2 1 1 1zM151 263v-3l-1-2-2 2v3zM156 263v-3l2-2 2 2v3zM150 255v-3h-3l1 3zM155 255v-3h-3v3zM157 255v-3h3v3z"/>
        <g fill="#0039f0" stroke="none">
          <path d="M156 272v-3s0-2-2-2-2 2-2 2v3zM151 263v-3l-1-2-2 2v3zM157 263v-3l1-2 1 2v3z"/>
        </g>
      </g>
      <g>
        <path fill="#ccc" d="M250 281h51v-55h-51z" transform="matrix(.68267 0 0 .68267 0 85)"/>
        <path fill="#db4446" stroke="none" d="M188 249v-1h-1l-2-1-1-1-2 1h2l1 1 2 1h1z"/>
        <g fill="none" stroke="none" stroke-width="0">
          <path fill="#ed72aa" d="M194 247v1l-1 1 1 1h-1a2393 2393 0 0 0 0 1l1 1v1l-1-1v2h-1v-1 3l-1-1v1l1 3 4 2c2-1 1-4 1-5l-1-3 1-3v-2-1l1-1v-1 2l1-1 2-1v-1l-1 2-1 2 1-1h1l-1 1-1 2-1 1-1 3 2 4-1 4h-3l-1 2 1 2h1v1l1 1-1 1-1 2 1 1h-1-1v-1 1h-1-1l1-1-1-1v-1h2v-1l-1-1v1h-1v-1 1h-1v-1l-1-1v-1l1-1h-2v5h-1l-1-1h-1-1v1h-1-1l1-1h-1l-1-1h1v-1-1h1v1h3v-1h-1v-1 1l-1-1v-2l2-1h3l-2-1-2-2v-1h-1l-1 1v-1l-1 2h-1v-1l-1 1h-1v1h-1s-1 0 0 0v-1h-1v-1h1l-1-1 1-1v1h2l1-1 1-1h-1l-1-1h-1l-1-1h0l-1-1h2l-1-1h-1v-1l-1 1v-1-1h1l-1-1s-1 0 0 0l1-1v1l1-1v-1 1h1v1 2h2l1 1h3l1-1h-1l1-1h1v-2h-2v-1h1l2-1 1-1 2 2 2 1"/>
          <path d="M184 251l-1 1v1l1-1 1 1v-1 3l2-1v2l1-1h1v-1 1l1 1v-1-1l1 1m-8 0l1-1h1m1 3h1v-1M193 250v-1h-1M190 261l1 2v1"/>
        </g>
        <path stroke="none" d="M186 247v-1h1l-1 1zM189 246v-1l1 1s1 0 0 0h-1z"/>
        <g stroke="none" stroke-width="0">
          <path d="M186 249h1-1M187 249h1-1M187 247h1v1l-1-1"/>
        </g>
        <g fill="#db4446" stroke="none" stroke-width="0">
          <path d="M179 246v1h1v-1l-1-1v1zM177 247h-1-1 1v1h1v-1zM176 249v1l-1 1 1-1h1l-1-1zM178 256h-1v1h1v-1zM178 258l-1 1h-1 2v-1zM179 260v1h0l1-1h-1zM184 265h-2 1v0h1zM182 267h-1v1h1v-1zM184 269l-1 1h1l1-1zM192 270h-1v0l1 1v-1zM192 272v1h1v-1h-1zM194 272l1 1v-1h-1z"/>
        </g>
        <g fill="#c8b100" stroke="none" stroke-width="0">
          <path d="M193 244h-1s-1 0 0 0v-1h-1v1l-1-1v1l2 2 2 1h1l-1-1v-1l-1 1v-1-1z"/>
          <g fill="#000">
            <path d="M192 245zM192 245h0M191 244c0 1 0 1 0 0M190 244h1-1zM193 246zM193 246h1-1M194 247z"/>
          </g>
          <path d="M191 243h1-1M192 244v-1 1M191 243h1s0 1 0 0h-1zM190 243v-1 1zM191 243h-1v-1h1v1M190 243v-1 1zM194 244h-1 1M193 244h-1 1M194 245h-1v-1h1v1M193 244zM195 245h-1 1M195 246l-1-1 1 1M194 246l1-1h-1v1zM195 247h1v-1 1h-1z"/>
          <path d="M195 246v1h1l-1-1M195 247h0z"/>
        </g>
      </g>
      <g transform="matrix(.68267 0 0 .68267 0 85)">
        <ellipse cx="250" cy="281" fill="#ad1519" rx="16" ry="18"/>
        <ellipse cx="250" cy="281" fill="#005bbf" rx="11" ry="13"/>
        <g id="f" fill="#c8b100" stroke-width="0">
          <path stroke-linejoin="round" d="M245 272l-1 3v2l-1-1-2 2h1v1h1l1 1h-1v1h1l-1 2 1-1 1 1 1-1 1 1-1-2h1v-1h-1l1-1h1l1-1-2-2-1 1v-2l-1-3z"/>
          <path d="M243 281h4v-1h-4z"/>
        </g>
        <use width="100%" height="100%" x="11" xlink:href="#f"/>
        <use width="100%" height="100%" x="5" y="9" xlink:href="#f"/>
      </g>
    </g>
  </g>
</svg>
