<svg xmlns="http://www.w3.org/2000/svg" xmlns:xlink="http://www.w3.org/1999/xlink" viewBox="0 0 512 512">
  <defs>
    <path id="a" d="M50 173.061h1100v641.676H50z"/>
    <clipPath id="b">
      <use width="100%" height="100%" overflow="visible" xlink:href="#a"/>
    </clipPath>
  </defs>
  <path fill="#fff" d="M50 173.061h1100v641.676H50z" clip-path="url(#b)" transform="matrix(.46545 0 0 .53194 -23.2727 -6.7245)"/>
  <path fill="#c8102e" d="M710.48 405.061h76.067L1150 201.61v-28.549h-25.095zM1150 766.024L845.424 595.643h-76.069L1150 808.611zM451.663 405.061L50 179.296v42.658l325.587 183.107zM510.529 595.643h-76.067L50 811.018v3.718h69.411z" clip-path="url(#b)" transform="matrix(.46545 0 0 .53194 -23.2727 -6.7245)"/>
  <path fill="#012169" d="M689.607 388.799l385.155-215.738H689.607zM519.516 388.799V173.061H135.92zM888.749 405.061H1150V257.867zM888.749 595.643L1150 741.231V595.643zM519.516 611.94l-361.82 202.796h361.82z" clip-path="url(#b)" transform="matrix(.46545 0 0 .53194 -23.2727 -6.7245)"/>
  <path fill="#012169" fill-opacity=".9944" d="M689.607 611.94v202.796h362.959z" clip-path="url(#b)" transform="matrix(.46545 0 0 .53194 -23.2727 -6.7245)"/>
  <path fill="#012169" d="M320.367 595.643H50v152.152zM50 252.653v152.408h270.367z" clip-path="url(#b)" transform="matrix(.46545 0 0 .53194 -23.2727 -6.7245)"/>
  <path fill="#c8102e" d="M50 443.2v114.341h503.525v257.195h102.064V557.541H1150V443.2H655.589V173.061H553.525V443.2z" clip-path="url(#b)" transform="matrix(.46545 0 0 .53194 -23.2727 -6.7245)"/>
</svg>
