<svg xmlns="http://www.w3.org/2000/svg" xmlns:xlink="http://www.w3.org/1999/xlink" viewBox="0 0 512 341.33335">
  <path fill="#b22234" d="M-.00000655.00018272h512v341.33298h-512z"/>
  <path fill="#fff" d="M.00000655 27.719409v23.33008H512.00001v-23.33008zm0 52.51368v23.330071H512.00001V80.233089zm0 52.511711v23.33008H512.00001V132.7448zm0 52.51368v23.33008H512.00001v-23.33008zm0 52.51172v23.33007H512.00001V237.7702zm0 52.51367v23.33008H512.00001v-23.33008z"/>
  <path fill="#3c3b6e" d="M-.00000655.00018272h224.27449v185.25887h-224.27449z"/>
  <g fill="#fff" transform="matrix(.07508 0 0 .08753 -.00000655 .000183)">
    <g id="d">
      <g id="c">
        <g id="e">
          <g id="b">
            <path id="a" d="M247 90l70.53423 217.08204-184.66101-134.16408h228.25356L176.46577 307.08204z"/>
            <use width="100%" height="100%" y="420" xlink:href="#a"/>
            <use width="100%" height="100%" y="840" xlink:href="#a"/>
            <use width="100%" height="100%" y="1260" xlink:href="#a"/>
          </g>
          <use width="100%" height="100%" y="1680" xlink:href="#a"/>
        </g>
        <use width="100%" height="100%" x="247" y="210" xlink:href="#b"/>
      </g>
      <use width="100%" height="100%" x="494" xlink:href="#c"/>
    </g>
    <use width="100%" height="100%" x="988" xlink:href="#d"/>
    <use width="100%" height="100%" x="1976" xlink:href="#c"/>
    <use width="100%" height="100%" x="2470" xlink:href="#e"/>
  </g>
</svg>
