<?xml version="1.0" encoding="UTF-8" standalone="no"?>
<!-- Created with Inkscape (http://www.inkscape.org/) -->

<svg
   xmlns:dc="http://purl.org/dc/elements/1.1/"
   xmlns:cc="http://creativecommons.org/ns#"
   xmlns:rdf="http://www.w3.org/1999/02/22-rdf-syntax-ns#"
   xmlns:svg="http://www.w3.org/2000/svg"
   xmlns="http://www.w3.org/2000/svg"
   xmlns:sodipodi="http://sodipodi.sourceforge.net/DTD/sodipodi-0.dtd"
   xmlns:inkscape="http://www.inkscape.org/namespaces/inkscape"
   id="svg2"
   version="1.1"
   inkscape:version="0.48.4 r9939"
   width="480"
   height="120"
   sodipodi:docname="header-logo.svg"
   inkscape:export-filename="/disk1/new/ tnuatimming/site/header-logo.png"
   inkscape:export-xdpi="90"
   inkscape:export-ydpi="90">
  <metadata
     id="metadata8">
    <rdf:RDF>
      <cc:Work
         rdf:about="">
        <dc:format>image/svg+xml</dc:format>
        <dc:type
           rdf:resource="http://purl.org/dc/dcmitype/StillImage" />
        <dc:title></dc:title>
      </cc:Work>
    </rdf:RDF>
  </metadata>
  <defs
     id="defs6" />
  <sodipodi:namedview
     pagecolor="#ffffff"
     bordercolor="#666666"
     borderopacity="1"
     objecttolerance="10"
     gridtolerance="10"
     guidetolerance="10"
     inkscape:pageopacity="0"
     inkscape:pageshadow="2"
     inkscape:window-width="1496"
     inkscape:window-height="872"
     id="namedview4"
     showgrid="false"
     inkscape:zoom="1.23"
     inkscape:cx="297.07559"
     inkscape:cy="103.37931"
     inkscape:window-x="11"
     inkscape:window-y="0"
     inkscape:window-maximized="0"
     inkscape:current-layer="svg2" />
  <g
     id="g3811"
     transform="translate(-22.212118,0.32540949)">
    <flowRoot
       transform="translate(-2.815186,9.2498961)"
       style="font-size:36px;font-style:normal;font-variant:normal;font-weight:normal;font-stretch:normal;line-height:125%;letter-spacing:2.07999992px;word-spacing:0px;fill:#58585a;fill-opacity:1;stroke:none;font-family:Alef;-inkscape-font-specification:Alef"
       id="flowRoot2987"
       xml:space="preserve"><flowRegion
         id="flowRegion2989"><rect
           style="font-size:36px;letter-spacing:2.07999992px;fill:#58585a;fill-opacity:1"
           y="26.696701"
           x="18.097622"
           height="68.770966"
           width="363.56113"
           id="rect2991" /></flowRegion><flowPara
         id="flowPara2993">תנועה מדידת זמנים</flowPara></flowRoot>    <g
       id="g3804">
      <path
         sodipodi:type="arc"
         style="opacity:0.1;fill:none;stroke:#969696;stroke-width:3;stroke-miterlimit:4;stroke-opacity:1;stroke-dasharray:none"
         id="path3768"
         sodipodi:cx="418.25616"
         sodipodi:cy="31.120564"
         sodipodi:rx="30.967043"
         sodipodi:ry="30.967043"
         d="m 449.22321,31.120564 c 0,17.102625 -13.86442,30.967042 -30.96705,30.967042 -17.10262,0 -30.96704,-13.864417 -30.96704,-30.967042 0,-17.102626 13.86442,-30.96704342 30.96704,-30.96704342 17.10263,0 30.96705,13.86441742 30.96705,30.96704342 z"
         transform="translate(6.0325409,28.554027)" />
      <path
         sodipodi:type="arc"
         style="fill:#ff6600;fill-opacity:1;stroke:none"
         id="path3770"
         sodipodi:cx="377.43597"
         sodipodi:cy="-32.623283"
         sodipodi:rx="5.429287"
         sodipodi:ry="5.429287"
         d="m 382.86526,-32.623283 c 0,2.998512 -2.43077,5.429287 -5.42929,5.429287 -2.99851,0 -5.42928,-2.430775 -5.42928,-5.429287 0,-2.998513 2.43077,-5.429287 5.42928,-5.429287 2.99852,0 5.42929,2.430774 5.42929,5.429287 z"
         transform="matrix(1.1297086,0,0,1.1297086,-2.5784325,73.145002)" />
      <path
         sodipodi:type="arc"
         style="fill:#003399;fill-opacity:1;stroke:none"
         id="path3770-9"
         sodipodi:cx="377.43597"
         sodipodi:cy="-32.623283"
         sodipodi:rx="5.429287"
         sodipodi:ry="5.429287"
         d="m 382.86526,-32.623283 c 0,2.998512 -2.43077,5.429287 -5.42929,5.429287 -2.99851,0 -5.42928,-2.430775 -5.42928,-5.429287 0,-2.998513 2.43077,-5.429287 5.42928,-5.429287 2.99852,0 5.42929,2.430774 5.42929,5.429287 z"
         transform="matrix(1.1297086,0,0,1.1297086,21.695865,96.895045)" />
      <path
         sodipodi:type="arc"
         style="fill:#cc0000;fill-opacity:1;stroke:none"
         id="path3770-1"
         sodipodi:cx="377.43597"
         sodipodi:cy="-32.623283"
         sodipodi:rx="5.429287"
         sodipodi:ry="5.429287"
         d="m 382.86526,-32.623283 c 0,2.998512 -2.43077,5.429287 -5.42929,5.429287 -2.99851,0 -5.42928,-2.430775 -5.42928,-5.429287 0,-2.998513 2.43077,-5.429287 5.42928,-5.429287 2.99852,0 5.42929,2.430774 5.42929,5.429287 z"
         transform="matrix(1.1297086,0,0,1.1297086,-26.392666,97.297459)" />
      <path
         sodipodi:type="arc"
         style="fill:#66cc33;fill-opacity:1;stroke:none"
         id="path3770-4"
         sodipodi:cx="377.43597"
         sodipodi:cy="-32.623283"
         sodipodi:rx="5.429287"
         sodipodi:ry="5.429287"
         d="m 382.86526,-32.623283 c 0,2.998512 -2.43077,5.429287 -5.42929,5.429287 -2.99851,0 -5.42928,-2.430775 -5.42928,-5.429287 0,-2.998513 2.43077,-5.429287 5.42928,-5.429287 2.99852,0 5.42929,2.430774 5.42929,5.429287 z"
         transform="matrix(1.1297086,0,0,1.1297086,-2.2477965,120.6375)" />
    </g>
  </g>
</svg>
