<?xml version="1.0" encoding="UTF-8" standalone="no"?>
<!-- Created with Inkscape (http://www.inkscape.org/) -->

<svg
   xmlns:dc="http://purl.org/dc/elements/1.1/"
   xmlns:cc="http://creativecommons.org/ns#"
   xmlns:rdf="http://www.w3.org/1999/02/22-rdf-syntax-ns#"
   xmlns:svg="http://www.w3.org/2000/svg"
   xmlns="http://www.w3.org/2000/svg"
   xmlns:sodipodi="http://sodipodi.sourceforge.net/DTD/sodipodi-0.dtd"
   xmlns:inkscape="http://www.inkscape.org/namespaces/inkscape"
   width="240"
   height="240"
   id="svg2"
   version="1.1"
   inkscape:version="0.48.4 r9939"
   sodipodi:docname="tnua-logo.svg"
   inkscape:export-filename="/disk1/new/tnuatimming/temp/tnua-logo512.png"
   inkscape:export-xdpi="192"
   inkscape:export-ydpi="192">
  <defs
     id="defs4" />
  <sodipodi:namedview
     id="base"
     pagecolor="#ffffff"
     bordercolor="#666666"
     borderopacity="1.0"
     inkscape:pageopacity="0.0"
     inkscape:pageshadow="2"
     inkscape:zoom="2.53"
     inkscape:cx="120"
     inkscape:cy="118.45989"
     inkscape:document-units="px"
     inkscape:current-layer="layer1"
     showgrid="false"
     inkscape:window-width="1218"
     inkscape:window-height="933"
     inkscape:window-x="373"
     inkscape:window-y="168"
     inkscape:window-maximized="0"
     inkscape:snap-object-midpoints="true" />
  <metadata
     id="metadata7">
    <rdf:RDF>
      <cc:Work
         rdf:about="">
        <dc:format>image/svg+xml</dc:format>
        <dc:type
           rdf:resource="http://purl.org/dc/dcmitype/StillImage" />
        <dc:title />
      </cc:Work>
    </rdf:RDF>
  </metadata>
  <g
     inkscape:label="Layer 1"
     inkscape:groupmode="layer"
     id="layer1"
     transform="translate(0,-812.36218)">
    <g
       id="g3769"
       inkscape:export-filename="/disk1/new/tnuatimming/temp/tnua-logo512.png"
       inkscape:export-xdpi="90"
       inkscape:export-ydpi="90">
      <path
         transform="matrix(3.6869678,0,0,3.6869678,-204.96172,721.82361)"
         d="m 120.4138,57.103447 c 0,17.825467 -14.4504,32.275864 -32.275868,32.275864 -17.825467,0 -32.275864,-14.450397 -32.275864,-32.275864 0,-17.825467 14.450397,-32.275864 32.275864,-32.275864 17.825468,0 32.275868,14.450397 32.275868,32.275864 z"
         sodipodi:ry="32.275864"
         sodipodi:rx="32.275864"
         sodipodi:cy="57.103447"
         sodipodi:cx="88.137932"
         id="path2985"
         style="fill:none;stroke:#000000;stroke-width:0.54241383;stroke-miterlimit:4;stroke-opacity:0.48717951;stroke-dasharray:none;marker-mid:none"
         sodipodi:type="arc" />
      <path
         inkscape:transform-center-x="-74.987478"
         inkscape:transform-center-y="-129.88213"
         transform="matrix(2.7457537,1.5852616,-1.5852616,2.7457537,-110.48617,604.86455)"
         d="m 135.43569,27.385893 c 0,5.224934 -4.23564,9.460581 -9.46058,9.460581 -5.22493,0 -9.46058,-4.235647 -9.46058,-9.460581 0,-5.224935 4.23565,-9.460581 9.46058,-9.460581 5.22494,0 9.46058,4.235646 9.46058,9.460581 z"
         sodipodi:ry="9.4605808"
         sodipodi:rx="9.4605808"
         sodipodi:cy="27.385893"
         sodipodi:cx="125.97511"
         id="path3935"
         style="fill:#ff6600;fill-opacity:1;stroke:none"
         sodipodi:type="arc" />
      <path
         inkscape:transform-center-y="74.987482"
         inkscape:transform-center-x="129.88212"
         transform="matrix(-2.7457537,1.5852616,-1.5852616,-2.7457537,420.70456,797.85693)"
         d="m 135.43569,27.385893 c 0,5.224934 -4.23564,9.460581 -9.46058,9.460581 -5.22493,0 -9.46058,-4.235647 -9.46058,-9.460581 0,-5.224935 4.23565,-9.460581 9.46058,-9.460581 5.22494,0 9.46058,4.235646 9.46058,9.460581 z"
         sodipodi:ry="9.4605808"
         sodipodi:rx="9.4605808"
         sodipodi:cy="27.385893"
         sodipodi:cx="125.97511"
         id="path3935-1"
         style="fill:#cc0000;fill-opacity:1;stroke:none"
         sodipodi:type="arc" />
      <path
         inkscape:transform-center-y="-144.85293"
         inkscape:transform-center-x="38.813214"
         transform="matrix(0.82052523,3.0622416,-3.0622416,0.82052523,84.6096,435.53751)"
         d="m 135.43569,27.385893 c 0,5.224934 -4.23564,9.460581 -9.46058,9.460581 -5.22493,0 -9.46058,-4.235647 -9.46058,-9.460581 0,-5.224935 4.23565,-9.460581 9.46058,-9.460581 5.22494,0 9.46058,4.235646 9.46058,9.460581 z"
         sodipodi:ry="9.4605808"
         sodipodi:rx="9.4605808"
         sodipodi:cy="27.385893"
         sodipodi:cx="125.97511"
         id="path3935-0"
         style="fill:#003399;fill-opacity:1;stroke:none"
         sodipodi:type="arc" />
      <path
         inkscape:transform-center-x="-74.987475"
         inkscape:transform-center-y="129.88207"
         transform="matrix(2.7457537,-1.5852616,1.5852616,2.7457537,-209.31378,1123.4766)"
         d="m 135.43569,27.385893 c 0,5.224934 -4.23564,9.460581 -9.46058,9.460581 -5.22493,0 -9.46058,-4.235647 -9.46058,-9.460581 0,-5.224935 4.23565,-9.460581 9.46058,-9.460581 5.22494,0 9.46058,4.235646 9.46058,9.460581 z"
         sodipodi:ry="9.4605808"
         sodipodi:rx="9.4605808"
         sodipodi:cy="27.385893"
         sodipodi:cx="125.97511"
         id="path3935-4"
         style="fill:#66cc33;fill-opacity:1;stroke:none"
         sodipodi:type="arc" />
    </g>
  </g>
</svg>
