<?xml version="1.0" encoding="UTF-8" standalone="no"?>
<svg
   xmlns:dc="http://purl.org/dc/elements/1.1/"
   xmlns:cc="http://creativecommons.org/ns#"
   xmlns:rdf="http://www.w3.org/1999/02/22-rdf-syntax-ns#"
   xmlns:svg="http://www.w3.org/2000/svg"
   xmlns="http://www.w3.org/2000/svg"
   height="181"
   width="696"
   version="1.1"
   id="svg2"
   viewBox="0 0 696 181">
  <metadata
     id="metadata18">
    <rdf:RDF>
      <cc:Work
         rdf:about="">
        <dc:format>image/svg+xml</dc:format>
        <dc:type
           rdf:resource="http://purl.org/dc/dcmitype/StillImage" />
        <dc:title></dc:title>
      </cc:Work>
    </rdf:RDF>
  </metadata>
  <defs
     id="defs16" />
  <g
     transform="translate(-234,-224.5)"
     id="g4142">
    <g
       letter-spacing="0"
       id="g4"
       style="font-family:'Noto Sans Hebrew';letter-spacing:0;fill:#58585a"
       transform="matrix(2.0566081,0,0,2.0566081,232.34854,222.44955)">
      <g
         style="font-weight:bold;font-size:90px;line-height:125%;word-spacing:0"
         font-size="90"
         word-spacing="0"
         font-weight="bold"
         id="g6">
        <path
           style="line-height:125%;-inkscape-font-specification:'Noto Sans Hebrew, Bold';text-align:start"
           d="m 188.274,11.634 h -8.35 V 1 h 30.586 q 12.656,0 18.15,5.36 5.537,5.318 5.537,17.667 v 31.508 h -11.91 V 24.202 q 0,-7.03 -2.856,-9.8 -2.855,-2.768 -9.623,-2.768 H 200.14 V 34.66 q 0,7.648 -1.76,12.174 -1.713,4.527 -5.36,6.636 -3.647,2.065 -10.59,2.065 h -2.99 V 44.9 h 0.748 q 3.076,0 4.834,-1.098 1.758,-1.143 2.505,-3.516 0.747,-2.373 0.747,-7.163 V 11.633 Z M 169.51,55.535 H 141.077 V 44.9 h 16.567 V 24.775 q 0,-5.933 -0.79,-8.438 -0.792,-2.55 -2.638,-3.603 -1.845,-1.1 -5.405,-1.1 h -5.228 V 1 h 7.47 q 7.56,0 11.294,2.02 3.736,2.022 5.45,6.636 1.713,4.615 1.713,12.833 V 55.534 Z M 118.313,1 h 11.865 V 55.535 H 118.313 Z M 56.746,45.91 Q 68.083,45.736 74.368,43.67 L 58.81,1 H 71.687 L 84.65,38.352 q 4.967,-4 7.076,-12.656 Q 93.836,17.04 93.836,1 h 12.216 q 0,20.96 -4.702,32.826 -4.658,11.822 -15.117,17.403 -10.46,5.536 -29.487,6.37 z M 13.547,55.535 H 1.682 V 22.4 h 11.865 z m 34.234,0 H 35.873 V 23.85 q 0,-6.723 -2.857,-9.447 -2.856,-2.77 -9.932,-2.77 H 0.803 V 1 H 23.83 q 12.965,0 18.46,5.316 5.493,5.317 5.493,17.622 v 31.595 z"
           id="path8" />
      </g>
      <g
         style="font-size:45px;line-height:125%;word-spacing:-1.35000002"
         font-size="45"
         word-spacing="-1.35"
         id="g10">
        <path
           style="line-height:125%;-inkscape-font-specification:'Noto Sans Hebrew, Normal';text-align:start"
           d="m 223.98,61.6 q 5.317,0 7.756,3.253 2.46,3.23 2.46,10.283 V 89 H 220.97 v -3.735 h 9.14 V 75.64 q 0,-5.382 -1.384,-7.82 -1.385,-2.44 -4.703,-2.44 -2.966,0 -4.878,2.703 -1.91,2.68 -3.537,9.448 L 212.86,89 h -4.35 l 3.01,-11.8 q 1.034,-4.107 2.066,-6.7 l -5.493,-8.46 h 4.768 l 2.748,4.46 q 1.714,-2.592 3.67,-3.735 1.955,-1.164 4.7,-1.164 z M 202.27,89 h -4.064 V 65.777 h -15.38 V 62.04 h 22.806 v 3.736 H 202.27 Z M 174.058,62.04 h 4.043 v 14.173 h -4.042 V 62.04 Z M 165.62,89 h -4.065 V 65.777 h -15.38 V 62.04 h 22.807 v 3.736 H 165.62 Z M 119.917,65.776 h -4.175 V 62.04 h 14.568 q 6.065,0 8.7,2.593 2.638,2.57 2.638,8.57 V 89 h -4.043 V 73.16 q 0,-4.043 -1.648,-5.712 -1.626,-1.67 -5.69,-1.67 h -6.307 v 12.788 q 0,4.043 -0.747,6.262 -0.725,2.22 -2.35,3.208 -1.627,0.967 -5.12,0.967 H 115.5 v -3.735 h 0.374 q 1.538,0 2.417,-0.55 0.88,-0.57 1.253,-1.757 0.374,-1.186 0.374,-3.58 V 65.775 Z M 102.35,65.95 v 4.198 l -2.396,-0.813 q -1.297,0.68 -1.802,1.275 -0.506,0.593 -0.725,1.428 -0.22,0.813 -0.22,2.065 V 89 H 93.164 V 74.28 q 0,-2.33 0.88,-3.78 0.9,-1.45 3.03,-2.154 L 89.56,65.82 v -4.175 l 12.79,4.306 z M 74.597,61.6 q 5.317,0 7.756,3.253 2.46,3.23 2.46,10.283 V 89 H 71.588 v -3.735 h 9.14 V 75.64 q 0,-5.382 -1.384,-7.82 -1.384,-2.44 -4.702,-2.44 -2.965,0 -4.877,2.703 -1.912,2.68 -3.538,9.448 L 63.48,89 h -4.352 l 3.01,-11.8 q 1.033,-4.107 2.066,-6.7 l -5.493,-8.46 h 4.77 l 2.745,4.46 Q 67.94,63.908 69.896,62.765 71.85,61.6 74.597,61.6 Z M 53.92,89 H 41.595 v -3.735 h 8.284 V 73.62 q 0,-3.516 -0.374,-5.032 -0.35,-1.516 -1.208,-2.153 -0.857,-0.66 -2.483,-0.66 H 42.848 V 62.04 h 2.834 q 3.517,0 5.12,0.99 1.627,0.966 2.374,3.207 0.747,2.22 0.747,6.24 V 89 Z M 32.146,62.04 h 4.043 V 76.213 H 32.145 V 62.04 Z M 24.74,89 H 1.65 V 62.04 h 11.8 q 6.064,0 8.678,2.593 2.615,2.593 2.615,8.57 V 89 Z M 5.69,65.777 v 19.49 h 14.986 v -12.11 q 0,-4 -1.626,-5.69 -1.604,-1.692 -5.647,-1.692 H 5.69 Z"
           id="path12" />
      </g>
    </g>
    <g
       id="g4148"
       style="fill-opacity:1;stroke:none"
       transform="matrix(3.75,0,0,3.75,750,225)">
      <circle
         id="circle4150"
         cy="-5.9378204"
         cx="24.284611"
         style="fill:#ff6600"
         transform="rotate(29.999995)"
         r="7" />
      <circle
         id="circle4152"
         cy="-24.284611"
         cx="5.9378204"
         style="fill:#cc0000"
         transform="rotate(150)"
         r="7" />
      <circle
         id="circle4154"
         cy="-33.3913"
         cx="33.793804"
         style="fill:#003399"
         transform="rotate(74.999997)"
         r="7" />
      <circle
         id="circle4156"
         cy="47.507042"
         cx="0.28461337"
         style="fill:#66cc33"
         transform="rotate(-29.999995)"
         r="7" />
    </g>
  </g>
</svg>
