<?xml version="1.0" encoding="UTF-8" standalone="no"?>
<svg
   xmlns:dc="http://purl.org/dc/elements/1.1/"
   xmlns:cc="http://creativecommons.org/ns#"
   xmlns:rdf="http://www.w3.org/1999/02/22-rdf-syntax-ns#"
   xmlns:svg="http://www.w3.org/2000/svg"
   xmlns="http://www.w3.org/2000/svg"
   height="243"
   width="593"
   version="1.1"
   id="svg2"
   viewBox="0 0 593 243">
  <metadata
     id="metadata18">
    <rdf:RDF>
      <cc:Work
         rdf:about="">
        <dc:format>image/svg+xml</dc:format>
        <dc:type
           rdf:resource="http://purl.org/dc/dcmitype/StillImage" />
        <dc:title></dc:title>
      </cc:Work>
    </rdf:RDF>
  </metadata>
  <defs
     id="defs16" />
  <g
     transform="matrix(3.75,0,0,3.75,0.39858,15.5)"
     style="fill-opacity:1;stroke:none"
     id="g4148">
    <circle
       r="7"
       transform="rotate(29.999995)"
       style="fill:#ff6600"
       cx="24.284611"
       cy="-5.9378204"
       id="circle4150" />
    <circle
       r="7"
       transform="rotate(150)"
       style="fill:#cc0000"
       cx="5.9378204"
       cy="-24.284611"
       id="circle4152" />
    <circle
       r="7"
       transform="rotate(74.999997)"
       style="fill:#003399"
       cx="33.793804"
       cy="-33.3913"
       id="circle4154" />
    <circle
       r="7"
       transform="rotate(-29.999995)"
       style="fill:#66cc33"
       cx="0.28461337"
       cy="47.507042"
       id="circle4156" />
  </g>
  <g
     id="flowRoot835"
     style="font-style:normal;font-variant:normal;font-weight:normal;font-stretch:normal;font-size:96px;line-height:1.25;font-family:Cantarell;-inkscape-font-specification:Cantarell;letter-spacing:-12px;word-spacing:0px;fill:#58585a;fill-opacity:1;stroke:none"
     transform="translate(-20.86169,-248.49473)"
     aria-label="Tnua
">
    <path
       id="path903"
       style="font-style:normal;font-variant:normal;font-weight:bold;font-stretch:normal;font-size:192px;font-family:Cantarell;-inkscape-font-specification:'Cantarell Bold';letter-spacing:-12px;fill:#58585a;fill-opacity:1"
       d="m 232.89809,248.59678 v 21.696 h 43.776 v 111.168 h 23.616 v -111.168 h 43.776 v -21.696 z" />
    <path
       id="path905"
       style="font-style:normal;font-variant:normal;font-weight:bold;font-stretch:normal;font-size:192px;font-family:Cantarell;-inkscape-font-specification:'Cantarell Bold';letter-spacing:-12px;fill:#58585a;fill-opacity:1"
       d="m 431.86709,328.27678 c 0,-25.152 -7.68,-41.28 -33.984,-41.28 -10.368,0 -21.12,2.688 -31.872,8.064 l -3.456,-5.952 h -16.512 v 92.352 h 23.616 v -70.08 c 9.408,-3.456 16.704,-5.184 22.08,-5.184 11.52,0 16.512,8.064 16.512,19.2 v 56.064 h 23.616 z" />
    <path
       id="path907"
       style="font-style:normal;font-variant:normal;font-weight:bold;font-stretch:normal;font-size:192px;font-family:Cantarell;-inkscape-font-specification:'Cantarell Bold';letter-spacing:-12px;fill:#58585a;fill-opacity:1"
       d="m 477.50909,383.38078 c 13.248,0 19.584,-3.264 29.76,-8.64 l 3.648,6.72 h 16.128 v -92.352 h -23.616 v 68.736 c -6.144,3.648 -12.48,5.568 -19.2,5.568 -12.288,0 -17.088,-8.064 -17.088,-19.2 v -55.104 h -23.616 v 51.84 c 0,25.536 6.912,42.432 33.984,42.432 z" />
    <path
       id="path909"
       style="font-style:normal;font-variant:normal;font-weight:bold;font-stretch:normal;font-size:192px;font-family:Cantarell;-inkscape-font-specification:'Cantarell Bold';letter-spacing:-12px;fill:#58585a;fill-opacity:1"
       d="m 589.84709,359.57278 c -4.992,3.072 -10.56,5.376 -19.008,5.376 -8.448,0 -15.36,-3.264 -15.36,-10.944 0,-12.864 20.16,-12.864 34.368,-12.864 z m 0,-34.752 c -28.416,0 -57.984,2.688 -57.984,30.912 0,17.664 14.784,27.648 33.216,27.648 10.752,0 19.776,-2.688 26.88,-8.256 l 3.072,6.336 h 18.432 v -57.024 c 0,-26.688 -13.632,-37.44 -42.432,-37.44 -12.096,0 -27.456,2.88 -32.064,5.952 l 4.608,17.664 c 5.952,-3.264 16.512,-6.144 23.808,-6.144 17.472,0 22.464,4.032 22.464,20.352 z" />
  </g>
  <g
     id="flowRoot845"
     style="font-style:normal;font-variant:normal;font-weight:normal;font-stretch:normal;font-size:40px;line-height:1.25;font-family:Cantarell;-inkscape-font-specification:Cantarell;letter-spacing:0px;word-spacing:0px;fill:#58585a;fill-opacity:1;stroke:none"
     transform="translate(2.947833,-266.7487)"
     aria-label="Timing">
    <path
       id="path912"
       style="font-style:normal;font-variant:normal;font-weight:bold;font-stretch:normal;font-size:96px;font-family:Cantarell;-inkscape-font-specification:'Cantarell Bold';letter-spacing:12px;fill:#58585a;fill-opacity:1"
       d="m 233.90998,417.87066 v 10.848 h 21.888 v 55.584 h 11.808 v -55.584 h 21.888 v -10.848 z" />
    <path
       id="path914"
       style="font-style:normal;font-variant:normal;font-weight:bold;font-stretch:normal;font-size:96px;font-family:Cantarell;-inkscape-font-specification:'Cantarell Bold';letter-spacing:12px;fill:#58585a;fill-opacity:1"
       d="m 314.33848,432.55866 c 3.744,0 7.104,-3.36 7.104,-7.104 0,-3.744 -3.36,-7.104 -7.104,-7.104 -3.744,0 -7.104,3.36 -7.104,7.104 0,3.744 3.36,7.104 7.104,7.104 z m -5.76,5.568 v 46.176 h 11.52 v -46.176 z" />
    <path
       id="path916"
       style="font-style:normal;font-variant:normal;font-weight:bold;font-stretch:normal;font-size:96px;font-family:Cantarell;-inkscape-font-specification:'Cantarell Bold';letter-spacing:12px;fill:#58585a;fill-opacity:1"
       d="m 369.81748,437.07066 c -6.048,0 -10.944,2.688 -14.976,4.032 l -1.728,-2.976 h -8.256 v 46.176 h 11.808 v -34.752 c 3.552,-1.536 6.048,-2.592 9.984,-2.592 5.376,0 7.488,4.128 7.488,9.312 v 28.032 h 11.808 v -26.112 c 0,-2.784 -0.288,-5.664 -0.864,-8.352 3.84,-1.728 6.432,-2.88 10.848,-2.88 5.376,0 7.2,4.128 7.2,9.312 v 28.032 h 11.808 v -26.592 c 0,-12.384 -2.976,-20.64 -15.936,-20.64 -4.992,0 -10.752,1.632 -17.088,4.8 -2.784,-3.168 -6.816,-4.8 -12.096,-4.8 z" />
    <path
       id="path918"
       style="font-style:normal;font-variant:normal;font-weight:bold;font-stretch:normal;font-size:96px;font-family:Cantarell;-inkscape-font-specification:'Cantarell Bold';letter-spacing:12px;fill:#58585a;fill-opacity:1"
       d="m 445.02598,432.55866 c 3.744,0 7.104,-3.36 7.104,-7.104 0,-3.744 -3.36,-7.104 -7.104,-7.104 -3.744,0 -7.104,3.36 -7.104,7.104 0,3.744 3.36,7.104 7.104,7.104 z m -5.76,5.568 v 46.176 h 11.52 v -46.176 z" />
    <path
       id="path920"
       style="font-style:normal;font-variant:normal;font-weight:bold;font-stretch:normal;font-size:96px;font-family:Cantarell;-inkscape-font-specification:'Cantarell Bold';letter-spacing:12px;fill:#58585a;fill-opacity:1"
       d="m 518.45698,457.71066 c 0,-12.576 -3.84,-20.64 -16.992,-20.64 -5.184,0 -10.56,1.344 -15.936,4.032 l -1.728,-2.976 h -8.256 v 46.176 h 11.808 v -35.04 c 4.704,-1.728 8.352,-2.592 11.04,-2.592 5.76,0 8.256,4.032 8.256,9.6 v 28.032 h 11.808 z" />
    <path
       id="path922"
       style="font-style:normal;font-variant:normal;font-weight:bold;font-stretch:normal;font-size:96px;font-family:Cantarell;-inkscape-font-specification:'Cantarell Bold';letter-spacing:12px;fill:#58585a;fill-opacity:1"
       d="m 577.51798,438.03066 -1.44,3.744 c -3.936,-3.264 -8.64,-4.704 -14.304,-4.704 -15.552,0 -21.792,9.888 -21.792,23.904 0,14.016 8.16,24.288 21.984,24.288 3.936,0 7.872,-0.96 11.904,-2.88 v 0.48 c 0,11.808 -3.072,17.568 -14.784,17.568 -3.264,0 -7.2,-0.768 -11.712,-2.4 l -1.92,-0.672 -3.168,8.544 1.824,0.768 c 5.088,2.112 10.656,2.976 16.224,2.976 16.32,0 25.344,-9.312 25.344,-24.288 v -47.328 z m -3.648,11.232 v 23.424 c -2.88,2.208 -6.144,3.264 -9.984,3.264 -7.872,0 -12.096,-5.28 -12.096,-14.304 0,-9.024 3.168,-14.976 12.864,-14.976 3.456,0 7.296,1.152 9.216,2.592 z" />
  </g>
</svg>
