<?xml version="1.0" encoding="UTF-8" standalone="no"?>
<svg
   xmlns:dc="http://purl.org/dc/elements/1.1/"
   xmlns:cc="http://creativecommons.org/ns#"
   xmlns:rdf="http://www.w3.org/1999/02/22-rdf-syntax-ns#"
   xmlns:svg="http://www.w3.org/2000/svg"
   xmlns="http://www.w3.org/2000/svg"
   xmlns:sodipodi="http://sodipodi.sourceforge.net/DTD/sodipodi-0.dtd"
   xmlns:inkscape="http://www.inkscape.org/namespaces/inkscape"
   viewBox="0 0 600 315"
   id="svg2"
   version="1.1"
   inkscape:version="0.91 r13725"
   sodipodi:docname="logo2_og.svg"
   width="600"
   height="315"
   inkscape:export-filename="/home/amir/amirsher.github.io/images/logo2_og.png"
   inkscape:export-xdpi="90"
   inkscape:export-ydpi="90">
  <metadata
     id="metadata18">
    <rdf:RDF>
      <cc:Work
         rdf:about="">
        <dc:format>image/svg+xml</dc:format>
        <dc:type
           rdf:resource="http://purl.org/dc/dcmitype/StillImage" />
        <dc:title />
      </cc:Work>
    </rdf:RDF>
  </metadata>
  <defs
     id="defs16" />
  <sodipodi:namedview
     pagecolor="#ffffff"
     bordercolor="#666666"
     borderopacity="1"
     objecttolerance="10"
     gridtolerance="10"
     guidetolerance="10"
     inkscape:pageopacity="0"
     inkscape:pageshadow="2"
     inkscape:window-width="1484"
     inkscape:window-height="1104"
     id="namedview14"
     showgrid="false"
     inkscape:zoom="1.1398303"
     inkscape:cx="291.24483"
     inkscape:cy="45"
     inkscape:window-x="0"
     inkscape:window-y="0"
     inkscape:window-maximized="0"
     inkscape:current-layer="svg2" />
  <g
     letter-spacing="0"
     id="g4"
     style="font-family:'Noto Sans Hebrew';letter-spacing:0;fill:#58585a"
     transform="matrix(1.0283041,0,0,1.0283041,109.17427,111.22477)">
    <g
       style="font-weight:bold;font-size:90px;line-height:125%;word-spacing:0"
       font-size="90"
       word-spacing="0"
       font-weight="bold"
       id="g6">
      <path
         style="line-height:125%;-inkscape-font-specification:'Noto Sans Hebrew, Bold';text-align:start"
         d="m 188.274,11.634 -8.35,0 0,-10.634 30.586,0 q 12.656,0 18.15,5.36 5.537,5.318 5.537,17.667 l 0,31.508 -11.91,0 0,-31.333 q 0,-7.03 -2.856,-9.8 -2.855,-2.768 -9.623,-2.768 l -9.668,0 0,23.026 q 0,7.648 -1.76,12.174 -1.713,4.527 -5.36,6.636 -3.647,2.065 -10.59,2.065 l -2.99,0 0,-10.635 0.748,0 q 3.076,0 4.834,-1.098 1.758,-1.143 2.505,-3.516 0.747,-2.373 0.747,-7.163 l 0,-21.49 z m -18.764,43.901 -28.433,0 0,-10.635 16.567,0 0,-20.125 q 0,-5.933 -0.79,-8.438 -0.792,-2.55 -2.638,-3.603 -1.845,-1.1 -5.405,-1.1 l -5.228,0 0,-10.634 7.47,0 q 7.56,0 11.294,2.02 3.736,2.022 5.45,6.636 1.713,4.615 1.713,12.833 l 0,33.045 z M 118.313,1 l 11.865,0 0,54.535 -11.865,0 0,-54.535 z M 56.746,45.91 Q 68.083,45.736 74.368,43.67 L 58.81,1 71.687,1 84.65,38.352 q 4.967,-4 7.076,-12.656 Q 93.836,17.04 93.836,1 l 12.216,0 q 0,20.96 -4.702,32.826 -4.658,11.822 -15.117,17.403 -10.46,5.536 -29.487,6.37 l 0,-11.689 z m -43.199,9.625 -11.865,0 0,-33.135 11.865,0 0,33.135 z m 34.234,0 -11.908,0 0,-31.685 q 0,-6.723 -2.857,-9.447 -2.856,-2.77 -9.932,-2.77 l -22.281,0 L 0.803,1 23.83,1 q 12.965,0 18.46,5.316 5.493,5.317 5.493,17.622 l 0,31.595 z"
         id="path8"
         inkscape:connector-curvature="0" />
    </g>
    <g
       style="font-size:45px;line-height:125%;word-spacing:-1.35000002"
       font-size="45"
       word-spacing="-1.35"
       id="g10">
      <path
         style="line-height:125%;-inkscape-font-specification:'Noto Sans Hebrew, Normal';text-align:start"
         d="m 223.98,61.6 q 5.317,0 7.756,3.253 2.46,3.23 2.46,10.283 l 0,13.864 -13.226,0 0,-3.735 9.14,0 0,-9.625 q 0,-5.382 -1.384,-7.82 -1.385,-2.44 -4.703,-2.44 -2.966,0 -4.878,2.703 -1.91,2.68 -3.537,9.448 L 212.86,89 l -4.35,0 3.01,-11.8 q 1.034,-4.107 2.066,-6.7 l -5.493,-8.46 4.768,0 2.748,4.46 q 1.714,-2.592 3.67,-3.735 1.955,-1.164 4.7,-1.164 z m -21.71,27.4 -4.064,0 0,-23.223 -15.38,0 0,-3.737 22.806,0 0,3.736 -3.362,0 0,23.224 z m -28.212,-26.96 4.043,0 0,14.173 -4.042,0 0,-14.173 z M 165.62,89 l -4.065,0 0,-23.223 -15.38,0 0,-3.737 22.807,0 0,3.736 -3.362,0 0,23.224 z m -45.703,-23.224 -4.175,0 0,-3.736 14.568,0 q 6.065,0 8.7,2.593 2.638,2.57 2.638,8.57 l 0,15.797 -4.043,0 0,-15.84 q 0,-4.043 -1.648,-5.712 -1.626,-1.67 -5.69,-1.67 l -6.307,0 0,12.788 q 0,4.043 -0.747,6.262 -0.725,2.22 -2.35,3.208 -1.627,0.967 -5.12,0.967 l -0.243,0 0,-3.735 0.374,0 q 1.538,0 2.417,-0.55 0.88,-0.57 1.253,-1.757 0.374,-1.186 0.374,-3.58 l 0,-13.606 z m -17.567,0.174 0,4.198 -2.396,-0.813 q -1.297,0.68 -1.802,1.275 -0.506,0.593 -0.725,1.428 -0.22,0.813 -0.22,2.065 l 0,14.897 -4.043,0 0,-14.72 q 0,-2.33 0.88,-3.78 0.9,-1.45 3.03,-2.154 l -7.514,-2.526 0,-4.175 12.79,4.306 z M 74.597,61.6 q 5.317,0 7.756,3.253 2.46,3.23 2.46,10.283 l 0,13.864 -13.225,0 0,-3.735 9.14,0 0,-9.625 q 0,-5.382 -1.384,-7.82 -1.384,-2.44 -4.702,-2.44 -2.965,0 -4.877,2.703 -1.912,2.68 -3.538,9.448 L 63.48,89 l -4.352,0 3.01,-11.8 q 1.033,-4.107 2.066,-6.7 l -5.493,-8.46 4.77,0 2.745,4.46 Q 67.94,63.908 69.896,62.765 71.85,61.6 74.597,61.6 Z M 53.92,89 l -12.325,0 0,-3.735 8.284,0 0,-11.645 q 0,-3.516 -0.374,-5.032 -0.35,-1.516 -1.208,-2.153 -0.857,-0.66 -2.483,-0.66 l -2.966,0 0,-3.735 2.834,0 q 3.517,0 5.12,0.99 1.627,0.966 2.374,3.207 0.747,2.22 0.747,6.24 l 0,16.523 z m -21.774,-26.96 4.043,0 0,14.173 -4.044,0 0,-14.173 z M 24.74,89 1.65,89 l 0,-26.96 11.8,0 q 6.064,0 8.678,2.593 2.615,2.593 2.615,8.57 l 0,15.797 z M 5.69,65.777 l 0,19.49 14.986,0 0,-12.11 q 0,-4 -1.626,-5.69 -1.604,-1.692 -5.647,-1.692 l -7.713,0 z"
         id="path12"
         inkscape:connector-curvature="0" />
    </g>
  </g>
  <g
     id="g4148"
     style="fill-opacity:1;stroke:none"
     transform="matrix(1.875,0,0,1.875,382,112.5)">
    <circle
       id="circle4150"
       cy="-5.9378204"
       cx="24.284611"
       style="fill:#ff6600"
       transform="matrix(0.86602544,0.49999993,-0.49999993,0.86602544,0,0)"
       r="7" />
    <circle
       id="circle4152"
       cy="-24.284611"
       cx="5.9378204"
       style="fill:#cc0000"
       transform="matrix(-0.86602544,0.49999993,-0.49999993,-0.86602544,0,0)"
       r="7" />
    <circle
       id="circle4154"
       cy="-33.3913"
       cx="33.793804"
       style="fill:#003399"
       transform="matrix(0.2588191,0.96592581,-0.96592581,0.25881909,0,0)"
       r="7" />
    <circle
       id="circle4156"
       cy="47.507042"
       cx="0.28461337"
       style="fill:#66cc33"
       transform="matrix(0.86602544,-0.49999993,0.49999993,0.86602544,0,0)"
       r="7" />
  </g>
</svg>
