<svg xmlns="http://www.w3.org/2000/svg" viewBox="0 0 235 90"><g font-family="Noto Sans Hebrew" letter-spacing="0" fill="#58585a"><g style="line-height:125%" font-size="90" word-spacing="0" font-weight="bold"><path style="line-height:125%;-inkscape-font-specification:'Noto Sans Hebrew, Bold';text-align:start" d="M188.274 11.634h-8.35V1h30.586q12.656 0 18.15 5.36 5.537 5.318 5.537 17.667v31.508h-11.91V24.202q0-7.03-2.856-9.8-2.855-2.768-9.623-2.768h-9.668V34.66q0 7.648-1.76 12.174-1.713 4.527-5.36 6.636-3.647 2.065-10.59 2.065h-2.99V44.9h.748q3.076 0 4.834-1.098 1.758-1.143 2.505-3.516.747-2.373.747-7.163v-21.49zM169.51 55.535h-28.433V44.9h16.567V24.775q0-5.933-.79-8.438-.792-2.55-2.638-3.603-1.845-1.1-5.405-1.1h-5.228V1h7.47q7.56 0 11.294 2.02 3.736 2.022 5.45 6.636 1.713 4.615 1.713 12.833v33.045zM118.313 1h11.865v54.535h-11.865V1zM56.746 45.91q11.337-.174 17.622-2.24L58.81 1h12.877L84.65 38.352q4.967-4 7.076-12.656Q93.836 17.04 93.836 1h12.216q0 20.96-4.702 32.826-4.658 11.822-15.117 17.403-10.46 5.536-29.487 6.37V45.91zM13.547 55.535H1.682V22.4h11.865v33.135zm34.234 0H35.873V23.85q0-6.723-2.857-9.447-2.856-2.77-9.932-2.77H.803V1H23.83Q36.795 1 42.29 6.316q5.493 5.317 5.493 17.622v31.595z"/></g><g style="line-height:125%" font-size="45" word-spacing="-1.35"><path style="line-height:125%;-inkscape-font-specification:'Noto Sans Hebrew, Normal';text-align:start" d="M223.98 61.6q5.317 0 7.756 3.253 2.46 3.23 2.46 10.283V89H220.97v-3.735h9.14V75.64q0-5.382-1.384-7.82-1.385-2.44-4.703-2.44-2.966 0-4.878 2.703-1.91 2.68-3.537 9.448L212.86 89h-4.35l3.01-11.8q1.034-4.107 2.066-6.7l-5.493-8.46h4.768l2.748 4.46q1.714-2.592 3.67-3.735 1.955-1.164 4.7-1.164zM202.27 89h-4.064V65.777h-15.38V62.04h22.806v3.736h-3.362V89zM174.058 62.04h4.043v14.173h-4.042V62.04zM165.62 89h-4.065V65.777h-15.38V62.04h22.807v3.736h-3.362V89zM119.917 65.776h-4.175V62.04h14.568q6.065 0 8.7 2.593 2.638 2.57 2.638 8.57V89h-4.043V73.16q0-4.043-1.648-5.712-1.626-1.67-5.69-1.67h-6.307v12.788q0 4.043-.747 6.262-.725 2.22-2.35 3.208-1.627.967-5.12.967h-.243v-3.735h.374q1.538 0 2.417-.55.88-.57 1.253-1.757.374-1.186.374-3.58V65.775zM102.35 65.95v4.198l-2.396-.813q-1.297.68-1.802 1.275-.506.593-.725 1.428-.22.813-.22 2.065V89h-4.043V74.28q0-2.33.88-3.78.9-1.45 3.03-2.154L89.56 65.82v-4.175l12.79 4.306zM74.597 61.6q5.317 0 7.756 3.253 2.46 3.23 2.46 10.283V89H71.588v-3.735h9.14V75.64q0-5.382-1.384-7.82-1.384-2.44-4.702-2.44-2.965 0-4.877 2.703-1.912 2.68-3.538 9.448L63.48 89h-4.352l3.01-11.8q1.033-4.107 2.066-6.7l-5.493-8.46h4.77l2.745 4.46q1.714-2.592 3.67-3.735Q71.85 61.6 74.597 61.6zM53.92 89H41.595v-3.735h8.284V73.62q0-3.516-.374-5.032-.35-1.516-1.208-2.153-.857-.66-2.483-.66h-2.966V62.04h2.834q3.517 0 5.12.99 1.627.966 2.374 3.207.747 2.22.747 6.24V89zM32.146 62.04h4.043v14.173h-4.044V62.04zM24.74 89H1.65V62.04h11.8q6.064 0 8.678 2.593 2.615 2.593 2.615 8.57V89zM5.69 65.777v19.49h14.986V73.157q0-4-1.626-5.69-1.604-1.692-5.647-1.692H5.69z"/></g></g></svg>