<?xml version="1.0" encoding="utf-8"?>
<!-- Generator: Adobe Illustrator 21.0.2, SVG Export Plug-In . SVG Version: 6.00 Build 0)  -->
<svg version="1.1" id="Calque_1" xmlns="http://www.w3.org/2000/svg" xmlns:xlink="http://www.w3.org/1999/xlink" x="0px" y="0px"
	 viewBox="0 0 18 18" style="enable-background:new 0 0 18 18;" xml:space="preserve">
<style type="text/css">
	.st0{fill:#FFFFFF;}
</style>
<g id="BxOSje_1_">
</g>
<g>
	<g>
		<path class="st0" d="M3.5,3C3.4,2.7,3.1,2.6,2.8,2.6C2.5,2.7,2.4,3,2.4,3.3l3.6,14.3C6.1,17.8,6.4,18,6.6,18c0,0,0.1,0,0.1,0
			c0.3-0.1,0.5-0.4,0.4-0.7L3.5,3z"/>
		<path class="st0" d="M15.6,7.1c-0.6-2.2-1.2-4.4-1.8-6.5C13.7,0.3,13.6,0,13.2,0C9.9-0.2,7.7,3.1,4.4,2.8C4.1,2.8,4,2.9,4,3.2
			c0.6,2.2,1.2,4.4,1.8,6.5c0.1,0.3,0.3,0.5,0.6,0.5c3.3,0.2,5.5-3.1,8.8-2.8C15.5,7.4,15.6,7.3,15.6,7.1z M13,0.8
			c0.2,0.6,0.3,1.2,0.5,1.8c-0.7,0-1.3,0.2-2,0.4c-0.2-0.6-0.3-1.2-0.5-1.8C11.6,1,12.3,0.9,13,0.8z M6.1,7.6
			c-0.2-0.7-0.4-1.4-0.6-2c0.7,0,1.4-0.2,2.1-0.4C7.5,4.5,7.3,3.9,7.1,3.3c0.7-0.3,1.3-0.7,1.9-1c0.2,0.6,0.3,1.2,0.5,1.8
			c-0.6,0.4-1.3,0.7-1.9,1c0.2,0.7,0.4,1.4,0.6,2C7.5,7.4,6.9,7.5,6.1,7.6z M8.7,8.9C8.5,8.3,8.4,7.7,8.2,7.1c0.7-0.3,1.3-0.6,1.9-1
			c0.2,0.6,0.3,1.2,0.5,1.8C10,8.3,9.3,8.7,8.7,8.9z M10.1,6.1c-0.2-0.7-0.4-1.4-0.6-2c0.6-0.4,1.3-0.7,1.9-1c0.2,0.7,0.4,1.4,0.6,2
			C11.4,5.4,10.7,5.7,10.1,6.1z M12.5,6.9c-0.2-0.6-0.3-1.2-0.5-1.8c0.6-0.2,1.3-0.4,2-0.4c0.2,0.6,0.3,1.2,0.5,1.8
			C13.8,6.5,13.2,6.7,12.5,6.9z"/>
	</g>
</g>
<g>
</g>
<g>
</g>
<g>
</g>
<g>
</g>
<g>
</g>
<g>
</g>
</svg>
