<?xml version="1.0" encoding="UTF-8" standalone="no"?>
<svg
   xmlns:dc="http://purl.org/dc/elements/1.1/"
   xmlns:cc="http://creativecommons.org/ns#"
   xmlns:rdf="http://www.w3.org/1999/02/22-rdf-syntax-ns#"
   xmlns:svg="http://www.w3.org/2000/svg"
   xmlns="http://www.w3.org/2000/svg"
   xml:space="preserve"
   viewBox="0 0 18 8"
   y="0px"
   x="0px"
   id="Calque_1"
   version="1.1"
   width="18"
   height="8"><metadata
   id="metadata65"><rdf:RDF><cc:Work
       rdf:about=""><dc:format>image/svg+xml</dc:format><dc:type
         rdf:resource="http://purl.org/dc/dcmitype/StillImage" /><dc:title></dc:title></cc:Work></rdf:RDF></metadata><defs
   id="defs63" />
<style
   id="style2"
   type="text/css">
	.st0{fill:#c8102e;}
</style>

<g
   id="g48"
   transform="translate(0,-10)">
</g>
<g
   id="g50"
   transform="translate(0,-10)">
</g>
<g
   id="g52"
   transform="translate(0,-10)">
</g>
<g
   id="g54"
   transform="translate(0,-10)">
</g>
<g
   id="g56"
   transform="translate(0,-10)">
</g>
<g
   id="g58"
   transform="translate(0,-10)">
</g>
<g
   id="flowRoot823"
   style="font-style:normal;font-variant:normal;font-weight:bold;font-stretch:normal;font-size:8px;line-height:1.25;font-family:'Noto Sans';-inkscape-font-specification:'Noto Sans Bold';letter-spacing:0px;word-spacing:0px;fill:#ff8200;fill-opacity:1;stroke:none"
   transform="translate(4.6350625,2.1609829)"
   aria-label="DNS"><path
     id="path899"
     d="m 1.206,1.7830171 q 0,1.448 -0.824,2.184 -0.824,0.728 -2.296,0.728 H -3.53 v -5.712 h 1.792 q 0.896,0 1.552,0.31999999 0.664,0.32 1.024,0.944 0.368,0.624 0.368,1.53600001 z m -1.256,0.032 q 0,-0.94400001 -0.416,-1.39200001 -0.416,-0.448 -1.208,-0.448 H -2.322 V 3.6950171 h 0.52 q 1.752,0 1.752,-1.88 z" /><path
     id="path901"
     d="m 7.455875,4.6950171 h -1.536 l -2.488,-4.32000001 h -0.032 q 0.016,0.408 0.032,0.81600001 0.024,0.408 0.04,0.816 v 2.688 h -1.08 v -5.712 h 1.528 l 2.48,4.28 h 0.024 q -0.016,-0.392 -0.032,-0.784 -0.016,-0.392 -0.024,-0.792 v -2.704 h 1.088 z" /><path
     id="path903"
     d="m 12.259875,3.1110171 q 0,0.76 -0.552,1.216 -0.544,0.448 -1.552,0.448 -0.904,0 -1.616,-0.344 v -1.128 q 0.408,0.176 0.84,0.328 0.44,0.144 0.872,0.144 0.448,0 0.632,-0.168 0.192,-0.176 0.192,-0.44 0,-0.216 -0.152,-0.368 -0.144,-0.152 -0.392,-0.28 -0.248,-0.136 -0.568,-0.288 -0.2,-0.096 -0.432,-0.224 -0.232,-0.136 -0.448,-0.328 -0.208,-0.2 -0.344,-0.48 -0.136,-0.28000001 -0.136,-0.67200001 0,-0.768 0.52,-1.192 0.52,-0.43199999 1.416,-0.43199999 0.448,0 0.848,0.10399999 0.4,0.104 0.848,0.296 l -0.392,0.944 q -0.392,-0.16 -0.704,-0.24799999657 -0.312,-0.0880000034 -0.64,-0.0880000034 -0.344,0 -0.528,0.16 -0.184,0.16 -0.184,0.416 0,0.304 0.272,0.48 0.272,0.17600001 0.808,0.43200001 0.44,0.208 0.744,0.432 0.312,0.224 0.48,0.528 0.168,0.304 0.168,0.752 z" /></g></svg>