<?xml version="1.0" encoding="utf-8"?>
<!-- Generator: Adobe Illustrator 22.1.0, SVG Export Plug-In . SVG Version: 6.00 Build 0)  -->
<svg version="1.1" id="Calque_1" xmlns="http://www.w3.org/2000/svg" xmlns:xlink="http://www.w3.org/1999/xlink" x="0px" y="0px"
	 viewBox="0 0 18 18" style="enable-background:new 0 0 18 18;" xml:space="preserve">
<style type="text/css">
	.st0{fill:#00FFFF;}
</style>
<g>
	<path class="st0" d="M3.3,4.2c0.3,0,0.6,0,0.9,0c0.3,0,0.5,0.1,0.7,0.2C5,4.5,5.2,4.7,5.3,4.9c0.1,0.2,0.2,0.5,0.3,0.9
		c0.1,0.4,0.1,0.8,0.2,1.3c0,0.5,0,1.2,0,1.9c0,0.8,0,1.4,0,1.9c0,0.5-0.1,1-0.2,1.3c-0.1,0.4-0.2,0.6-0.3,0.9
		c-0.1,0.2-0.3,0.4-0.5,0.5c-0.2,0.1-0.4,0.2-0.7,0.2c-0.3,0-0.6,0-0.9,0c-0.3,0-0.6,0-0.9,0c-0.3,0-0.5-0.1-0.7-0.2
		c-0.2-0.1-0.3-0.3-0.5-0.5C1.1,12.9,1,12.6,1,12.3c-0.1-0.4-0.1-0.8-0.2-1.3c0-0.5,0-1.2,0-1.9c0-0.8,0-1.4,0-1.9
		c0-0.5,0.1-1,0.2-1.3s0.2-0.6,0.3-0.9s0.3-0.4,0.5-0.5s0.4-0.2,0.7-0.2C2.7,4.2,3,4.2,3.3,4.2z M3.3,5.7c-0.2,0-0.4,0-0.5,0.1
		C2.7,5.8,2.6,6,2.5,6.2c-0.1,0.2-0.1,0.5-0.1,1s0,1.1,0,1.8s0,1.4,0,1.8c0,0.4,0.1,0.8,0.1,1c0.1,0.2,0.2,0.3,0.3,0.4
		c0.1,0,0.3,0.1,0.5,0.1c0.2,0,0.4,0,0.5-0.1c0.1,0,0.2-0.2,0.3-0.4s0.1-0.5,0.1-1c0-0.4,0-1.1,0-1.8s0-1.4,0-1.8
		c0-0.4-0.1-0.8-0.1-1C4,6,3.9,5.8,3.8,5.8C3.7,5.7,3.5,5.7,3.3,5.7z"/>
	<path class="st0" d="M8.4,4.3v6.4c0,0.3,0,0.6,0,0.8c0,0.2,0.1,0.4,0.1,0.5c0.1,0.1,0.1,0.2,0.2,0.2c0.1,0,0.2,0,0.4,0
		c0.2,0,0.3,0,0.4,0c0.1,0,0.2-0.1,0.2-0.2s0.1-0.3,0.1-0.5c0-0.2,0-0.5,0-0.8V4.3h1.6v6.3c0,0.7,0,1.3-0.1,1.7s-0.2,0.8-0.4,1
		c-0.2,0.2-0.4,0.4-0.7,0.5c-0.3,0.1-0.7,0.1-1.2,0.1s-0.9,0-1.2-0.1c-0.3-0.1-0.6-0.2-0.7-0.5c-0.2-0.2-0.3-0.6-0.4-1
		c-0.1-0.4-0.1-1-0.1-1.7V4.3H8.4z"/>
	<path class="st0" d="M17.6,4.3v1.6h-1.8v7.8h-1.7V5.9h-1.8V4.3H17.6z"/>
</g>
</svg>
