<?xml version="1.0" standalone="no"?>
<!DOCTYPE svg PUBLIC "-//W3C//DTD SVG 20010904//EN"
 "http://www.w3.org/TR/2001/REC-SVG-20010904/DTD/svg10.dtd">
<svg version="1.0" xmlns="http://www.w3.org/2000/svg"
 width="700.000000pt" height="700.000000pt" viewBox="0 0 700.000000 700.000000"
 preserveAspectRatio="xMidYMid meet">
<metadata>
Created by potrace 1.11, written by Peter Selinger 2001-2013
</metadata>
<g transform="translate(0.000000,700.000000) scale(0.100000,-0.100000)"
fill="#000000" stroke="none">
<path d="M3399 6996 c-2 -2 -26 -6 -54 -10 -120 -14 -289 -78 -402 -153 -233
-152 -403 -410 -450 -683 -9 -57 -10 -283 0 -332 37 -195 101 -337 216 -479
132 -165 341 -298 546 -350 126 -32 372 -33 487 -1 331 91 573 298 699 601 33
79 42 110 64 221 13 66 14 288 1 345 -4 17 -11 49 -17 72 -24 108 -94 256
-170 359 -59 81 -171 187 -252 241 -74 48 -227 121 -274 129 -15 3 -30 7 -34
10 -28 17 -345 44 -360 30z"/>
<path d="M820 4500 c-406 -86 -712 -391 -800 -800 -18 -82 -20 -282 -3 -375
62 -358 308 -652 652 -782 152 -57 363 -76 525 -47 414 73 740 389 825 799 36
171 20 395 -39 552 -90 241 -266 443 -485 555 -153 79 -279 110 -460 113 -94
2 -153 -3 -215 -15z"/>
<path d="M5820 4508 c-272 -43 -526 -204 -682 -432 -111 -161 -168 -341 -174
-541 -3 -147 5 -213 42 -335 113 -369 426 -642 806 -705 105 -18 300 -13 391
9 372 90 658 363 758 721 29 105 34 148 33 285 -1 276 -101 516 -297 711 -156
155 -324 242 -558 287 -59 11 -248 12 -319 0z"/>
<path d="M3388 2035 c-1 -1 -23 -5 -48 -9 -45 -6 -51 -7 -105 -20 -91 -23
-224 -84 -305 -139 -67 -46 -89 -65 -162 -139 -192 -193 -292 -453 -284 -733
4 -135 15 -196 52 -305 119 -343 404 -593 764 -670 74 -16 258 -20 347 -9 80
10 231 57 308 97 337 170 549 504 560 882 9 292 -91 545 -295 750 -152 153
-356 257 -565 289 -56 8 -259 13 -267 6z"/>
</g>
</svg>
