<svg version="1.1" xmlns="http://www.w3.org/2000/svg" xmlns:xlink="http://www.w3.org/1999/xlink" x="0px" y="0px" viewBox="0 0 18 8">
  <g fill="#c8102e" aria-label="DNS" transform="translate(4.635 2.161)">
    <path d="M1.206 1.783q0 1.448-.824 2.184-.824.728-2.296.728H-3.53v-5.712h1.792q.896 0 1.552.32.664.32 1.024.944.368.624.368 1.536zm-1.256.032q0-.944-.416-1.392-.416-.448-1.208-.448h-.648v3.72h.52q1.752 0 1.752-1.88z"/>
    <path d="M7.456 4.695H5.92L3.432.375H3.4l.032.816q.024.408.04.816v2.688h-1.08v-5.712H3.92l2.48 4.28h.024l-.032-.784q-.016-.392-.024-.792v-2.704h1.088z"/>
    <path d="M12.26 3.111q0 .76-.552 1.216-.544.448-1.552.448-.904 0-1.616-.344V3.303q.408.176.84.328.44.144.872.144.448 0 .632-.168.192-.176.192-.44 0-.216-.152-.368-.144-.152-.392-.28-.248-.136-.568-.288-.2-.096-.432-.224-.232-.136-.448-.328-.208-.2-.344-.48-.136-.28-.136-.672 0-.768.52-1.192.52-.432 1.416-.432.448 0 .848.104.4.104.848.296l-.392.944q-.392-.16-.704-.248-.312-.088-.64-.088-.344 0-.528.16-.184.16-.184.416 0 .304.272.48t.808.432q.44.208.744.432.312.224.48.528.168.304.168.752z"/>
  </g>
</svg>
