<svg xmlns="http://www.w3.org/2000/svg" viewBox="0 0 94 18">
  <g fill="#fff" stroke-width=".27716264" aria-label="GRAND" font-family="Noto Sans" font-size="54.41492462" font-weight="700" letter-spacing="0" style="line-height:1.25;-inkscape-font-specification:'Noto Sans Bold'" word-spacing="0">
    <path fill="#412297" fill-rule="evenodd" d="M.11910465 5.20427876h93.76179538v7.03965333H.11910465z"/>
    <g fill="#ccc" aria-label="GRAND" style="line-height:1.25;-inkscape-font-specification:'Noto Sans Bold'">
      <path d="M15.17360546 8.27116068h6.38954267v8.35377676q-1.26438218.42898044-2.64162228.67733426-1.35466852.24835797-3.09313697.24835797-3.61244939 0-5.55414508-2.12231401-1.9416957-2.12230987-1.9416957-6.18631128 0-2.52871043.9708686-4.38008659.99339868-1.85138031 2.86733813-2.86737963Q14.04473577.97853885 16.7540728.97853885q1.28691228 0 2.52868138.2709337 1.2418106.2709337 2.25778087.72248988l-1.12886969 2.73190863q-.74506976-.38382068-1.69332528-.6321745-.948297-.24835797-1.98683886-.24835797-1.49013953 0-2.59647912.67733426-1.08372652.67733426-1.69332528 1.91911167-.58702717 1.21919752-.58702717 2.88995536 0 1.58044246.42898459 2.79964412.42898458 1.21919752 1.35466852 1.91911167.92568393.67733426 2.41582345.67733426.72249818 0 1.21919752-.0677355.51931242-.06773135.94825552-.15804259v-3.36409142h-3.0479938zM30.11130608 1.20431694q3.29632272 0 4.85421849 1.19662178 1.58042586 1.19662179 1.58042586 3.63502097 0 1.1063147-.42898459 1.94169155-.40637151.81279696-1.1062981 1.39981999-.677355.5644473-1.46756794.92568808l4.74136057 7.02169228h-3.79306356L30.6531486 11.1385403H28.8243523v6.18631128h-3.40922214V1.20431694zm-.24837042 2.79964412H28.8243523v4.35751085h1.1062981q1.69336677 0 2.41582346-.56444314.74506976-.56444314.74506976-1.67075784 0-1.15146617-.79021293-1.62559808-.76764135-.49671179-2.43839504-.49671179zM50.18644879 17.32485159l-1.17405435-3.83822333h-5.87018877l-1.17405435 3.83822333h-3.68016414l5.6895746-16.188266h4.17690497l5.71218767 16.188266zm-1.98683887-6.70560296L47.02555557 6.8713407q-.11285792-.38382482-.29351358-.97084785-.18061418-.58701887-.36122835-1.19662178-.18061417-.60959876-.29351358-1.06115494-.11289942.45155618-.31608518 1.12889044-.18061417.65475437-.36122834 1.26435313-.15804258.58702303-.24837042.835381l-1.15148276 3.74790794zM70.17802684 17.32485159h-4.33494756l-7.02167153-12.1920001h-.09032783q.04518466 1.15146617.09032783 2.30293234.06771476 1.15146617.11289942 2.30293234v7.58613542h-3.0480353V1.20431694h4.31237599L67.1977478 13.2834259h.06775625q-.02240562-1.12888629-.06775625-2.23519684-.04514317-1.10631055-.09028634-2.21262525V1.20431694h3.07056538zM87.59677616 9.10653753q0 4.0865813-2.32549562 6.16373554-2.30296553 2.05457852-6.47982902 2.05457852h-4.5607049V1.20431694h5.05740424q2.52872287 0 4.38009074.90311234 1.87393945.9031082 2.88995121 2.66417728 1.03858335 1.7384892 1.03858335 4.33493097zm-3.54469314.09031123q0-2.686753-1.17405435-3.92853041-1.17405435-1.26435729-3.40926364-1.26435729h-1.82879627v10.49866652h1.46756793q4.94454633 0 4.94454633-5.30577882z" style="-inkscape-font-specification:'Noto Sans Bold'"/>
    </g>
    <path d="M14.64443818 7.7419934h6.38954267v8.35377676q-1.26438218.42898044-2.64162228.67733426-1.35466852.24835797-3.09313697.24835797-3.6124494 0-5.55414509-2.12231402-1.9416957-2.12230986-1.9416957-6.18631127 0-2.52871043.9708686-4.38008659.99339869-1.85138031 2.86733814-2.86737963Q13.51556849.44937157 16.22490553.44937157q1.28691227 0 2.52868138.2709337 1.2418106.2709337 2.25778087.72248988l-1.1288697 2.73190862q-.74506975-.38382067-1.69332527-.63217449-.948297-.24835797-1.98683887-.24835797-1.49013952 0-2.59647911.67733426-1.08372652.67733426-1.69332528 1.91911166-.58702718 1.21919752-.58702718 2.88995537 0 1.58044245.4289846 2.79964412.42898458 1.21919752 1.35466851 1.91911167.92568394.67733426 2.41582346.67733426.72249817 0 1.21919752-.0677355.51931242-.06773136.94825551-.1580426v-3.3640914h-3.0479938zM29.5821388.67514965q3.29632272 0 4.85421849 1.19662179 1.58042586 1.19662178 1.58042586 3.63502097 0 1.1063147-.42898459 1.94169155-.40637151.81279696-1.1062981 1.39981999-.677355.56444729-1.46756794.92568808l4.74136057 7.02169227h-3.79306356l-3.83824822-6.18631128h-1.82879628v6.18631128h-3.40922214V.67514965zm-.24837042 2.79964413h-1.03858335v4.35751085h1.1062981q1.69336677 0 2.41582346-.56444314.74506976-.56444314.74506976-1.67075784 0-1.15146617-.79021293-1.62559808-.76764135-.49671179-2.43839504-.49671179zM49.6572815 16.7956843l-1.17405434-3.83822332h-5.87018877l-1.17405435 3.83822332H37.7588199L43.4483945.6074183h4.17690497l5.71218767 16.188266zm-1.98683886-6.70560295l-1.17405435-3.74790794q-.11285792-.38382482-.29351359-.97084785-.18061417-.58701888-.36122834-1.19662179-.18061417-.60959876-.29351359-1.06115493-.11289941.45155617-.31608517 1.12889044-.18061417.65475437-.36122834 1.26435313-.15804259.58702303-.24837042.835381l-1.15148276 3.74790794zM69.64885956 16.7956843H65.313912L58.29224047 4.60368421h-.09032783q.04518466 1.15146617.09032783 2.30293234.06771475 1.15146617.11289942 2.30293234v7.58613541h-3.0480353V.67514965h4.31237598l6.99909995 12.07910897h.06775625q-.02240562-1.12888628-.06775625-2.23519683-.04514317-1.10631055-.09028634-2.21262525V.67514965h3.07056538zM87.06760888 8.57737024q0 4.0865813-2.32549563 6.16373555-2.30296553 2.05457851-6.47982901 2.05457851h-4.5607049V.67514965h5.05740424q2.52872287 0 4.38009074.90311235 1.87393944.9031082 2.8899512 2.66417728 1.03858336 1.73848919 1.03858336 4.33493096zm-3.54469315.09031124q0-2.68675301-1.17405435-3.92853041-1.17405434-1.26435729-3.40926363-1.26435729h-1.82879628v10.49866651h1.46756794q4.94454632 0 4.94454632-5.30577881z" style="-inkscape-font-specification:'Noto Sans Bold'"/>
  </g>
</svg>
