<svg xmlns="http://www.w3.org/2000/svg" viewBox="0 0 110 18">
  <path fill="#fee300" fill-rule="evenodd" d="M23.196684 5.21559h63.606632v7.0396533H23.196684z"/>
  <g fill="#ccc" stroke-width=".27716264" aria-label="MEN" font-family="Noto Sans" font-size="54.41492462" font-weight="700" letter-spacing="0" style="line-height:1.25;-inkscape-font-specification:'Noto Sans Bold'" word-spacing="0">
    <path d="M38.22435454 17.32485105L34.34096314 4.6812948h-.09028633q.02240561.45155617.06771475 1.35466437.04514317.90311235.09032783 1.94169155.04514317 1.01599931.04514317 1.85137616v7.49582418h-3.0479938V1.2043164h4.65103274l3.81563515 12.32746694h.06771475L43.98168538 1.2043164h4.65103273v16.12053465h-3.1834648V9.69356002q0-.7676455.02240562-1.76106493.04514317-.99342358.06771476-1.87395604.04518466-.90311235.06775624-1.35466853h-.09032783l-4.1542919 12.62098053zM61.984267 17.32485105h-9.2794524V1.2043164h9.2794524v2.79964413h-5.87018877v3.54470974h5.46381725v2.79964413h-5.46381725v4.15431264h5.87018876zM79.65246551 17.32485105h-4.33494756L68.29584642 5.13285096h-.09032783q.04514317 1.15146617.09032783 2.30293234.06771475 1.15146617.11285792 2.30293234v7.58613541h-3.0479938V1.2043164h4.31237598l6.99909995 12.07910897h.06775624q-.02240561-1.12888628-.06775624-2.23519683-.04514317-1.10631055-.09028634-2.21262525V1.2043164h3.07056538z" style="-inkscape-font-specification:'Noto Sans Bold'"/>
  </g>
  <g fill="#fff" stroke-width=".27716264" aria-label="MEN" font-family="Noto Sans" font-size="54.41492462" font-weight="700" letter-spacing="0" style="line-height:1.25;-inkscape-font-specification:'Noto Sans Bold'" word-spacing="0">
    <path d="M37.69518787 16.79568439L33.81179648 4.15212812h-.09028634q.02240562.45155618.06771476 1.35466437.04514317.90311235.09032783 1.94169155.04514317 1.01599932.04514317 1.85137616v7.49582419h-3.0479938V.67514974h4.65103274l3.81563514 12.32746694h.06771476L43.4525187.67514974h4.65103274v16.12053465h-3.1834648V9.16439335q0-.7676455.02240562-1.76106493.04514317-.99342358.06771475-1.87395604.04518466-.90311235.06775625-1.35466852h-.09032783l-4.1542919 12.62098053zM61.45510033 16.79568439h-9.2794524V.67514974h9.2794524v2.79964412h-5.87018877V7.0195036h5.46381725v2.79964413h-5.46381725v4.15431265h5.87018877zM79.12329885 16.79568439h-4.33494757l-7.02167153-12.1920001h-.09032783q.04514317 1.15146617.09032783 2.30293234.06771476 1.15146617.11285793 2.30293234v7.58613542h-3.0479938V.67514974h4.31237598L76.1430198 12.7542587h.06775625q-.02240562-1.12888629-.06775625-2.23519684-.04514317-1.10631055-.09028634-2.21262525V.67514974h3.07056539z" style="-inkscape-font-specification:'Noto Sans Bold'"/>
  </g>
</svg>
