<?xml version="1.0" encoding="UTF-8" standalone="no"?>
<svg
   xmlns:dc="http://purl.org/dc/elements/1.1/"
   xmlns:cc="http://creativecommons.org/ns#"
   xmlns:rdf="http://www.w3.org/1999/02/22-rdf-syntax-ns#"
   xmlns:svg="http://www.w3.org/2000/svg"
   xmlns="http://www.w3.org/2000/svg"
   xml:space="preserve"
   viewBox="0 0 18 8"
   y="0px"
   x="0px"
   id="Calque_1"
   version="1.1"
   width="18"
   height="8"><metadata
   id="metadata65"><rdf:RDF><cc:Work
       rdf:about=""><dc:format>image/svg+xml</dc:format><dc:type
         rdf:resource="http://purl.org/dc/dcmitype/StillImage" /><dc:title></dc:title></cc:Work></rdf:RDF></metadata><defs
   id="defs63" />
<style
   id="style2"
   type="text/css">
	.st0{fill:#c8102e;}
</style>

<g
   id="g48"
   transform="translate(0,-10)">
</g>
<g
   id="g50"
   transform="translate(0,-10)">
</g>
<g
   id="g52"
   transform="translate(0,-10)">
</g>
<g
   id="g54"
   transform="translate(0,-10)">
</g>
<g
   id="g56"
   transform="translate(0,-10)">
</g>
<g
   id="g58"
   transform="translate(0,-10)">
</g>
<g
   id="flowRoot823"
   style="font-style:normal;font-variant:normal;font-weight:bold;font-stretch:normal;font-size:8px;line-height:1.25;font-family:'Noto Sans';-inkscape-font-specification:'Noto Sans Bold';letter-spacing:0px;word-spacing:0px;fill:#ff8200;fill-opacity:1;stroke:none"
   transform="translate(6.688,1.5249829)"
   aria-label="NQ"><path
     id="path941"
     d="M 1.534,4.6950171 H -0.002 L -2.49,0.37501709 h -0.032 q 0.016,0.408 0.032,0.81600001 0.024,0.408 0.04,0.816 v 2.688 h -1.08 v -5.712 h 1.528 l 2.48,4.28 h 0.024 q -0.016,-0.392 -0.032,-0.784 -0.016,-0.392 -0.024,-0.792 v -2.704 h 1.088 z" /><path
     id="path943"
     d="m 8.154,1.8310171 q 0,0.96 -0.344,1.664 -0.344,0.704 -1.064,1.024 l 1.376,1.536 H 6.57 l -1.048,-1.28 H 5.434 q -0.928,0 -1.536,-0.368 -0.6,-0.368 -0.896,-1.032 -0.288,-0.664 -0.288,-1.552 0,-0.88800001 0.288,-1.54400001 0.296,-0.656 0.896,-1.016 0.608,-0.36799999 1.544,-0.36799999 0.928,0 1.528,0.36799999 0.6,0.36 0.888,1.024 0.296,0.656 0.296,1.54400001 z m -4.168,0 q 0,0.896 0.344,1.416 0.344,0.512 1.104,0.512 0.776,0 1.112,-0.512 0.336,-0.52 0.336,-1.416 0,-0.89600001 -0.336,-1.40800001 -0.336,-0.52 -1.104,-0.52 -0.768,0 -1.112,0.52 -0.344,0.512 -0.344,1.40800001 z" /></g></svg>