<?xml version="1.0" encoding="UTF-8" standalone="no"?>
<svg
   xmlns:dc="http://purl.org/dc/elements/1.1/"
   xmlns:cc="http://creativecommons.org/ns#"
   xmlns:rdf="http://www.w3.org/1999/02/22-rdf-syntax-ns#"
   xmlns:svg="http://www.w3.org/2000/svg"
   xmlns="http://www.w3.org/2000/svg"
   xmlns:xlink="http://www.w3.org/1999/xlink"
   id="svg8"
   version="1.1"
   viewBox="0 0 33.866666 33.866666"
   height="128"
   width="128">
  <defs
     id="defs2">
    <linearGradient
       id="linearGradient19088">
      <stop
         id="stop19084"
         offset="0"
         style="stop-color:#000000;stop-opacity:0.21176471" />
      <stop
         style="stop-color:#000000;stop-opacity:0.14901961"
         offset="0.13636364"
         id="stop19096" />
      <stop
         style="stop-color:#ffffff;stop-opacity:0.23391813"
         offset="0.25927541"
         id="stop19092" />
      <stop
         id="stop19098"
         offset="0.47287515"
         style="stop-color:#000000;stop-opacity:0.23529412" />
      <stop
         id="stop19094"
         offset="0.78375793"
         style="stop-color:#ffffff;stop-opacity:0.14901961" />
      <stop
         id="stop19086"
         offset="1"
         style="stop-color:#ffffff;stop-opacity:0.23529412" />
    </linearGradient>
    <linearGradient
       y2="38"
       x2="125"
       y1="53"
       x1="15"
       gradientTransform="matrix(0.26458333,0,0,0.26458333,-1.4199259,267.5149)"
       gradientUnits="userSpaceOnUse"
       id="linearGradient19656"
       xlink:href="#linearGradient19088" />
  </defs>
  <metadata
     id="metadata5">
    <rdf:RDF>
      <cc:Work
         rdf:about="">
        <dc:format>image/svg+xml</dc:format>
        <dc:type
           rdf:resource="http://purl.org/dc/dcmitype/StillImage" />
        <dc:title></dc:title>
      </cc:Work>
    </rdf:RDF>
  </metadata>
  <g
     transform="translate(0,-263.13334)"
     id="layer1">
    <g
       transform="translate(-70.211508,-43.243337)"
       id="g8392">
      <path
         id="rect5400-3-1-4"
         d="m 100.36563,332.34499 c 0.24023,-1.52752 0.52949,-3.01866 0.73776,-4.52489 -1.538295,0.15849 -3.004923,0.55014 -4.53586,0.81423 -0.186498,1.66916 -0.445522,3.35749 -0.642396,5.06058 1.609395,-0.28646 2.935285,-0.81478 4.440496,-1.34992 z"
         style="fill:#2d2926;fill-opacity:1;stroke:none;stroke-width:0.45475253" />
      <path
         id="rect5402-4-9-5"
         d="m 101.10339,327.8201 c 0.2118,-1.53185 0.33389,-2.99843 0.32238,-4.55635 -1.52288,-0.0395 -3.086297,0.2562 -4.573166,0.48387 0.0136,1.60568 -0.09475,3.18321 -0.285074,4.88671 1.530937,-0.26409 2.997565,-0.65574 4.53586,-0.81423 z"
         style="fill:#ffffff;fill-opacity:1;stroke:none;stroke-width:0.45475253" />
      <path
         id="rect5410-7-4-1"
         d="m 101.42577,323.26375 c -0.0116,-1.56284 -0.15607,-3.03803 -0.40008,-4.59302 -1.4782,0.0181 -3.0422,0.39863 -4.531037,0.67858 0.209688,1.37609 0.344285,2.79056 0.357951,4.39831 1.486869,-0.22767 3.050286,-0.52341 4.573166,-0.48387 z"
         style="fill:#2d2926;fill-opacity:1;stroke:none;stroke-width:0.45475253" />
      <path
         id="rect5412-2-5-7"
         d="m 101.02569,318.67073 c -0.23888,-1.52237 -0.56859,-3.02522 -0.80869,-4.48499 -1.394474,0.44709 -2.809718,1.17034 -4.320713,1.66106 0.125139,0.97965 0.394419,2.16412 0.598366,3.50251 1.488837,-0.27995 3.052837,-0.66042 4.531037,-0.67858 z"
         style="fill:#ffffff;fill-opacity:1;stroke:none;stroke-width:0.45475253" />
      <path
         id="rect5422-2-0-5"
         d="m 95.896292,315.8468 c 0.12514,0.97965 0.394418,2.1641 0.598366,3.5025 -0.649902,0.12216 -1.296051,0.22987 -1.960935,0.30476 -0.319764,0.036 -0.643268,0.0624 -0.972258,0.0774 -0.620438,0.0217 -1.233677,0.013 -1.854011,-0.0249 -0.196607,-1.25138 -0.452551,-2.48227 -0.433854,-3.31248 0.59092,0.0554 1.180386,0.066 1.778441,0.0282 0.300619,-0.0182 0.601526,-0.0518 0.902515,-0.0989 0.657955,-0.10262 1.303324,-0.26933 1.941736,-0.47666 z"
         style="fill:#2d2926;fill-opacity:1;stroke:none;stroke-width:0.45475253" />
      <path
         id="rect5424-4-6-7"
         d="m 96.494658,319.3493 c 0.209687,1.37609 0.344285,2.79057 0.357953,4.39832 -0.648647,0.0993 -1.287676,0.18858 -1.948002,0.25305 -0.317335,0.0311 -0.638232,0.0547 -0.96549,0.0689 -0.616214,0.02 -1.22547,0.0149 -1.843689,-0.0145 -0.0207,-1.61938 -0.174261,-2.98846 -0.387976,-4.34873 0.620334,0.0379 1.233573,0.0466 1.854011,0.0249 0.32899,-0.0151 0.652494,-0.0414 0.972258,-0.0774 0.664884,-0.0748 1.311033,-0.18255 1.960935,-0.30476 z"
         style="fill:#ffffff;fill-opacity:1;stroke:none;stroke-width:0.45475253" />
      <path
         id="rect5432-7-6-1"
         d="m 96.852611,323.74762 c 0.0136,1.60568 -0.09474,3.1832 -0.285074,4.8867 -0.648001,0.11173 -1.293498,0.20187 -1.952903,0.25644 -0.318082,0.0268 -0.639423,0.0442 -0.966363,0.0514 -0.615116,0.006 -1.223874,-0.0168 -1.839632,-0.0653 0.191832,-1.67211 0.307437,-3.20593 0.286791,-4.82154 0.618219,0.0291 1.227475,0.0342 1.843689,0.0145 0.327258,-0.0145 0.648155,-0.0378 0.96549,-0.0689 0.660326,-0.0644 1.299355,-0.15374 1.948002,-0.25304 z"
         style="fill:#2d2926;fill-opacity:1;stroke:none;stroke-width:0.45475253" />
      <path
         id="rect5434-1-1-6"
         d="m 96.567537,328.63432 c -0.186498,1.66916 -0.445522,3.3575 -0.642397,5.06059 -0.647375,0.11521 -1.297843,0.18078 -1.952255,0.18334 -0.305995,0.001 -0.611259,-0.009 -0.9173,-0.0285 -0.595587,-0.0417 -1.183117,-0.12187 -1.77309,-0.23221 0.08566,-1.42101 0.351752,-3.22055 0.526144,-4.74064 0.615758,0.0485 1.224516,0.0715 1.839632,0.0653 0.32694,-0.007 0.648281,-0.0246 0.966363,-0.0514 0.659405,-0.0546 1.304902,-0.14459 1.952903,-0.25645 z"
         style="fill:#ffffff;fill-opacity:1;stroke:none;stroke-width:0.45475253" />
      <path
         id="rect5452-7-3-9"
         d="m 91.282501,333.61751 c 0.08566,-1.42102 0.35175,-3.22054 0.526142,-4.74063 -1.387189,-0.10928 -2.710228,-0.33999 -4.085735,-0.60082 -0.229305,-0.0463 -0.457814,-0.0933 -0.685598,-0.14025 -0.16699,1.46597 -0.384735,3.0003 -0.321967,4.26389 0.221605,0.0651 0.442623,0.13085 0.663804,0.19679 1.311595,0.38727 2.576629,0.77295 3.903354,1.02103 z"
         style="fill:#2d2926;fill-opacity:1;stroke:none;stroke-width:0.45475253" />
      <path
         id="rect5454-6-7-8"
         d="m 91.808643,328.87688 c 0.191834,-1.6721 0.307438,-3.20594 0.286793,-4.82155 -1.395164,-0.0656 -2.717196,-0.24719 -4.097727,-0.47329 -0.229497,-0.0405 -0.457768,-0.0819 -0.685214,-0.12375 0.02633,1.64631 -0.09415,3.08825 -0.275185,4.67747 0.227784,0.0469 0.456293,0.0939 0.685598,0.14025 1.375507,0.26083 2.698546,0.49149 4.085735,0.60081 z"
         style="fill:#ffffff;fill-opacity:1;stroke:none;stroke-width:0.45475253" />
      <path
         id="rect5462-8-5-1"
         d="m 92.095436,324.05533 c -0.0207,-1.61937 -0.17426,-2.98845 -0.387973,-4.3487 -1.398362,-0.0857 -2.726025,-0.31346 -4.105857,-0.6077 -0.230009,-0.0518 -0.45881,-0.10508 -0.686891,-0.15911 0.204947,1.49758 0.371165,2.85453 0.39778,4.51852 0.227446,0.0418 0.455717,0.0832 0.685214,0.12375 1.380531,0.22609 2.702563,0.40765 4.097727,0.47329 z"
         style="fill:#2d2926;fill-opacity:1;stroke:none;stroke-width:0.45475253" />
      <path
         id="rect5464-0-4-3"
         d="m 91.707463,319.70663 c -0.196609,-1.2514 -0.452555,-2.48227 -0.433857,-3.3125 -1.327755,-0.12447 -2.591629,-0.46851 -3.887168,-0.92436 -0.219573,-0.0766 -0.438696,-0.15569 -0.657807,-0.23682 -0.204545,1.00301 -0.0012,2.3387 0.186084,3.70687 0.228081,0.0541 0.456882,0.10725 0.686891,0.15911 1.379832,0.29424 2.707495,0.52207 4.105857,0.6077 z"
         style="fill:#ffffff;fill-opacity:1;stroke:none;stroke-width:0.45475253" />
      <path
         id="rect5474-5-0-3"
         d="m 86.728637,315.23297 c -0.204544,1.00299 -0.0012,2.33868 0.186082,3.70685 -0.275897,-0.0654 -0.549942,-0.132 -0.822901,-0.19862 -1.319222,-0.30332 -2.54108,-0.59646 -3.793071,-0.79327 -0.200963,-1.53136 -0.40576,-3.11737 -0.09535,-4.44302 1.285323,0.42033 2.488667,0.94192 3.731271,1.42705 0.26451,0.10204 0.528917,0.20286 0.793966,0.30101 z"
         style="fill:#2d2926;fill-opacity:1;stroke:none;stroke-width:0.45475253" />
      <path
         id="rect5476-9-7-3"
         d="m 86.914719,318.93982 c 0.204948,1.49758 0.371166,2.85453 0.397784,4.51852 -0.275018,-0.0505 -0.54844,-0.10161 -0.820251,-0.1523 -1.321356,-0.22713 -2.525062,-0.42762 -3.755942,-0.54105 -0.02746,-1.7267 -0.215405,-3.12419 -0.437563,-4.81706 1.251991,0.19681 2.473849,0.48995 3.793071,0.79327 0.272959,0.0667 0.547004,0.13316 0.822901,0.19862 z"
         style="fill:#ffffff;fill-opacity:1;stroke:none;stroke-width:0.45475253" />
      <path
         id="rect5484-5-8-7"
         d="m 87.312503,323.45834 c 0.02633,1.64631 -0.09415,3.08823 -0.275186,4.67744 -2.650513,-0.54652 1.82756,0.377 -0.822955,-0.16953 -1.324641,-0.25214 -2.546171,-0.46323 -3.800025,-0.57698 0.20648,-1.53111 0.348823,-2.93582 0.321973,-4.62428 1.23088,0.11347 2.434586,0.31392 3.755942,0.54105 0.271811,0.0507 0.545233,0.10175 0.820251,0.1523 z"
         style="fill:#2d2926;fill-opacity:1;stroke:none;stroke-width:0.45475253" />
      <path
         id="rect5486-0-4-9"
         d="m 87.037317,328.13578 c -0.16699,1.46599 -0.384737,3.00031 -0.321969,4.26391 -0.268051,-0.0787 -0.535962,-0.15632 -0.80476,-0.23177 -1.27357,-0.35336 -2.507826,-0.64202 -3.799666,-0.79427 -0.123823,-1.15943 0.113416,-2.57545 0.303415,-3.98438 1.253854,0.11377 2.475384,0.32484 3.800025,0.57698 0.144086,0.0295 0.678865,0.14011 0.822955,0.16953 z"
         style="fill:#ffffff;fill-opacity:1;stroke:none;stroke-width:0.45475253" />
      <path
         id="rect5500-9-6-8"
         d="m 82.110942,331.37365 c -0.123822,-1.15943 0.113416,-2.57545 0.303413,-3.98436 -0.566013,-0.0514 -1.116981,-0.0808 -1.667198,-0.0871 -0.452489,-0.003 -0.88985,0.0145 -1.319987,0.0466 -0.421505,0.0412 -0.829266,0.0866 -1.242719,0.13446 -0.265803,1.38762 -0.646227,2.87008 -0.703786,4.01793 0.480589,-0.078 0.962563,-0.14199 1.450659,-0.18641 0.471968,-0.0408 0.945181,-0.0609 1.421803,-0.056 0.589224,0.007 1.171819,0.0457 1.757815,0.11478 z"
         style="fill:#2d2926;fill-opacity:1;stroke:none;stroke-width:0.45475253" />
      <path
         id="rect5502-0-8-6"
         d="m 82.414355,327.38929 c 0.206481,-1.53111 0.348824,-2.93583 0.321975,-4.6243 -0.554835,-0.0511 -1.092296,-0.0822 -1.627294,-0.0916 -0.440333,-0.006 -0.863643,0.007 -1.279766,0.0358 -0.407068,0.0363 -0.802237,0.077 -1.202458,0.12158 0.02957,1.68134 -0.152748,3.14072 -0.442361,4.65262 0.413453,-0.0479 0.821214,-0.0932 1.242719,-0.13446 0.430137,-0.0326 0.867498,-0.0495 1.319987,-0.0466 0.550217,0.006 1.101185,0.0358 1.667198,0.0871 z"
         style="fill:#ffffff;fill-opacity:1;stroke:none;stroke-width:0.45475253" />
      <path
         id="rect5510-7-6-7"
         d="m 82.73633,322.76499 c -0.02746,-1.72668 -0.215403,-3.12418 -0.437561,-4.81705 -0.565807,-0.0889 -1.118864,-0.15498 -1.671196,-0.19335 -0.45403,-0.0288 -0.894715,-0.0353 -1.329435,-0.0203 -0.425451,0.0224 -0.844695,0.0604 -1.262677,0.11218 0.325582,1.76178 0.561331,3.27698 0.591351,4.98429 0.400221,-0.0446 0.79539,-0.0854 1.202458,-0.12158 0.416123,-0.0281 0.839433,-0.0411 1.279766,-0.0358 0.534998,0.009 1.072459,0.0405 1.627294,0.0916 z"
         style="fill:#2d2926;fill-opacity:1;stroke:none;stroke-width:0.45475253" />
      <path
         id="rect5512-6-4-04"
         d="m 82.298769,317.94794 c -0.200963,-1.53136 -0.405763,-3.11737 -0.09535,-4.44303 -0.582262,-0.19042 -1.166566,-0.35487 -1.762253,-0.4825 -0.477834,-0.10348 -0.959011,-0.18271 -1.448098,-0.23354 -0.520712,-0.0551 -1.046031,-0.0612 -1.56926,-0.0221 -0.06887,1.64447 0.31303,3.46377 0.611651,5.07966 0.417983,-0.0517 0.837227,-0.0897 1.262678,-0.11217 0.43472,-0.0149 0.875405,-0.009 1.329434,0.0203 0.552332,0.0384 1.105389,0.10436 1.671196,0.19336 z"
         style="fill:#ffffff;fill-opacity:1;stroke:none;stroke-width:0.45475253" />
      <path
         id="rect5522-5-8-84"
         d="m 77.423816,312.76675 c -0.06887,1.64447 0.313026,3.46377 0.611648,5.07964 -1.307255,0.16179 -2.530197,0.474 -3.811438,0.70589 -0.408099,-1.64068 -0.874273,-2.87067 -1.360861,-4.35508 1.405529,-0.73063 2.858171,-1.30311 4.560651,-1.43045 z"
         style="fill:#2d2926;fill-opacity:1;stroke:none;stroke-width:0.45475253" />
      <path
         id="rect5524-0-7-8"
         d="m 78.035464,317.84639 c 0.325582,1.76179 0.561333,3.27701 0.591353,4.98431 -1.139556,0.12693 -2.557985,0.32459 -3.78284,0.37702 -0.01537,-1.58733 -0.234582,-3.10615 -0.619951,-4.65544 1.281241,-0.23189 2.504183,-0.5441 3.811438,-0.70589 z"
         style="fill:#ffffff;fill-opacity:1;stroke:none;stroke-width:0.45475253" />
      <path
         id="rect5532-2-7-1"
         d="m 78.626817,322.8307 c 0.02957,1.68134 -0.152747,3.1407 -0.442358,4.65261 -1.231837,0.14286 -2.581644,0.3253 -3.844003,0.33793 0.330079,-1.53098 0.518865,-3.02921 0.503521,-4.61352 1.224855,-0.0524 2.643284,-0.25004 3.78284,-0.37702 z"
         style="fill:#2d2926;fill-opacity:1;stroke:none;stroke-width:0.45475253" />
      <path
         id="rect5534-6-2-6"
         d="m 78.184459,327.48331 c -0.265804,1.38762 -0.646229,2.87009 -0.703788,4.01794 -1.504045,0.2443 -2.948118,0.63647 -4.344232,0.85351 0.442367,-1.61972 0.861553,-2.94507 1.204017,-4.53352 1.262359,-0.013 2.612166,-0.19509 3.844003,-0.33793 z"
         style="fill:#ffffff;fill-opacity:1;stroke:none;stroke-width:0.45475253" />
    </g>
    <path
       id="rect5400-3-1-98-8"
       d="m 7.9975871,269.49927 c -0.261822,-0.004 -0.523867,0.005 -0.785481,0.0243 -1.70248,0.12734 -3.154915,0.69977 -4.560445,1.4304 0.486588,1.48442 0.952541,2.7141 1.36064,4.35478 0.385369,1.54929 0.604746,3.0682 0.620117,4.65553 0.01534,1.58432 -0.17325,3.0827 -0.503328,4.61368 -0.342465,1.58845 -0.761694,2.91385 -1.204061,4.53357 1.396113,-0.21704 2.839876,-0.6094 4.343921,-0.85369 0.480588,-0.078 0.962461,-0.14214 1.450558,-0.18656 0.471968,-0.0408 0.945512,-0.0607 1.4221339,-0.0558 0.589224,0.007 1.17152,0.0457 1.757516,0.11473 1.29184,0.15225 2.526198,0.4409 3.799768,0.79426 0.268797,0.0754 0.53655,0.15333 0.804602,0.23203 0.221605,0.0651 0.442861,0.13043 0.664042,0.19637 1.311595,0.38727 2.576395,0.77305 3.903121,1.02113 0.589973,0.11034 1.177948,0.19084 1.773535,0.23254 0.306041,0.0195 0.611261,0.0294 0.917256,0.0284 0.654412,-0.003 1.304444,-0.0682 1.951819,-0.18345 1.609387,-0.28646 2.935337,-0.81465 4.440547,-1.34979 0.24023,-1.52752 0.52968,-3.01856 0.73795,-4.52479 0.2118,-1.53185 0.33397,-2.9989 0.32246,-4.55682 -0.0116,-1.56284 -0.15598,-3.03801 -0.39998,-4.593 -0.23888,-1.52238 -0.56863,-3.02523 -0.80874,-4.485 -1.39447,0.44709 -2.80967,1.17067 -4.320659,1.66139 -0.638413,0.20733 -1.284045,0.37384 -1.942,0.47646 -0.300989,0.0471 -0.601652,0.0805 -0.902271,0.0987 -0.598055,0.0378 -1.187782,0.0275 -1.778702,-0.0279 -1.327756,-0.12447 -2.591563,-0.46864 -3.887102,-0.92449 -0.219573,-0.0766 -0.43873,-0.15555 -0.657841,-0.23668 -0.265049,-0.0982 -0.529239,-0.19923 -0.79375,-0.30127 -1.242603,-0.48513 -2.446232,-1.00646 -3.731555,-1.42679 -0.582262,-0.19042 -1.166479,-0.35503 -1.762166,-0.48266 -0.4778339,-0.10348 -0.9588869,-0.18275 -1.4479729,-0.23358 -0.260356,-0.0276 -0.522109,-0.0425 -0.783932,-0.046 z m 17.6738569,11.14454 c -0.323379,0.0428 -0.648072,0.0815 -0.978236,0.1137 -0.317335,0.0311 -0.638574,0.0542 -0.965832,0.0687 0.327258,-0.0142 0.648497,-0.0381 0.965832,-0.0693 0.330164,-0.0322 0.654857,-0.0704 0.978236,-0.11317 z m -6.121591,4.74597 c 0.676097,0.10394 1.353826,0.18874 2.047421,0.2434 0.307878,0.0242 0.613791,0.0422 0.91984,0.0532 -0.306049,-0.011 -0.611962,-0.0285 -0.91984,-0.0527 -0.693595,-0.0546 -1.371324,-0.13997 -2.047421,-0.24392 z m 4.853451,0.25734 c -0.318082,0.0268 -0.639926,0.0447 -0.966867,0.0517 0.326941,-0.007 0.648785,-0.0249 0.966867,-0.0517 z"
       style="fill:url(#linearGradient19656);fill-opacity:1;stroke:none;stroke-width:0.45475253" />
    <flowRoot
       transform="matrix(0.26458333,0,0,0.26458333,0,263.13334)"
       style="font-style:normal;font-variant:normal;font-weight:normal;font-stretch:normal;font-size:40px;line-height:1.25;font-family:Cantarell;-inkscape-font-specification:Cantarell;letter-spacing:0px;word-spacing:0px;fill:#000000;fill-opacity:1;stroke:none"
       id="flowRoot8480"
       xml:space="preserve"><flowRegion
         id="flowRegion8482"><rect
           y="-112"
           x="-150"
           height="140"
           width="230"
           id="rect8484" /></flowRegion><flowPara
         style="fill:#ff0000"
         id="flowPara8488" /></flowRoot>  </g>
</svg>
