<svg xmlns="http://www.w3.org/2000/svg" xmlns:xlink="http://www.w3.org/1999/xlink" viewBox="0 0 360 240">
  <defs>
    <clipPath id="b">
      <path d="M0 0v1.5h7V3H6zm6 0H3v3.5H0V3z"/>
    </clipPath>
    <path id="a" d="M0-360l69.421 215.845 212.038-80.301L155.99-35.603l194.985 115.71-225.881 19.651 31.105 224.59L0 160l-156.198 164.349 31.105-224.59-225.881-19.651 194.986-115.711-125.471-188.853 212.038 80.301z"/>
    <path id="d" d="M0-210L54.86-75.508l144.862 10.614L88.765 28.842l34.67 141.052L0 93.334l-123.435 76.56 34.67-141.052-110.957-93.736L-54.86-75.508z"/>
    <use id="c" width="100%" height="100%" transform="scale(2.1)" xlink:href="#a"/>
  </defs>
  <path fill="#012169" d="M3.9804338 34.975532h356.019552v178.009776H3.9804338z"/>
  <path stroke="#fff" stroke-width="17.80128" d="M3.9804338 34.975532l178.009776 89.004888m0-89.004888L3.9804338 123.98042"/>
  <path stroke="#e4002b" stroke-width=".40000001" d="M0 0l6 3m0-3L0 3" clip-path="url(#b)" transform="matrix(29.6683 0 0 29.6683 3.9804338 34.975532)"/>
  <path stroke="#fff" stroke-width="29.668799999999997" d="M92.9853218 34.975532v103.839036M3.9804338 79.477976h207.678072"/>
  <path stroke="#e4002b" stroke-width="17.80128" d="M92.9853218 34.975532v103.839036M3.9804338 79.477976h207.678072"/>
  <path fill="#012169" d="M3.9804338 123.98042h178.009776V34.975532h59.336592v118.673184H3.9804338z"/>
  <g fill="#fff" transform="matrix(.03532 0 0 .03532 3.9804338 34.975532)">
    <use width="100%" height="100%" x="2520" y="3780" xlink:href="#c"/>
    <use width="100%" height="100%" x="7560" y="4200" xlink:href="#a"/>
    <use width="100%" height="100%" x="6300" y="2205" xlink:href="#a"/>
    <use width="100%" height="100%" x="7560" y="840" xlink:href="#a"/>
    <use width="100%" height="100%" x="8680" y="1869" xlink:href="#a"/>
    <use width="100%" height="100%" x="8064" y="2730" xlink:href="#d"/>
  </g>
</svg>
