<svg xmlns="http://www.w3.org/2000/svg" width="360" height="240">
  <path fill="#198a00" d="M0 0h360v240H0z"/>
  <path fill="#de2010" d="M231.42857 85.71428h85.71429V240h-85.71429z"/>
  <path fill="#ef7d00" d="M274.28571 85.71428H360V240H274.2857z"/>
  <path d="M274.28571 85.71428h42.85715V240H274.2857z"/>
  <g fill="#ef7d00" stroke="#000" stroke-linecap="round" stroke-linejoin="round" stroke-width="2.25">
    <path stroke-width=".3857175" d="M328.52991 28.85732s14.7432-5.77815 16.17168-6.96958c.64965.71482-5.91024 7.98228-18.63972 10.6629 11.5604-2.50192 21.4326-10.36508 23.44596-10.12679.58456.11914.45436 7.68442-26.04387 14.23703 18.31491-4.40814 28.96628-12.50953 28.83641-11.61599.12987.1787-1.8184 6.37389-17.86023 11.19899 4.48141-.95324 16.62639-7.74398 16.49652-6.43343.38958.5361-11.75538 14.8326-33.70742 10.1864 17.53572 4.16976 28.90118-5.89746 30.52495-5.71874.32482.05956-3.24755 8.81621-25.32914 9.35236 10.5866-1.01259 7.53369-.0597 7.53369-.0597s-6.23507 4.46767-13.76874 1.42992c5.91023 1.48933 6.55953 1.54873 6.68942 2.02517-.3896.59555-5.26061 1.48933-9.93665-.83408 3.76668 1.42963 7.14408 1.66815 7.20886 2.2043-.06478.1785-2.46773 1.42962-4.61095.53614-2.14323-.89378-21.88728-12.03306-21.88728-12.03306l33.64266-8.45882zM288.9793 58.98947c-2.95834 0-3.03998 2.41458-3.03998 2.41458s-.24416.17435-.08129 1.34467c.48839-.79694.7329-1.04586.7329-1.04586.32578.04991 1.6827.42328 3.8269-1.12011-1.95443 1.86686-.78696 2.564-.78696 2.564s-.46145 1.46882 1.03116 1.76764c-.46118-.59763-.1898-1.12041-.1898-1.12041s2.0898-.19901 1.95412-2.53904c.0816 2.11576 1.33003 2.63854 1.33003 2.63854s0 1.17001 1.35693 1.26982c-.73253-.59764-.56999-1.51873-.56999-1.51873s1.76433-1.17001.27141-3.16161c.89575-.4732 1.62862-1.7923 1.62862-1.7923s-1.22122-.47318-1.7912-.8712c-.27172-.52309-.0272-3.38589-.0272-3.38589l-.73288-3.70935-2.09011 5.77582c.08127-.82161.1357 2.48943-2.82266 2.48943z"/>
    <path stroke-width=".3857175" d="M303.59036 50.65947c.06477.0597 2.20831 2.26398 4.28647 2.14458.77916-.59556-1.62379-1.90606-1.62379-2.20399.84427.71495 4.41633 3.5145 6.68973 2.5019.90903-1.19138-1.62377-1.01258-4.41663-4.22945 1.94826 1.1914 6.8196 3.81243 9.09267 2.79985.97445-.95319-5.06595-3.93185-7.07931-6.25494l-5.19549-2.4422-7.07933 5.30175zM295.60198 32.5506s2.40297-1.3105 12.0151-.65525c1.03924.1191 6.55956-1.72749 8.3132-2.26361 2.79253-.47656 11.69027-2.26365 14.09353-3.9316 1.68855-.17868-.455 2.85934-2.59788 3.57415-2.27343.95313-10.52151 3.57417-13.44427 3.21675 3.5073.0596 1.55902 2.6806-4.28643 1.42965 2.79286 1.42965 1.75363 1.66793 1.75363 1.66793s-4.93578.23828-6.23472-.7744c3.31232 1.13183 1.94826 1.5488 1.94826 1.5488s-3.37707.29784-4.9361-.35742c2.40297.65526 1.1691 1.07226 1.1691 1.07226s-1.94827.29784-3.57204-.23827c-1.62346-.53612-4.0915-4.28899-4.22138-4.28899zM299.45612 51.89423l.353 5.82542s-.1901.29882-.353.47318c-.1629.17406-4.5057-.62258-3.90853 2.41457 0 1.24487.0272 1.56834.95017 2.26548-.2445-.8216-.16289-1.39398-.16289-1.39398s1.22123.67219 2.41559-1.17001c-.81417 1.81725-.24453 2.46449-.05442 2.51438.1901.32377-.32547 1.7923 1.30284 1.76736-.62405-.54774-.32547-1.34439-.32547-1.34439s1.70993-.24861 1.11274-3.08676c.62438-.57268.86856-.02495.86856-.02495s.1898 1.6928 1.68273 1.34437c.67879.34842-.10848 1.26951-.10848 1.26951s1.08552.02497 1.41132-.82159c.3258-.84625.70567-2.36497-1.08586-2.98726-.21698-.59733.70599-.64724.70599-.64724s1.13993.34842 1.4654.87121c.3258.52278.2173-1.36904-1.19403-1.56834-1.73712-.0499-1.8456-.37336-1.8456-.44793 0-.07484-.2986-4.23212-.43428-5.4271z"/>
    <path stroke-width=".3857175" d="M305.4975 56.85855c.02137-.26703-2.9632-3.95292-2.20606-4.42935.75683.14286 1.99814 1.81932 3.00369 1.27515-.30475-.65346-1.20309-.28544-2.2232-1.95833-1.0198-1.89122-1.16877-4.73025-4.74083-7.82713 2.3126 3.27717 7.55863 5.19809 7.7808 4.24253.22216-.95556-4.61938-4.56896-4.3713-5.43987.96279 1.78844 5.82407 5.77344 9.40583 5.44344.24549-.76724-2.93309-2.31568-3.75113-3.76163-2.28799-1.40973-8.411-6.25062-8.53373-7.37332-2.22807-2.98056-3.619-3.88223-4.2667-4.22551-.25034-.27045-.31315-.52899-.36206-.69336-1.38315-2.99074.44885-3.9619 1.52112-4.1055.88248-.08995 1.13865.03121 1.77372-.25084-.75199-.2698-1.50363-.52213-2.2553-.79195.9803.65952 3.4843.07888 2.94153 1.97853 1.09784-.3831 3.43376-2.93211-2.64748-3.50738-1.97902-2.08237-10.11572-3.27912-12.15238 5.80936.16257.12742.24773.23212.76526.5866-2.56942-1.14229-9.50074-2.02316-11.9986-2.39334-6.74802-1.78574-13.75613-6.08913-14.42979-5.5599-.90103.36681 4.07716 4.61476 3.8184 4.7088-4.31648-2.30841-8.25975-3.94388-11.92892-5.43212-2.58127-.885-5.16667-2.94548-5.45176-2.55351-.94999 1.805 4.13839 6.34219 5.08488 6.87591.94678.51055 8.39095 3.67773 8.28118 3.71727-11.21232-4.66779-13.09218-5.51401-13.65483-6.0522-.98823-.20415-3.39555-3.18536-4.06644-2.99365-.36729.33096.36936 5.0415 5.71968 7.15601.87207.58296 11.46862 4.06956 11.36486 4.34292-.02592.06831-12.13684-4.58465-12.60727-4.751-2.33501-.83982-5.20015-3.78354-5.7358-3.4525-.51123.30037 1.3208 3.48658 3.68028 4.4859 1.23674.50058 5.9806 2.65562 10.2546 4.02722.27278.09048-7.68248-2.76697-11.50728-4.23293-1.7342-.8828-2.55087-1.9832-2.81502-1.74643-.39074.23672.63126 4.9435 12.92232 7.59935.32382.12641 4.32648-.8697 4.12865-.7376-.0495.03305-3.9747.81682-4.35688.79003-.34013-.04765-2.49051.2335-2.5294.3357-.12993.3184.7791 2.0037 7.12527 1.65225.8113-.04474 5.21405-1.47058 4.84416-1.16386-.18496.15345-5.99534 1.88515-6.43785 1.91931-.38434.04981-2.42553.24559-2.50099.44471-.09216.27158 1.51085 1.47103 4.9189 1.6632 3.01749.14704 8.75124-1.69109 8.63623-1.57192-.11504.11915-5.5275 1.82025-5.66914 1.92392-.19584.10158-2.1778.2002-2.24736.3398-.1615.34724 2.85898 2.93797 11.79195.17318-.8974 1.11179-5.22735 1.8722-5.22113 2.0724-.02007.14525.95395 1.00842 2.46777 1.31734.75685.15446 1.79316.12296 2.73975-.01426 1.70023-.31218 3.49207-.92912 5.76871-2.85895.27206.60565-5.6871 3.37162-5.40729 3.63539 1.29216 1.09903 5.58446-.14168 5.86555-.28574.28142-.14436 8.26557-4.27371 8.23804-4.75164.12404.61248-10.2935 5.80432-10.18113 6.0173.66874.97872 4.22752-.0514 4.39752-.14139.16972-.08971 4.54166-2.25596 4.66147-2.31983.11952-.06386-5.13816 2.82242-4.66987 3.26172-.22637 1.87429 8.21117-1.29357 8.87246-1.68804.33065-.19723-4.0533 1.76794-4.06495 2.70151 1.41168 2.18915 5.93194 1.49468 6.62918 1.01318.34879-.24088-.41032 1.62626-.1658 1.45666.08517-.03505.9832-1.00903 1.32843-1.71389-.11013.6116-.6056 1.57517-.8948 2.68073-.28952 1.10556-.37244 2.3531-.76978 3.67846-.09102.58218 2.78541-1.13822 2.36764-5.25095.24614 2.13923-.90838 6.13938-.60626 6.3473.60432.41585 2.27505-1.9922 2.44377-3.62054.49615.82248 1.53732 2.53934 2.43308 2.93439-.09747-1.24427.01716-1.18723-.38602-2.41013.2325-1.62357.2649-3.87063.32124-6.40789 2.43406 4.27668 3.40495 6.08264 2.72487 9.35774.7238.27683 1.87992-2.28597 1.78667-3.6051.92945 3.66539 4.94127 4.2149 5.00508 4.10826z"/>
    <path stroke-width=".3857175" d="M264.9557 29.70644s-1.65674 1.1481-3.7184 1.08059c.5154 1.89097 4.78605.43898 4.78605.43898s-2.06168 2.09358-3.5343 2.43124c.88357.67535 4.602.439 5.22798.10132.6257-.33769 1.73032-1.65461 1.73032-1.65461s-3.82896 4.05208-4.38118 4.01834c-.07365.47274 4.01298.3039 4.85984-.4052.84655-.70914 2.982-1.75592 2.982-1.75592s-5.5961 3.57934-5.8539 3.57934c2.09857.50654 6.29564-.60782 8.98324-2.12735-3.97621 2.43127-4.3441 2.87022-6.36913 3.68065 1.80416.37147 2.72422 1.48583 8.83589-.94549 3.49755-1.5195 5.48533-4.28847 5.48533-4.28847-2.17205 2.66766-5.59608 4.93024-9.3877 7.1588-.2212.40515 4.04938 2.05962 9.49814-3.14045M294.55565 40.9848s.3682 1.58705 1.84073 2.8028c1.47288 1.21546 1.58332 2.39736 1.58332 2.39736M293.81954 30.65197s.51524 1.4182 2.02469 2.32995c1.54639.91171 3.8661 3.78195 4.05005 4.28845.17811.61305 1.0674 5.03147.9939 5.50405"/>
    <path stroke-width=".3857175" d="M284.4315 32.84683c.11042.54027-2.17237 3.27547.95697 6.48337-2.83496 3.17392-2.83464 3.57937-2.83464 3.57937s1.58296.8103 4.41792-1.41834c4.6754 5.26789 3.11738 7.67862 3.11738 7.67862"/>
    <path stroke-width=".3857175" d="M289.7167 45.45098s-.43071-.56585.33713-2.67894c.6914.76397 1.46023.92704 1.79736 1.23626.3368.3092 3.86707.77793 4.09149 2.94181M293.86682 25.61695c0-.15897-.71085-1.558-3.36283.19078 1.42136.07946 2.82524.82668 3.36283-.19078zM319.1775 32.01449c.12986.05954 7.92359 1.60836 10.52152.83397-3.31232 4.0507-9.93698 1.31051-9.93698 1.31051 3.24722.89353 3.37742.83399 4.41631 1.66793.32483.7744-5.97499.41698-8.05345-.65526 5.78038 1.66795 5.91025 1.5488 6.10518 2.20406.26008.89354-9.48226-.23829-10.32654-1.42965 2.59791 1.84665 4.02673 2.20408 5.45556 3.03802-1.75363.71485-5.00088 1.42953-10.9762-2.44232 7.8585 6.55257 14.93784 6.13555 16.04215 7.32694-2.72777 3.69331-13.31438-2.20398-18.18538-5.18249-4.871-2.97844 10.65137 7.20796 12.08052 7.02915-.71472 1.01258-5.84546.1191-6.1703-.35733M321.19087 38.86493c-.90905.11914-3.63683.11914-4.02641.05956M262.6731 28.62591s5.9274 2.87022 8.43074 2.66762c-.66258.57404-1.6568.81043-1.6568.81043.626.23638 2.35632 1.08057 4.97042.54027-.626.57404-1.43594 1.21566-1.43594 1.21566s2.24588.77663 4.78615-.439c-.77303.87792-1.21509 1.51955-1.21509 1.51955l1.76726.10129"/>
  </g>
</svg>
